<svg xmlns="http://www.w3.org/2000/svg" width="4201" height="755" viewBox="0 0 4201 755">
  <g id="Group_654" data-name="Group 654" transform="translate(-2831 5236)">
    <g id="Group_651" data-name="Group 651" transform="translate(697.803 -128)">
      <path id="Polygon_1" data-name="Polygon 1" d="M242.2,39.729a30,30,0,0,1,50.607,0L505.629,373.884C518.348,393.855,504,420,480.325,420H54.675c-23.678,0-38.023-26.145-25.3-46.116Z" transform="translate(2553.197 -4995.122) rotate(90)" fill="#fff"/>
      <g id="Group_650" data-name="Group 650">
        <path id="Polygon_2" data-name="Polygon 2" d="M242.284,39.12a30,30,0,0,1,50.431,0l212.47,329.627C518.054,388.71,503.722,415,479.97,415H55.03c-23.751,0-38.084-26.29-25.216-46.253Z" transform="translate(2698.197 -4888) rotate(90)" fill="#fff"/>
        <path id="Polygon_3" data-name="Polygon 3" d="M242.284,39.12a30,30,0,0,1,50.431,0l212.47,329.627C518.054,388.71,503.722,415,479.97,415H55.03c-23.751,0-38.084-26.29-25.216-46.253Z" transform="translate(2698.197 -5108) rotate(90)" fill="#fff"/>
      </g>
      <path id="Path_442" data-name="Path 442" d="M165.053,0,340,244.932l-344.183.092Z" transform="translate(2528.197 -4895.5) rotate(90)" fill="#f5f5f5"/>
    </g>
    <text id="Cyberollie" transform="translate(3496 -4674)" fill="#fff" font-size="580" font-family="Archive"><tspan x="0" y="0">CYBEROLLIE</tspan></text>
  </g>
</svg>
