<svg width="70" height="75" viewBox="0 0 70 75" fill="none" xmlns="http://www.w3.org/2000/svg">
<path d="M69.1448 27.7717C63.0267 26.4801 56.8283 27.2047 50.7229 29.9265C50.2079 30.1561 49.9507 30.7628 50.1339 31.3156L50.8028 33.3338C48.0551 33.3347 45.7727 32.5827 43.3775 31.7906C42.649 31.5495 41.8956 31.3005 41.1213 31.07C37.519 29.9986 33.8885 30.9214 31.1602 33.6018L30.824 33.932C26.164 35.0307 22.9467 34.9608 19.1002 33.6258L19.866 31.3156C20.0492 30.7628 19.7919 30.1561 19.2769 29.9265C13.1715 27.2049 6.97333 26.4798 0.855018 27.7717C0.357643 27.8767 0 28.3334 0 28.8636V56.499C0 57.1143 0.477189 57.6129 1.06611 57.6129H10.3904C10.8447 57.6129 11.2491 57.3121 11.3978 56.8635L11.817 55.5987C15.3733 56.9964 18.1149 59.9767 19.6445 61.6406C19.7982 61.8078 19.9406 61.9627 20.0715 62.1028L31.0533 73.8597C31.7343 74.5886 32.6526 74.9936 33.6388 74.9999C33.6468 75 33.6544 75 33.6623 75C34.6542 75 35.5838 74.5992 36.2823 73.8694C36.7211 73.4109 37.0259 72.8648 37.1972 72.2844C38.8286 73.2368 40.9332 72.9897 42.3183 71.5429C43.0383 70.7905 43.448 69.8348 43.5472 68.851C43.9252 68.9626 44.3205 69.0202 44.7249 69.0202C45.8716 69.0202 46.9475 68.5561 47.754 67.7133C48.5276 66.905 48.9428 65.8617 48.9998 64.8015C50.3666 65.0973 51.8463 64.6926 52.9053 63.5866C54.4682 61.9537 54.5665 59.4025 53.1965 57.6038C53.5653 57.5278 53.9328 57.4133 54.2945 57.2591C55.3905 56.7919 56.4019 56.2608 57.3801 55.7474C57.6269 55.6179 57.8674 55.4919 58.1065 55.3681L58.6022 56.8635C58.7509 57.3121 59.1553 57.6129 59.6096 57.6129H68.9339C69.5228 57.6129 70 57.1143 70 56.499V28.8636C69.9999 28.3334 69.6422 27.8767 69.1448 27.7717ZM9.63149 55.3852H2.13236V29.7892C7.23702 28.8814 12.4052 29.4838 17.5211 31.5822L9.63149 55.3852ZM51.3976 62.0112C50.5583 62.8875 49.1933 62.8875 48.3546 62.0112L41.6461 54.8446C41.235 54.4042 40.56 54.3956 40.1386 54.8254C39.7172 55.2551 39.7091 55.9602 40.1203 56.4004L46.2373 62.9493C46.2386 62.9507 46.2399 62.9517 46.2412 62.953C46.243 62.955 46.2446 62.9572 46.2464 62.9591C47.0852 63.8354 47.0852 65.2616 46.2464 66.138C45.4075 67.0145 44.0422 67.0143 43.2038 66.1384L36.2104 58.674C35.799 58.2337 35.124 58.2251 34.7029 58.6549C34.2814 59.0845 34.2733 59.7897 34.6846 60.2299L40.8018 66.7788C40.8032 66.7803 40.8047 66.7816 40.8063 66.7831C40.8079 66.7847 40.8093 66.7867 40.8109 66.7883V66.7885C41.2148 67.2104 41.4372 67.7749 41.4372 68.378C41.4372 68.9811 41.2148 69.5455 40.8111 69.9673C39.9719 70.8437 38.6069 70.8435 37.7682 69.9676L30.1748 61.8765C29.7634 61.4361 29.0884 61.4275 28.6673 61.8573C28.2459 62.287 28.2378 62.9921 28.649 63.4323L34.766 69.9811C34.7674 69.9826 34.769 69.9839 34.7706 69.9855C34.7721 69.9872 34.7736 69.9891 34.7751 69.9907C35.3827 70.6258 35.3828 71.659 34.7753 72.2941C34.4775 72.6052 34.0806 72.773 33.6526 72.7723C33.2406 72.7696 32.8595 72.6031 32.5798 72.3039L21.598 60.547C21.4708 60.4108 21.3324 60.26 21.183 60.0975C19.5231 58.2919 16.5464 55.0562 12.5157 53.4928L18.4029 35.7313C20.7004 36.5301 22.8225 36.9219 25.0912 36.9219C26.0227 36.9219 26.9807 36.8533 27.9839 36.7223L25.5168 39.1459C24.3367 40.3054 23.7129 41.8128 23.7129 43.5054V54.6975C23.7129 55.3128 24.1901 55.8114 24.779 55.8114C29.3737 55.8114 34.1262 52.7752 34.1262 47.6939C34.1262 45.9399 35.4495 44.6863 36.4638 43.8198L48.0818 55.9509C48.6423 56.5362 49.2853 56.9804 49.9742 57.2771L51.3814 58.8139C52.2243 59.7355 52.2317 61.1398 51.3976 62.0112ZM56.4228 53.7567C55.4812 54.2508 54.5076 54.762 53.4887 55.1962C52.104 55.7869 50.6465 55.4798 49.5886 54.3754L37.2862 41.5299C36.8864 41.1126 36.2448 41.0935 35.8232 41.4862C35.71 41.5915 35.5551 41.7222 35.3757 41.8734C34.1937 42.8704 31.9934 44.7259 31.9934 47.694C31.9934 49.7884 30.815 51.1468 29.8265 51.9176C28.7306 52.7723 27.3206 53.3327 25.8446 53.5171V43.5056C25.8446 42.4127 26.2149 41.5174 26.9769 40.7689L32.6207 35.2247C34.7891 33.0944 37.6746 32.3609 40.5374 33.2124C41.2818 33.4337 42.02 33.678 42.7338 33.9142C45.3836 34.7904 48.1184 35.6925 51.5359 35.5455L57.403 53.2462C57.0721 53.416 56.7443 53.5878 56.4228 53.7567ZM67.8676 55.3852H60.3685L52.4789 31.5823C57.5946 29.4838 62.7626 28.8816 67.8676 29.7893V55.3852ZM10.1991 25.8557H24.6319V29.008C24.6319 29.6233 25.1091 30.1218 25.698 30.1218H44.3019C44.8908 30.1218 45.368 29.6233 45.368 29.008V25.8557H59.8008C60.3897 25.8557 60.8669 25.3572 60.8669 24.7419V20.0846C60.8669 16.2749 58.692 12.9421 55.4712 11.4822C56.5247 10.2624 57.1668 8.65502 57.1668 6.89482C57.1668 3.09298 54.1756 0 50.4989 0C46.8221 0 43.8309 3.09298 43.8309 6.89482C43.8309 8.6565 44.474 10.2652 45.5292 11.4854C43.4918 12.4162 41.84 14.1152 40.9206 16.248C40.6164 16.0625 40.2994 15.8965 39.9723 15.7482C41.0258 14.5285 41.6679 12.9211 41.6679 11.1611C41.6679 7.35907 38.6766 4.2661 35 4.2661C31.3232 4.2661 28.332 7.35907 28.332 11.1611C28.332 12.9213 28.9741 14.5286 30.0275 15.7484C29.7006 15.8966 29.3836 16.0627 29.0794 16.2482C28.1601 14.1152 26.5082 12.4163 24.471 11.4856C25.5262 10.2655 26.1692 8.6568 26.1692 6.89511C26.1692 3.09327 23.178 0.000297044 19.5014 0.000297044C15.8246 0.000297044 12.8334 3.09327 12.8334 6.89511C12.8334 8.65531 13.4754 10.2628 14.5289 11.4824C11.3081 12.9424 9.13327 16.2752 9.13327 20.0849V24.7422C9.13298 25.357 9.61031 25.8557 10.1991 25.8557ZM43.2357 27.894H26.7643V24.3507C26.7643 20.9842 28.991 18.1044 32.1063 17.3718C32.9821 17.8098 33.9637 18.0556 35.0001 18.0556C36.0364 18.0556 37.0182 17.8098 37.8938 17.3718C41.0091 18.1044 43.2359 20.9842 43.2359 24.3507V27.894H43.2357ZM50.4989 2.22758C52.9999 2.22758 55.0346 4.3212 55.0346 6.89467C55.0346 9.46814 52.9999 11.5619 50.4989 11.5619C47.9978 11.5619 45.9631 9.46814 45.9631 6.89467C45.9631 4.3212 47.9978 2.22758 50.4989 2.22758ZM47.6059 13.1062C48.4814 13.544 49.4629 13.7896 50.4989 13.7896C51.5352 13.7896 52.517 13.5437 53.3928 13.1057C56.5081 13.8386 58.7348 16.7182 58.7348 20.0846V23.628H45.34C45.1707 21.306 44.1934 19.2017 42.6755 17.6479C43.471 15.3672 45.3317 13.6439 47.6059 13.1062ZM35 6.49368C37.5009 6.49368 39.5356 8.58744 39.5356 11.1609C39.5356 13.7344 37.5009 15.8279 35 15.8279C32.4989 15.8279 30.4642 13.7342 30.4642 11.1608C30.4642 8.58729 32.4989 6.49368 35 6.49368ZM19.5012 2.22758C22.0022 2.22758 24.0369 4.3212 24.0369 6.89467C24.0369 9.46814 22.0022 11.5619 19.5012 11.5619C17.0001 11.5619 14.9654 9.46814 14.9654 6.89467C14.9654 4.3212 17.0001 2.22758 19.5012 2.22758ZM11.2652 20.0844C11.2652 16.7181 13.4919 13.8385 16.6072 13.1056C17.483 13.5435 18.4648 13.7895 19.5012 13.7895C20.5372 13.7895 21.5186 13.5438 22.3942 13.106C24.6683 13.6438 26.5291 15.3669 27.3246 17.6478C25.8067 19.2014 24.8295 21.3057 24.6602 23.6279H11.2652V20.0844Z" fill="black"/>
</svg>
