<svg width="3217" height="946" viewBox="0 0 3217 946" fill="none" xmlns="http://www.w3.org/2000/svg">
<path d="M1229.59 358.554C1251.49 379.964 1263.17 408.494 1264.64 439C1257.69 440.199 1250.7 440.427 1243.66 440.754C1242.28 440.82 1240.91 440.886 1239.53 440.952C1236.64 441.089 1233.75 441.224 1230.87 441.358C1227.95 441.493 1225.03 441.631 1222.11 441.774C1205.95 442.561 1189.82 443.254 1173.64 443C1173.53 441.752 1173.42 440.504 1173.3 439.218C1171.86 423.558 1169.39 409.477 1157.01 398.688C1147.93 391.888 1137.86 389.622 1126.64 391C1115.97 393.676 1108.01 399.02 1101.64 408C1090.75 427.461 1089.42 449.668 1089.45 471.5C1089.45 472.304 1089.45 473.107 1089.45 473.935C1089.48 508.641 1089.48 508.641 1104.76 538.875C1114.89 548.099 1126.66 549.626 1139.72 549.132C1149.19 548.483 1157.46 543.654 1163.89 536.813C1171.38 527.249 1173.35 515.619 1175.64 504C1186.85 503.881 1197.98 504.228 1209.17 504.875C1210.78 504.965 1212.4 505.055 1214.01 505.144C1218.2 505.377 1222.39 505.615 1226.58 505.855C1230.88 506.099 1235.17 506.339 1239.47 506.578C1247.86 507.047 1256.25 507.522 1264.64 508C1264.5 509.571 1264.35 511.142 1264.2 512.712C1264.12 513.587 1264.04 514.462 1263.95 515.363C1263.47 519.403 1262.52 523.266 1261.45 527.188C1261.23 528.007 1261.01 528.827 1260.78 529.671C1255.38 549.055 1246.74 564.726 1232.64 579C1232 579.716 1231.35 580.431 1230.69 581.168C1220.71 592.011 1206.89 598.985 1193.64 605C1192.09 605.708 1192.09 605.708 1190.51 606.43C1153.12 622.11 1104.75 620.029 1067.64 605C1052.89 598.745 1040.22 590.098 1028.64 579C1027.79 578.196 1026.95 577.392 1026.08 576.563C1025.27 575.717 1024.47 574.872 1023.64 574C1022.66 572.995 1022.66 572.995 1021.66 571.969C993.41 542.018 987.721 501.334 988.503 461.773C989.942 421.924 1005.23 384.862 1034.07 357.227C1039.19 352.497 1044.68 348.623 1050.64 345C1051.76 344.315 1052.89 343.629 1054.05 342.922C1104.97 313.292 1186.27 317.509 1229.59 358.554Z" fill="url(#paint0_linear_295_304)"/>
<path d="M1537.64 330C1568 330 1598.36 330 1629.64 330C1629.97 360.69 1630.3 391.38 1630.64 423C1634.1 419.04 1634.1 419.04 1637.64 415C1651.92 400.957 1671.21 396.74 1690.71 396.751C1714.88 397.111 1735.71 405.715 1752.64 423C1775.04 446.919 1779.54 481.439 1778.78 512.83C1777.41 543.619 1767.48 573.469 1744.64 595C1721.22 613.881 1692.24 618.237 1662.99 615.777C1642.28 613.421 1624.23 606.054 1609.26 591.516C1606.82 589.176 1604.31 587.067 1601.64 585C1600.36 587.81 1599.09 590.623 1597.83 593.438C1597.47 594.221 1597.11 595.004 1596.75 595.811C1596.39 596.594 1596.04 597.377 1595.68 598.184C1595.36 598.891 1595.04 599.598 1594.71 600.326C1593.18 604.15 1591.94 608.09 1590.64 612C1573.15 612 1555.66 612 1537.64 612C1537.64 518.94 1537.64 425.88 1537.64 330ZM1637.64 456C1628.85 464.989 1629.18 474.551 1629.21 486.363C1629.2 487.962 1629.2 489.561 1629.19 491.16C1629.18 494.503 1629.18 497.845 1629.19 501.188C1629.2 505.445 1629.18 509.701 1629.15 513.957C1629.14 517.258 1629.14 520.558 1629.14 523.859C1629.14 525.426 1629.14 526.994 1629.12 528.562C1629.05 538.829 1629.26 548.741 1636.14 557C1636.96 557.66 1637.79 558.32 1638.64 559C1639.24 559.557 1639.83 560.114 1640.45 560.688C1646.78 564.482 1654.9 565.075 1662 563.465C1669.83 561.061 1675 557.528 1679.32 550.512C1690.53 529.135 1687.87 492.592 1682.33 469.75C1679.8 461.797 1676.22 456.592 1669.05 452.188C1658.53 447.006 1646.71 448.619 1637.64 456Z" fill="url(#paint1_linear_295_304)"/>
<path d="M2024.2 430.649C2046.18 451.254 2054.75 479.963 2055.71 509.304C2055.78 514.388 2055.28 518.836 2054.64 524C2003.16 524 1951.68 524 1898.64 524C1900.83 542.005 1900.83 542.005 1911.11 555.664C1922.27 561.542 1936.04 561.611 1948.29 559.317C1956.33 556.601 1961.61 552.41 1965.51 544.875C1966.9 541.932 1967.89 539.157 1968.64 536C1978.45 535.885 1988.15 536.215 1997.94 536.84C1999.36 536.928 2000.78 537.015 2002.2 537.102C2005.14 537.283 2008.08 537.468 2011.03 537.654C2014.78 537.892 2018.53 538.124 2022.28 538.353C2025.2 538.533 2028.12 538.714 2031.03 538.897C2032.42 538.983 2033.8 539.069 2035.18 539.154C2042.04 539.577 2048.84 540.035 2055.64 541C2053.84 553.599 2046.96 565.546 2038.64 575C2037.71 576.158 2037.71 576.158 2036.76 577.34C2017.17 600.836 1986.3 612.607 1956.56 615.707C1935.63 617.271 1913.16 617.866 1892.64 613C1891.9 612.834 1891.16 612.668 1890.39 612.496C1866.83 607.092 1846.71 596.046 1829.64 579C1828.76 578.138 1827.89 577.275 1826.99 576.387C1808.44 557.12 1801.09 532.464 1801.29 506.169C1802.02 476.239 1814.44 450.48 1835.55 429.673C1854.76 411.391 1880.41 400.983 1906.64 398C1907.93 397.836 1907.93 397.836 1909.25 397.668C1950.84 393.257 1992.82 401.989 2024.2 430.649ZM1904.64 457C1898.74 464.752 1898.64 472.407 1898.64 482C1919.76 482 1940.88 482 1962.64 482C1962.64 472.008 1962.4 462.886 1955.64 455C1946.94 447.076 1937.17 446.377 1925.9 446.723C1916.78 447.201 1910.82 450.228 1904.64 457Z" fill="url(#paint2_linear_295_304)"/>
<path d="M3173.06 425.632C3173.91 426.413 3174.76 427.195 3175.64 427.999C3176.56 428.842 3177.49 429.686 3178.44 430.554C3197.91 449.135 3208.92 475.099 3209.73 501.975C3210.01 517.637 3210.01 517.637 3209.64 522.999C3208.64 523.999 3208.64 523.999 3206.08 524.122C3204.93 524.122 3203.78 524.121 3202.6 524.12C3201.28 524.121 3199.97 524.122 3198.61 524.124C3197.14 524.12 3195.67 524.117 3194.2 524.113C3192.67 524.113 3191.13 524.113 3189.59 524.113C3185.41 524.114 3181.22 524.108 3177.04 524.101C3172.67 524.095 3168.3 524.094 3163.93 524.093C3155.65 524.09 3147.37 524.081 3139.09 524.071C3129.66 524.06 3120.24 524.055 3110.81 524.05C3091.42 524.039 3072.03 524.022 3052.64 523.999C3053.08 526.88 3053.54 529.758 3053.99 532.636C3054.12 533.446 3054.24 534.256 3054.37 535.09C3055.64 542.963 3057.89 548.993 3063.33 554.937C3070.86 559.629 3078.85 560.534 3087.58 560.437C3088.54 560.429 3089.51 560.42 3090.5 560.412C3100.71 560.17 3108.46 558.102 3115.99 550.929C3118.58 547.902 3120.18 544.683 3121.64 540.999C3122.31 539.333 3122.97 537.666 3123.64 535.999C3133.38 535.886 3143 536.21 3152.72 536.839C3154.12 536.927 3155.52 537.014 3156.91 537.101C3159.81 537.283 3162.7 537.467 3165.6 537.654C3169.29 537.891 3172.98 538.123 3176.67 538.353C3179.54 538.532 3182.41 538.713 3185.29 538.896C3187.3 539.024 3189.32 539.15 3191.33 539.276C3197.47 539.674 3203.55 540.139 3209.64 540.999C3207.44 560.52 3193.68 577.192 3179 589.359C3156.14 607.52 3126.7 616.036 3097.71 616.203C3096.48 616.213 3096.48 616.213 3095.22 616.224C3060.62 616.454 3060.62 616.454 3046.64 612.999C3045.84 612.806 3045.04 612.613 3044.21 612.414C3025.69 607.779 3008.47 600.107 2993.64 587.999C2993.12 587.574 2992.6 587.149 2992.06 586.711C2971.95 569.985 2958.85 546.843 2956.04 520.705C2954.23 499.006 2957.83 478.403 2967.64 458.999C2968.17 457.941 2968.71 456.883 2969.26 455.792C2973.71 447.643 2979.45 440.861 2985.64 433.999C2986.21 433.343 2986.78 432.687 2987.37 432.011C2997.31 421.284 3010.42 413.863 3023.64 407.999C3024.72 407.517 3025.79 407.035 3026.9 406.539C3071.79 387.928 3135.69 393.249 3173.06 425.632ZM3059.64 455.999C3054.33 464.435 3052.64 472.128 3052.64 481.999C3074.09 481.999 3095.54 481.999 3117.64 481.999C3116.22 465.158 3116.22 465.158 3106.89 452.562C3093.1 443.582 3071.37 443.454 3059.64 455.999Z" fill="url(#paint3_linear_295_304)"/>
<path d="M2484.39 430.938C2503.85 449.088 2514.65 473.49 2516.02 499.911C2516.95 531.226 2507.01 557.241 2485.64 580.001C2461.14 605.121 2427.58 615.75 2393.14 616.323C2362.42 616.682 2362.42 616.682 2347.64 613.001C2346.95 612.84 2346.26 612.679 2345.54 612.513C2327.94 608.322 2311.69 600.388 2297.64 589.001C2296.19 587.831 2296.19 587.831 2294.72 586.637C2276.1 570.588 2261.57 546.614 2258.64 522.001C2256.84 497.697 2259.36 476.18 2271.64 455.001C2272.18 454.02 2272.73 453.039 2273.29 452.028C2288.42 426.371 2316.17 409.195 2344.49 401.77C2393.14 389.947 2446.1 397.295 2484.39 430.938ZM2369.08 456.501C2357.14 469.364 2357.14 488.597 2357.3 505.177C2357.33 507.697 2357.32 510.217 2357.32 512.737C2357.34 529.133 2357.4 547.844 2369.58 560.223C2375.4 565.243 2382.2 565.98 2389.64 566.001C2397.4 565.418 2403.94 562.078 2409.17 556.309C2417.85 543.176 2417.83 521.998 2417.82 506.846C2417.83 504.834 2417.84 502.823 2417.86 500.811C2417.89 485.16 2417.38 466.464 2405.7 454.743C2395.29 445.948 2378.66 447.283 2369.08 456.501Z" fill="url(#paint4_linear_295_304)"/>
<path d="M1270.64 401C1303.31 401 1335.98 401 1369.64 401C1386.77 450.099 1386.77 450.099 1394.75 473.145C1399.01 485.443 1403.29 497.733 1407.64 510C1411.31 501.431 1414.61 492.77 1417.74 483.988C1418.21 482.659 1418.69 481.329 1419.17 480C1420.17 477.207 1421.17 474.413 1422.16 471.619C1423.71 467.286 1425.26 462.955 1426.81 458.625C1427.07 457.91 1427.32 457.196 1427.59 456.46C1428.1 455.025 1428.62 453.591 1429.13 452.156C1429.89 450.029 1430.65 447.902 1431.42 445.776C1436.77 430.83 1442.2 415.913 1447.64 401C1470.08 401 1492.52 401 1515.64 401C1513.82 407.056 1512.08 412.737 1509.65 418.504C1509.37 419.199 1509.08 419.895 1508.78 420.612C1508.15 422.128 1507.52 423.645 1506.89 425.16C1505.1 429.451 1503.33 433.749 1501.56 438.047C1501.17 438.984 1500.78 439.92 1500.38 440.885C1495.25 453.332 1490.23 465.824 1485.2 478.312C1484.21 480.778 1483.21 483.244 1482.22 485.71C1480.75 489.358 1479.28 493.006 1477.81 496.655C1473.43 507.524 1469.04 518.388 1464.64 529.25C1464.3 530.097 1463.95 530.945 1463.6 531.818C1460.02 540.656 1456.44 549.492 1452.86 558.328C1452.55 559.089 1452.24 559.851 1451.92 560.635C1450.39 564.419 1448.85 568.203 1447.32 571.986C1444.31 579.398 1441.31 586.814 1438.34 594.242C1436.83 598.016 1435.32 601.787 1433.8 605.559C1433.08 607.359 1432.36 609.16 1431.65 610.962C1421.3 637.015 1409.53 663.946 1382.55 676.43C1369.28 681.868 1355.32 684.171 1341.04 684.133C1340.25 684.134 1339.45 684.136 1338.64 684.137C1336.1 684.139 1333.56 684.133 1331.01 684.125C1330.15 684.124 1329.28 684.123 1328.39 684.121C1317.86 684.104 1307.35 684.012 1296.83 683.562C1295.9 683.523 1294.97 683.484 1294.01 683.444C1287.91 683.135 1287.91 683.135 1285.64 682C1285.64 662.53 1285.64 643.06 1285.64 623C1293.89 623.66 1302.14 624.32 1310.64 625C1333.98 625.756 1333.98 625.756 1355.2 617.188C1357.56 613.59 1358.09 610.316 1357.26 606.06C1354.66 597.105 1350.72 588.695 1346.95 580.188C1346.19 578.457 1345.43 576.727 1344.67 574.996C1343.49 572.323 1342.32 569.65 1341.14 566.977C1337.18 557.982 1333.28 548.962 1329.39 539.938C1328.39 537.621 1327.39 535.305 1326.39 532.989C1325.74 531.482 1325.08 529.975 1324.43 528.469C1321.34 521.31 1318.24 514.155 1315.14 507C1308.67 492.078 1302.21 477.15 1295.76 462.221C1293.27 456.452 1290.77 450.683 1288.28 444.914C1287.2 442.43 1286.13 439.945 1285.05 437.461C1284.37 435.891 1283.69 434.322 1283.01 432.752C1282.53 431.64 1282.53 431.64 1282.04 430.506C1281.73 429.78 1281.41 429.055 1281.09 428.307C1280.18 426.211 1279.28 424.113 1278.38 422.016C1277.21 419.316 1276.03 416.623 1274.85 413.933C1274.42 412.968 1274.42 412.968 1273.99 411.983C1273.23 410.239 1272.46 408.497 1271.69 406.756C1270.64 404 1270.64 404 1270.64 401Z" fill="url(#paint5_linear_295_304)"/>
<path d="M2689.64 330C2720 330 2750.36 330 2781.64 330C2781.64 423.06 2781.64 516.12 2781.64 612C2751.28 612 2720.92 612 2689.64 612C2689.64 518.94 2689.64 425.88 2689.64 330Z" fill="url(#paint6_linear_295_304)"/>
<path d="M2550.64 330C2581 330 2611.36 330 2642.64 330C2642.64 423.06 2642.64 516.12 2642.64 612C2612.28 612 2581.92 612 2550.64 612C2550.64 518.94 2550.64 425.88 2550.64 330Z" fill="url(#paint7_linear_295_304)"/>
<path d="M2242.64 398C2242.64 422.42 2242.64 446.84 2242.64 472C2239.01 471.67 2235.38 471.34 2231.64 471C2217.23 470.197 2203.14 471.659 2191.89 481.375C2191.15 482.242 2190.4 483.108 2189.64 484C2188.79 484.929 2187.95 485.857 2187.08 486.813C2178.57 499.429 2180.03 517.083 2180.03 531.532C2180.01 533.863 2180 536.194 2179.98 538.525C2179.94 544.608 2179.92 550.69 2179.9 556.773C2179.88 564.1 2179.82 571.426 2179.78 578.753C2179.71 589.835 2179.68 600.918 2179.64 612C2150.27 612 2120.9 612 2090.64 612C2090.64 542.37 2090.64 472.74 2090.64 401C2116.05 401 2141.46 401 2167.64 401C2169.64 403.005 2168.89 407.001 2168.96 409.754C2168.98 410.53 2169 411.305 2169.02 412.104C2169.08 414.59 2169.14 417.077 2169.2 419.563C2169.24 421.245 2169.29 422.926 2169.33 424.608C2169.44 428.739 2169.54 432.869 2169.64 437C2170.15 435.885 2170.66 434.77 2171.19 433.621C2177.86 419.182 2186.55 407.844 2201.83 401.723C2216.13 396.798 2225.56 398 2242.64 398Z" fill="url(#paint8_linear_295_304)"/>
<path d="M2828.64 401C2859 401 2889.36 401 2920.64 401C2922.43 402.796 2921.76 405.235 2921.77 407.625C2921.76 408.44 2921.76 409.254 2921.76 410.093C2921.76 410.951 2921.76 411.809 2921.76 412.694C2921.76 415.593 2921.76 418.492 2921.75 421.391C2921.75 423.46 2921.75 425.529 2921.75 427.598C2921.75 433.234 2921.75 438.87 2921.74 444.507C2921.73 450.39 2921.73 456.273 2921.73 462.156C2921.73 473.305 2921.72 484.453 2921.71 495.602C2921.7 510.662 2921.69 525.721 2921.69 540.781C2921.68 564.521 2921.66 588.26 2921.64 612C2890.95 612 2860.26 612 2828.64 612C2828.64 542.37 2828.64 472.74 2828.64 401Z" fill="url(#paint9_linear_295_304)"/>
<path d="M2828.64 321C2859.33 321 2890.02 321 2921.64 321C2921.64 342.78 2921.64 364.56 2921.64 387C2890.95 387 2860.26 387 2828.64 387C2828.64 365.22 2828.64 343.44 2828.64 321Z" fill="url(#paint10_linear_295_304)"/>
<g filter="url(#filter0_d_295_304)">
<g filter="url(#filter1_d_295_304)">
<path d="M1536.96 687.269L1535.94 687.612V688.691V811.493V812.78L1537.21 812.976C1541.06 813.568 1547.27 814.152 1555.35 814.152C1570.17 814.152 1580.65 810.624 1587.19 801.971L1587.19 801.965L1587.2 801.959C1592.12 795.305 1595.03 786.876 1595.03 776.158C1595.03 758.673 1586.46 748.44 1578.01 744.428C1586.71 739.036 1591.73 728.73 1591.73 717.075C1591.73 706.987 1588.84 699.031 1583.78 694.029C1577.76 687.272 1569.76 684.295 1558.18 684.295C1550.52 684.295 1542.34 685.467 1536.96 687.269ZM1550.72 797.578V752.751H1558.65C1564.76 752.751 1570.13 754.417 1573.96 757.931C1577.76 761.424 1580.25 766.921 1580.25 775C1580.25 783.647 1577.54 789.284 1573.62 792.779C1569.67 796.302 1564.29 797.829 1558.65 797.829C1555.31 797.829 1552.71 797.822 1550.72 797.578ZM1559.12 738.165H1550.25V700.848C1552.08 700.422 1554.95 700.039 1559.12 700.039C1564.54 700.039 1568.94 701.425 1571.99 704.331C1575.03 707.223 1576.95 711.844 1576.95 718.812C1576.95 724.588 1575.16 729.42 1572.09 732.791C1569.04 736.148 1564.62 738.165 1559.12 738.165Z" fill="#FF9696" stroke="#FF9696" stroke-width="3"/>
<path d="M1606.89 749.512V751.012H1607.84V810.334V811.834H1609.34H1620.65H1622.15V810.334V762.835C1622.15 760.477 1622.16 757.743 1622.59 755.604L1622.6 755.541L1622.61 755.478C1623.3 749.583 1625.11 744.636 1627.63 741.204C1630.14 737.784 1633.27 735.951 1636.68 735.951C1638.07 735.951 1638.76 735.959 1639.88 736.419L1641.95 737.266V735.031V719.97V719.131L1641.23 718.692C1639.92 717.888 1638.59 717.889 1637.31 717.891C1637.26 717.891 1637.2 717.891 1637.15 717.891C1629.92 717.891 1623.74 723.255 1620.06 731.722L1619.79 721.667L1619.75 720.208H1618.29H1607.92H1606.33L1606.42 721.795C1606.89 729.852 1606.89 739.073 1606.89 749.512Z" fill="#FF9696" stroke="#FF9696" stroke-width="3"/>
<path d="M1650.73 810.913V812.413H1652.23H1663.54H1665.04V810.913V721.709V720.209H1663.54H1652.23H1650.73V721.709V810.913ZM1657.41 708.148C1660.26 708.148 1662.58 706.903 1664.16 704.793C1665.7 702.727 1666.46 699.921 1666.46 696.801C1666.46 693.69 1665.7 690.749 1664.17 688.614C1662.62 686.443 1660.26 685.126 1657.32 685.454C1654.71 685.483 1652.54 686.771 1651.07 688.835C1649.6 690.889 1648.84 693.679 1648.84 696.801C1648.84 699.659 1649.62 702.428 1651.05 704.526C1652.49 706.639 1654.68 708.148 1657.41 708.148Z" fill="#FF9696" stroke="#FF9696" stroke-width="3"/>
<path d="M1739.85 680V678.5H1738.35H1727.04H1725.54V680V727.633C1721.83 722.186 1715.65 717.889 1707.24 717.889C1698.8 717.889 1691.19 722.924 1685.76 731.551C1680.33 740.174 1676.98 752.49 1676.98 767.467C1676.98 780.991 1679.97 792.577 1685.04 800.835C1690.12 809.101 1697.38 814.149 1705.82 814.149C1715.19 814.149 1722.28 808.465 1726.64 800.671L1726.95 810.957L1727 812.411H1728.45H1738.82H1740.44L1740.32 810.801C1739.85 804.497 1739.85 795.871 1739.85 787.741V680ZM1725.09 751.515L1725.09 751.531L1725.1 751.547C1725.44 753.227 1725.51 754.92 1725.53 756.699H1725.07V758.199V773.26C1725.07 775.6 1725.06 777.767 1724.62 779.912L1724.62 779.912L1724.62 779.926C1722.32 791.823 1715.58 798.406 1709.12 798.406C1703.73 798.406 1699.44 795.132 1696.42 789.429C1693.39 783.703 1691.77 775.712 1691.77 766.888C1691.77 757.206 1693.63 748.934 1696.82 743.14C1700.02 737.361 1704.42 734.212 1709.6 734.212C1717.45 734.212 1723.25 741.353 1725.09 751.515Z" fill="#FF9696" stroke="#FF9696" stroke-width="3"/>
<path d="M1814.29 721.71L1812.79 721.655V720.789H1802.9H1801.45L1801.4 722.236L1801.11 730.286C1797.56 724.076 1791.52 718.473 1782.15 718.473C1774.21 718.473 1766.6 723.195 1761.04 731.599C1755.48 740.008 1751.9 752.189 1751.9 767.471C1751.9 779.848 1754.77 790.997 1759.78 799.105C1764.8 807.219 1772.05 812.415 1780.74 812.415C1789.4 812.415 1795.96 807.494 1799.98 801.131V803.964C1799.98 815.097 1797.77 822.548 1794.33 827.181C1790.93 831.747 1786.22 833.744 1780.74 833.744C1773.16 833.744 1766.89 830.454 1762.83 827.133L1760.95 825.587L1760.42 827.968L1757.59 840.712L1757.41 841.513L1757.99 842.094C1763.56 847.694 1772.5 850.067 1780.27 850.067C1788.54 850.067 1798.03 847.669 1804.55 839.066C1811.02 831.102 1813.82 818.471 1813.82 797.592V746.039C1813.82 736.148 1813.82 729.587 1814.16 723.789H1814.29V722.289V721.71ZM1793.15 738.322C1795.65 741.265 1797.46 745.358 1798.6 749.849C1799.03 751.979 1799.04 754.132 1799.04 757.045V772.106C1799.04 774.846 1798.59 777.607 1798.12 780.508C1795.84 790.553 1789.64 796.092 1783.57 796.092C1778.15 796.092 1773.86 792.929 1770.86 787.457C1767.84 781.955 1766.21 774.262 1766.21 765.734C1766.21 755.771 1768.18 747.651 1771.38 742.078C1774.56 736.515 1778.85 733.637 1783.57 733.637C1787.53 733.637 1790.67 735.407 1793.15 738.322Z" fill="#FF9696" stroke="#FF9696" stroke-width="3"/>
<path d="M1829.27 810.913V812.413H1830.77H1842.08H1843.58V810.913V721.709V720.209H1842.08H1830.77H1829.27V721.709V810.913ZM1835.96 708.148C1838.8 708.148 1841.12 706.903 1842.7 704.793C1844.24 702.727 1845 699.921 1845 696.801C1845 693.69 1844.24 690.749 1842.71 688.614C1841.16 686.443 1838.8 685.126 1835.86 685.454C1833.25 685.483 1831.08 686.771 1829.61 688.835C1828.14 690.889 1827.38 693.679 1827.38 696.801C1827.38 699.659 1828.16 702.428 1829.59 704.526C1831.04 706.639 1833.22 708.148 1835.96 708.148Z" fill="#FF9696" stroke="#FF9696" stroke-width="3"/>
<path d="M1859.78 746.037V747.537H1860.72V810.913V812.413H1862.22H1873.54H1875.04V810.913V757.042C1875.04 754.283 1875.49 751.519 1875.93 749.905L1875.94 749.858L1875.95 749.811C1876.85 745.395 1878.75 741.449 1881.26 738.635C1883.76 735.825 1886.8 734.213 1890.04 734.213C1892.45 734.213 1894.4 734.883 1896.01 736.053C1897.63 737.236 1898.98 738.985 1900.05 741.248C1902.21 745.805 1903.15 752.206 1903.15 759.359V810.913V812.413H1904.65H1915.96H1917.46V810.913V757.622C1917.46 742.07 1914 732.137 1909.18 726.061C1904.34 719.959 1898.24 717.891 1893.34 717.891C1883.71 717.891 1876.97 724.19 1872.98 731.042L1872.68 721.659L1872.63 720.208H1871.18H1860.81H1859.21L1859.31 721.801C1859.78 729.276 1859.78 736.758 1859.78 746.037Z" fill="#FF9696" stroke="#FF9696" stroke-width="3"/>
<path d="M1991.7 721.71L1990.2 721.655V720.789H1980.3H1978.85L1978.8 722.236L1978.52 730.286C1974.97 724.076 1968.93 718.473 1959.56 718.473C1951.61 718.473 1944.01 723.195 1938.45 731.599C1932.89 740.008 1929.3 752.189 1929.3 767.471C1929.3 779.848 1932.18 790.997 1937.19 799.105C1942.2 807.219 1949.46 812.415 1958.14 812.415C1966.8 812.415 1973.37 807.495 1977.39 801.132V803.964C1977.39 815.097 1975.17 822.548 1971.73 827.181C1968.34 831.747 1963.63 833.744 1958.14 833.744C1950.57 833.744 1944.29 830.454 1940.24 827.133L1938.35 825.587L1937.82 827.968L1935 840.712L1934.82 841.513L1935.4 842.094C1940.97 847.694 1949.91 850.067 1957.67 850.067C1965.95 850.067 1975.44 847.669 1981.95 839.066C1988.42 831.102 1991.23 818.471 1991.23 797.592V746.039C1991.23 736.148 1991.23 729.587 1991.57 723.789H1991.7V722.289V721.71ZM1970.55 738.322C1973.06 741.265 1974.86 745.358 1976.01 749.849C1976.44 751.979 1976.44 754.132 1976.44 757.045V772.106C1976.44 774.846 1976 777.607 1975.53 780.508C1973.24 790.553 1967.04 796.092 1960.97 796.092C1955.55 796.092 1951.27 792.929 1948.26 787.457C1945.24 781.955 1943.62 774.262 1943.62 765.734C1943.62 755.771 1945.59 747.651 1948.78 742.078C1951.97 736.515 1956.26 733.637 1960.97 733.637C1964.93 733.637 1968.07 735.407 1970.55 738.322Z" fill="#FF9696" stroke="#FF9696" stroke-width="3"/>
<path d="M2020.18 700.27V701.77H2021.68H2047.53V810.907V812.407H2049.03H2060.34H2061.84V810.907V701.77H2087.68H2089.18V700.27V686.947V685.447H2087.68H2021.68H2020.18V686.947V700.27Z" fill="#FF9696" stroke="#FF9696" stroke-width="3"/>
<path d="M2088.96 749.512V751.012H2089.91V810.334V811.834H2091.41H2102.72H2104.22V810.334V762.835C2104.22 760.477 2104.23 757.743 2104.66 755.604L2104.67 755.541L2104.68 755.478C2105.37 749.583 2107.18 744.636 2109.7 741.204C2112.21 737.784 2115.34 735.951 2118.75 735.951C2120.14 735.951 2120.83 735.959 2121.95 736.419L2124.02 737.266V735.031V719.97V719.131L2123.3 718.692C2122 717.888 2120.66 717.889 2119.38 717.891C2119.33 717.891 2119.27 717.891 2119.22 717.891C2111.99 717.891 2105.81 723.255 2102.14 731.722L2101.86 721.667L2101.82 720.208H2100.36H2089.99H2088.4L2088.49 721.795C2088.96 729.852 2088.96 739.073 2088.96 749.512Z" fill="#FF9696" stroke="#FF9696" stroke-width="3"/>
<path d="M2188.69 786.586V785.086H2187.75V722.289V720.789H2186.25H2174.94H2173.44V722.289V776.739C2173.44 779.457 2173 782.208 2172.54 784.473C2171.41 788.043 2169.52 791.566 2167.07 794.176C2164.6 796.8 2161.67 798.409 2158.44 798.409C2156.14 798.409 2154.28 797.776 2152.75 796.633C2151.2 795.478 2149.89 793.738 2148.85 791.403C2146.74 786.699 2145.8 779.859 2145.8 771.526V722.289V720.789H2144.3H2132.98H2131.48V722.289V774.422C2131.48 789.941 2134.58 800.005 2139.14 806.227C2143.74 812.504 2149.75 814.732 2155.14 814.732C2161.27 814.732 2166.22 812.055 2169.96 808.531C2172.22 806.4 2174.06 803.941 2175.49 801.527L2175.8 810.964L2175.84 812.415H2177.29H2187.67H2189.27L2189.16 810.813C2188.69 803.924 2188.69 795.87 2188.69 786.586Z" fill="#FF9696" stroke="#FF9696" stroke-width="3"/>
<path d="M2205.49 793.569L2203.57 791.883L2203.04 794.382L2200.68 805.388L2200.51 806.208L2201.11 806.787C2205.69 811.166 2212.7 813.574 2220.06 813.574C2227.99 813.574 2234.43 810.666 2238.87 805.605C2243.28 800.566 2245.6 793.525 2245.6 785.428V785.402L2245.6 785.375C2245.36 778.505 2243.77 773.006 2240.76 768.453C2237.75 763.911 2233.4 760.433 2227.85 757.463C2223.58 755.136 2220.75 753.363 2218.94 751.339C2217.23 749.417 2216.38 747.187 2216.38 743.722C2216.38 740.771 2217.14 738.077 2218.6 736.159C2220.03 734.291 2222.17 733.058 2225.25 733.058C2230.91 733.058 2235.26 735.741 2237.39 737.841L2239.28 739.691L2239.9 737.127L2242.73 725.541L2242.95 724.658L2242.26 724.058C2238.66 720.896 2232.64 718.473 2225.72 718.473C2218.42 718.473 2212.46 721.582 2208.35 726.629C2204.27 731.648 2202.06 738.518 2202.06 746.039C2202.06 757.69 2208.11 766.852 2219.85 772.861L2219.87 772.871L2219.89 772.879C2224.01 774.852 2226.71 776.888 2228.39 779.211C2230.05 781.504 2230.82 784.215 2230.82 787.745C2230.82 791.282 2229.93 794.229 2228.22 796.267C2226.55 798.263 2223.94 799.568 2220.06 799.568C2214.43 799.568 2208.64 796.326 2205.49 793.569Z" fill="#FF9696" stroke="#FF9696" stroke-width="3"/>
<path d="M2274 696.227V694.124L2272.01 694.808L2260.23 698.863L2259.22 699.211V700.281V720.214H2250.82H2249.32V721.714V733.878V735.378H2250.82H2259.22V782.536C2259.22 792.957 2260.6 801.477 2264.18 806.532C2267.31 811.627 2272.52 814.157 2278.16 814.157C2283.14 814.157 2286.67 812.926 2289.19 811.686L2290.07 811.256L2290.03 810.282L2289.56 798.117L2289.47 795.975L2287.49 796.787C2286.26 797.291 2284.1 797.834 2281.46 797.834C2280.06 797.834 2278.98 797.5 2278.11 796.92C2277.23 796.334 2276.48 795.428 2275.86 794.127C2274.59 791.472 2274 787.408 2274 781.956V735.378H2289H2290.5V733.878V721.714V720.214H2289H2274V696.227Z" fill="#FF9696" stroke="#FF9696" stroke-width="3"/>
<path d="M2292.52 833.7L2291.96 835.88L2294.19 835.558L2302.2 834.4L2303.03 834.28L2303.36 833.512C2307.19 824.681 2312.87 804.286 2316.18 788.622L2316.62 786.538L2314.51 786.826L2301.78 788.564L2300.62 788.723L2300.49 789.892C2299.09 803.134 2295.33 822.756 2292.52 833.7Z" fill="#FF9696" stroke="#FF9696" stroke-width="3"/>
<path d="M2409.2 798.164V796.664H2407.7H2370.54V754.482H2403.45H2403.93H2405.43V752.982V739.659V738.159H2403.93H2371.01V701.77H2405.81H2407.31V700.27V686.947V685.447H2405.81H2357.73H2356.23V686.947V811.487V812.987H2357.73H2407.7H2409.2V811.487V798.164Z" fill="#FF9696" stroke="#FF9696" stroke-width="3"/>
<path d="M2421.69 678.5H2420.19V680V810.911V812.411H2421.69H2433H2434.5V810.911V680V678.5H2433H2421.69Z" fill="#FF9696" stroke="#FF9696" stroke-width="3"/>
<path d="M2500.06 795.032L2499.72 792.941L2497.86 793.957C2493.73 796.212 2489.27 798.407 2481.13 798.407C2475.88 798.407 2470.91 796.405 2467.21 791.864C2463.6 787.424 2461.1 780.412 2460.96 770.127H2503.76H2504.91L2505.21 769.02C2505.73 767.088 2505.73 764.599 2505.73 761.331L2505.73 761.097C2505.73 752.857 2504.3 742.187 2500.17 733.516C2496.01 724.803 2488.98 717.891 2477.83 717.891C2467.76 717.891 2459.78 723.494 2454.39 732.447C2449.03 741.364 2446.16 753.674 2446.16 767.469C2446.16 780.988 2449.15 792.608 2454.79 800.896C2460.47 809.234 2468.81 814.151 2479.25 814.151C2489.52 814.151 2496.85 810.538 2501.18 808.175L2502.11 807.666L2501.94 806.617L2500.06 795.032ZM2477.36 733.055C2483.19 733.055 2486.76 736.432 2488.96 741.296C2490.98 745.757 2491.74 751.312 2491.87 756.122H2461.11C2461.71 751.146 2463.17 745.607 2465.65 741.196C2468.4 736.3 2472.23 733.055 2477.36 733.055Z" fill="#FF9696" stroke="#FF9696" stroke-width="3"/>
<path d="M2525.14 721.33L2524.85 720.201H2523.69H2511.43H2509.46L2509.98 722.099L2534.5 811.304L2534.8 812.406H2535.94H2546.78H2547.92L2548.23 811.311L2573.21 722.106L2573.75 720.201H2571.77H2559.51H2558.34L2558.06 721.343L2545.8 771.159L2545.8 771.168L2545.79 771.177C2545.37 772.988 2544.95 774.774 2544.53 776.541C2543.6 780.476 2542.7 784.316 2541.87 788.119C2540.8 782.631 2539.58 777.03 2537.86 771.122L2525.14 721.33Z" fill="#FF9696" stroke="#FF9696" stroke-width="3"/>
<path d="M2614.07 753.208C2602.29 753.182 2592.87 756.126 2586.3 761.851C2579.42 767.846 2575.88 776.699 2575.88 787.745C2575.88 794.349 2577.59 801.032 2581.03 806.11C2584.5 811.228 2589.77 814.732 2596.71 814.732C2604.82 814.732 2611.4 809.93 2615.36 804.093L2615.95 810.979V811.495V812.995H2617.45H2627.82H2629.44L2629.32 811.384C2628.85 805.022 2628.38 797.536 2628.38 790.062V756.466C2628.38 747.405 2627.2 737.99 2623.44 730.791C2621.54 727.169 2618.98 724.072 2615.56 721.885C2612.13 719.695 2607.92 718.473 2602.84 718.473C2594.5 718.473 2586.12 721.474 2580.63 726.384L2579.95 726.992L2580.17 727.876L2583 738.882L2583.64 741.363L2585.49 739.593C2589.43 735.826 2595.18 733.637 2600.95 733.637C2603.99 733.637 2606.25 734.398 2607.96 735.572C2609.67 736.754 2610.93 738.421 2611.85 740.376C2613.71 744.335 2614.07 749.27 2614.07 752.99V753.208ZM2613.65 786.194L2613.64 786.208L2613.64 786.223C2611.81 793.533 2606.96 800.147 2599.54 800.147C2597.2 800.147 2594.92 799.083 2593.19 796.823C2591.43 794.544 2590.2 790.984 2590.2 786.007C2590.2 777.811 2593.48 773.114 2598.11 770.435C2602.51 767.889 2608.28 767.071 2614.07 767.185V781.373C2614.07 783.141 2614.06 784.68 2613.65 786.194Z" fill="#FF9696" stroke="#FF9696" stroke-width="3"/>
<path d="M2660.37 696.227V694.124L2658.38 694.808L2646.59 698.863L2645.58 699.211V700.281V720.214H2637.18H2635.68V721.714V733.878V735.378H2637.18H2645.58V782.536C2645.58 792.957 2646.97 801.477 2650.54 806.532C2653.68 811.627 2658.89 814.157 2664.53 814.157C2669.51 814.157 2673.03 812.926 2675.56 811.686L2676.43 811.256L2676.39 810.282L2675.92 798.117L2675.84 795.975L2673.86 796.787C2672.63 797.291 2670.46 797.834 2667.82 797.834C2666.43 797.834 2665.34 797.5 2664.48 796.92C2663.6 796.334 2662.85 795.428 2662.23 794.127C2660.96 791.472 2660.37 787.408 2660.37 781.956V735.378H2675.37H2676.87V733.878V721.714V720.214H2675.37H2660.37V696.227Z" fill="#FF9696" stroke="#FF9696" stroke-width="3"/>
<path d="M2687.07 810.913V812.413H2688.57H2699.89H2701.39V810.913V721.709V720.209H2699.89H2688.57H2687.07V721.709V810.913ZM2694.23 708.148C2697.07 708.148 2699.4 706.903 2700.97 704.793C2702.51 702.727 2703.27 699.921 2703.27 696.801C2703.27 693.69 2702.52 690.749 2700.99 688.614C2699.43 686.443 2697.07 685.126 2694.14 685.454C2691.52 685.483 2689.35 686.771 2687.88 688.835C2686.42 690.889 2685.66 693.679 2685.66 696.801C2685.66 699.659 2686.43 702.428 2687.86 704.526C2689.31 706.639 2691.5 708.148 2694.23 708.148Z" fill="#FF9696" stroke="#FF9696" stroke-width="3"/>
<path d="M2718.16 746.037V747.537H2719.1V810.913V812.413H2720.6H2731.92H2733.42V810.913V757.042C2733.42 754.283 2733.87 751.519 2734.31 749.905L2734.32 749.858L2734.33 749.811C2735.23 745.395 2737.13 741.449 2739.64 738.635C2742.14 735.825 2745.18 734.213 2748.42 734.213C2750.83 734.213 2752.78 734.883 2754.39 736.053C2756.02 737.236 2757.36 738.985 2758.43 741.248C2760.59 745.805 2761.53 752.206 2761.53 759.359V810.913V812.413H2763.03H2774.34H2775.84V810.913V757.622C2775.84 742.07 2772.38 732.137 2767.56 726.061C2762.72 719.959 2756.62 717.891 2751.72 717.891C2742.1 717.891 2735.35 724.189 2731.36 731.041L2731.06 721.659L2731.01 720.208H2729.56H2719.19H2717.59L2717.69 721.801C2718.16 729.276 2718.16 736.758 2718.16 746.037Z" fill="#FF9696" stroke="#FF9696" stroke-width="3"/>
<path d="M2849.42 721.71L2847.92 721.655V720.789H2838.02H2836.57L2836.52 722.236L2836.24 730.286C2832.69 724.076 2826.65 718.473 2817.28 718.473C2809.34 718.473 2801.73 723.195 2796.17 731.599C2790.61 740.008 2787.02 752.189 2787.02 767.471C2787.02 779.848 2789.9 790.997 2794.91 799.105C2799.92 807.219 2807.18 812.415 2815.86 812.415C2824.52 812.415 2831.09 807.495 2835.11 801.132V803.964C2835.11 815.097 2832.89 822.548 2829.45 827.181C2826.06 831.747 2821.35 833.744 2815.86 833.744C2808.29 833.744 2802.01 830.454 2797.96 827.133L2796.07 825.587L2795.54 827.968L2792.72 840.712L2792.54 841.513L2793.12 842.094C2798.69 847.694 2807.63 850.067 2815.39 850.067C2823.67 850.067 2833.16 847.669 2839.67 839.066C2846.14 831.102 2848.95 818.471 2848.95 797.592V746.039C2848.95 736.148 2848.95 729.587 2849.29 723.789H2849.42V722.289V721.71ZM2828.28 738.322C2830.78 741.265 2832.58 745.358 2833.73 749.849C2834.16 751.979 2834.16 754.132 2834.16 757.045V772.106C2834.16 774.846 2833.72 777.607 2833.25 780.508C2830.96 790.553 2824.76 796.092 2818.69 796.092C2813.27 796.092 2808.99 792.929 2805.98 787.457C2802.96 781.955 2801.34 774.262 2801.34 765.734C2801.34 755.771 2803.31 747.651 2806.5 742.078C2809.69 736.515 2813.98 733.637 2818.69 733.637C2822.65 733.637 2825.79 735.407 2828.28 738.322Z" fill="#FF9696" stroke="#FF9696" stroke-width="3"/>
<path d="M2877.96 700.27V701.77H2879.46H2905.3V810.907V812.407H2906.8H2918.12H2919.62V810.907V701.77H2945.46H2946.96V700.27V686.947V685.447H2945.46H2879.46H2877.96V686.947V700.27Z" fill="#FF9696" stroke="#FF9696" stroke-width="3"/>
<path d="M2977.94 753.208C2966.16 753.182 2956.74 756.126 2950.17 761.851C2943.29 767.846 2939.75 776.699 2939.75 787.745C2939.75 794.349 2941.46 801.032 2944.9 806.11C2948.37 811.228 2953.64 814.732 2960.58 814.732C2968.69 814.732 2975.27 809.93 2979.23 804.093L2979.82 810.979V811.495V812.995H2981.32H2991.69H2993.31L2993.19 811.384C2992.72 805.022 2992.25 797.536 2992.25 790.062V756.466C2992.25 747.405 2991.07 737.99 2987.31 730.791C2985.41 727.169 2982.85 724.072 2979.43 721.885C2976 719.695 2971.79 718.473 2966.71 718.473C2958.38 718.473 2949.99 721.474 2944.5 726.384L2943.82 726.992L2944.04 727.876L2946.87 738.882L2947.51 741.363L2949.36 739.593C2953.3 735.826 2959.05 733.637 2964.82 733.637C2967.86 733.637 2970.12 734.398 2971.83 735.572C2973.55 736.754 2974.81 738.421 2975.72 740.376C2977.58 744.335 2977.94 749.27 2977.94 752.99V753.208ZM2977.99 786.194L2977.99 786.208L2977.98 786.223C2976.15 793.533 2971.31 800.147 2963.88 800.147C2961.55 800.147 2959.27 799.083 2957.53 796.823C2955.78 794.544 2954.54 790.984 2954.54 786.007C2954.54 777.811 2957.83 773.114 2962.45 770.435C2966.85 767.889 2972.62 767.071 2978.41 767.185V781.373C2978.41 783.14 2978.4 784.68 2977.99 786.194Z" fill="#FF9696" stroke="#FF9696" stroke-width="3"/>
<path d="M3009.61 678.5H3008.11V680V810.911V812.411H3009.61H3020.93H3022.43V810.911V680V678.5H3020.93H3009.61Z" fill="#FF9696" stroke="#FF9696" stroke-width="3"/>
<path d="M3087.9 795.032L3087.56 792.941L3085.7 793.957C3081.57 796.212 3077.11 798.407 3068.97 798.407C3063.72 798.407 3058.75 796.405 3055.05 791.864C3051.44 787.424 3048.94 780.412 3048.8 770.127H3091.6H3092.75L3093.05 769.02C3093.57 767.088 3093.57 764.599 3093.57 761.331L3093.57 761.097C3093.57 752.857 3092.14 742.187 3088.01 733.516C3083.85 724.803 3076.82 717.891 3065.67 717.891C3055.6 717.891 3047.62 723.494 3042.23 732.447C3036.87 741.364 3034 753.674 3034 767.469C3034 780.988 3036.99 792.608 3042.63 800.896C3048.31 809.234 3056.65 814.151 3067.09 814.151C3077.36 814.151 3084.69 810.538 3089.02 808.175L3089.95 807.666L3089.78 806.617L3087.9 795.032ZM3065.2 733.055C3071.03 733.055 3074.6 736.432 3076.8 741.296C3078.82 745.757 3079.58 751.312 3079.71 756.122H3048.95C3049.55 751.146 3051.01 745.607 3053.49 741.196C3056.24 736.3 3060.07 733.055 3065.2 733.055Z" fill="#FF9696" stroke="#FF9696" stroke-width="3"/>
<path d="M3105.75 746.037V747.537H3106.69V810.913V812.413H3108.19H3119.5H3121V810.913V757.042C3121 754.283 3121.46 751.519 3121.89 749.905L3121.91 749.858L3121.92 749.811C3122.81 745.395 3124.71 741.449 3127.22 738.635C3129.73 735.825 3132.76 734.213 3136 734.213C3138.41 734.213 3140.37 734.883 3141.98 736.053C3143.6 737.236 3144.95 738.985 3146.02 741.248C3148.18 745.805 3149.12 752.206 3149.12 759.359V810.913V812.413H3150.62H3161.93H3163.43V810.913V757.622C3163.43 742.07 3159.97 732.137 3155.15 726.061C3150.31 719.959 3144.21 717.891 3139.3 717.891C3129.68 717.891 3122.94 724.189 3118.95 731.041L3118.65 721.659L3118.6 720.208H3117.15H3106.78H3105.18L3105.28 721.801C3105.75 729.276 3105.75 736.758 3105.75 746.037Z" fill="#FF9696" stroke="#FF9696" stroke-width="3"/>
<path d="M3194.96 696.227V694.124L3192.97 694.808L3181.18 698.863L3180.17 699.211V700.281V720.214H3171.77H3170.27V721.714V733.878V735.378H3171.77H3180.17V782.536C3180.17 792.957 3181.56 801.477 3185.13 806.532C3188.26 811.627 3193.48 814.157 3199.11 814.157C3204.1 814.157 3207.62 812.926 3210.15 811.686L3211.02 811.256L3210.98 810.282L3210.51 798.117L3210.43 795.975L3208.44 796.787C3207.22 797.291 3205.05 797.834 3202.41 797.834C3201.01 797.834 3199.93 797.5 3199.06 796.92C3198.19 796.334 3197.43 795.428 3196.81 794.127C3195.55 791.472 3194.96 787.408 3194.96 781.956V735.378H3209.95H3211.45V733.878V721.714V720.214H3209.95H3194.96V696.227Z" fill="#FF9696" stroke="#FF9696" stroke-width="3"/>
</g>
</g>
<path d="M214.165 100.31C235.305 91.8487 267.016 63.9277 264.719 59.6973C263.34 59.6973 261.961 59.6972 260.582 60.1202C241.28 66.4659 225.654 73.6578 214.624 80.8496C199.918 91.4258 180.615 105.809 166.828 116.809L147.525 134.153C160.394 122.308 182.913 110.886 214.165 100.31Z" fill="url(#paint11_linear_295_304)"/>
<path d="M143.388 208.19C172.341 195.499 192.563 154.887 180.614 150.233C178.775 149.387 176.018 150.233 174.18 150.656C131.898 164.617 103.404 180.692 90.5359 198.037C81.8039 210.729 70.3144 227.228 62.5016 240.342L47.7949 266.994C58.3653 245.842 91.4551 225.535 143.388 208.19Z" fill="url(#paint12_linear_295_304)"/>
<path d="M109.844 346.097C140.636 331.29 146.151 280.101 129.606 274.602C127.308 273.756 123.631 274.179 121.333 275.025C60.6688 294.908 24.3618 319.022 17.0085 344.405C13.7915 357.519 9.19572 374.864 6.43823 387.978L1.38281 423.937C4.1403 395.593 42.2855 368.518 109.844 346.097Z" fill="url(#paint13_linear_295_304)"/>
<path d="M119.95 500.51C149.822 485.703 139.711 431.553 118.571 424.362C115.813 423.515 111.677 423.938 108.92 424.362C36.3058 448.475 -2.29903 478.089 0.45846 508.971C3.21595 529.277 7.35217 555.929 11.948 575.812L15.6247 589.35C6.4331 556.775 44.1188 525.47 119.95 500.51Z" fill="url(#paint14_linear_295_304)"/>
<path d="M171.884 646.042C196.701 632.505 172.343 582.162 151.203 575.817C148.445 574.971 144.309 575.394 141.551 575.817C64.8012 601.199 29.4136 633.774 45.4989 665.926C54.231 682.001 66.6397 703.577 76.2909 719.229L87.3207 735.305C63.8821 703.577 95.5933 671.002 171.884 646.042Z" fill="url(#paint15_linear_295_304)"/>
<path d="M257.367 771.684C274.371 761.108 239.443 717.957 220.141 712.88C217.843 712.034 214.166 712.457 211.408 712.457C138.335 736.571 111.679 768.3 143.391 798.759C156.718 810.604 174.183 825.834 187.97 836.833L210.03 852.909C168.208 824.988 188.889 794.529 257.367 771.684Z" fill="url(#paint16_linear_295_304)"/>
<path d="M369.041 868.136C369.501 867.713 369.96 867.29 369.96 867.29C369.501 857.983 328.139 823.293 310.674 824.986C255.065 843.177 239.439 868.56 277.125 891.404C277.584 891.404 278.044 891.827 278.044 892.25C276.206 891.827 275.286 891.404 267.933 887.597C301.942 903.673 304.24 904.942 327.219 913.403C355.713 923.133 356.632 923.556 374.097 928.209C379.612 929.478 387.424 931.593 392.939 932.863C375.016 928.632 359.39 923.556 348.36 917.633C317.108 901.134 327.219 881.674 369.041 868.136Z" fill="url(#paint17_linear_295_304)"/>
<path d="M523 938.365C521.621 937.519 521.621 937.519 515.647 932.02C508.293 932.02 500.94 931.173 497.723 929.481C494.506 927.789 495.885 926.097 499.561 924.828C433.841 902.406 433.841 902.406 433.382 902.406C410.403 910.021 404.428 920.597 422.352 929.904C429.246 933.712 438.897 936.673 450.846 939.211C450.846 939.211 451.305 939.211 451.765 939.634C449.007 940.903 444.412 940.904 434.761 940.48C434.301 940.48 433.841 940.48 433.841 940.48C427.867 940.057 425.569 939.634 416.837 937.942C424.19 939.211 433.382 940.48 440.735 941.75C457.74 943.865 457.74 943.865 466.012 944.711H466.472C466.931 944.711 467.391 944.711 467.85 944.711H468.31C475.204 944.711 481.638 944.288 488.531 944.288C500.48 945.134 513.349 945.557 526.217 945.134C528.515 945.134 528.515 944.711 529.434 944.288C528.055 942.173 528.055 942.173 523 938.365Z" fill="url(#paint18_linear_295_304)"/>
<path d="M927.434 475.553C927.434 484.014 926.056 505.166 907.672 513.627C863.093 527.164 806.565 539.01 739.925 547.048C616.298 562.277 480.262 563.969 358.473 553.816C336.413 554.239 324.464 565.662 321.707 588.929C321.707 589.352 321.707 590.198 321.707 590.621C324.005 614.312 335.954 627.427 358.014 631.657C477.505 641.81 610.783 640.541 732.572 625.734C773.934 624.888 771.636 664.655 752.794 683.269C743.142 692.999 734.41 694.691 726.138 696.383C534.952 719.228 314.353 708.228 169.126 672.269C153.96 670.154 147.526 680.307 151.202 698.498C151.202 698.921 151.662 699.344 151.662 700.19C159.475 720.074 170.964 732.342 187.509 738.265C286.319 762.801 421.895 775.07 557.012 771.686C596.536 773.801 594.698 804.683 577.234 817.798C568.502 824.143 560.689 824.989 553.336 825.835C499.105 827.105 444.875 825.835 393.401 821.605C368.584 821.605 369.963 833.451 370.882 843.181C370.882 843.604 371.341 844.027 371.341 844.45C378.235 857.987 389.725 865.602 407.189 868.14C493.59 874.486 588.723 873.217 675.584 863.064C687.074 862.641 687.993 863.91 692.129 868.986C688.912 885.485 670.529 893.946 655.363 898.177C528.059 913.829 387.886 907.061 293.213 884.639C291.834 884.639 289.536 884.216 288.157 884.216C290.455 888.446 295.511 893.523 299.187 896.061C299.647 896.485 300.106 896.484 300.566 896.907C316.192 905.791 324.924 909.176 335.954 912.983C399.836 928.213 484.398 934.559 565.744 929.905C569.421 929.905 574.017 931.174 577.234 932.866C570.8 939.212 569.88 940.058 552.876 942.597C521.624 944.289 492.671 944.289 465.555 942.173C464.177 942.173 461.879 942.173 460.041 942.173C460.96 942.596 462.339 943.019 463.717 943.443H463.258C446.713 941.75 446.713 941.751 437.981 940.481C430.627 939.212 421.436 937.943 414.083 936.674C410.406 935.828 404.891 934.982 401.214 934.136C396.159 933.29 394.32 932.867 392.022 932.02C386.508 930.751 378.695 928.636 373.18 927.367C346.524 919.752 343.767 918.906 326.302 912.56C292.753 899.446 289.536 898.177 267.017 886.754C263.34 884.639 258.285 882.101 254.608 879.985C254.148 879.562 253.689 879.563 253.229 879.14C241.28 872.371 241.28 872.371 213.705 855.026C212.326 854.18 210.488 852.911 209.109 852.064L187.05 835.989C173.262 824.99 155.338 809.76 142.47 797.914C148.904 803.837 157.636 809.76 168.666 815.683C193.484 828.797 227.952 839.796 268.855 848.68C272.532 848.68 277.587 847.834 280.344 845.719C280.344 841.065 278.506 835.143 277.127 830.912C277.127 830.489 276.668 830.066 276.208 829.643C265.638 814.413 252.77 804.683 237.144 799.607C190.726 789.876 152.121 777.185 123.627 762.378C106.163 753.071 93.7546 743.764 86.8609 734.034L75.8309 717.958C66.1797 702.306 53.3113 680.73 45.0389 664.655C50.0943 674.808 59.7455 684.538 74.9116 694.268C76.75 694.268 79.0479 693.845 80.4267 693.845C80.8862 685.807 81.3459 684.538 76.7501 670.577C76.7501 670.154 76.2906 669.308 76.2906 668.885C68.9373 650.271 62.0434 638.426 52.8518 628.272C30.3323 613.043 18.8429 600.352 15.1663 587.237L11.4895 573.7C7.3533 553.816 2.75749 527.164 0 506.858C1.83832 525.472 18.8429 544.086 52.3923 561.854C83.1843 577.93 125.006 591.891 174.641 603.313C192.564 605.005 201.756 594.852 203.594 571.584C203.594 571.161 203.594 570.315 203.594 569.892C201.756 545.778 193.024 531.395 175.101 525.049C125.466 513.627 83.6437 500.089 52.8518 483.591C15.1662 463.707 -1.37871 442.555 0.459609 421.826L5.51503 385.867C8.73209 372.752 12.4087 354.984 16.0853 342.293C10.5704 360.484 20.2216 379.521 46.8773 397.289C55.6094 398.135 62.9627 396.866 73.0735 370.214C73.0735 369.791 73.533 368.945 73.533 368.522C82.7246 338.908 77.2097 330.871 73.0735 324.102C44.5795 305.065 36.7666 284.758 46.4178 265.298L61.1242 238.646C69.3967 225.955 80.4268 208.61 89.1588 196.342C71.6947 219.186 82.2649 243.723 125.466 266.567C149.364 279.259 181.534 290.258 219.68 299.142C235.305 300.411 247.714 291.527 258.744 270.375C259.204 269.952 259.204 269.106 259.663 268.682C268.395 246.261 263.8 240.338 258.285 232.723C221.058 222.993 192.564 213.263 171.424 202.264C128.683 179.843 122.248 155.306 146.147 132.884L165.449 115.539C179.696 104.54 198.539 89.7336 213.246 79.5805C186.13 97.3485 183.373 117.655 209.109 136.692C216.922 137.115 223.816 136.269 248.174 118.078C248.633 117.655 249.093 117.232 249.552 116.809C266.097 103.694 268.395 100.733 273.91 92.695C248.633 70.2735 258.284 50.3903 296.43 34.3145L317.571 25.8536C342.388 16.9696 342.388 16.9696 355.716 13.1622C359.852 11.893 365.826 10.2009 369.963 8.93171C331.358 22.4692 321.247 41.0833 352.499 57.5821C361.69 62.2356 373.18 66.4661 386.967 69.8505C395.699 69.0044 401.674 66.8891 422.355 52.9286C422.815 52.5055 423.274 52.5055 423.734 52.0824C437.521 42.3524 440.738 39.3911 444.415 36.0067C437.062 32.1993 430.627 30.084 426.032 27.5458C409.027 18.6618 414.542 8.08552 436.602 0.893716C445.334 0.0476215 465.096 -2.06756 502.782 5.97033C499.565 6.81643 499.105 8.50859 501.403 9.77773C504.16 11.0469 510.135 11.893 515.65 11.893C530.356 28.8148 530.357 32.1993 530.357 40.2372C511.054 42.3524 493.59 41.9294 477.964 40.2372C471.53 42.7755 466.015 44.8907 454.066 57.5821C453.606 58.0052 453.607 58.0051 453.147 58.4281C446.253 67.3121 445.794 68.5813 444.415 76.1962C445.794 77.4653 447.172 79.1575 448.551 80.8497C489.913 85.0802 537.25 85.5032 581.37 80.8497C606.647 85.5032 623.651 117.655 614.919 126.539C613.541 127.808 610.783 128.654 608.945 129.5C511.054 139.653 401.214 132.884 330.898 113.847C321.707 114.27 311.596 116.386 291.374 135C290.915 135.423 290.455 135.846 289.996 136.269C276.668 151.075 276.668 154.46 276.668 163.767C278.047 165.036 279.885 166.728 281.264 167.997C355.256 187.881 463.717 197.188 568.961 192.957C608.945 200.995 605.728 244.569 589.642 254.299C586.885 255.991 582.289 256.837 579.072 257.683C514.271 260.645 448.551 258.952 388.346 253.453C371.341 253.876 359.392 264.029 351.579 284.335C351.579 284.758 351.12 285.604 351.12 286.028C346.984 307.603 353.418 320.294 371.341 324.102C476.585 333.832 595.617 332.986 703.619 319.448C710.053 318.602 716.027 317.756 722.002 316.91C759.228 316.064 773.934 360.907 756.93 380.367C751.874 386.29 745.44 387.982 740.385 389.251C733.951 390.097 727.057 390.943 720.163 391.789C535.871 414.634 320.788 403.635 182.454 368.522C165.909 366.83 154.419 376.56 146.606 398.135C146.606 398.558 146.147 399.404 146.147 399.827C141.551 423.095 147.066 437.478 162.692 444.247C309.298 481.898 536.791 493.321 732.572 469.207C797.373 461.169 852.063 449.747 895.723 436.632C923.758 437.478 926.975 464.13 927.434 475.553Z" fill="url(#paint19_linear_295_304)"/>
<defs>
<filter id="filter0_d_295_304" x="1530.44" y="677" width="1686.52" height="182.566" filterUnits="userSpaceOnUse" color-interpolation-filters="sRGB">
<feFlood flood-opacity="0" result="BackgroundImageFix"/>
<feColorMatrix in="SourceAlpha" type="matrix" values="0 0 0 0 0 0 0 0 0 0 0 0 0 0 0 0 0 0 127 0" result="hardAlpha"/>
<feOffset dy="4"/>
<feGaussianBlur stdDeviation="2"/>
<feComposite in2="hardAlpha" operator="out"/>
<feColorMatrix type="matrix" values="0 0 0 0 0 0 0 0 0 0 0 0 0 0 0 0 0 0 0.25 0"/>
<feBlend mode="normal" in2="BackgroundImageFix" result="effect1_dropShadow_295_304"/>
<feBlend mode="normal" in="SourceGraphic" in2="effect1_dropShadow_295_304" result="shape"/>
</filter>
<filter id="filter1_d_295_304" x="1530.44" y="677" width="1686.52" height="182.566" filterUnits="userSpaceOnUse" color-interpolation-filters="sRGB">
<feFlood flood-opacity="0" result="BackgroundImageFix"/>
<feColorMatrix in="SourceAlpha" type="matrix" values="0 0 0 0 0 0 0 0 0 0 0 0 0 0 0 0 0 0 127 0" result="hardAlpha"/>
<feOffset dy="4"/>
<feGaussianBlur stdDeviation="2"/>
<feComposite in2="hardAlpha" operator="out"/>
<feColorMatrix type="matrix" values="0 0 0 0 0 0 0 0 0 0 0 0 0 0 0 0 0 0 0.25 0"/>
<feBlend mode="normal" in2="BackgroundImageFix" result="effect1_dropShadow_295_304"/>
<feBlend mode="normal" in="SourceGraphic" in2="effect1_dropShadow_295_304" result="shape"/>
</filter>
<linearGradient id="paint0_linear_295_304" x1="1226.04" y1="2513.98" x2="384.513" y2="2274.27" gradientUnits="userSpaceOnUse">
<stop stop-color="#A90000"/>
<stop offset="1" stop-color="#FF9696"/>
</linearGradient>
<linearGradient id="paint1_linear_295_304" x1="1745.15" y1="2466.89" x2="999.085" y2="2276.65" gradientUnits="userSpaceOnUse">
<stop stop-color="#A90000"/>
<stop offset="1" stop-color="#FF9696"/>
</linearGradient>
<linearGradient id="paint2_linear_295_304" x1="2020.16" y1="2039.86" x2="1273.4" y2="1778.67" gradientUnits="userSpaceOnUse">
<stop stop-color="#A90000"/>
<stop offset="1" stop-color="#FF9696"/>
</linearGradient>
<linearGradient id="paint3_linear_295_304" x1="3174.39" y1="2040.64" x2="2427.69" y2="1779.82" gradientUnits="userSpaceOnUse">
<stop stop-color="#A90000"/>
<stop offset="1" stop-color="#FF9696"/>
</linearGradient>
<linearGradient id="paint4_linear_295_304" x1="2480.03" y1="2037.79" x2="1725.42" y2="1769.88" gradientUnits="userSpaceOnUse">
<stop stop-color="#A90000"/>
<stop offset="1" stop-color="#FF9696"/>
</linearGradient>
<linearGradient id="paint5_linear_295_304" x1="1481.4" y1="2513.52" x2="726.204" y2="2315.68" gradientUnits="userSpaceOnUse">
<stop stop-color="#A90000"/>
<stop offset="1" stop-color="#FF9696"/>
</linearGradient>
<linearGradient id="paint6_linear_295_304" x1="2768.78" y1="2434.03" x2="2468.66" y2="2404.39" gradientUnits="userSpaceOnUse">
<stop stop-color="#A90000"/>
<stop offset="1" stop-color="#FF9696"/>
</linearGradient>
<linearGradient id="paint7_linear_295_304" x1="2629.78" y1="2434.03" x2="2329.66" y2="2404.39" gradientUnits="userSpaceOnUse">
<stop stop-color="#A90000"/>
<stop offset="1" stop-color="#FF9696"/>
</linearGradient>
<linearGradient id="paint8_linear_295_304" x1="2221.4" y1="1995.51" x2="1742.82" y2="1892.66" gradientUnits="userSpaceOnUse">
<stop stop-color="#A90000"/>
<stop offset="1" stop-color="#FF9696"/>
</linearGradient>
<linearGradient id="paint9_linear_295_304" x1="2908.85" y1="1975.29" x2="2607.1" y2="1934.92" gradientUnits="userSpaceOnUse">
<stop stop-color="#A90000"/>
<stop offset="1" stop-color="#FF9696"/>
</linearGradient>
<linearGradient id="paint10_linear_295_304" x1="2908.64" y1="813.433" x2="2649.47" y2="702.87" gradientUnits="userSpaceOnUse">
<stop stop-color="#A90000"/>
<stop offset="1" stop-color="#FF9696"/>
</linearGradient>
<linearGradient id="paint11_linear_295_304" x1="147.383" y1="96.8787" x2="264.854" y2="96.8787" gradientUnits="userSpaceOnUse">
<stop stop-color="#0F61AD"/>
<stop offset="1" stop-color="#00FFFF"/>
</linearGradient>
<linearGradient id="paint12_linear_295_304" x1="47.6289" y1="208.359" x2="184.131" y2="208.359" gradientUnits="userSpaceOnUse">
<stop stop-color="#0F61AD"/>
<stop offset="1" stop-color="#00FFFF"/>
</linearGradient>
<linearGradient id="paint13_linear_295_304" x1="1.21553" y1="348.945" x2="138.77" y2="348.945" gradientUnits="userSpaceOnUse">
<stop stop-color="#0F61AD"/>
<stop offset="1" stop-color="#00FFFF"/>
</linearGradient>
<linearGradient id="paint14_linear_295_304" x1="0.151879" y1="506.508" x2="138.649" y2="506.508" gradientUnits="userSpaceOnUse">
<stop stop-color="#0F61AD"/>
<stop offset="1" stop-color="#00FFFF"/>
</linearGradient>
<linearGradient id="paint15_linear_295_304" x1="41.5181" y1="655.217" x2="182.378" y2="655.217" gradientUnits="userSpaceOnUse">
<stop stop-color="#0F61AD"/>
<stop offset="1" stop-color="#00FFFF"/>
</linearGradient>
<linearGradient id="paint16_linear_295_304" x1="130.058" y1="782.542" x2="261.92" y2="782.542" gradientUnits="userSpaceOnUse">
<stop stop-color="#0F61AD"/>
<stop offset="1" stop-color="#00FFFF"/>
</linearGradient>
<linearGradient id="paint17_linear_295_304" x1="256.348" y1="878.827" x2="392.96" y2="878.827" gradientUnits="userSpaceOnUse">
<stop stop-color="#0F61AD"/>
<stop offset="1" stop-color="#00FFFF"/>
</linearGradient>
<linearGradient id="paint18_linear_295_304" x1="411.73" y1="923.826" x2="529.452" y2="923.826" gradientUnits="userSpaceOnUse">
<stop stop-color="#0F61AD"/>
<stop offset="1" stop-color="#00FFFF"/>
</linearGradient>
<linearGradient id="paint19_linear_295_304" x1="-1.12945" y1="471.317" x2="927.573" y2="471.317" gradientUnits="userSpaceOnUse">
<stop stop-color="#0F61AD"/>
<stop offset="1" stop-color="#00FFFF"/>
</linearGradient>
</defs>
</svg>
