<svg width="3177" height="856" viewBox="0 0 3177 856" fill="none" xmlns="http://www.w3.org/2000/svg">
<path d="M422.737 0.0284247C423.799 0.0384854 423.799 0.0384854 424.884 0.0487494C463.002 0.419182 463.002 0.419182 469.174 6.59092C468.514 6.59092 467.854 6.59092 467.174 6.59092C467.504 7.25092 467.834 7.91092 468.174 8.59092C470.338 8.77815 472.506 8.9149 474.674 9.02842C480.68 9.79285 483.434 11.0294 487.299 15.7159C488.646 17.6369 489.943 19.594 491.174 21.5909C491.647 22.336 492.12 23.0811 492.608 23.8487C495.09 28.2294 495.591 31.5941 495.174 36.5909C492.242 37.4407 489.703 37.6928 486.656 37.6251C485.768 37.6089 484.879 37.5927 483.964 37.576C483.01 37.5551 482.056 37.5343 481.073 37.5128C479.035 37.4855 476.997 37.4595 474.959 37.4347C471.76 37.3916 468.561 37.3412 465.362 37.2687C462.266 37.2015 459.17 37.1671 456.073 37.1378C455.131 37.1089 454.189 37.0799 453.218 37.0501C441.622 37.004 433.9 42.9784 425.889 50.7433C421.068 55.8006 416.174 61.2447 416.174 68.5909C417.783 71.7294 417.783 71.7294 420.176 72.0992C420.999 72.1609 421.822 72.2227 422.67 72.2862C423.607 72.3618 424.545 72.4374 425.51 72.5152C427.045 72.6146 427.045 72.6146 428.612 72.7159C429.678 72.7938 430.744 72.8716 431.842 72.9518C444.274 73.8136 456.717 74.3027 469.174 74.5909C470.61 74.626 470.61 74.626 472.075 74.6617C487.544 74.9861 502.946 74.1949 518.384 73.3026C549.016 71.5444 549.016 71.5444 562.487 82.7159C569.624 89.4965 574.613 97.6939 575.549 107.528C575.516 111.051 575.204 111.553 572.862 114.528C568.525 117.857 564.307 117.922 559.037 118.31C558.218 118.372 557.4 118.435 556.556 118.499C553.866 118.702 551.177 118.897 548.487 119.091C547.566 119.158 546.646 119.225 545.698 119.294C469.544 124.782 387.82 123.86 313.455 104.392C303.334 101.922 294.782 106.342 286.164 111.34C275.923 117.777 263.64 127.677 260.174 139.591C259.688 142.571 259.763 144.508 260.174 147.591C263.405 150.001 266.502 151.129 270.401 152.021C271.417 152.256 272.433 152.491 273.48 152.734C274.575 152.975 275.671 153.217 276.799 153.466C277.961 153.726 279.123 153.985 280.319 154.253C283.934 155.05 287.553 155.825 291.174 156.591C292.209 156.81 293.243 157.03 294.309 157.256C344.237 167.633 395.831 171.672 446.737 173.153C447.462 173.176 448.188 173.198 448.935 173.222C460.184 173.558 471.424 173.605 482.676 173.528C484.904 173.513 487.132 173.5 489.359 173.488C490.857 173.48 492.354 173.472 493.852 173.464C494.968 173.458 494.968 173.458 496.107 173.451C500.58 173.424 505.052 173.377 509.524 173.317C512.362 173.282 515.2 173.265 518.038 173.251C520 173.236 521.962 173.2 523.924 173.163C535.616 173.129 543.48 176.002 551.971 184.079C558.538 191.566 560.574 199.628 560.444 209.357C559.838 216.626 557.738 222.601 552.362 227.653C545.736 233.241 537.483 232.98 529.248 233.204C528.07 233.242 526.891 233.279 525.676 233.317C511.83 233.718 497.98 233.789 484.129 233.78C481.95 233.778 479.77 233.779 477.591 233.779C445.186 233.768 412.868 232.774 380.557 230.214C360.414 228.424 360.414 228.424 341.987 235.653C334.287 242.786 328.92 253.721 327.795 264.079C327.559 271.162 327.749 277.782 332.174 283.591C342.328 293.166 357.375 292.242 370.487 293.091C371.44 293.154 372.393 293.217 373.375 293.281C465.677 299.307 559.195 298.769 651.048 287.166C682.689 283.219 682.689 283.219 696.077 292.876C704.5 299.762 709.473 308.791 711.174 319.591C711.948 328.441 710.759 336.725 705.237 343.903C695.932 353.202 682.613 353.865 670.237 355.153C668.378 355.359 666.519 355.565 664.66 355.772C658.835 356.411 653.005 357.006 647.174 357.591C646.256 357.684 645.337 357.777 644.391 357.873C621.415 360.199 598.415 361.933 575.362 363.278C574.331 363.339 573.299 363.4 572.237 363.463C542.16 365.213 512.107 365.801 481.987 365.778C481.177 365.778 480.368 365.778 479.534 365.778C449.713 365.765 419.955 365.265 390.174 363.591C389.049 363.528 387.923 363.465 386.763 363.4C316.102 359.37 244.42 352.275 175.657 334.794C167.962 332.898 161.079 333.242 154.112 337.189C145.508 343.416 139.781 353.213 137.534 363.532C136.382 373.333 136.008 382.88 141.174 391.591C147.675 399.673 156.231 401.678 165.924 403.841C166.564 403.986 167.204 404.131 167.863 404.281C262.302 425.669 359.747 432.845 467.174 434.591C467.876 434.601 468.579 434.61 469.302 434.62C477.928 434.734 486.549 434.709 495.174 434.591C495.987 434.58 496.8 434.569 497.637 434.558C596.785 433.18 697.809 427.154 829.174 394.591C836.898 393.599 842.782 395.165 849.174 399.591C858.253 407.576 861.31 417.954 862.362 429.681C862.731 440.962 859.623 452.001 851.987 460.466C844.683 467.013 834.109 468.908 824.862 471.341C823.9 471.595 823.9 471.595 822.918 471.854C739.027 493.887 651.579 502.417 565.152 506.45C563.219 506.541 561.286 506.637 559.354 506.738C536.008 507.941 512.628 507.778 489.259 507.776C484.492 507.776 479.725 507.783 474.957 507.797C436.571 507.906 398.289 507.122 359.987 504.466C333.73 501.329 333.73 501.329 310.045 510.282C303.378 516.949 301.016 525.873 300.674 535.091C301.067 545.696 304.461 555.143 312.174 562.591C323.344 571.283 336.295 572.146 349.904 572.989C352.427 573.146 354.949 573.319 357.471 573.495C363.702 573.918 369.938 574.254 376.174 574.591C377.677 574.675 379.18 574.76 380.683 574.844C411.135 576.537 441.535 576.907 472.03 576.852C478.343 576.84 484.655 576.847 490.968 576.859C522.087 576.907 553.104 576.372 584.174 574.591C584.89 574.55 585.607 574.509 586.345 574.467C594.94 573.969 603.526 573.37 612.112 572.716C613.239 572.633 614.367 572.549 615.528 572.464C632.489 571.211 649.413 569.703 666.315 567.81C692.917 564.849 692.917 564.849 703.674 572.341C708.931 576.734 711.729 582.149 712.412 588.966C712.725 600.027 709.578 609.348 702.174 617.591C701.65 618.207 701.125 618.823 700.584 619.458C687.544 633.756 666.015 633.459 648.112 635.091C646.966 635.198 645.821 635.304 644.641 635.414C621.842 637.537 599.038 639.339 576.174 640.591C575.24 640.643 574.307 640.695 573.345 640.749C510.881 644.207 447.63 644.224 385.174 640.591C384.047 640.525 382.921 640.46 381.76 640.392C309.573 636.131 236.605 629.275 166.147 612.317C157 610.105 157 610.105 147.924 611.841C144.47 614.039 142.687 615.469 141.705 619.532C139.937 631.089 144.7 641.197 151.241 650.544C154.905 655.632 154.905 655.632 160.174 658.591C162.68 657.847 162.68 657.847 165.401 656.607C166.433 656.166 167.466 655.725 168.53 655.271C170.148 654.563 170.148 654.563 171.799 653.841C197.578 642.698 197.578 642.698 209.03 646.552C222.428 653.242 234.523 666.288 241.174 679.591C241.174 680.251 241.174 680.911 241.174 681.591C247.517 682.432 253.861 683.258 260.207 684.077C262.976 684.435 265.744 684.796 268.513 685.159C335.124 693.878 402.136 698.703 469.338 698.642C470.145 698.641 470.952 698.64 471.783 698.64C479.75 698.631 487.716 698.603 495.682 698.536C498.639 698.512 501.595 698.496 504.551 698.48C506.571 698.466 508.59 698.441 510.609 698.415C521.547 698.358 533.89 698.441 542.186 706.56C547.585 712.605 548.595 716.016 548.514 724.193C547.849 730.842 544.698 735.444 539.862 739.903C530.991 746.82 521.374 748.901 510.305 748.866C509.044 748.873 509.044 748.873 507.757 748.881C504.987 748.895 502.218 748.894 499.448 748.892C497.479 748.897 495.51 748.902 493.541 748.908C488.293 748.92 483.044 748.916 477.796 748.908C474.55 748.903 471.303 748.903 468.057 748.904C440.33 748.902 412.719 748.551 385.055 746.571C366.571 744.593 366.571 744.593 349.174 749.591C346.033 754.302 346.384 759.086 347.174 764.591C348.676 767.813 350.653 770.109 353.174 772.591C353.727 773.145 354.28 773.7 354.85 774.271C363.862 782.599 374.285 784.761 386.17 785.646C387.227 785.728 388.283 785.811 389.372 785.896C400.317 786.725 411.269 787.291 422.237 787.716C423.299 787.758 424.361 787.799 425.456 787.842C490.338 790.311 555.316 788.518 619.907 781.805C623.579 781.459 627.238 781.291 630.924 781.216C631.64 781.179 632.355 781.141 633.092 781.103C637.163 781.035 639.607 781.553 642.69 784.114C643.51 784.932 644.33 785.749 645.174 786.591C642.887 795.438 639.323 800.812 631.549 805.716C616.636 814.078 602.104 815.869 585.37 817.341C582.658 817.581 579.948 817.835 577.237 818.091C541.173 821.384 505.119 821.878 468.93 821.728C462.287 821.704 455.644 821.695 449.001 821.683C439.058 821.664 429.116 821.626 419.174 821.591C434.024 826.541 448.874 831.491 464.174 836.591C464.174 837.251 464.174 837.911 464.174 838.591C463.514 839.251 462.854 839.911 462.174 840.591C467.889 842.223 472.875 842.874 478.799 842.778C479.658 842.774 480.517 842.77 481.402 842.766C486.993 842.715 492.578 842.55 498.165 842.346C501.563 842.223 504.962 842.11 508.36 841.996C510.886 841.905 513.41 841.795 515.934 841.683C523.887 841.381 530.766 841.24 538.174 844.591C536.802 848.709 534.917 849.481 531.174 851.591C522.408 854.128 513.199 854.792 504.116 855.15C503.138 855.189 502.16 855.229 501.152 855.27C486.956 855.8 472.754 855.924 458.549 855.966C457.817 855.969 457.084 855.971 456.329 855.974C438.008 856.031 419.843 855.89 401.674 853.216C400.919 853.105 400.163 852.994 399.385 852.88C388.007 851.146 388.007 851.146 384.174 848.591C381.977 848.002 381.977 848.002 379.526 847.626C378.602 847.466 377.677 847.305 376.725 847.14C375.759 846.979 374.794 846.819 373.799 846.653C335.298 840.147 297.403 827.313 262.174 810.591C261.387 810.219 260.599 809.847 259.788 809.463C255.195 807.274 250.67 804.973 246.174 802.591C245.464 802.217 244.755 801.844 244.023 801.459C231.61 794.889 219.598 787.701 207.642 780.341C207.059 779.983 206.476 779.625 205.876 779.257C204.285 778.279 202.697 777.298 201.108 776.318C198.156 774.527 198.156 774.527 194.861 772.989C192.174 771.591 192.174 771.591 191.174 769.591C189.253 768.638 187.33 767.687 185.398 766.755C181.816 764.88 178.686 762.487 175.487 760.028C174.452 759.243 174.452 759.243 173.396 758.441C167.843 754.189 162.482 749.735 157.186 745.169C154.389 742.775 151.546 740.457 148.674 738.153C123.427 717.564 123.427 717.564 120.174 704.591C119.884 700.893 119.921 697.289 120.174 693.591C119.231 693.118 118.287 692.645 117.315 692.157C104.862 685.796 87.7181 676.679 81.1742 663.591C80.1842 663.591 79.1942 663.591 78.1742 663.591C76.2262 661.259 74.5099 658.965 72.7992 656.466C72.2739 655.709 71.7486 654.952 71.2074 654.172C65.3014 645.523 60.0271 636.508 54.8119 627.431C53.1545 624.557 51.4751 621.696 49.7914 618.837C48.71 616.985 47.6292 615.132 46.5492 613.278C46.0523 612.438 45.5553 611.597 45.0434 610.731C40.5077 602.87 36.7982 594.845 38.1742 585.591C39.9764 579.048 42.754 573.411 46.1742 567.591C45.268 566.901 44.3618 566.212 43.4281 565.501C22.4304 549.375 13.105 533.088 8.23671 507.091C8.10859 506.415 7.98047 505.739 7.84847 505.042C6.93695 500.228 6.04952 495.411 5.17421 490.591C4.95523 489.39 4.73625 488.188 4.51064 486.95C-1.75639 452.011 -1.75639 452.011 6.17421 438.591C10.4806 432.488 15.1709 427.055 21.1742 422.591C19.8413 419.581 18.43 417.715 15.9867 415.528C8.34353 408.109 3.30274 399.141 2.48671 388.466C2.40034 387.453 2.31398 386.44 2.22499 385.396C1.97001 366.292 6.59697 347.15 11.1742 328.716C11.4251 327.694 11.4251 327.694 11.6811 326.652C17.4456 303.32 28.1562 289.678 48.1742 276.591C47.7411 275.826 47.308 275.062 46.8617 274.275C42.3997 265.691 40.59 258.343 42.1742 248.591C48.3895 231.081 59.6122 214.73 70.1742 199.591C71.2095 198.088 72.2447 196.586 73.2797 195.083C86.578 175.885 101.936 158.462 125.174 151.591C125.105 150.864 125.035 150.137 124.963 149.388C124.433 139.54 127.056 132.485 133.412 124.931C138.442 119.741 143.966 115.166 149.608 110.661C151.761 108.924 153.817 107.139 155.862 105.278C162.279 99.6158 169.286 94.6582 176.174 89.5909C176.927 89.035 177.679 88.4791 178.454 87.9064C197.024 74.2082 215.469 62.4295 237.955 56.3758C243.813 54.6371 246.919 52.3613 250.654 47.5108C266.614 27.3495 305.9 19.4701 329.174 12.5909C330.684 12.1365 330.684 12.1365 332.225 11.673C333.207 11.3881 334.189 11.1032 335.202 10.8097C336.084 10.5512 336.967 10.2928 337.877 10.0265C340.174 9.59092 340.174 9.59092 343.174 10.5909C341.707 11.2445 341.707 11.2445 340.209 11.9112C325.358 18.3364 325.358 18.3364 314.174 29.5909C312.843 33.8992 312.897 35.8844 314.549 40.0909C323.516 53.571 344.093 59.3097 359.174 62.5909C375.868 64.812 396.154 47.0041 408.846 37.5362C411.355 35.6263 411.355 35.6263 413.174 32.5909C411.937 32.2197 410.699 31.8484 409.424 31.4659C401.894 28.9479 393.335 25.8623 388.174 19.5909C387.046 13.2317 387.046 13.2317 389.327 9.91514C398.641 1.10171 410.503 -0.227476 422.737 0.0284247ZM242.174 61.5909C240.951 62.8479 239.747 64.1226 238.549 65.4034C222.123 81.9331 201.976 91.2865 180.174 98.5909C180.289 100.008 180.417 101.425 180.549 102.841C180.619 103.63 180.688 104.419 180.76 105.232C182.118 112.97 189.104 120.086 195.174 124.591C199.744 126.509 203.298 124.934 207.737 123.196C218.26 118.494 227.258 111.806 236.174 104.591C236.79 104.096 237.406 103.601 238.041 103.091C244.298 98.0329 250.21 92.9733 255.174 86.5909C253.323 82.508 250.659 79.3527 247.83 75.9073C244.604 71.3954 243.816 67.0437 243.174 61.5909C242.844 61.5909 242.514 61.5909 242.174 61.5909ZM144.737 182.778C137.78 187.755 130.357 190.485 122.327 193.29C108.456 198.164 95.3182 204.006 82.1742 210.591C88.9483 228.546 111.184 239.648 127.686 247.165C173.949 268.702 173.949 268.702 222.174 269.591C234.556 262.338 243.027 249.641 246.639 235.927C246.816 235.156 246.992 234.385 247.174 233.591C247.424 232.558 247.424 232.558 247.678 231.505C248.687 226.131 247.754 221.349 245.174 216.591C240.878 210.814 235.591 210.021 228.924 208.466C203.241 201.991 177.058 194.056 154.137 180.54C149.952 178.517 148.091 180.195 144.737 182.778ZM59.0714 330.706C57.2795 331.57 55.4799 332.419 53.6801 333.267C45.6708 337.119 38.4303 341.469 31.1742 346.591C32.9795 350.569 35.2427 352.547 38.6742 355.278C39.6539 356.066 40.6336 356.854 41.643 357.665C45.6947 360.748 48.053 361.018 53.1742 360.591C63.1161 356.034 67.342 344.725 71.0101 335.107C72.0683 331.911 72.7349 328.922 73.1742 325.591C68.0161 325.591 63.6528 328.489 59.0714 330.706ZM91.7641 460.278C90.8651 460.643 89.9661 461.008 89.0399 461.384C55.5688 473.896 55.5688 473.896 29.1742 496.591C47.8109 509.276 67.6689 518.729 88.8639 526.39C91.0824 527.195 93.2841 528.047 95.4669 528.944C104.238 532.245 109.333 531.119 117.737 527.341C126.562 523.52 135.506 519.962 144.994 523.703C154.665 528.73 160.414 538.117 165.174 547.591C172.027 548.019 177.075 546.493 182.924 542.903C189.321 536.329 191.222 527.44 191.549 518.528C191.319 506.142 187.981 494.666 179.291 485.634C172.325 479.146 164.743 476.177 155.577 474.04C154.672 473.82 153.768 473.6 152.836 473.374C150.917 472.908 148.996 472.445 147.074 471.986C142.114 470.801 137.161 469.585 132.209 468.364C131.245 468.127 130.28 467.889 129.286 467.644C120.031 465.343 110.932 462.658 101.854 459.735C97.3444 458.333 95.9889 458.563 91.7641 460.278ZM79.1742 660.591C80.1742 662.591 80.1742 662.591 80.1742 662.591L79.1742 660.591ZM183.174 728.591C178.119 734.863 176.021 739.445 176.174 747.591C189.574 752.874 203.112 757.143 216.987 760.966C218.162 761.291 218.162 761.291 219.361 761.622C233.602 766.446 233.602 766.446 248.174 767.591C250.326 766.428 250.326 766.428 252.237 764.778C252.888 764.256 253.539 763.734 254.209 763.196C254.858 762.667 255.506 762.137 256.174 761.591C257.503 760.585 258.836 759.584 260.174 758.591C259.645 754.094 257.907 751.087 255.174 747.591C254.296 746.458 254.296 746.458 253.401 745.302C242.149 731.791 227.264 725.338 210.362 721.841C209.352 721.621 208.342 721.4 207.301 721.173C195.814 718.731 191.782 720.235 183.174 728.591ZM308.174 808.591C307.773 813.17 307.598 816.366 310.174 820.278C317.167 828.494 326.037 829.977 336.237 831.653C337.685 831.904 339.134 832.156 340.582 832.408C355.38 834.942 370.266 836.845 385.174 838.591C384.679 837.106 384.679 837.106 384.174 835.591C383.705 831.368 383.599 829.364 386.174 825.903C389.646 823.227 393.182 821.364 397.174 819.591C397.174 819.261 397.174 818.931 397.174 818.591C396.613 818.539 396.052 818.488 395.474 818.435C368.184 815.921 340.995 813.242 313.918 808.971C311.141 808.522 311.141 808.522 308.174 808.591Z" fill="#0B9CBE"/>
<path d="M1188.13 279.145C1210.02 300.556 1221.71 329.085 1223.17 359.592C1216.22 360.791 1209.23 361.019 1202.19 361.346C1200.82 361.412 1199.44 361.478 1198.06 361.544C1195.18 361.681 1192.29 361.816 1189.4 361.949C1186.48 362.084 1183.56 362.223 1180.64 362.365C1164.48 363.153 1148.36 363.846 1132.17 363.592C1132.06 362.344 1131.95 361.096 1131.83 359.809C1130.4 344.15 1127.93 330.068 1115.55 319.28C1106.47 312.48 1096.39 310.214 1085.17 311.592C1074.5 314.268 1066.54 319.612 1060.17 328.592C1049.28 348.053 1047.96 370.259 1047.99 392.092C1047.99 392.895 1047.99 393.699 1047.99 394.527C1048.01 429.233 1048.01 429.233 1063.3 459.467C1073.43 468.691 1085.19 470.218 1098.25 469.724C1107.73 469.075 1115.99 464.246 1122.42 457.405C1129.92 447.841 1131.89 436.21 1134.17 424.592C1145.39 424.473 1156.51 424.82 1167.71 425.467C1169.32 425.557 1170.93 425.647 1172.55 425.736C1176.74 425.969 1180.92 426.207 1185.11 426.446C1189.41 426.691 1193.71 426.93 1198.01 427.17C1206.4 427.639 1214.79 428.114 1223.17 428.592C1223.03 430.163 1222.88 431.734 1222.74 433.304C1222.65 434.179 1222.57 435.054 1222.49 435.955C1222.01 439.995 1221.05 443.858 1219.99 447.78C1219.77 448.599 1219.54 449.419 1219.32 450.263C1213.91 469.647 1205.28 485.318 1191.17 499.592C1190.53 500.308 1189.89 501.023 1189.23 501.76C1179.25 512.603 1165.42 519.576 1152.17 525.592C1150.63 526.3 1150.63 526.3 1149.05 527.022C1111.65 542.702 1063.28 540.621 1026.17 525.592C1011.42 519.337 998.754 510.69 987.175 499.592C986.329 498.788 985.483 497.983 984.612 497.155C983.808 496.309 983.003 495.463 982.175 494.592C981.194 493.587 981.194 493.587 980.194 492.561C951.945 462.61 946.256 421.926 947.038 382.365C948.477 342.516 963.76 305.454 992.604 277.819C997.721 273.089 1003.21 269.215 1009.17 265.592C1010.3 264.906 1011.43 264.221 1012.58 263.514C1063.5 233.883 1144.8 238.101 1188.13 279.145Z" fill="url(#paint0_linear_292_142)"/>
<path d="M1496.17 250.592C1526.53 250.592 1556.89 250.592 1588.17 250.592C1588.5 281.282 1588.83 311.972 1589.17 343.592C1592.64 339.632 1592.64 339.632 1596.17 335.592C1610.46 321.549 1629.74 317.332 1649.25 317.343C1673.41 317.703 1694.25 326.307 1711.17 343.592C1733.58 367.511 1738.08 402.031 1737.31 433.421C1735.95 464.211 1726.02 494.061 1703.17 515.592C1679.76 534.472 1650.77 538.829 1621.53 536.369C1600.81 534.013 1582.77 526.646 1567.79 512.107C1565.36 509.767 1562.84 507.659 1560.17 505.592C1558.9 508.402 1557.63 511.215 1556.36 514.029C1556 514.812 1555.65 515.596 1555.28 516.402C1554.93 517.185 1554.58 517.969 1554.22 518.775C1553.9 519.482 1553.58 520.189 1553.25 520.918C1551.71 524.742 1550.48 528.682 1549.17 532.592C1531.68 532.592 1514.19 532.592 1496.17 532.592C1496.17 439.532 1496.17 346.472 1496.17 250.592ZM1596.17 376.592C1587.39 385.581 1587.71 395.143 1587.74 406.955C1587.74 408.554 1587.73 410.153 1587.72 411.752C1587.72 415.095 1587.72 418.437 1587.73 421.78C1587.74 426.037 1587.72 430.292 1587.69 434.549C1587.67 437.849 1587.67 441.15 1587.68 444.45C1587.68 446.018 1587.67 447.586 1587.66 449.154C1587.59 459.421 1587.79 469.333 1594.67 477.592C1595.5 478.252 1596.32 478.912 1597.17 479.592C1597.77 480.149 1598.37 480.706 1598.99 481.279C1605.31 485.074 1613.43 485.667 1620.53 484.057C1628.36 481.653 1633.53 478.119 1637.86 471.104C1649.06 449.727 1646.41 413.184 1640.86 390.342C1638.33 382.389 1634.75 377.184 1627.58 372.779C1617.07 367.598 1605.24 369.211 1596.17 376.592Z" fill="url(#paint1_linear_292_142)"/>
<path d="M1982.73 351.241C2004.72 371.846 2013.29 400.555 2014.25 429.896C2014.32 434.979 2013.82 439.428 2013.17 444.592C1961.69 444.592 1910.21 444.592 1857.17 444.592C1859.36 462.597 1859.36 462.597 1869.64 476.256C1880.81 482.134 1894.58 482.203 1906.82 479.908C1914.87 477.193 1920.15 473.002 1924.05 465.467C1925.43 462.524 1926.42 459.748 1927.17 456.592C1936.98 456.477 1946.69 456.807 1956.48 457.432C1957.9 457.519 1959.31 457.607 1960.73 457.694C1963.68 457.875 1966.62 458.059 1969.56 458.246C1973.31 458.484 1977.07 458.716 1980.82 458.945C1983.73 459.124 1986.65 459.306 1989.57 459.488C1990.95 459.575 1992.33 459.66 1993.72 459.745C2000.57 460.168 2007.37 460.627 2014.17 461.592C2012.37 474.191 2005.5 486.138 1997.17 495.592C1996.25 496.75 1996.25 496.75 1995.3 497.932C1975.7 521.428 1944.83 533.199 1915.1 536.299C1894.17 537.862 1871.69 538.458 1851.17 533.592C1850.43 533.426 1849.69 533.259 1848.93 533.088C1825.37 527.684 1805.24 516.638 1788.17 499.592C1787.3 498.73 1786.43 497.867 1785.53 496.979C1766.97 477.712 1759.62 453.056 1759.82 426.761C1760.55 396.831 1772.97 371.072 1794.09 350.264C1813.29 331.983 1838.95 321.575 1865.17 318.592C1866.47 318.428 1866.47 318.428 1867.79 318.26C1909.37 313.849 1951.35 322.581 1982.73 351.241ZM1863.17 377.592C1857.28 385.344 1857.17 392.999 1857.17 402.592C1878.29 402.592 1899.41 402.592 1921.17 402.592C1921.17 392.6 1920.93 383.478 1914.17 375.592C1905.48 367.668 1895.71 366.969 1884.43 367.315C1875.31 367.793 1869.36 370.82 1863.17 377.592Z" fill="url(#paint2_linear_292_142)"/>
<path d="M3131.59 346.224C3132.44 347.005 3133.3 347.786 3134.17 348.591C3135.1 349.434 3136.02 350.277 3136.97 351.146C3156.44 369.727 3167.46 395.691 3168.26 422.566C3168.55 438.228 3168.55 438.228 3168.17 443.591C3167.17 444.591 3167.17 444.591 3164.61 444.714C3163.46 444.713 3162.32 444.712 3161.13 444.712C3159.82 444.713 3158.5 444.714 3157.15 444.716C3155.68 444.712 3154.21 444.708 3152.74 444.705C3151.2 444.704 3149.67 444.705 3148.13 444.705C3143.94 444.706 3139.76 444.7 3135.57 444.693C3131.2 444.686 3126.83 444.686 3122.46 444.685C3114.18 444.682 3105.9 444.673 3097.62 444.663C3088.2 444.652 3078.77 444.647 3069.35 444.642C3049.96 444.631 3030.57 444.614 3011.17 444.591C3011.62 447.472 3012.07 450.35 3012.53 453.228C3012.65 454.038 3012.78 454.848 3012.9 455.682C3014.17 463.555 3016.42 469.585 3021.86 475.529C3029.4 480.221 3037.38 481.126 3046.11 481.029C3047.08 481.02 3048.04 481.012 3049.04 481.004C3059.24 480.761 3066.99 478.694 3074.52 471.521C3077.11 468.494 3078.71 465.275 3080.17 461.591C3080.84 459.924 3081.51 458.258 3082.17 456.591C3091.91 456.478 3101.54 456.802 3111.26 457.431C3112.66 457.519 3114.05 457.606 3115.45 457.693C3118.34 457.874 3121.24 458.059 3124.13 458.245C3127.83 458.483 3131.52 458.715 3135.21 458.945C3138.08 459.124 3140.95 459.305 3143.82 459.488C3145.84 459.616 3147.85 459.742 3149.87 459.868C3156 460.265 3162.08 460.73 3168.17 461.591C3165.98 481.112 3152.22 497.784 3137.53 509.951C3114.67 528.112 3085.23 536.628 3056.25 536.794C3055.02 536.805 3055.02 536.805 3053.76 536.816C3019.16 537.046 3019.16 537.046 3005.17 533.591C3004.37 533.398 3003.57 533.205 3002.75 533.005C2984.23 528.371 2967.01 520.699 2952.17 508.591C2951.65 508.166 2951.13 507.741 2950.59 507.303C2930.48 490.577 2917.38 467.434 2914.57 441.296C2912.77 419.598 2916.36 398.995 2926.17 379.591C2926.71 378.533 2927.24 377.475 2927.79 376.384C2932.25 368.235 2937.99 361.453 2944.17 354.591C2944.75 353.935 2945.32 353.279 2945.91 352.603C2955.84 341.875 2968.95 334.454 2982.17 328.591C2983.25 328.109 2984.33 327.627 2985.44 327.13C3030.33 308.52 3094.22 313.84 3131.59 346.224ZM3018.17 376.591C3012.86 385.027 3011.17 392.72 3011.17 402.591C3032.62 402.591 3054.07 402.591 3076.17 402.591C3074.75 385.75 3074.75 385.75 3065.42 373.154C3051.64 364.173 3029.9 364.046 3018.17 376.591Z" fill="url(#paint3_linear_292_142)"/>
<path d="M2442.92 351.53C2462.39 369.68 2473.19 394.082 2474.56 420.503C2475.48 451.818 2465.54 477.833 2444.17 500.593C2419.68 525.713 2386.12 536.341 2351.67 536.915C2320.95 537.274 2320.95 537.274 2306.17 533.593C2305.48 533.432 2304.79 533.271 2304.08 533.105C2286.47 528.914 2270.22 520.979 2256.17 509.593C2254.73 508.423 2254.73 508.423 2253.26 507.229C2234.63 491.18 2220.11 467.206 2217.17 442.593C2215.38 418.289 2217.89 396.771 2230.17 375.593C2230.72 374.612 2231.26 373.631 2231.82 372.62C2246.96 346.963 2274.7 329.787 2303.02 322.362C2351.67 310.539 2404.64 317.887 2442.92 351.53ZM2327.62 377.093C2315.68 389.955 2315.67 409.189 2315.84 425.769C2315.86 428.289 2315.86 430.808 2315.85 433.329C2315.88 449.725 2315.93 468.435 2328.11 480.815C2333.94 485.835 2340.73 486.572 2348.17 486.593C2355.93 486.009 2362.47 482.67 2367.71 476.901C2376.38 463.768 2376.36 442.59 2376.36 427.438C2376.36 425.426 2376.38 423.415 2376.4 421.403C2376.42 405.752 2375.91 387.056 2364.24 375.335C2353.82 366.54 2337.19 367.875 2327.62 377.093Z" fill="url(#paint4_linear_292_142)"/>
<path d="M1229.17 321.592C1261.84 321.592 1294.51 321.592 1328.17 321.592C1345.3 370.691 1345.3 370.691 1353.28 393.736C1357.54 406.035 1361.82 418.325 1366.17 430.592C1369.85 422.023 1373.14 413.362 1376.27 404.58C1376.75 403.25 1377.22 401.921 1377.7 400.591C1378.7 397.798 1379.7 395.005 1380.7 392.21C1382.25 387.878 1383.8 383.547 1385.35 379.217C1385.6 378.502 1385.86 377.788 1386.12 377.051C1386.64 375.617 1387.15 374.182 1387.67 372.748C1388.43 370.621 1389.19 368.494 1389.95 366.367C1395.3 351.422 1400.73 336.504 1406.17 321.592C1428.61 321.592 1451.05 321.592 1474.17 321.592C1472.36 327.648 1470.62 333.329 1468.19 339.096C1467.9 339.791 1467.61 340.487 1467.32 341.203C1466.69 342.72 1466.06 344.236 1465.43 345.752C1463.64 350.043 1461.86 354.341 1460.09 358.639C1459.71 359.575 1459.32 360.512 1458.92 361.477C1453.79 373.924 1448.77 386.416 1443.74 398.904C1442.74 401.37 1441.75 403.836 1440.75 406.302C1439.28 409.95 1437.81 413.598 1436.34 417.246C1431.96 428.116 1427.57 438.98 1423.17 449.842C1422.83 450.689 1422.49 451.537 1422.13 452.41C1418.56 461.247 1414.97 470.084 1411.39 478.92C1411.08 479.681 1410.78 480.443 1410.46 481.227C1408.92 485.011 1407.39 488.795 1405.85 492.578C1402.84 499.989 1399.84 507.406 1396.88 514.834C1395.37 518.608 1393.85 522.379 1392.34 526.15C1391.62 527.951 1390.9 529.752 1390.18 531.554C1379.83 557.607 1368.06 584.538 1341.08 597.021C1327.81 602.46 1313.86 604.763 1299.57 604.725C1298.78 604.726 1297.99 604.727 1297.17 604.729C1294.63 604.731 1292.09 604.725 1289.55 604.717C1288.68 604.716 1287.82 604.714 1286.93 604.713C1276.4 604.696 1265.88 604.604 1255.36 604.154C1254.43 604.115 1253.5 604.076 1252.55 604.036C1246.44 603.727 1246.44 603.727 1244.17 602.592C1244.17 583.122 1244.17 563.652 1244.17 543.592C1252.42 544.252 1260.67 544.912 1269.17 545.592C1292.52 546.347 1292.52 546.347 1313.74 537.779C1316.1 534.182 1316.63 530.908 1315.79 526.652C1313.19 517.697 1309.26 509.286 1305.49 500.779C1304.72 499.049 1303.96 497.319 1303.2 495.588C1302.03 492.915 1300.86 490.241 1299.68 487.569C1295.72 478.574 1291.82 469.553 1287.92 460.529C1286.92 458.213 1285.92 455.897 1284.92 453.581C1284.27 452.074 1283.62 450.567 1282.97 449.06C1279.88 441.902 1276.78 434.746 1273.67 427.592C1267.21 412.67 1260.75 397.742 1254.3 382.813C1251.8 377.044 1249.31 371.275 1246.81 365.506C1245.74 363.021 1244.66 360.537 1243.59 358.053C1242.91 356.483 1242.23 354.914 1241.55 353.344C1241.07 352.232 1241.07 352.232 1240.58 351.097C1240.26 350.372 1239.95 349.646 1239.63 348.899C1238.72 346.803 1237.82 344.705 1236.91 342.608C1235.75 339.908 1234.57 337.215 1233.38 334.525C1232.96 333.56 1232.96 333.56 1232.53 332.575C1231.76 330.831 1231 329.089 1230.23 327.347C1229.17 324.592 1229.17 324.592 1229.17 321.592Z" fill="url(#paint5_linear_292_142)"/>
<path d="M2648.17 250.592C2678.53 250.592 2708.89 250.592 2740.17 250.592C2740.17 343.652 2740.17 436.712 2740.17 532.592C2709.81 532.592 2679.45 532.592 2648.17 532.592C2648.17 439.532 2648.17 346.472 2648.17 250.592Z" fill="url(#paint6_linear_292_142)"/>
<path d="M2509.17 250.592C2539.53 250.592 2569.89 250.592 2601.17 250.592C2601.17 343.652 2601.17 436.712 2601.17 532.592C2570.81 532.592 2540.45 532.592 2509.17 532.592C2509.17 439.532 2509.17 346.472 2509.17 250.592Z" fill="url(#paint7_linear_292_142)"/>
<path d="M2201.17 318.592C2201.17 343.012 2201.17 367.432 2201.17 392.592C2197.54 392.262 2193.91 391.932 2190.17 391.592C2175.76 390.789 2161.67 392.25 2150.42 401.967C2149.68 402.833 2148.94 403.7 2148.17 404.592C2147.33 405.52 2146.48 406.448 2145.61 407.405C2137.1 420.021 2138.57 437.675 2138.56 452.123C2138.55 454.455 2138.53 456.786 2138.51 459.117C2138.47 465.2 2138.45 471.282 2138.44 477.365C2138.41 484.692 2138.36 492.018 2138.31 499.345C2138.24 510.427 2138.21 521.509 2138.17 532.592C2108.8 532.592 2079.43 532.592 2049.17 532.592C2049.17 462.962 2049.17 393.332 2049.17 321.592C2074.58 321.592 2099.99 321.592 2126.17 321.592C2128.18 323.597 2127.43 327.592 2127.49 330.346C2127.51 331.122 2127.53 331.897 2127.55 332.696C2127.62 335.182 2127.68 337.668 2127.74 340.155C2127.78 341.836 2127.82 343.518 2127.87 345.2C2127.97 349.33 2128.08 353.461 2128.17 357.592C2128.68 356.477 2129.2 355.361 2129.72 354.212C2136.39 339.773 2145.09 328.436 2160.36 322.315C2174.66 317.39 2184.1 318.592 2201.17 318.592Z" fill="url(#paint8_linear_292_142)"/>
<path d="M2787.17 321.592C2817.53 321.592 2847.89 321.592 2879.17 321.592C2880.97 323.387 2880.3 325.827 2880.3 328.217C2880.3 329.031 2880.3 329.846 2880.29 330.684C2880.29 331.543 2880.3 332.401 2880.3 333.286C2880.3 336.185 2880.29 339.084 2880.29 341.983C2880.29 344.052 2880.29 346.121 2880.29 348.19C2880.29 353.826 2880.28 359.462 2880.28 365.098C2880.27 370.981 2880.27 376.864 2880.27 382.747C2880.26 393.896 2880.26 405.045 2880.25 416.194C2880.23 431.254 2880.23 446.313 2880.22 461.373C2880.21 485.112 2880.19 508.852 2880.17 532.592C2849.48 532.592 2818.79 532.592 2787.17 532.592C2787.17 462.962 2787.17 393.332 2787.17 321.592Z" fill="url(#paint9_linear_292_142)"/>
<path d="M2787.17 241.592C2817.86 241.592 2848.55 241.592 2880.17 241.592C2880.17 263.372 2880.17 285.152 2880.17 307.592C2849.48 307.592 2818.79 307.592 2787.17 307.592C2787.17 285.812 2787.17 264.032 2787.17 241.592Z" fill="url(#paint10_linear_292_142)"/>
<path d="M24.0219 421.705C26.9561 422.914 29.2418 424.65 31.7992 426.53C50.3601 439.71 71.4075 448.423 92.6039 456.436C95.1742 457.592 95.1742 457.592 96.1742 459.592C95.5968 459.823 95.0194 460.054 94.4245 460.291C72.6946 469.003 51.1978 477.635 33.1899 492.998C31.2571 494.527 29.4142 495.583 27.1742 496.592C12.7466 483.918 12.7466 483.918 8.17423 476.592C8.17423 475.932 8.17423 475.272 8.17423 474.592C7.18423 474.592 6.19423 474.592 5.17423 474.592C5.46934 475.737 5.76446 476.882 6.06851 478.062C7.14615 482.377 8.03393 486.712 8.86563 491.08C9.0158 491.864 9.16598 492.648 9.3207 493.456C9.63534 495.103 9.94872 496.751 10.2609 498.4C10.7337 500.889 11.2145 503.376 11.6957 505.864C13.2681 514.088 14.7053 522.214 15.1742 530.592C13.1742 529.592 13.1742 529.592 12.4916 527.587C12.2889 526.697 12.0862 525.806 11.8774 524.889C11.6435 523.864 11.4097 522.839 11.1689 521.783C10.9231 520.647 10.6774 519.512 10.4242 518.342C10.1669 517.163 9.90957 515.984 9.64444 514.769C7.60203 505.137 5.82601 495.463 4.20243 485.752C3.93728 484.167 3.66858 482.583 3.39603 480.999C0.657143 464.967 -1.63759 449.718 8.26407 435.616C19.4519 421.425 19.4519 421.425 24.0219 421.705Z" fill="#B5B7DB"/>
<path d="M51.1738 276.592C52.5059 277.955 52.5059 277.955 53.9863 279.904C57.8397 284.578 62.3667 287.995 67.2864 291.47C71.5754 294.638 73.6102 297.328 75.1738 302.592C75.5283 305.464 75.5506 308.264 75.4863 311.154C75.4896 311.883 75.4928 312.612 75.4961 313.363C75.4527 317.749 75.3708 321.711 73.1738 325.592C70.2861 327.483 67.1873 328.699 63.9863 329.967C62.1643 330.736 60.344 331.51 58.5254 332.287C57.6208 332.67 56.7162 333.053 55.7842 333.448C47.1302 337.239 38.6308 341.772 31.1738 347.592C26.322 345.54 23.8867 341.984 21.1738 337.592C20.2988 334.592 20.2988 334.592 20.1738 332.592C19.5138 332.592 18.8538 332.592 18.1738 332.592C17.8438 330.282 17.5138 327.972 17.1738 325.592C14.9032 326.445 14.9032 326.445 14.2134 329.119C11.4441 338.862 9.64083 348.6 8.04883 358.592C7.67191 360.933 7.29248 363.274 6.90726 365.614C6.67062 367.053 6.43873 368.494 6.21262 369.935C5.55119 373.982 4.57469 377.739 3.17383 381.592C2.84383 381.592 2.51383 381.592 2.17383 381.592C3.48445 363.614 6.83612 346.187 11.1738 328.717C11.3411 328.036 11.5084 327.354 11.6807 326.652C16.6738 306.443 24.7502 292.662 42.0488 280.529C42.6084 280.135 43.1681 279.74 43.7446 279.334C46.459 277.495 47.8235 276.592 51.1738 276.592Z" fill="#B1B2D4"/>
<path d="M125.174 150.592C127.174 153.592 127.174 153.592 128.365 155.756C133.723 165.373 140.603 172.197 150.174 177.592C147.856 183.423 142.488 185.767 137.174 188.592C133.48 190.147 129.737 191.519 125.963 192.861C120.061 194.965 114.245 197.277 108.424 199.592C107.395 199.995 106.366 200.398 105.306 200.814C98.8952 203.365 92.8147 206.24 86.7588 209.553C84.1738 210.592 84.1738 210.592 81.8936 210.443C81.326 210.162 80.7585 209.881 80.1738 209.592C78.9853 206.026 79.005 203.101 78.9863 199.342C78.9721 198.058 78.958 196.774 78.9434 195.451C79.2873 189.692 80.3931 184.994 84.0488 180.467C84.5412 179.845 85.0337 179.224 85.541 178.584C86.0798 177.927 86.6187 177.269 87.1738 176.592C87.79 175.775 88.4062 174.957 89.041 174.115C98.1165 163.378 112.749 156.708 125.174 150.592Z" fill="#A4A4BD"/>
<path d="M121.173 693.592C126.02 694.25 130.038 696.237 134.423 698.279C148.331 704.585 162.538 709.101 177.232 713.201C183.249 714.882 189.215 716.713 195.173 718.592C192.451 721.396 189.727 723.965 186.673 726.404C180.127 731.995 177.569 738.248 176.173 746.592C169.391 745.366 164.101 743.327 158.111 739.967C157.34 739.547 156.57 739.126 155.777 738.693C153.903 737.669 152.037 736.632 150.173 735.592C153.684 739.186 157.327 742.544 161.173 745.779C161.733 746.251 162.292 746.723 162.869 747.209C171.019 754.031 179.456 760.51 188.173 766.592C184.873 766.592 184.253 766.213 181.654 764.389C180.968 763.909 180.282 763.429 179.576 762.935C178.845 762.409 178.114 761.883 177.361 761.342C176.604 760.803 175.847 760.263 175.067 759.708C168.295 754.813 161.997 749.473 155.737 743.95C153.413 741.932 151.012 740.015 148.611 738.092C121.55 716.075 121.55 716.075 119.896 702.279C119.844 699.133 120.177 696.582 121.173 693.592Z" fill="#B3B8DC"/>
<path d="M211.736 647.904C223.864 655.417 234.787 666.818 241.174 679.591C241.174 680.251 241.174 680.911 241.174 681.591C236.41 681.698 232.05 681.361 227.369 680.489C226.075 680.25 224.781 680.01 223.448 679.762C222.065 679.498 220.682 679.232 219.299 678.966C218.595 678.832 217.892 678.699 217.167 678.561C207.52 676.723 197.918 674.732 188.361 672.466C186.899 672.123 186.899 672.123 185.407 671.772C175.815 669.425 166.96 666.82 159.174 660.591C161.656 657.686 164.196 656.568 167.725 655.181C168.816 654.748 169.907 654.316 171.031 653.87C172.742 653.206 172.742 653.206 174.486 652.529C176.179 651.859 176.179 651.859 177.906 651.175C200.529 642.267 200.529 642.267 211.736 647.904Z" fill="#999AAB"/>
<path d="M47.1746 567.592C52.1912 569.025 54.1892 571.497 57.1746 575.592C57.1746 576.252 57.1746 576.912 57.1746 577.592C57.8346 577.592 58.4946 577.592 59.1746 577.592C63.1746 584.217 63.1746 584.217 63.1746 587.592C63.8346 587.592 64.4946 587.592 65.1746 587.592C67.9718 592.886 70.2005 598.153 72.159 603.811C73.1231 606.57 73.1231 606.57 74.3153 609.061C77.4948 615.957 77.5993 622.066 77.1746 629.592C68.2777 630.087 63.0902 624.516 56.7371 618.842C54.5096 616.792 52.3151 614.732 50.1746 612.592C50.8965 613.561 51.6184 614.531 52.3621 615.529C54.8101 618.954 56.8512 622.5 58.8543 626.197C60.2574 628.742 61.735 631.23 63.2371 633.717C70.1746 645.226 70.1746 645.226 70.1746 647.592C70.8346 647.592 71.4946 647.592 72.1746 647.592C72.1746 648.582 72.1746 649.572 72.1746 650.592C72.8346 650.592 73.4946 650.592 74.1746 650.592C75.2051 652.545 76.2237 654.505 77.2371 656.467C77.8056 657.557 78.3741 658.648 78.9598 659.771C79.3607 660.702 79.7616 661.633 80.1746 662.592C79.8446 663.252 79.5146 663.912 79.1746 664.592C69.3075 651.976 61.2435 638.404 53.1746 624.592C52.5834 623.591 51.9923 622.589 51.3831 621.558C49.7204 618.741 48.0701 615.918 46.4246 613.092C45.9355 612.263 45.4464 611.434 44.9425 610.58C40.4508 602.772 36.8122 594.77 38.1746 585.592C39.9405 579.099 42.3174 572.449 47.1746 567.592Z" fill="#B9C3ED"/>
<path d="M439.675 828.154C442.058 828.971 444.442 829.785 446.827 830.598C452.617 832.575 458.399 834.574 464.175 836.592C464.175 837.252 464.175 837.912 464.175 838.592C463.515 839.252 462.855 839.912 462.175 840.592C462.67 841.582 462.67 841.582 463.175 842.592C447.465 842.858 431.86 842.503 416.175 841.654C415.361 841.611 414.547 841.567 413.708 841.522C406.374 841.125 399.041 840.697 391.718 840.127C390.477 840.03 390.477 840.03 389.211 839.932C387.175 839.592 387.175 839.592 384.487 837.967C382.619 834.586 382.641 832.398 383.175 828.592C393.804 808.3 424.497 822.852 439.675 828.154Z" fill="#B2B3D5"/>
<path d="M245.174 54.5918C243.992 63.6562 236.517 68.9839 229.74 74.3613C216.766 84.3345 197.185 98.5918 180.174 98.5918C181.149 90.0899 184.809 84.2877 191.174 78.5918C203.617 68.9065 218.741 62.3823 233.486 57.0918C234.198 56.8362 234.909 56.5807 235.642 56.3174C239.043 55.1485 241.533 54.5918 245.174 54.5918Z" fill="#9798A8"/>
<path d="M147.361 523.905C155.121 529.178 161.075 537.216 165.174 545.592C165.174 546.252 165.174 546.912 165.174 547.592C155.012 545.699 145.044 543.372 135.065 540.686C132.847 540.088 130.627 539.498 128.406 538.909C124.324 537.822 120.248 536.712 116.174 535.592C115.107 535.302 114.041 535.012 112.942 534.713C111.581 534.329 111.581 534.329 110.193 533.936C109.427 533.721 108.661 533.507 107.872 533.286C106.174 532.592 106.174 532.592 105.174 530.592C109.078 529.059 112.999 527.572 116.924 526.092C118.562 525.448 118.562 525.448 120.232 524.792C129.375 521.383 138.309 519.259 147.361 523.905Z" fill="#91939F"/>
<path d="M270.174 801.591C275.195 801.456 279.716 801.923 284.639 802.904C285.656 803.104 285.656 803.104 286.694 803.307C288.834 803.729 290.973 804.16 293.111 804.591C294.573 804.881 296.034 805.17 297.496 805.459C301.057 806.163 304.616 806.875 308.174 807.591C308.226 808.203 308.279 808.814 308.333 809.444C308.411 810.249 308.488 811.055 308.568 811.884C308.642 812.681 308.715 813.478 308.79 814.299C309.381 817.827 310.864 819.907 313.174 822.591C315.132 823.985 317.125 825.334 319.174 826.591C319.174 826.921 319.174 827.251 319.174 827.591C302.516 826.612 283.942 816.383 271.674 805.341C270.174 803.591 270.174 803.591 270.174 801.591Z" fill="#A5ABC7"/>
<path d="M387.174 849.592C401.071 850.348 401.071 850.348 407.693 851.051C424.193 852.786 440.707 853.221 457.28 853.656C461.116 853.759 464.951 853.869 468.787 853.979C476.249 854.191 483.711 854.394 491.174 854.592C491.174 854.922 491.174 855.252 491.174 855.592C480.778 855.744 470.383 855.846 459.986 855.904C459.222 855.909 458.458 855.913 457.671 855.917C433.831 856.035 410.644 855.209 387.174 850.592C387.174 850.262 387.174 849.932 387.174 849.592Z" fill="#9498A9"/>
<path d="M15.1738 313.592C15.8338 313.592 16.4938 313.592 17.1738 313.592C17.1738 317.552 17.1738 321.512 17.1738 325.592C16.1838 326.087 16.1838 326.087 15.1738 326.592C11.2806 336.836 9.76457 347.824 8.04883 358.592C7.67191 360.933 7.29248 363.274 6.90726 365.614C6.67062 367.053 6.43873 368.494 6.21262 369.935C5.55119 373.982 4.57469 377.739 3.17383 381.592C2.84383 381.592 2.51383 381.592 2.17383 381.592C2.73086 373.951 3.4922 366.402 4.73633 358.842C4.89907 357.851 5.06182 356.861 5.22949 355.84C7.71356 341.579 11.5022 327.584 15.1738 313.592Z" fill="#A0D4FB"/>
<path d="M4.17299 468.592C7.17299 472.342 7.17299 472.342 7.17299 474.592C6.51299 474.592 5.85299 474.592 5.17299 474.592C5.4681 475.737 5.76322 476.882 6.06728 478.061C7.14491 482.376 8.0327 486.712 8.8644 491.08C9.01457 491.864 9.16474 492.648 9.31946 493.455C9.6341 495.103 9.94749 496.751 10.2597 498.399C10.7324 500.888 11.2133 503.376 11.6945 505.863C13.2668 514.088 14.7041 522.214 15.173 530.592C14.513 530.262 13.853 529.932 13.173 529.592C12.4586 527.381 12.4586 527.381 11.8058 524.432C11.5616 523.339 11.3174 522.247 11.0658 521.121C10.8124 519.936 10.559 518.75 10.298 517.529C9.90535 515.716 9.90535 515.716 9.50478 513.865C7.78315 505.778 6.16912 497.673 4.73549 489.529C4.55969 488.575 4.3839 487.62 4.20277 486.636C3.15984 480.408 3.22548 474.834 4.17299 468.592Z" fill="#99D4FA"/>
<path d="M139.174 727.592C148.353 731.828 148.353 731.828 150.045 735.463C151.566 738.331 153.566 739.774 156.111 741.779C157.105 742.569 158.099 743.36 159.123 744.174C160.13 744.972 161.137 745.77 162.174 746.592C163.925 748.048 165.675 749.507 167.424 750.967C174.127 756.463 181.149 761.52 188.174 766.592C184.873 766.592 184.253 766.213 181.654 764.389C180.969 763.909 180.283 763.429 179.577 762.935C178.846 762.409 178.115 761.883 177.361 761.342C176.604 760.803 175.848 760.263 175.068 759.708C168.309 754.822 162.024 749.494 155.777 743.98C152.435 741.086 148.95 738.365 145.479 735.627C143.036 733.47 141.1 731.215 139.174 728.592C139.174 728.262 139.174 727.932 139.174 727.592Z" fill="#9EB9DB"/>
<path d="M259.174 758.592C260.164 758.922 261.154 759.252 262.174 759.592C262.174 762.232 262.174 764.872 262.174 767.592C258.962 769.498 256.635 769.814 252.924 769.717C252.032 769.699 251.14 769.681 250.221 769.662C249.207 769.627 249.207 769.627 248.174 769.592C248.174 768.602 248.174 767.612 248.174 766.592C249.818 765.057 249.818 765.057 251.986 763.529C252.694 763.023 253.402 762.516 254.131 761.994C255.803 760.847 257.487 759.717 259.174 758.592Z" fill="#B4C1EB"/>
<path d="M15.1738 313.592C15.8338 313.592 16.4938 313.592 17.1738 313.592C17.1738 317.552 17.1738 321.512 17.1738 325.592C16.1838 326.087 16.1838 326.087 15.1738 326.592C14.2618 329.421 13.4386 332.223 12.6738 335.092C11.909 337.961 11.0859 340.762 10.1738 343.592C9.51383 343.922 8.85383 344.252 8.17383 344.592C9.58854 334.013 12.3577 323.868 15.1738 313.592Z" fill="#B1CAF4"/>
<path d="M8.1732 502.592C11.1732 504.592 11.1732 504.592 12.0873 507.682C12.3219 508.951 12.5565 510.221 12.7982 511.529C12.923 512.196 13.0478 512.864 13.1764 513.551C14.195 519.201 14.8276 524.86 15.1732 530.592C13.1732 529.592 13.1732 529.592 12.4872 527.538C12.2882 526.653 12.0892 525.769 11.8841 524.857C11.665 523.891 11.4459 522.924 11.2201 521.928C10.9984 520.909 10.7766 519.891 10.5482 518.842C10.3187 517.839 10.0893 516.836 9.85289 515.803C8.84995 511.301 8.03675 507.223 8.1732 502.592Z" fill="#A4CFF6"/>
<path d="M387.174 849.592C391.786 849.87 396.398 850.158 401.01 850.455C402.991 850.58 404.973 850.696 406.955 850.811C408.641 850.919 408.641 850.919 410.361 851.029C411.366 851.09 412.37 851.15 413.404 851.213C416.268 851.605 418.548 852.406 421.174 853.592C421.174 853.922 421.174 854.252 421.174 854.592C409.738 853.977 398.488 852.298 387.174 850.592C387.174 850.262 387.174 849.932 387.174 849.592Z" fill="#B4B9E1"/>
<path d="M166.174 751.592C170.106 752.956 172.863 754.742 176.049 757.404C179.991 760.644 183.986 763.679 188.174 766.592C184.733 766.592 183.972 766.01 181.232 764.072C180.484 763.544 179.736 763.017 178.965 762.473C178.188 761.914 177.412 761.355 176.611 760.779C175.831 760.232 175.05 759.685 174.246 759.121C168.436 754.986 168.436 754.986 166.174 751.592Z" fill="#98AEC8"/>
<path d="M4.17467 468.592C7.17467 472.342 7.17467 472.342 7.17467 474.592C6.51467 474.592 5.85467 474.592 5.17467 474.592C5.50467 475.252 5.83467 475.912 6.17467 476.592C6.24463 478.299 6.25907 480.008 6.23717 481.717C6.22814 482.627 6.21912 483.537 6.20982 484.475C6.19242 485.523 6.19242 485.523 6.17467 486.592C3.64473 484.062 3.77713 482.792 3.48717 479.279C3.4008 478.334 3.31443 477.39 3.22545 476.416C3.17548 473.637 3.52217 471.285 4.17467 468.592Z" fill="#86DBFC"/>
<path d="M81.1738 184.592C81.1738 187.592 81.1738 187.592 80.709 189.326C79.9633 192.483 79.821 195.607 79.6113 198.842C79.5275 200.105 79.4437 201.368 79.3574 202.67C79.2968 203.634 79.2363 204.598 79.1738 205.592C78.8438 205.592 78.5138 205.592 78.1738 205.592C77.8438 201.632 77.5138 197.672 77.1738 193.592C76.1838 194.252 75.1938 194.912 74.1738 195.592C75.6598 190.999 78.024 188.156 81.1738 184.592Z" fill="#46D7E9"/>
<path d="M139.174 727.592C142.752 729.243 145.922 731.375 149.174 733.592C148.844 734.252 148.514 734.912 148.174 735.592C145.817 735.417 144.477 734.892 142.795 733.225C139.174 728.912 139.174 728.912 139.174 727.592Z" fill="#7FC6E6"/>
<path d="M195.174 75.5918C195.834 75.9218 196.494 76.2518 197.174 76.5918C193.544 80.2218 189.914 83.8518 186.174 87.5918C186.174 83.4326 188.421 81.4464 191.174 78.5918C193.486 76.7168 193.486 76.7168 195.174 75.5918Z" fill="#80AFC6"/>
<path d="M1.17383 462.592C2.16383 462.922 3.15383 463.252 4.17383 463.592C5.12408 467.287 5.12408 469.896 4.17383 473.592C3.51383 473.262 2.85383 472.932 2.17383 472.592C1.75977 470.307 1.75977 470.307 1.54883 467.529C1.47406 466.61 1.3993 465.691 1.32227 464.744C1.27328 464.034 1.2243 463.324 1.17383 462.592Z" fill="#BCCEFD"/>
<path d="M420.174 852.592C423.474 852.922 426.774 853.252 430.174 853.592C430.174 854.252 430.174 854.912 430.174 855.592C428.694 855.478 427.215 855.351 425.736 855.217C424.913 855.147 424.089 855.078 423.24 855.006C422.558 854.869 421.876 854.733 421.174 854.592C420.844 853.932 420.514 853.272 420.174 852.592Z" fill="#A0AACA"/>
<path d="M16.1738 315.592C16.5038 315.592 16.8338 315.592 17.1738 315.592C17.1738 318.892 17.1738 322.192 17.1738 325.592C16.1838 325.922 15.1938 326.252 14.1738 326.592C14.8338 322.962 15.4938 319.332 16.1738 315.592Z" fill="#41E8F8"/>
<g filter="url(#filter0_d_292_142)">
<path d="M1503.49 627.116L1502.17 627.596V628.995V761.882V763.575L1503.84 763.854C1507.72 764.501 1513.92 765.135 1522 765.135C1536.87 765.135 1547.5 761.272 1554.12 751.74L1554.13 751.732L1554.13 751.724C1559.08 744.458 1561.98 735.279 1561.98 723.645C1561.98 705.06 1553.77 693.893 1545.33 689.271C1553.87 683.245 1558.7 672.126 1558.7 659.71C1558.7 648.777 1555.83 640.084 1550.7 634.574C1544.61 627.138 1536.48 623.861 1524.81 623.861C1517.14 623.861 1508.92 625.136 1503.49 627.116ZM1517.9 746.504V698.692H1525.28C1531.22 698.692 1536.41 700.452 1540.11 704.141C1543.8 707.823 1546.26 713.681 1546.26 722.392C1546.26 731.717 1543.57 737.723 1539.77 741.407C1535.96 745.108 1530.77 746.718 1525.28 746.718C1522.16 746.718 1519.76 746.71 1517.9 746.504ZM1525.75 682.156H1517.43V642.423C1519.21 642.011 1521.9 641.651 1525.75 641.651C1531.01 641.651 1535.23 643.112 1538.14 646.133C1541.07 649.164 1542.98 654.074 1542.98 661.59C1542.98 667.805 1541.21 672.961 1538.23 676.526C1535.27 680.058 1531.03 682.156 1525.75 682.156Z" fill="#FF5822" stroke="#FF5822" stroke-width="4"/>
<path d="M1572.91 694.812V696.812H1573.85V760.628V762.628H1575.85H1587.11H1589.11V760.628V709.228C1589.11 706.671 1589.12 703.736 1589.54 701.448L1589.56 701.37L1589.57 701.292C1590.25 694.936 1592.05 689.633 1594.51 685.98C1596.97 682.33 1599.95 680.514 1603.05 680.514C1604.43 680.514 1605 680.525 1605.99 680.968L1608.81 682.222V679.141V662.844V661.775L1607.92 661.181C1606.47 660.211 1604.97 660.214 1603.71 660.217C1603.65 660.217 1603.59 660.217 1603.52 660.217C1598.8 660.217 1594.53 662.641 1591.15 666.647C1589.57 668.514 1588.17 670.744 1586.98 673.284L1586.76 664.674L1586.71 662.724H1584.76H1574.45H1572.34L1572.45 664.831C1572.91 673.542 1572.91 683.513 1572.91 694.812Z" fill="#FF5822" stroke="#FF5822" stroke-width="4"/>
<path d="M1616.53 761.255V763.255H1618.53H1629.79H1631.79V761.255V664.725V662.725H1629.79H1618.53H1616.53V664.725V761.255ZM1623.69 650.427C1626.75 650.427 1629.22 648.957 1630.85 646.581C1632.44 644.271 1633.2 641.173 1633.2 637.772C1633.2 634.381 1632.44 631.14 1630.87 628.758C1629.28 626.332 1626.76 624.741 1623.56 625.117C1620.72 625.163 1618.43 626.695 1616.92 628.997C1615.42 631.291 1614.66 634.367 1614.66 637.772C1614.66 640.896 1615.43 643.945 1616.9 646.279C1618.37 648.622 1620.69 650.427 1623.69 650.427Z" fill="#FF5822" stroke="#FF5822" stroke-width="4"/>
<path d="M1706.01 619.592V617.592H1704.01H1692.75H1690.75V619.592V669.549C1686.94 664.261 1680.99 660.216 1673.05 660.216C1664.35 660.216 1656.64 665.858 1651.21 675.238C1645.77 684.633 1642.44 698.01 1642.44 714.242C1642.44 728.901 1645.42 741.487 1650.5 750.484C1655.57 759.47 1662.93 765.134 1671.65 765.134C1680.62 765.134 1687.47 759.624 1691.9 751.999L1692.16 761.309L1692.21 763.253H1694.16H1704.47H1706.62L1706.47 761.118C1706.01 754.306 1706.01 744.981 1706.01 736.18V619.592ZM1690.31 697.019L1690.31 697.039L1690.32 697.058C1690.63 698.738 1690.72 700.431 1690.74 702.213H1690.28V704.213V720.51C1690.28 723.047 1690.28 725.369 1689.85 727.664L1689.84 727.673L1689.84 727.681C1688.72 734.011 1686.48 739.002 1683.75 742.363C1681.02 745.728 1677.91 747.344 1674.93 747.344C1669.9 747.344 1665.76 744.035 1662.77 737.891C1659.78 731.749 1658.17 723.145 1658.17 713.615C1658.17 703.158 1660.01 694.251 1663.17 688.037C1666.33 681.815 1670.58 678.632 1675.4 678.632C1679.12 678.632 1682.33 680.439 1684.91 683.677C1687.52 686.946 1689.41 691.614 1690.31 697.019Z" fill="#FF5822" stroke="#FF5822" stroke-width="4"/>
<path d="M1780.09 664.726L1778.09 664.658V663.353H1768.24H1766.31L1766.24 665.288L1766.02 672.236C1762.35 666.122 1756.46 660.846 1747.61 660.846C1739.41 660.846 1731.7 666.14 1726.14 675.283C1720.57 684.448 1717 697.681 1717 714.245C1717 727.664 1719.86 739.778 1724.88 748.611C1729.89 757.432 1737.25 763.256 1746.2 763.256C1754.42 763.256 1760.74 758.572 1764.84 752.375V753.735C1764.84 765.766 1762.63 773.764 1759.26 778.698C1755.97 783.521 1751.45 785.583 1746.2 785.583C1738.86 785.583 1732.75 782.115 1728.77 778.568L1726.18 776.255L1725.48 779.661L1722.67 793.451L1722.46 794.449L1723.15 795.201C1728.81 801.393 1737.88 804 1745.73 804C1754.11 804 1763.75 801.346 1770.33 791.887C1776.84 783.173 1779.62 769.422 1779.62 746.84V691.053C1779.62 680.553 1779.62 673.529 1779.94 667.353H1780.09V665.353V664.726ZM1758.11 682.882C1760.55 686.007 1762.33 690.383 1763.47 695.225C1763.89 697.502 1763.9 699.808 1763.9 702.962V719.26C1763.9 722.202 1763.46 725.17 1762.99 728.309C1760.71 739.203 1754.61 744.84 1749.01 744.84C1743.95 744.84 1739.82 741.636 1736.85 735.752C1733.87 729.854 1732.25 721.573 1732.25 712.364C1732.25 701.605 1734.21 692.864 1737.36 686.891C1740.51 680.906 1744.65 678.009 1749.01 678.009C1752.71 678.009 1755.69 679.794 1758.11 682.882Z" fill="#FF5822" stroke="#FF5822" stroke-width="4"/>
<path d="M1793.94 761.255V763.255H1795.94H1807.19H1809.19V761.255V664.725V662.725H1807.19H1795.94H1793.94V664.725V761.255ZM1801.1 650.427C1804.16 650.427 1806.63 648.957 1808.26 646.581C1809.84 644.271 1810.6 641.173 1810.6 637.772C1810.6 634.381 1809.85 631.14 1808.28 628.758C1806.68 626.332 1804.16 624.741 1800.96 625.117C1798.12 625.163 1795.83 626.695 1794.32 628.997C1792.82 631.291 1792.06 634.367 1792.06 637.772C1792.06 640.896 1792.84 643.945 1794.3 646.279C1795.78 648.622 1798.09 650.427 1801.1 650.427Z" fill="#FF5822" stroke="#FF5822" stroke-width="4"/>
<path d="M1824.37 691.051V693.051H1825.31V761.254V763.254H1827.31H1838.57H1840.57V761.254V702.96C1840.57 699.994 1841.01 697.023 1841.44 695.296L1841.46 695.238L1841.47 695.179C1842.36 690.431 1844.23 686.214 1846.68 683.229C1849.13 680.243 1852.01 678.634 1854.98 678.634C1859.31 678.634 1862.37 681.174 1864.46 685.973C1866.59 690.851 1867.52 697.737 1867.52 705.468V761.254V763.254H1869.52H1880.77H1882.77V761.254V703.587C1882.77 686.738 1879.33 675.922 1874.48 669.266C1869.58 662.558 1863.36 660.217 1858.26 660.217C1849.1 660.217 1842.56 666.237 1838.47 673.062L1838.22 664.664L1838.16 662.724H1836.22H1825.9H1823.78L1823.91 664.839C1824.37 672.92 1824.37 681.009 1824.37 691.051Z" fill="#FF5822" stroke="#FF5822" stroke-width="4"/>
<path d="M1956.49 664.726L1954.49 664.658V663.353H1944.64H1942.71L1942.64 665.288L1942.42 672.236C1938.75 666.121 1932.86 660.846 1924.01 660.846C1915.81 660.846 1908.1 666.14 1902.54 675.283C1896.97 684.448 1893.4 697.681 1893.4 714.245C1893.4 727.664 1896.26 739.778 1901.28 748.611C1906.29 757.432 1913.65 763.256 1922.6 763.256C1930.82 763.256 1937.14 758.572 1941.24 752.376V753.735C1941.24 765.766 1939.04 773.764 1935.66 778.698C1932.37 783.521 1927.85 785.583 1922.6 785.583C1915.26 785.583 1909.15 782.115 1905.17 778.568L1902.58 776.255L1901.88 779.661L1899.07 793.451L1898.86 794.449L1899.55 795.201C1905.21 801.393 1914.28 804 1922.13 804C1930.51 804 1940.15 801.346 1946.74 791.887C1953.24 783.173 1956.02 769.421 1956.02 746.84V691.053C1956.02 680.554 1956.02 673.529 1956.34 667.353H1956.49V665.353V664.726ZM1934.51 682.882C1936.95 686.007 1938.74 690.383 1939.87 695.225C1940.29 697.502 1940.3 699.808 1940.3 702.962V719.26C1940.3 722.202 1939.86 725.17 1939.39 728.309C1937.11 739.203 1931.01 744.84 1925.41 744.84C1920.35 744.84 1916.22 741.636 1913.25 735.752C1910.27 729.854 1908.65 721.573 1908.65 712.364C1908.65 701.605 1910.61 692.864 1913.76 686.891C1916.91 680.906 1921.05 678.009 1925.41 678.009C1929.11 678.009 1932.09 679.794 1934.51 682.882Z" fill="#FF5822" stroke="#FF5822" stroke-width="4"/>
<path d="M1983.87 641.528V643.528H1985.87H2011.08V761.251V763.251H2013.08H2024.33H2026.33V761.251V643.528H2051.53H2053.53V641.528V627.111V625.111H2051.53H1985.87H1983.87V627.111V641.528Z" fill="#FF5822" stroke="#FF5822" stroke-width="4"/>
<path d="M2052.33 694.812V696.812H2053.27V760.628V762.628H2055.27H2066.53H2068.53V760.628V709.228C2068.53 706.671 2068.53 703.736 2068.96 701.448L2068.98 701.37L2068.98 701.292C2069.66 694.936 2071.46 689.633 2073.93 685.98C2076.39 682.33 2079.36 680.514 2082.47 680.514C2083.85 680.514 2084.42 680.525 2085.41 680.968L2088.22 682.222V679.141V662.844V661.775L2087.34 661.181C2085.88 660.211 2084.39 660.214 2083.13 660.217C2083.07 660.217 2083 660.217 2082.94 660.217C2078.22 660.217 2073.95 662.641 2070.57 666.647C2068.99 668.514 2067.59 670.744 2066.4 673.284L2066.18 664.674L2066.13 662.724H2064.18H2053.86H2051.75L2051.87 664.831C2052.33 673.542 2052.33 683.513 2052.33 694.812Z" fill="#FF5822" stroke="#FF5822" stroke-width="4"/>
<path d="M2152.51 734.931V732.931H2151.58V665.354V663.354H2149.58H2138.32H2136.32V665.354V724.275C2136.32 727.19 2135.89 730.145 2135.44 732.588C2134.32 736.42 2132.45 740.18 2130.07 742.948C2127.65 745.74 2124.88 747.348 2121.91 747.348C2119.77 747.348 2118.05 746.711 2116.61 745.55C2115.15 744.364 2113.88 742.546 2112.85 740.045C2110.77 735.006 2109.84 727.644 2109.84 718.633V665.354V663.354H2107.84H2096.58H2094.58V665.354V721.767C2094.58 738.577 2097.66 749.531 2102.25 756.342C2106.9 763.242 2113.04 765.765 2118.62 765.765C2124.94 765.765 2130 762.761 2133.77 758.893C2135.59 757.031 2137.14 754.945 2138.41 752.841L2138.67 761.317L2138.73 763.257H2140.67H2150.98H2153.11L2152.98 761.133C2152.52 753.686 2152.51 744.98 2152.51 734.931Z" fill="#FF5822" stroke="#FF5822" stroke-width="4"/>
<path d="M2169.22 742.259L2166.58 739.74L2165.88 743.319L2163.53 755.229L2163.33 756.251L2164.05 757.002C2168.72 761.85 2175.84 764.51 2183.32 764.51C2191.4 764.51 2197.96 761.277 2202.46 755.695C2206.92 750.159 2209.24 742.469 2209.24 733.676V733.644L2209.24 733.611C2208.99 726.151 2207.41 720.151 2204.37 715.164C2201.34 710.18 2196.95 706.365 2191.37 703.118C2187.13 700.6 2184.38 698.721 2182.64 696.6C2181 694.602 2180.16 692.261 2180.16 688.545C2180.16 685.379 2180.92 682.525 2182.32 680.525C2183.66 678.601 2185.65 677.382 2188.48 677.382C2193.89 677.382 2198.08 680.179 2200.15 682.389L2202.73 685.152L2203.56 681.461L2206.37 668.925L2206.62 667.821L2205.8 667.04C2202.12 663.526 2195.99 660.846 2188.95 660.846C2181.46 660.846 2175.38 664.324 2171.22 669.875C2167.1 675.383 2164.9 682.881 2164.9 691.053C2164.9 703.735 2170.97 713.782 2182.81 720.38L2182.84 720.394L2182.86 720.407C2186.92 722.514 2189.53 724.668 2191.15 727.105C2192.75 729.515 2193.51 732.39 2193.51 736.183C2193.51 739.988 2192.63 743.106 2191 745.227C2189.42 747.27 2186.99 748.601 2183.32 748.601C2177.94 748.601 2172.31 745.207 2169.22 742.259Z" fill="#FF5822" stroke="#FF5822" stroke-width="4"/>
<path d="M2237.41 637.152V634.268L2234.71 635.279L2222.98 639.667L2221.68 640.153V641.54V662.733H2213.83H2211.83V664.733V677.896V679.896H2213.83H2221.68V730.549C2221.68 736.264 2222.04 741.405 2222.83 745.79C2223.61 750.126 2224.84 753.846 2226.66 756.66C2229.84 762.281 2235.19 765.144 2241.04 765.144C2246.12 765.144 2249.72 763.776 2252.3 762.4L2253.4 761.812L2253.35 760.565L2252.88 747.402L2252.78 744.44L2250.07 745.646C2248.92 746.157 2246.86 746.726 2244.32 746.726C2243.05 746.726 2242.1 746.401 2241.33 745.846C2240.55 745.277 2239.84 744.366 2239.23 742.988C2238 740.171 2237.41 735.817 2237.41 729.922V679.896H2251.82H2253.82V677.896V664.733V662.733H2251.82H2237.41V637.152Z" fill="#FF5822" stroke="#FF5822" stroke-width="4"/>
<path d="M2254.95 785.858L2254.26 788.756L2257.2 788.293L2265.18 787.04L2266.3 786.863L2266.72 785.805C2270.55 776.222 2276.2 754.133 2279.49 737.18L2280.03 734.405L2277.23 734.821L2264.57 736.701L2263.03 736.93L2262.87 738.485C2261.48 752.803 2257.74 774.025 2254.95 785.858Z" fill="#FF5822" stroke="#FF5822" stroke-width="4"/>
<path d="M2371.96 747.461V745.461H2369.96H2333.51V700.569H2365.74H2366.21H2368.21V698.569V684.152V682.152H2366.21H2333.97V643.528H2368.09H2370.09V641.528V627.111V625.111H2368.09H2320.25H2318.25V627.111V761.878V763.878H2320.25H2369.96H2371.96V761.878V747.461Z" fill="#FF5822" stroke="#FF5822" stroke-width="4"/>
<path d="M2383.97 617.592H2381.97V619.592V761.253V763.253H2383.97H2395.23H2397.23V761.253V619.592V617.592H2395.23H2383.97Z" fill="#FF5822" stroke="#FF5822" stroke-width="4"/>
<path d="M2462.42 744.035L2461.98 741.091L2459.42 742.611C2455.35 745.03 2451.02 747.345 2443.09 747.345C2438.07 747.345 2433.28 745.274 2429.68 740.468C2426.19 735.798 2423.72 728.394 2423.53 717.497H2465.6H2467.16L2467.54 715.981C2468.07 713.86 2468.07 711.141 2468.07 707.63C2468.07 707.537 2468.07 707.443 2468.07 707.348C2468.07 698.415 2466.65 686.83 2462.51 677.397C2458.37 667.95 2451.26 660.217 2439.81 660.217C2429.48 660.217 2421.4 666.473 2416.01 676.214C2410.64 685.924 2407.79 699.294 2407.79 714.243C2407.79 728.895 2410.76 741.525 2416.42 750.563C2422.12 759.669 2430.57 765.135 2441.21 765.135C2451.6 765.135 2459.01 761.158 2463.34 758.587L2464.5 757.9L2464.3 756.571L2462.42 744.035ZM2439.34 677.38C2444.78 677.38 2448.21 680.782 2450.39 686.02C2452.33 690.686 2453.1 696.487 2453.25 701.587H2423.72C2424.35 696.328 2425.78 690.547 2428.16 685.935C2430.89 680.65 2434.58 677.38 2439.34 677.38Z" fill="#FF5822" stroke="#FF5822" stroke-width="4"/>
<path d="M2487.29 664.259L2486.93 662.717H2485.35H2473.15H2470.58L2471.21 665.207L2495.6 761.737L2495.98 763.247H2497.54H2508.33H2509.88L2510.26 761.746L2535.12 665.216L2535.76 662.717H2533.18H2520.99H2519.39L2519.04 664.276L2506.85 718.182L2506.84 718.194L2506.84 718.205C2506.42 720.163 2506 722.095 2505.59 724.006C2504.86 727.369 2504.14 730.67 2503.47 733.938C2502.51 728.828 2501.41 723.604 2499.95 718.136L2487.29 664.259Z" fill="#FF5822" stroke="#FF5822" stroke-width="4"/>
<path d="M2574.78 698.435C2563.18 698.498 2553.83 701.718 2547.27 707.935C2540.32 714.523 2536.79 724.2 2536.79 736.183C2536.79 743.358 2538.5 750.643 2541.96 756.203C2545.46 761.81 2550.84 765.764 2558.02 765.764C2565.81 765.764 2572.13 761.113 2576.19 755.315L2576.66 761.335V761.883V763.883H2578.66H2588.98H2591.12L2590.97 761.748C2590.5 754.864 2590.04 746.77 2590.04 738.691V702.335C2590.04 692.522 2588.87 682.288 2585.09 674.438C2583.2 670.486 2580.61 667.068 2577.11 664.641C2573.6 662.202 2569.3 660.846 2564.12 660.846C2555.67 660.846 2547.19 664.152 2541.62 669.56L2540.81 670.351L2541.07 671.454L2543.88 683.364L2544.73 686.935L2547.27 684.29C2551.1 680.308 2556.67 678.009 2562.24 678.009C2565.14 678.009 2567.26 678.794 2568.86 679.991C2570.48 681.205 2571.7 682.941 2572.6 685.028C2574.4 689.207 2574.78 694.43 2574.78 698.435ZM2574.37 734.446L2574.37 734.464L2574.37 734.481C2573.48 738.338 2571.83 742.095 2569.51 744.844C2567.21 747.563 2564.34 749.227 2560.84 749.227C2558.75 749.227 2556.63 748.201 2554.97 745.842C2553.28 743.452 2552.05 739.662 2552.05 734.303C2552.05 725.48 2555.3 720.531 2559.73 717.739C2563.85 715.145 2569.26 714.242 2574.78 714.304V729.289C2574.78 731.206 2574.77 732.842 2574.37 734.446Z" fill="#FF5822" stroke="#FF5822" stroke-width="4"/>
<path d="M2621.91 637.152V634.268L2619.21 635.279L2607.49 639.667L2606.19 640.153V641.54V662.733H2598.34H2596.34V664.733V677.896V679.896H2598.34H2606.19V730.549C2606.19 736.264 2606.54 741.405 2607.33 745.79C2608.12 750.126 2609.34 753.846 2611.17 756.66C2614.35 762.281 2619.7 765.144 2625.54 765.144C2630.62 765.144 2634.23 763.776 2636.8 762.4L2637.9 761.812L2637.86 760.565L2637.39 747.402L2637.28 744.44L2634.58 745.646C2633.43 746.157 2631.36 746.726 2628.82 746.726C2627.55 746.726 2626.6 746.401 2625.84 745.846C2625.06 745.277 2624.34 744.366 2623.74 742.988C2622.51 740.171 2621.91 735.817 2621.91 729.922V679.896H2636.33H2638.33V677.896V664.733V662.733H2636.33H2621.91V637.152Z" fill="#FF5822" stroke="#FF5822" stroke-width="4"/>
<path d="M2647.46 761.255V763.255H2649.46H2660.71H2662.71V761.255V664.725V662.725H2660.71H2649.46H2647.46V664.725V761.255ZM2655.09 650.427C2658.15 650.427 2660.62 648.957 2662.25 646.581C2663.83 644.271 2664.59 641.173 2664.59 637.772C2664.59 634.381 2663.84 631.14 2662.27 628.758C2660.67 626.332 2658.15 624.741 2654.95 625.117C2652.11 625.163 2649.82 626.695 2648.31 628.997C2646.81 631.291 2646.05 634.367 2646.05 637.772C2646.05 640.896 2646.82 643.945 2648.29 646.279C2649.76 648.622 2652.08 650.427 2655.09 650.427Z" fill="#FF5822" stroke="#FF5822" stroke-width="4"/>
<path d="M2678.4 691.051V693.051H2679.34V761.254V763.254H2681.34H2692.6H2694.6V761.254V702.96C2694.6 699.994 2695.04 697.023 2695.48 695.296L2695.49 695.238L2695.5 695.179C2696.39 690.431 2698.26 686.214 2700.71 683.229C2703.16 680.243 2706.04 678.634 2709.01 678.634C2713.34 678.634 2716.4 681.174 2718.49 685.973C2720.62 690.851 2721.55 697.737 2721.55 705.468V761.254V763.254H2723.55H2734.81H2736.81V761.254V703.587C2736.81 686.738 2733.36 675.922 2728.51 669.266C2723.62 662.558 2717.39 660.217 2712.29 660.217C2703.13 660.217 2696.59 666.237 2692.5 673.061L2692.25 664.664L2692.19 662.724H2690.25H2679.93H2677.82L2677.94 664.839C2678.4 672.92 2678.4 681.009 2678.4 691.051Z" fill="#FF5822" stroke="#FF5822" stroke-width="4"/>
<path d="M2809.99 664.726L2807.99 664.658V663.353H2798.14H2796.2L2796.14 665.288L2795.91 672.236C2792.25 666.121 2786.35 660.846 2777.5 660.846C2769.3 660.846 2761.59 666.14 2756.04 675.283C2750.46 684.448 2746.89 697.681 2746.89 714.245C2746.89 727.664 2749.76 739.778 2754.77 748.611C2759.79 757.432 2767.14 763.256 2776.09 763.256C2784.32 763.256 2790.63 758.572 2794.73 752.376V753.735C2794.73 765.766 2792.53 773.764 2789.16 778.698C2785.86 783.521 2781.34 785.583 2776.09 785.583C2768.76 785.583 2762.65 782.115 2758.67 778.568L2756.07 776.255L2755.38 779.661L2752.56 793.451L2752.36 794.449L2753.04 795.201C2758.71 801.393 2767.78 804 2775.63 804C2784.01 804 2793.64 801.346 2800.23 791.887C2806.73 783.173 2809.52 769.421 2809.52 746.84V691.053C2809.52 680.554 2809.52 673.529 2809.83 667.353H2809.99V665.353V664.726ZM2788 682.882C2790.45 686.007 2792.23 690.383 2793.37 695.225C2793.79 697.502 2793.79 699.808 2793.79 702.962V719.26C2793.79 722.202 2793.35 725.17 2792.89 728.309C2790.6 739.203 2784.5 744.84 2778.91 744.84C2773.84 744.84 2769.71 741.636 2766.74 735.752C2763.76 729.854 2762.15 721.573 2762.15 712.364C2762.15 701.605 2764.11 692.864 2767.25 686.891C2770.4 680.906 2774.54 678.009 2778.91 678.009C2782.61 678.009 2785.59 679.794 2788 682.882Z" fill="#FF5822" stroke="#FF5822" stroke-width="4"/>
<path d="M2837.39 641.528V643.528H2839.39H2864.59V761.251V763.251H2866.59H2877.84H2879.84V761.251V643.528H2905.05H2907.05V641.528V627.111V625.111H2905.05H2839.39H2837.39V627.111V641.528Z" fill="#FF5822" stroke="#FF5822" stroke-width="4"/>
<path d="M2936.84 698.435C2925.24 698.498 2915.88 701.718 2909.32 707.935C2902.37 714.523 2898.85 724.2 2898.85 736.183C2898.85 743.358 2900.55 750.643 2904.02 756.203C2907.51 761.81 2912.89 765.764 2920.08 765.764C2927.86 765.764 2934.18 761.113 2938.24 755.315L2938.71 761.335V761.883V763.883H2940.71H2951.03H2953.17L2953.03 761.748C2952.56 754.864 2952.09 746.77 2952.09 738.691V702.335C2952.09 692.522 2950.92 682.288 2947.15 674.438C2945.25 670.486 2942.66 667.068 2939.16 664.641C2935.65 662.202 2931.35 660.846 2926.17 660.846C2917.73 660.846 2909.24 664.152 2903.67 669.56L2902.86 670.351L2903.12 671.454L2905.94 683.364L2906.78 686.935L2909.32 684.29C2913.15 680.308 2918.72 678.009 2924.3 678.009C2927.19 678.009 2929.31 678.794 2930.91 679.991C2932.54 681.205 2933.76 682.941 2934.65 685.028C2936.46 689.207 2936.83 694.43 2936.84 698.435ZM2936.9 734.446L2936.89 734.464L2936.89 734.481C2936 738.338 2934.35 742.095 2932.03 744.844C2929.74 747.563 2926.86 749.227 2923.36 749.227C2921.28 749.227 2919.16 748.201 2917.49 745.842C2915.8 743.452 2914.57 739.662 2914.57 734.303C2914.57 725.48 2917.82 720.531 2922.26 717.739C2926.38 715.145 2931.78 714.242 2937.31 714.304V729.289C2937.31 731.206 2937.3 732.842 2936.9 734.446Z" fill="#FF5822" stroke="#FF5822" stroke-width="4"/>
<path d="M2968.86 617.592H2966.86V619.592V761.253V763.253H2968.86H2980.11H2982.11V761.253V619.592V617.592H2980.11H2968.86Z" fill="#FF5822" stroke="#FF5822" stroke-width="4"/>
<path d="M3047.27 744.035L3046.83 741.091L3044.27 742.611C3040.2 745.03 3035.87 747.345 3027.94 747.345C3022.92 747.345 3018.13 745.274 3014.53 740.468C3011.04 735.798 3008.57 728.394 3008.38 717.497H3050.45H3052.01L3052.39 715.981C3052.92 713.86 3052.92 711.141 3052.92 707.63C3052.92 707.537 3052.92 707.443 3052.92 707.348C3052.92 698.415 3051.5 686.83 3047.36 677.397C3043.22 667.95 3036.11 660.217 3024.66 660.217C3014.33 660.217 3006.25 666.473 3000.86 676.214C2995.49 685.924 2992.64 699.294 2992.64 714.243C2992.64 728.895 2995.61 741.525 3001.27 750.563C3006.97 759.669 3015.42 765.135 3026.06 765.135C3036.45 765.135 3043.86 761.158 3048.19 758.587L3049.35 757.9L3049.15 756.571L3047.27 744.035ZM3024.19 677.38C3029.63 677.38 3033.06 680.782 3035.24 686.02C3037.18 690.686 3037.95 696.487 3038.1 701.587H3008.57C3009.19 696.329 3010.63 690.547 3013.01 685.935C3015.74 680.65 3019.43 677.38 3024.19 677.38Z" fill="#FF5822" stroke="#FF5822" stroke-width="4"/>
<path d="M3063.95 691.051V693.051H3064.89V761.254V763.254H3066.89H3078.15H3080.15V761.254V702.96C3080.15 699.994 3080.6 697.022 3081.03 695.296L3081.04 695.238L3081.05 695.179C3081.94 690.431 3083.81 686.214 3086.26 683.229C3088.71 680.243 3091.59 678.634 3094.56 678.634C3098.89 678.634 3101.95 681.174 3104.04 685.973C3106.17 690.851 3107.1 697.737 3107.1 705.468V761.254V763.254H3109.1H3120.36H3122.36V761.254V703.587C3122.36 686.738 3118.91 675.922 3114.06 669.265C3109.17 662.558 3102.94 660.217 3097.85 660.217C3088.68 660.217 3082.14 666.237 3078.05 673.061L3077.8 664.664L3077.74 662.724H3075.8H3065.48H3063.37L3063.49 664.839C3063.95 672.92 3063.95 681.009 3063.95 691.051Z" fill="#FF5822" stroke="#FF5822" stroke-width="4"/>
<path d="M3153.76 637.152V634.268L3151.06 635.279L3139.33 639.667L3138.03 640.153V641.54V662.733H3130.19H3128.19V664.733V677.896V679.896H3130.19H3138.03V730.549C3138.03 736.264 3138.39 741.405 3139.18 745.79C3139.96 750.126 3141.19 753.846 3143.01 756.66C3146.19 762.281 3151.54 765.144 3157.39 765.144C3162.47 765.144 3166.08 763.776 3168.65 762.4L3169.75 761.812L3169.7 760.565L3169.24 747.402L3169.13 744.44L3166.42 745.646C3165.28 746.157 3163.21 746.726 3160.67 746.726C3159.4 746.726 3158.45 746.401 3157.69 745.846C3156.9 745.277 3156.19 744.366 3155.58 742.988C3154.35 740.171 3153.76 735.817 3153.76 729.922V679.896H3168.17H3170.17V677.896V664.733V662.733H3168.17H3153.76V637.152Z" fill="#FF5822" stroke="#FF5822" stroke-width="4"/>
</g>
<defs>
<filter id="filter0_d_292_142" x="1496.17" y="615.592" width="1680" height="198.408" filterUnits="userSpaceOnUse" color-interpolation-filters="sRGB">
<feFlood flood-opacity="0" result="BackgroundImageFix"/>
<feColorMatrix in="SourceAlpha" type="matrix" values="0 0 0 0 0 0 0 0 0 0 0 0 0 0 0 0 0 0 127 0" result="hardAlpha"/>
<feOffset dy="4"/>
<feGaussianBlur stdDeviation="2"/>
<feComposite in2="hardAlpha" operator="out"/>
<feColorMatrix type="matrix" values="0 0 0 0 0 0 0 0 0 0 0 0 0 0 0 0 0 0 0.25 0"/>
<feBlend mode="normal" in2="BackgroundImageFix" result="effect1_dropShadow_292_142"/>
<feBlend mode="normal" in="SourceGraphic" in2="effect1_dropShadow_292_142" result="shape"/>
</filter>
<linearGradient id="paint0_linear_292_142" x1="1118.73" y1="782.149" x2="1384.34" y2="674.1" gradientUnits="userSpaceOnUse">
<stop stop-color="#09AECA"/>
<stop offset="1" stop-color="#13558F"/>
</linearGradient>
<linearGradient id="paint1_linear_292_142" x1="1646.18" y1="775.331" x2="1884.88" y2="688.409" gradientUnits="userSpaceOnUse">
<stop stop-color="#09AECA"/>
<stop offset="1" stop-color="#13558F"/>
</linearGradient>
<linearGradient id="paint2_linear_292_142" x1="1918.04" y1="720.704" x2="2146.27" y2="606.707" gradientUnits="userSpaceOnUse">
<stop stop-color="#09AECA"/>
<stop offset="1" stop-color="#13558F"/>
</linearGradient>
<linearGradient id="paint3_linear_292_142" x1="3072.29" y1="720.349" x2="3300.55" y2="606.484" gradientUnits="userSpaceOnUse">
<stop stop-color="#09AECA"/>
<stop offset="1" stop-color="#13558F"/>
</linearGradient>
<linearGradient id="paint4_linear_292_142" x1="2377.07" y1="720.125" x2="2607.06" y2="603.516" gradientUnits="userSpaceOnUse">
<stop stop-color="#09AECA"/>
<stop offset="1" stop-color="#13558F"/>
</linearGradient>
<linearGradient id="paint5_linear_292_142" x1="1381.53" y1="840.346" x2="1622.4" y2="750.23" gradientUnits="userSpaceOnUse">
<stop stop-color="#09AECA"/>
<stop offset="1" stop-color="#13558F"/>
</linearGradient>
<linearGradient id="paint6_linear_292_142" x1="2705.38" y1="767.262" x2="2806.48" y2="753.002" gradientUnits="userSpaceOnUse">
<stop stop-color="#09AECA"/>
<stop offset="1" stop-color="#13558F"/>
</linearGradient>
<linearGradient id="paint7_linear_292_142" x1="2566.38" y1="767.262" x2="2667.48" y2="753.002" gradientUnits="userSpaceOnUse">
<stop stop-color="#09AECA"/>
<stop offset="1" stop-color="#13558F"/>
</linearGradient>
<linearGradient id="paint8_linear_292_142" x1="2143.7" y1="710.783" x2="2299.39" y2="663" gradientUnits="userSpaceOnUse">
<stop stop-color="#09AECA"/>
<stop offset="1" stop-color="#13558F"/>
</linearGradient>
<linearGradient id="paint9_linear_292_142" x1="2845.16" y1="708.179" x2="2945.99" y2="688.913" gradientUnits="userSpaceOnUse">
<stop stop-color="#09AECA"/>
<stop offset="1" stop-color="#13558F"/>
</linearGradient>
<linearGradient id="paint10_linear_292_142" x1="2845.01" y1="362.515" x2="2921.02" y2="316.203" gradientUnits="userSpaceOnUse">
<stop stop-color="#09AECA"/>
<stop offset="1" stop-color="#13558F"/>
</linearGradient>
</defs>
</svg>
