<svg width="3500" height="1013" viewBox="0 0 3500 1013" fill="none" xmlns="http://www.w3.org/2000/svg">
<path d="M1629.93 1009.67C1637.4 1007.18 1644.42 1003.86 1651.88 1001.36C1638.71 1005.52 1638.27 1005.93 1631.69 1008.43L1620.71 1013C1623.79 1012.17 1626.86 1010.92 1629.93 1009.67Z" fill="url(#paint0_linear_274_741)"/>
<path d="M214.165 100.31C235.305 91.8487 267.016 63.9277 264.719 59.6973C263.34 59.6973 261.961 59.6972 260.582 60.1202C241.28 66.4659 225.654 73.6578 214.624 80.8496C199.918 91.4258 180.615 105.809 166.828 116.809L147.525 134.153C160.394 122.308 182.913 110.886 214.165 100.31Z" fill="url(#paint1_linear_274_741)"/>
<path d="M143.388 208.19C172.341 195.499 192.563 154.887 180.614 150.233C178.775 149.387 176.018 150.233 174.18 150.656C131.898 164.617 103.404 180.692 90.5359 198.037C81.8039 210.729 70.3144 227.228 62.5016 240.342L47.7949 266.994C58.3653 245.842 91.4551 225.535 143.388 208.19Z" fill="url(#paint2_linear_274_741)"/>
<path d="M109.844 346.097C140.636 331.29 146.151 280.101 129.606 274.602C127.308 273.756 123.631 274.179 121.333 275.025C60.6688 294.908 24.3618 319.022 17.0085 344.405C13.7915 357.519 9.19572 374.864 6.43823 387.978L1.38281 423.937C4.1403 395.593 42.2855 368.518 109.844 346.097Z" fill="url(#paint3_linear_274_741)"/>
<path d="M119.95 500.51C149.822 485.703 139.711 431.553 118.571 424.362C115.813 423.515 111.677 423.938 108.92 424.362C36.3058 448.475 -2.29903 478.089 0.45846 508.971C3.21595 529.277 7.35217 555.929 11.948 575.812L15.6247 589.35C6.4331 556.775 44.1188 525.47 119.95 500.51Z" fill="url(#paint4_linear_274_741)"/>
<path d="M171.884 646.042C196.701 632.505 172.343 582.162 151.203 575.817C148.445 574.971 144.309 575.394 141.551 575.817C64.8012 601.199 29.4136 633.774 45.4989 665.926C54.231 682.001 66.6397 703.577 76.2909 719.229L87.3207 735.305C63.8821 703.577 95.5933 671.002 171.884 646.042Z" fill="url(#paint5_linear_274_741)"/>
<path d="M257.367 771.684C274.371 761.108 239.443 717.957 220.141 712.88C217.843 712.034 214.166 712.457 211.408 712.457C138.335 736.571 111.679 768.3 143.391 798.759C156.718 810.604 174.183 825.834 187.97 836.833L210.03 852.909C168.208 824.988 188.889 794.529 257.367 771.684Z" fill="url(#paint6_linear_274_741)"/>
<path d="M369.041 868.136C369.501 867.713 369.96 867.29 369.96 867.29C369.501 857.983 328.139 823.293 310.674 824.986C255.065 843.177 239.439 868.56 277.125 891.404C277.584 891.404 278.044 891.827 278.044 892.25C276.206 891.827 275.286 891.404 267.933 887.597C301.942 903.673 304.24 904.942 327.219 913.403C355.713 923.133 356.632 923.556 374.097 928.209C379.612 929.478 387.424 931.593 392.939 932.863C375.016 928.632 359.39 923.556 348.36 917.633C317.108 901.134 327.219 881.674 369.041 868.136Z" fill="url(#paint7_linear_274_741)"/>
<path d="M523 938.365C521.621 937.519 521.621 937.519 515.647 932.02C508.293 932.02 500.94 931.173 497.723 929.481C494.506 927.789 495.885 926.097 499.561 924.828C433.841 902.406 433.841 902.406 433.382 902.406C410.403 910.021 404.428 920.597 422.352 929.904C429.246 933.712 438.897 936.673 450.846 939.211C450.846 939.211 451.305 939.211 451.765 939.634C449.007 940.903 444.412 940.904 434.761 940.48C434.301 940.48 433.841 940.48 433.841 940.48C427.867 940.057 425.569 939.634 416.837 937.942C424.19 939.211 433.382 940.48 440.735 941.75C457.74 943.865 457.74 943.865 466.012 944.711H466.472C466.931 944.711 467.391 944.711 467.85 944.711H468.31C475.204 944.711 481.638 944.288 488.531 944.288C500.48 945.134 513.349 945.557 526.217 945.134C528.515 945.134 528.515 944.711 529.434 944.288C528.055 942.173 528.055 942.173 523 938.365Z" fill="url(#paint8_linear_274_741)"/>
<path d="M927.434 475.553C927.434 484.014 926.056 505.166 907.672 513.627C863.093 527.164 806.565 539.01 739.925 547.048C616.298 562.277 480.262 563.969 358.473 553.816C336.413 554.239 324.464 565.662 321.707 588.929C321.707 589.352 321.707 590.198 321.707 590.621C324.005 614.312 335.954 627.427 358.014 631.657C477.505 641.81 610.783 640.541 732.572 625.734C773.934 624.888 771.636 664.655 752.794 683.269C743.142 692.999 734.41 694.691 726.138 696.383C534.952 719.228 314.353 708.228 169.126 672.269C153.96 670.154 147.526 680.307 151.202 698.498C151.202 698.921 151.662 699.344 151.662 700.19C159.475 720.074 170.964 732.342 187.509 738.265C286.319 762.801 421.895 775.07 557.012 771.686C596.536 773.801 594.698 804.683 577.234 817.798C568.502 824.143 560.689 824.989 553.336 825.835C499.105 827.105 444.875 825.835 393.401 821.605C368.584 821.605 369.963 833.451 370.882 843.181C370.882 843.604 371.341 844.027 371.341 844.45C378.235 857.987 389.725 865.602 407.189 868.14C493.59 874.486 588.723 873.217 675.584 863.064C687.074 862.641 687.993 863.91 692.129 868.986C688.912 885.485 670.529 893.946 655.363 898.177C528.059 913.829 387.886 907.061 293.213 884.639C291.834 884.639 289.536 884.216 288.157 884.216C290.455 888.446 295.511 893.523 299.187 896.061C299.647 896.485 300.106 896.484 300.566 896.907C316.192 905.791 324.924 909.176 335.954 912.983C399.836 928.213 484.398 934.559 565.744 929.905C569.421 929.905 574.017 931.174 577.234 932.866C570.8 939.212 569.88 940.058 552.876 942.597C521.624 944.289 492.671 944.289 465.555 942.173C464.177 942.173 461.879 942.173 460.041 942.173C460.96 942.596 462.339 943.019 463.717 943.443H463.258C446.713 941.75 446.713 941.751 437.981 940.481C430.627 939.212 421.436 937.943 414.083 936.674C410.406 935.828 404.891 934.982 401.214 934.136C396.159 933.29 394.32 932.867 392.022 932.02C386.508 930.751 378.695 928.636 373.18 927.367C346.524 919.752 343.767 918.906 326.302 912.56C292.753 899.446 289.536 898.177 267.017 886.754C263.34 884.639 258.285 882.101 254.608 879.985C254.148 879.562 253.689 879.563 253.229 879.14C241.28 872.371 241.28 872.371 213.705 855.026C212.326 854.18 210.488 852.911 209.109 852.064L187.05 835.989C173.262 824.99 155.338 809.76 142.47 797.914C148.904 803.837 157.636 809.76 168.666 815.683C193.484 828.797 227.952 839.796 268.855 848.68C272.532 848.68 277.587 847.834 280.344 845.719C280.344 841.065 278.506 835.143 277.127 830.912C277.127 830.489 276.668 830.066 276.208 829.643C265.638 814.413 252.77 804.683 237.144 799.607C190.726 789.876 152.121 777.185 123.627 762.378C106.163 753.071 93.7546 743.764 86.8609 734.034L75.8309 717.958C66.1797 702.306 53.3113 680.73 45.0389 664.655C50.0943 674.808 59.7455 684.538 74.9116 694.268C76.75 694.268 79.0479 693.845 80.4267 693.845C80.8862 685.807 81.3459 684.538 76.7501 670.577C76.7501 670.154 76.2906 669.308 76.2906 668.885C68.9373 650.271 62.0434 638.426 52.8518 628.272C30.3323 613.043 18.8429 600.352 15.1663 587.237L11.4895 573.7C7.3533 553.816 2.75749 527.164 0 506.858C1.83832 525.472 18.8429 544.086 52.3923 561.854C83.1843 577.93 125.006 591.891 174.641 603.313C192.564 605.005 201.756 594.852 203.594 571.584C203.594 571.161 203.594 570.315 203.594 569.892C201.756 545.778 193.024 531.395 175.101 525.049C125.466 513.627 83.6437 500.089 52.8518 483.591C15.1662 463.707 -1.37871 442.555 0.459609 421.826L5.51503 385.867C8.73209 372.752 12.4087 354.984 16.0853 342.293C10.5704 360.484 20.2216 379.521 46.8773 397.289C55.6094 398.135 62.9627 396.866 73.0735 370.214C73.0735 369.791 73.533 368.945 73.533 368.522C82.7246 338.908 77.2097 330.871 73.0735 324.102C44.5795 305.065 36.7666 284.758 46.4178 265.298L61.1242 238.646C69.3967 225.955 80.4268 208.61 89.1588 196.342C71.6947 219.186 82.2649 243.723 125.466 266.567C149.364 279.259 181.534 290.258 219.68 299.142C235.305 300.411 247.714 291.527 258.744 270.375C259.204 269.952 259.204 269.106 259.663 268.682C268.395 246.261 263.8 240.338 258.285 232.723C221.058 222.993 192.564 213.263 171.424 202.264C128.683 179.843 122.248 155.306 146.147 132.884L165.449 115.539C179.696 104.54 198.539 89.7336 213.246 79.5805C186.13 97.3485 183.373 117.655 209.109 136.692C216.922 137.115 223.816 136.269 248.174 118.078C248.633 117.655 249.093 117.232 249.552 116.809C266.097 103.694 268.395 100.733 273.91 92.695C248.633 70.2735 258.284 50.3903 296.43 34.3145L317.571 25.8536C342.388 16.9696 342.388 16.9696 355.716 13.1622C359.852 11.893 365.826 10.2009 369.963 8.93171C331.358 22.4692 321.247 41.0833 352.499 57.5821C361.69 62.2356 373.18 66.4661 386.967 69.8505C395.699 69.0044 401.674 66.8891 422.355 52.9286C422.815 52.5055 423.274 52.5055 423.734 52.0824C437.521 42.3524 440.738 39.3911 444.415 36.0067C437.062 32.1993 430.627 30.084 426.032 27.5458C409.027 18.6618 414.542 8.08552 436.602 0.893716C445.334 0.0476215 465.096 -2.06756 502.782 5.97033C499.565 6.81643 499.105 8.50859 501.403 9.77773C504.16 11.0469 510.135 11.893 515.65 11.893C530.356 28.8148 530.357 32.1993 530.357 40.2372C511.054 42.3524 493.59 41.9294 477.964 40.2372C471.53 42.7755 466.015 44.8907 454.066 57.5821C453.606 58.0052 453.607 58.0051 453.147 58.4281C446.253 67.3121 445.794 68.5813 444.415 76.1962C445.794 77.4653 447.172 79.1575 448.551 80.8497C489.913 85.0802 537.25 85.5032 581.37 80.8497C606.647 85.5032 623.651 117.655 614.919 126.539C613.541 127.808 610.783 128.654 608.945 129.5C511.054 139.653 401.214 132.884 330.898 113.847C321.707 114.27 311.596 116.386 291.374 135C290.915 135.423 290.455 135.846 289.996 136.269C276.668 151.075 276.668 154.46 276.668 163.767C278.047 165.036 279.885 166.728 281.264 167.997C355.256 187.881 463.717 197.188 568.961 192.957C608.945 200.995 605.728 244.569 589.642 254.299C586.885 255.991 582.289 256.837 579.072 257.683C514.271 260.645 448.551 258.952 388.346 253.453C371.341 253.876 359.392 264.029 351.579 284.335C351.579 284.758 351.12 285.604 351.12 286.028C346.984 307.603 353.418 320.294 371.341 324.102C476.585 333.832 595.617 332.986 703.619 319.448C710.053 318.602 716.027 317.756 722.002 316.91C759.228 316.064 773.934 360.907 756.93 380.367C751.874 386.29 745.44 387.982 740.385 389.251C733.951 390.097 727.057 390.943 720.163 391.789C535.871 414.634 320.788 403.635 182.454 368.522C165.909 366.83 154.419 376.56 146.606 398.135C146.606 398.558 146.147 399.404 146.147 399.827C141.551 423.095 147.066 437.478 162.692 444.247C309.298 481.898 536.791 493.321 732.572 469.207C797.373 461.169 852.063 449.747 895.723 436.632C923.758 437.478 926.975 464.13 927.434 475.553Z" fill="url(#paint9_linear_274_741)"/>
<path d="M1211.43 499.67L1310.49 505.862C1305.62 552.545 1289.7 588.272 1262.29 613.518C1234.87 638.289 1201.26 651.15 1161.46 651.15C1113.25 651.15 1074.78 634.002 1045.15 599.704C1015.52 565.407 1000.92 518.248 1000.92 457.751C1000.92 398.206 1015.08 349.618 1042.94 312.939C1070.8 276.26 1110.16 258.158 1160.13 258.158C1207.01 258.158 1242.83 271.972 1268.03 300.077C1293.24 328.182 1307.39 364.862 1310.49 411.068L1209.22 416.784C1209.22 391.061 1204.79 372.96 1195.51 361.527C1186.22 350.095 1175.61 344.378 1163.67 344.378C1129.61 344.378 1112.37 381.534 1112.37 455.369C1112.37 496.812 1116.79 524.916 1125.63 540.16C1134.48 554.927 1146.86 562.549 1163.22 562.549C1191.97 562.549 1207.89 541.589 1211.43 499.67Z" fill="url(#paint10_linear_274_741)"/>
<path d="M1593.08 361.053L1489.59 668.777C1481.63 692.119 1470.14 710.22 1455.54 723.558C1440.51 736.896 1417.95 743.088 1386.99 743.088C1379.48 743.088 1362.23 742.136 1335.25 740.707V661.632C1348.52 664.014 1361.34 664.967 1372.4 664.967C1402.03 664.967 1417.07 657.821 1417.07 643.531C1417.07 638.767 1415.74 632.574 1412.64 624.476L1318.01 361.053H1428.56L1472.35 512.533L1517.9 361.053H1593.08Z" fill="url(#paint11_linear_274_741)"/>
<path d="M1677.55 644.958H1619.17V263.875H1720.89V394.872C1735.04 368.673 1757.59 355.335 1788.55 355.335C1810.22 355.335 1828.79 361.527 1843.83 373.913C1858.86 386.298 1870.36 403.923 1877.88 426.312C1885.4 449.177 1888.94 472.994 1888.94 498.241C1888.94 543.971 1879.65 581.127 1860.63 608.755C1841.62 636.86 1813.31 650.674 1775.72 650.674C1738.58 650.674 1710.27 635.907 1690.81 605.897C1685.51 617.33 1680.64 630.191 1677.55 644.958ZM1720.89 539.208C1720.89 567.312 1731.06 581.127 1750.96 581.127C1762.01 581.127 1769.97 575.887 1776.17 565.884C1781.91 555.88 1785.01 534.92 1785.01 503.005C1785.01 468.707 1781.92 446.795 1775.28 438.22C1768.65 429.17 1760.69 424.883 1750.96 424.883C1743.44 424.883 1736.36 428.217 1730.62 434.41C1724.42 440.602 1721.33 450.129 1721.33 462.038V539.208H1720.89Z" fill="url(#paint12_linear_274_741)"/>
<path d="M2104.31 543.011L2200.71 550.157C2194.97 578.262 2180.37 602.079 2156.93 621.61C2133.49 641.14 2101.65 651.144 2061.85 651.144C2017.63 651.144 1982.25 637.33 1955.72 609.701C1929.18 582.073 1915.91 547.775 1915.91 506.809C1915.91 464.413 1928.74 428.687 1954.83 399.153C1980.92 370.095 2015.86 355.328 2059.2 355.328C2101.21 355.328 2135.26 369.142 2161.36 396.771C2187.45 424.4 2200.27 462.031 2200.27 509.19C2200.27 513.001 2200.27 518.718 2199.83 525.387H2024.26C2024.7 543.488 2027.36 556.35 2033.11 564.924C2038.41 573.498 2049.03 577.786 2064.51 577.786C2087.06 578.262 2100.33 566.353 2104.31 543.011ZM2097.23 469.653C2097.23 450.599 2093.69 437.737 2086.62 431.068C2079.54 424.399 2071.14 421.065 2060.53 421.065C2036.2 421.065 2023.82 437.261 2023.82 469.653H2097.23Z" fill="url(#paint13_linear_274_741)"/>
<path d="M2340.46 644.963H2241.4V361.056H2327.63V419.648C2337.36 377.252 2360.36 355.816 2396.18 355.816C2399.72 355.816 2405.02 356.293 2411.21 356.769V455.851C2404.14 453.945 2397.51 452.993 2391.76 452.993C2357.7 452.993 2340.46 473.476 2340.46 514.442V644.963Z" fill="url(#paint14_linear_274_741)"/>
<path d="M2572.63 651.144C2528.85 651.144 2494.36 636.377 2468.27 607.319C2442.62 577.785 2429.79 543.488 2429.79 503.951C2429.79 461.555 2443.06 426.305 2470.03 397.723C2497.01 369.619 2531.95 355.328 2574.84 355.328C2618.18 355.328 2653.12 369.142 2679.21 397.247C2705.75 425.352 2718.57 460.126 2718.57 502.045C2718.57 544.441 2705.3 579.691 2678.33 608.272C2652.24 636.853 2616.86 651.144 2572.63 651.144ZM2574.4 583.502C2590.32 583.502 2600.05 574.451 2604.03 556.35C2607.57 538.248 2609.34 519.67 2609.34 500.14C2609.34 473.464 2606.69 454.41 2601.82 442.501C2596.96 430.592 2587.67 424.876 2574.84 424.876C2562.9 424.876 2554.06 431.068 2548.75 442.977C2543 454.886 2540.35 474.893 2540.35 502.521C2540.35 534.913 2543 556.826 2548.75 567.306C2554.06 578.262 2562.9 583.502 2574.4 583.502Z" fill="url(#paint15_linear_274_741)"/>
<path d="M2860.97 264.35V645.433H2759.26V264.35H2860.97Z" fill="url(#paint16_linear_274_741)"/>
<path d="M3017.52 264.35V645.433H2915.81V264.35H3017.52Z" fill="url(#paint17_linear_274_741)"/>
<path d="M3174.96 251.963V340.088H3071.47V251.963H3174.96ZM3174.96 361.048V644.955H3071.47V361.048H3174.96Z" fill="url(#paint18_linear_274_741)"/>
<path d="M3403.59 543.011L3500 550.157C3494.25 578.262 3479.65 602.079 3456.21 621.61C3432.78 641.14 3400.93 651.144 3361.13 651.144C3316.91 651.144 3281.53 637.33 3255 609.701C3228.46 582.073 3215.2 547.775 3215.2 506.809C3215.2 464.413 3228.02 428.687 3254.11 399.153C3280.2 370.095 3315.14 355.328 3358.48 355.328C3400.49 355.328 3434.54 369.142 3460.64 396.771C3486.73 424.4 3499.55 462.031 3499.55 509.19C3499.55 513.001 3499.55 518.718 3499.11 525.387H3322.66C3323.1 543.488 3325.75 556.35 3331.5 564.924C3336.81 573.498 3347.42 577.786 3362.9 577.786C3386.34 578.262 3399.61 566.353 3403.59 543.011ZM3396.51 469.653C3396.51 450.599 3392.97 437.737 3385.9 431.068C3378.82 424.399 3370.42 421.065 3359.81 421.065C3335.48 421.065 3323.1 437.261 3323.1 469.653H3396.51Z" fill="url(#paint19_linear_274_741)"/>
<g filter="url(#filter0_d_274_741)">
<path d="M1618.28 723.297L1616.5 723.831V725.691V848.493V850.673L1618.66 850.97C1623 851.566 1629.96 852.152 1639.01 852.152C1655.61 852.152 1667.6 848.631 1675.15 839.679L1675.16 839.669L1675.17 839.659C1680.83 832.818 1684.17 824.138 1684.17 813.158C1684.17 796.251 1675.45 785.925 1666.37 781.314C1675.32 775.541 1680.48 765.437 1680.48 754.075C1680.48 743.743 1677.17 735.47 1671.27 730.243C1664.33 723.282 1655.18 720.295 1642.17 720.295C1633.58 720.295 1624.37 721.471 1618.28 723.297ZM1634.67 833.654V790.751H1642.7C1649.44 790.751 1655.26 792.403 1659.35 795.758C1663.35 799.048 1666 804.227 1666 812C1666 820.331 1663.11 825.647 1658.98 828.945C1654.76 832.316 1648.93 833.829 1642.7 833.829C1639.36 833.829 1636.73 833.822 1634.67 833.654ZM1643.23 774.165H1634.14V738.701C1636.14 738.341 1639.1 738.039 1643.23 738.039C1649.21 738.039 1653.94 739.415 1657.14 742.147C1660.27 744.817 1662.32 749.11 1662.32 755.812C1662.32 761.303 1660.43 765.848 1657.21 769.019C1653.98 772.189 1649.25 774.165 1643.23 774.165Z" fill="#FF5822" stroke="#FF5822" stroke-width="5"/>
<path d="M1695.94 786.512V789.012H1696.99V847.334V849.834H1699.49H1712.13H1714.63V847.334V799.835C1714.63 797.442 1714.64 794.848 1715.09 792.859L1715.12 792.743L1715.13 792.626C1716.65 780.927 1722.99 773.951 1730.03 773.951C1731.59 773.951 1732.25 773.962 1733.39 774.378L1736.75 775.61V772.031V756.97V755.492L1735.45 754.78C1733.82 753.885 1732.18 753.888 1730.78 753.89C1730.71 753.89 1730.63 753.891 1730.56 753.891C1723.05 753.891 1716.53 758.366 1712.2 765.563L1711.99 758.632L1711.92 756.208H1709.49H1697.91H1695.24L1695.41 758.87C1695.93 766.882 1695.94 776.062 1695.94 786.512Z" fill="#FF5822" stroke="#FF5822" stroke-width="5"/>
<path d="M1744.91 847.913V850.413H1747.41H1760.05H1762.55V847.913V758.709V756.209H1760.05H1747.41H1744.91V758.709V847.913ZM1753.21 746.148C1756.54 746.148 1759.36 744.838 1761.31 742.497C1763.22 740.206 1764.13 737.13 1764.13 733.801C1764.13 730.49 1763.23 727.286 1761.35 724.926C1759.41 722.512 1756.53 721.117 1753.07 721.454C1749.98 721.494 1747.34 722.864 1745.52 725.148C1743.71 727.422 1742.81 730.471 1742.81 733.801C1742.81 739.727 1746.5 746.148 1753.21 746.148Z" fill="#FF5822" stroke="#FF5822" stroke-width="5"/>
<path d="M1845.89 717V714.5H1843.39H1830.75H1828.25V717V762.246C1823.87 757.425 1817.24 753.889 1808.63 753.889C1798.98 753.889 1790.24 759.056 1784.01 767.911C1777.79 776.748 1774.01 789.302 1774.01 804.467C1774.01 818.175 1777.39 829.994 1783.2 838.465C1789.03 846.963 1797.38 852.149 1807.05 852.149C1816.83 852.149 1824.49 847.284 1829.57 840.325L1829.83 847.995L1829.91 850.411H1832.33H1843.92H1846.63L1846.41 847.705C1845.89 841.46 1845.89 832.889 1845.89 824.741V717ZM1827.77 788.743L1827.78 788.773L1827.79 788.802C1828.07 790.062 1828.18 791.338 1828.23 792.699H1827.73V795.199V810.26C1827.73 812.62 1827.72 814.657 1827.26 816.657L1827.26 816.669L1827.26 816.682C1824.76 828.203 1817.54 834.406 1810.74 834.406C1804.98 834.406 1800.44 831.3 1797.22 825.858C1793.96 820.347 1792.17 812.571 1792.17 803.888C1792.17 794.357 1794.22 786.306 1797.66 780.727C1801.07 775.201 1805.74 772.212 1811.27 772.212C1819.62 772.212 1825.8 778.961 1827.77 788.743Z" fill="#FF5822" stroke="#FF5822" stroke-width="5"/>
<path d="M1929.09 758.71L1926.59 758.607V756.789H1915.53H1913.12L1913.03 759.191L1912.81 764.706C1908.59 759.116 1901.98 754.473 1892.35 754.473C1874 754.473 1857.73 773.722 1857.73 804.471C1857.73 817.04 1860.99 828.422 1866.73 836.737C1872.49 845.08 1880.83 850.415 1890.77 850.415C1899.7 850.415 1906.74 846.304 1911.45 840.661V840.964C1911.45 851.937 1909.01 859.098 1905.37 863.479C1901.8 867.788 1896.78 869.744 1890.77 869.744C1882.47 869.744 1875.6 866.515 1871.19 863.277L1868.18 861.072L1867.28 864.691L1864.12 877.435L1863.76 878.891L1864.88 879.895C1871.31 885.688 1881.51 888.067 1890.25 888.067C1899.55 888.067 1910.41 885.666 1917.93 876.788C1925.43 868.521 1928.56 855.525 1928.56 834.592V783.039C1928.56 773.659 1928.56 767.315 1928.88 761.789H1929.09V759.289V758.71ZM1893.93 771.637C1902.19 771.637 1907.4 778.246 1909.94 787.132C1910.38 789.106 1910.39 791.12 1910.39 794.045V809.106C1910.39 811.713 1909.92 814.359 1909.4 817.262C1906.94 826.873 1900.35 832.092 1893.93 832.092C1888.13 832.092 1883.59 829.082 1880.4 823.872C1877.15 818.586 1875.37 811.115 1875.37 802.734C1875.37 792.931 1877.54 785.037 1880.96 779.68C1884.37 774.362 1888.92 771.637 1893.93 771.637Z" fill="#FF5822" stroke="#FF5822" stroke-width="5"/>
<path d="M1944.13 847.913V850.413H1946.63H1959.27H1961.77V847.913V758.709V756.209H1959.27H1946.63H1944.13V758.709V847.913ZM1952.42 746.148C1955.75 746.148 1958.58 744.838 1960.53 742.497C1962.44 740.206 1963.35 737.13 1963.35 733.801C1963.35 730.49 1962.45 727.286 1960.56 724.926C1958.63 722.512 1955.75 721.117 1952.28 721.454C1949.19 721.494 1946.55 722.864 1944.74 725.148C1942.93 727.422 1942.02 730.471 1942.02 733.801C1942.02 739.727 1945.71 746.148 1952.42 746.148Z" fill="#FF5822" stroke="#FF5822" stroke-width="5"/>
<path d="M1978.3 783.037V785.537H1979.35V847.913V850.413H1981.85H1994.49H1996.99V847.913V794.042C1996.99 791.403 1997.48 788.75 1997.94 787.237L1997.96 787.152L1997.98 787.066C1999.95 778.43 2006.11 772.213 2012.92 772.213C2017.92 772.213 2021.22 774.618 2023.42 778.775C2025.71 783.103 2026.75 789.289 2026.75 796.359V847.913V850.413H2029.25H2041.89H2044.39V847.913V794.622C2044.39 778.876 2040.47 768.652 2034.87 762.335C2029.27 756.008 2022.23 753.891 2016.61 753.891C2006.61 753.891 1999.31 759.212 1994.6 765.464L1994.36 758.617L1994.27 756.208H1991.86H1980.27H1977.59L1977.78 758.882C1978.3 766.309 1978.3 773.749 1978.3 783.037Z" fill="#FF5822" stroke="#FF5822" stroke-width="5"/>
<path d="M2127.17 758.71L2124.67 758.607V756.789H2113.61H2111.2L2111.11 759.191L2110.89 764.706C2106.67 759.116 2100.06 754.473 2090.43 754.473C2072.08 754.473 2055.81 773.722 2055.81 804.471C2055.81 817.04 2059.07 828.422 2064.81 836.737C2070.57 845.08 2078.91 850.415 2088.85 850.415C2097.78 850.415 2104.82 846.305 2109.53 840.661V840.964C2109.53 851.937 2107.09 859.098 2103.45 863.479C2099.88 867.788 2094.86 869.744 2088.85 869.744C2080.55 869.744 2073.68 866.515 2069.27 863.277L2066.26 861.072L2065.36 864.691L2062.2 877.435L2061.84 878.891L2062.96 879.895C2069.39 885.688 2079.59 888.067 2088.33 888.067C2097.63 888.067 2108.5 885.666 2116.01 876.788C2123.51 868.521 2126.64 855.525 2126.64 834.592V783.039C2126.64 773.659 2126.64 767.315 2126.96 761.789H2127.17V759.289V758.71ZM2092.01 771.637C2100.27 771.637 2105.48 778.246 2108.02 787.132C2108.46 789.106 2108.47 791.12 2108.47 794.045V809.106C2108.47 811.713 2108 814.359 2107.48 817.262C2105.02 826.873 2098.43 832.092 2092.01 832.092C2086.21 832.092 2081.67 829.082 2078.48 823.872C2075.23 818.586 2073.45 811.115 2073.45 802.734C2073.45 792.931 2075.62 785.037 2079.04 779.68C2082.45 774.362 2087 771.637 2092.01 771.637Z" fill="#FF5822" stroke="#FF5822" stroke-width="5"/>
<path d="M2157.4 737.27V739.77H2159.9H2187.95V847.907V850.407H2190.45H2203.09H2205.59V847.907V739.77H2233.63H2236.13V737.27V723.947V721.447H2233.63H2159.9H2157.4V723.947V737.27Z" fill="#FF5822" stroke="#FF5822" stroke-width="5"/>
<path d="M2234.28 786.512V789.012H2235.33V847.334V849.834H2237.83H2250.47H2252.97V847.334V799.835C2252.97 797.443 2252.98 794.848 2253.44 792.859L2253.46 792.743L2253.48 792.626C2255 780.927 2261.33 773.951 2268.38 773.951C2269.93 773.951 2270.6 773.962 2271.73 774.378L2275.09 775.61V772.031V756.97V755.492L2273.8 754.78C2272.17 753.885 2270.52 753.888 2269.12 753.89C2269.05 753.89 2268.98 753.891 2268.9 753.891C2261.39 753.891 2254.87 758.366 2250.55 765.563L2250.34 758.632L2250.26 756.208H2247.84H2236.25H2233.58L2233.76 758.87C2234.28 766.882 2234.28 776.062 2234.28 786.512Z" fill="#FF5822" stroke="#FF5822" stroke-width="5"/>
<path d="M2347.28 823.586V821.086H2346.23V759.289V756.789H2343.73H2331.09H2328.59V759.289V813.739C2328.59 816.306 2328.13 818.934 2327.63 821.155C2325.11 828.238 2319.45 834.409 2312.66 834.409C2310.2 834.409 2308.26 833.802 2306.69 832.756C2305.1 831.7 2303.75 830.099 2302.65 827.898C2300.41 823.424 2299.36 816.796 2299.36 808.526V759.289V756.789H2296.86H2284.22H2281.72V759.289V811.422C2281.72 827.104 2285.21 837.453 2290.51 843.924C2295.86 850.452 2302.81 852.732 2308.97 852.732C2319.15 852.732 2326.45 847.013 2330.97 841.072L2331.22 848.006L2331.31 850.415H2333.72H2345.31H2348.01L2347.8 847.726C2347.28 840.889 2347.28 832.884 2347.28 823.586Z" fill="#FF5822" stroke="#FF5822" stroke-width="5"/>
<path d="M2365.78 829.73L2362.71 827.32L2361.81 831.115L2359.17 842.12L2358.82 843.608L2359.98 844.602C2365.29 849.145 2373.3 851.574 2381.62 851.574C2390.6 851.574 2398 848.626 2403.15 843.365C2408.29 838.114 2410.97 830.785 2410.97 822.428V822.379L2410.97 822.33C2410.69 815.269 2408.86 809.545 2405.35 804.795C2401.86 800.081 2396.87 796.528 2390.6 793.532C2385.82 791.195 2382.78 789.476 2380.88 787.573C2379.17 785.853 2378.32 783.909 2378.32 780.722C2378.32 777.99 2379.11 775.567 2380.56 773.87C2381.95 772.232 2384.13 771.058 2387.41 771.058C2393.56 771.058 2398.26 773.674 2400.5 775.648L2403.51 778.295L2404.57 774.429L2407.73 762.844L2408.16 761.244L2406.86 760.22C2402.66 756.924 2395.78 754.473 2387.94 754.473C2379.63 754.473 2372.76 757.643 2367.98 762.894C2363.23 768.118 2360.68 775.259 2360.68 783.039C2360.68 795.271 2367.82 804.714 2381.1 810.799L2381.13 810.812L2381.16 810.825C2385.73 812.78 2388.6 814.752 2390.34 816.904C2392.01 818.98 2392.81 821.431 2392.81 824.745C2392.81 828.064 2391.88 830.717 2390.19 832.521C2388.53 834.296 2385.83 835.568 2381.62 835.568C2375.5 835.568 2369.19 832.405 2365.78 829.73Z" fill="#FF5822" stroke="#FF5822" stroke-width="5"/>
<path d="M2442.61 733.227V729.841L2439.37 730.837L2426.21 734.892L2424.44 735.435V737.281V756.214H2415.88H2413.38V758.714V770.878V773.378H2415.88H2424.44V819.536C2424.44 829.982 2425.98 838.831 2430.19 844.19C2433.91 849.581 2440 852.157 2446.43 852.157C2452.1 852.157 2456.12 850.903 2459.02 849.628L2460.59 848.94L2460.51 847.232L2459.99 835.067L2459.84 831.651L2456.63 832.828C2455.33 833.302 2452.99 833.834 2450.11 833.834C2448.64 833.834 2447.55 833.519 2446.73 833.022C2445.9 832.525 2445.17 831.754 2444.55 830.598C2443.27 828.188 2442.61 824.356 2442.61 818.956V773.378H2458.54H2461.04V770.878V758.714V756.214H2458.54H2442.61V733.227Z" fill="#FF5822" stroke="#FF5822" stroke-width="5"/>
<path d="M2461.83 870.383L2460.78 874.041L2464.56 873.553L2473.51 872.394L2474.85 872.221L2475.44 871.006C2479.77 862.063 2486.14 841.573 2489.84 825.886L2490.66 822.396L2487.1 822.831L2472.88 824.569L2470.94 824.807L2470.7 826.756C2469.14 839.929 2464.96 859.491 2461.83 870.383Z" fill="#FF5822" stroke="#FF5822" stroke-width="5"/>
<path d="M2593.7 835.164V832.664H2591.2H2550.52V792.482H2586.46H2586.99H2589.49V789.982V776.659V774.159H2586.99H2551.04V739.77H2589.1H2591.6V737.27V723.947V721.447H2589.1H2535.38H2532.88V723.947V848.487V850.987H2535.38H2591.2H2593.7V848.487V835.164Z" fill="#FF5822" stroke="#FF5822" stroke-width="5"/>
<path d="M2606.93 714.5H2604.43V717V847.911V850.411H2606.93H2619.57H2622.07V847.911V717V714.5H2619.57H2606.93Z" fill="#FF5822" stroke="#FF5822" stroke-width="5"/>
<path d="M2695.26 831.826L2694.67 828.577L2691.7 830.027C2687.15 832.254 2682.27 834.407 2673.32 834.407C2667.58 834.407 2662.24 832.449 2658.31 828.129C2654.62 824.061 2651.94 817.643 2651.62 808.127H2698.6H2700.45L2700.99 806.352C2701.62 804.254 2701.62 801.609 2701.62 798.465C2701.62 798.343 2701.62 798.22 2701.62 798.097C2701.62 789.739 2700.01 778.867 2695.27 769.986C2690.48 760.991 2682.37 753.891 2669.63 753.891C2658.15 753.891 2648.99 759.62 2642.8 768.825C2636.66 777.962 2633.43 790.507 2633.43 804.469C2633.43 818.171 2636.81 830.049 2643.28 838.565C2649.81 847.152 2659.37 852.151 2671.21 852.151C2682.82 852.151 2691.13 848.49 2696.01 846.104L2697.71 845.273L2697.37 843.411L2695.26 831.826ZM2669.1 771.055C2675.34 771.055 2679.05 774.25 2681.36 778.806C2683.35 782.76 2684.22 787.669 2684.45 792.122H2651.94C2652.67 787.582 2654.22 782.707 2656.67 778.79C2659.61 774.116 2663.65 771.055 2669.1 771.055Z" fill="#FF5822" stroke="#FF5822" stroke-width="5"/>
<path d="M2723.17 758.015L2722.65 756.201H2720.76H2707.07H2703.69L2704.68 759.435L2732.07 848.64L2732.61 850.406H2734.46H2746.57H2748.41L2748.96 848.653L2776.87 759.448L2777.88 756.201H2774.48H2760.79H2758.88L2758.38 758.039L2744.69 807.854L2744.68 807.871L2744.68 807.888C2744.21 809.689 2743.74 811.468 2743.27 813.231C2742.54 816.022 2741.81 818.771 2741.12 821.497C2740.1 817.066 2738.91 812.526 2737.38 807.788L2723.17 758.015Z" fill="#FF5822" stroke="#FF5822" stroke-width="5"/>
<path d="M2820.94 789.211C2808.09 789.307 2797.68 792.262 2790.31 798.011C2782.37 804.204 2778.29 813.383 2778.29 824.745C2778.29 831.562 2780.25 838.49 2784.26 843.777C2788.31 849.13 2794.42 852.732 2802.38 852.732C2810.87 852.732 2817.94 848.608 2822.59 843.268L2823.05 848.035V848.495V850.995H2825.55H2837.14H2839.85L2839.63 848.289C2839.1 841.934 2838.58 834.487 2838.58 827.062V793.466C2838.58 784.324 2837.26 774.671 2832.91 767.225C2828.44 759.573 2820.9 754.473 2809.22 754.473C2799.81 754.473 2790.27 757.502 2783.96 762.551L2782.66 763.591L2783.12 765.193L2786.28 776.198L2787.35 779.936L2790.31 777.408C2794.54 773.792 2800.78 771.637 2807.12 771.637C2810.42 771.637 2812.81 772.378 2814.58 773.466C2816.35 774.555 2817.65 776.087 2818.6 777.9C2820.41 781.355 2820.88 785.668 2820.94 789.211ZM2820.52 822.862L2820.52 822.887L2820.51 822.913C2818.55 829.901 2813.42 836.147 2805.54 836.147C2803.09 836.147 2800.76 835.152 2799.01 833.109C2797.24 831.051 2795.92 827.763 2795.92 823.007C2795.92 819.053 2796.82 816.047 2798.24 813.74C2799.67 811.429 2801.72 809.67 2804.25 808.356C2808.81 805.993 2814.8 805.143 2820.94 805.176V818.373C2820.94 820.165 2820.93 821.534 2820.52 822.862Z" fill="#FF5822" stroke="#FF5822" stroke-width="5"/>
<path d="M2874.37 733.227V729.841L2871.14 730.837L2857.97 734.892L2856.21 735.435V737.281V756.214H2847.65H2845.15V758.714V770.878V773.378H2847.65H2856.21V819.536C2856.21 829.982 2857.75 838.831 2861.96 844.19C2865.68 849.581 2871.77 852.157 2878.19 852.157C2883.86 852.157 2887.89 850.903 2890.79 849.628L2892.35 848.94L2892.28 847.232L2891.75 835.067L2891.6 831.651L2888.39 832.828C2887.1 833.302 2884.76 833.834 2881.88 833.834C2880.41 833.834 2879.32 833.519 2878.49 833.022C2877.66 832.525 2876.93 831.754 2876.32 830.598C2875.04 828.188 2874.37 824.356 2874.37 818.956V773.378H2890.31H2892.81V770.878V758.714V756.214H2890.31H2874.37V733.227Z" fill="#FF5822" stroke="#FF5822" stroke-width="5"/>
<path d="M2902.55 847.913V850.413H2905.05H2917.69H2920.19V847.913V758.709V756.209H2917.69H2905.05H2902.55V758.709V847.913ZM2911.37 746.148C2914.7 746.148 2917.53 744.838 2919.48 742.497C2921.39 740.206 2922.3 737.13 2922.3 733.801C2922.3 730.49 2921.4 727.286 2919.51 724.926C2917.58 722.512 2914.7 721.117 2911.23 721.454C2908.14 721.494 2905.5 722.864 2903.69 725.148C2901.88 727.422 2900.97 730.471 2900.97 733.801C2900.97 739.727 2904.67 746.148 2911.37 746.148Z" fill="#FF5822" stroke="#FF5822" stroke-width="5"/>
<path d="M2937.3 783.037V785.537H2938.35V847.913V850.413H2940.85H2953.49H2955.99V847.913V794.042C2955.99 791.403 2956.48 788.75 2956.93 787.237L2956.96 787.152L2956.98 787.066C2958.94 778.43 2965.11 772.213 2971.92 772.213C2976.92 772.213 2980.22 774.618 2982.42 778.775C2984.71 783.103 2985.75 789.289 2985.75 796.359V847.913V850.413H2988.25H3000.89H3003.39V847.913V794.622C3003.39 778.876 2999.47 768.652 2993.87 762.335C2988.26 756.008 2981.22 753.891 2975.61 753.891C2965.61 753.891 2958.3 759.212 2953.6 765.464L2953.35 758.617L2953.27 756.208H2950.86H2939.27H2936.59L2936.78 758.882C2937.3 766.309 2937.3 773.749 2937.3 783.037Z" fill="#FF5822" stroke="#FF5822" stroke-width="5"/>
<path d="M3085.56 758.71L3083.06 758.607V756.789H3072H3069.6L3069.5 759.191L3069.29 764.706C3065.07 759.116 3058.46 754.473 3048.83 754.473C3030.48 754.473 3014.21 773.722 3014.21 804.471C3014.21 817.04 3017.47 828.422 3023.21 836.737C3028.97 845.08 3037.31 850.415 3047.25 850.415C3056.18 850.415 3063.22 846.305 3067.92 840.661V840.964C3067.92 851.937 3065.49 859.098 3061.85 863.479C3058.27 867.788 3053.25 869.744 3047.25 869.744C3038.95 869.744 3032.08 866.515 3027.66 863.277L3024.66 861.072L3023.76 864.691L3020.6 877.435L3020.24 878.891L3021.35 879.895C3027.79 885.688 3037.99 888.067 3046.72 888.067C3056.03 888.067 3066.89 885.666 3074.41 876.788C3081.9 868.521 3085.04 855.525 3085.04 834.592V783.039C3085.04 773.659 3085.04 767.315 3085.35 761.789H3085.56V759.289V758.71ZM3050.41 771.637C3058.67 771.637 3063.88 778.246 3066.42 787.132C3066.86 789.106 3066.87 791.12 3066.87 794.045V809.106C3066.87 811.713 3066.4 814.359 3065.87 817.262C3063.42 826.873 3056.83 832.092 3050.41 832.092C3044.6 832.092 3040.07 829.082 3036.87 823.872C3033.63 818.586 3031.84 811.115 3031.84 802.734C3031.84 792.931 3034.01 785.037 3037.44 779.68C3040.84 774.362 3045.39 771.637 3050.41 771.637Z" fill="#FF5822" stroke="#FF5822" stroke-width="5"/>
<path d="M3115.82 737.27V739.77H3118.32H3146.37V847.907V850.407H3148.87H3161.51H3164.01V847.907V739.77H3192.05H3194.55V737.27V723.947V721.447H3192.05H3118.32H3115.82V723.947V737.27Z" fill="#FF5822" stroke="#FF5822" stroke-width="5"/>
<path d="M3227.49 789.211C3214.64 789.307 3204.23 792.262 3196.86 798.011C3188.92 804.204 3184.84 813.383 3184.84 824.745C3184.84 831.562 3186.8 838.49 3190.81 843.777C3194.86 849.13 3200.97 852.732 3208.93 852.732C3217.42 852.732 3224.49 848.608 3229.14 843.269L3229.6 848.035V848.495V850.995H3232.1H3243.69H3246.4L3246.18 848.289C3245.65 841.934 3245.13 834.487 3245.13 827.062V793.466C3245.13 784.324 3243.81 774.671 3239.46 767.225C3234.99 759.573 3227.45 754.473 3215.77 754.473C3206.36 754.473 3196.83 757.502 3190.51 762.551L3189.21 763.591L3189.67 765.193L3192.83 776.198L3193.91 779.936L3196.86 777.408C3201.09 773.792 3207.33 771.637 3213.67 771.637C3216.97 771.637 3219.36 772.378 3221.13 773.466C3222.9 774.555 3224.2 776.087 3225.15 777.9C3226.96 781.355 3227.43 785.668 3227.49 789.211ZM3227.6 822.862L3227.59 822.887L3227.59 822.913C3225.63 829.902 3220.5 836.147 3212.62 836.147C3210.17 836.147 3207.84 835.152 3206.09 833.109C3204.32 831.051 3203 827.763 3203 823.007C3203 819.053 3203.9 816.047 3205.32 813.74C3206.75 811.429 3208.79 809.67 3211.33 808.356C3215.89 805.993 3221.88 805.143 3228.02 805.176V818.373C3228.02 820.164 3228 821.534 3227.6 822.862Z" fill="#FF5822" stroke="#FF5822" stroke-width="5"/>
<path d="M3263.7 714.5H3261.2V717V847.911V850.411H3263.7H3276.34H3278.84V847.911V717V714.5H3276.34H3263.7Z" fill="#FF5822" stroke="#FF5822" stroke-width="5"/>
<path d="M3351.99 831.826L3351.4 828.577L3348.44 830.027C3343.88 832.254 3339 834.407 3330.05 834.407C3324.31 834.407 3318.97 832.449 3315.05 828.129C3311.35 824.061 3308.67 817.643 3308.35 808.127H3355.33H3357.18L3357.72 806.352C3358.36 804.254 3358.35 801.609 3358.35 798.465C3358.35 798.343 3358.35 798.22 3358.35 798.097C3358.35 789.739 3356.74 778.867 3352 769.986C3347.21 760.991 3339.1 753.891 3326.36 753.891C3314.88 753.891 3305.72 759.62 3299.53 768.825C3293.39 777.962 3290.16 790.507 3290.16 804.469C3290.16 818.171 3293.54 830.049 3300.01 838.565C3306.54 847.152 3316.1 852.151 3327.94 852.151C3339.56 852.151 3347.86 848.49 3352.74 846.104L3354.44 845.273L3354.1 843.411L3351.99 831.826ZM3325.84 771.055C3332.07 771.055 3335.79 774.25 3338.09 778.806C3340.08 782.76 3340.95 787.669 3341.18 792.122H3308.67C3309.41 787.582 3310.95 782.707 3313.4 778.79C3316.34 774.116 3320.38 771.055 3325.84 771.055Z" fill="#FF5822" stroke="#FF5822" stroke-width="5"/>
<path d="M3370.24 783.037V785.537H3371.29V847.913V850.413H3373.79H3386.43H3388.93V847.913V794.042C3388.93 791.402 3389.42 788.75 3389.87 787.237L3389.9 787.152L3389.92 787.066C3391.88 778.43 3398.05 772.213 3404.86 772.213C3409.86 772.213 3413.16 774.618 3415.36 778.775C3417.65 783.103 3418.69 789.289 3418.69 796.359V847.913V850.413H3421.19H3433.83H3436.33V847.913V794.622C3436.33 778.876 3432.41 768.652 3426.81 762.335C3421.2 756.008 3414.16 753.891 3408.55 753.891C3398.55 753.891 3391.24 759.212 3386.54 765.463L3386.29 758.617L3386.21 756.208H3383.8H3372.21H3369.53L3369.72 758.882C3370.23 766.309 3370.24 773.749 3370.24 783.037Z" fill="#FF5822" stroke="#FF5822" stroke-width="5"/>
<path d="M3471.59 733.227V729.841L3468.35 730.837L3455.18 734.892L3453.42 735.435V737.281V756.214H3444.86H3442.36V758.714V770.878V773.378H3444.86H3453.42V819.536C3453.42 829.982 3454.96 838.831 3459.17 844.19C3462.89 849.581 3468.98 852.157 3475.41 852.157C3481.07 852.157 3485.1 850.903 3488 849.628L3489.56 848.94L3489.49 847.232L3488.96 835.067L3488.82 831.651L3485.61 832.828C3484.31 833.302 3481.97 833.834 3479.09 833.834C3477.62 833.834 3476.53 833.519 3475.7 833.022C3474.88 832.525 3474.15 831.754 3473.53 830.598C3472.25 828.188 3471.59 824.356 3471.59 818.956V773.378H3487.52H3490.02V770.878V758.714V756.214H3487.52H3471.59V733.227Z" fill="#FF5822" stroke="#FF5822" stroke-width="5"/>
</g>
<defs>
<filter id="filter0_d_274_741" x="1610" y="712" width="1886.52" height="186.566" filterUnits="userSpaceOnUse" color-interpolation-filters="sRGB">
<feFlood flood-opacity="0" result="BackgroundImageFix"/>
<feColorMatrix in="SourceAlpha" type="matrix" values="0 0 0 0 0 0 0 0 0 0 0 0 0 0 0 0 0 0 127 0" result="hardAlpha"/>
<feOffset dy="4"/>
<feGaussianBlur stdDeviation="2"/>
<feComposite in2="hardAlpha" operator="out"/>
<feColorMatrix type="matrix" values="0 0 0 0 0 0 0 0 0 0 0 0 0 0 0 0 0 0 0.25 0"/>
<feBlend mode="normal" in2="BackgroundImageFix" result="effect1_dropShadow_274_741"/>
<feBlend mode="normal" in="SourceGraphic" in2="effect1_dropShadow_274_741" result="shape"/>
</filter>
<linearGradient id="paint0_linear_274_741" x1="1621.03" y1="1007.09" x2="1652.05" y2="1007.09" gradientUnits="userSpaceOnUse">
<stop stop-color="#00FFFF"/>
<stop offset="1.06556e-08" stop-color="#CCCCFF"/>
<stop offset="1" stop-color="#808080"/>
</linearGradient>
<linearGradient id="paint1_linear_274_741" x1="147.383" y1="96.8787" x2="264.854" y2="96.8787" gradientUnits="userSpaceOnUse">
<stop stop-color="#0F61AD"/>
<stop offset="1" stop-color="#00FFFF"/>
</linearGradient>
<linearGradient id="paint2_linear_274_741" x1="47.6289" y1="208.359" x2="184.131" y2="208.359" gradientUnits="userSpaceOnUse">
<stop stop-color="#0F61AD"/>
<stop offset="1" stop-color="#00FFFF"/>
</linearGradient>
<linearGradient id="paint3_linear_274_741" x1="1.21553" y1="348.945" x2="138.77" y2="348.945" gradientUnits="userSpaceOnUse">
<stop stop-color="#0F61AD"/>
<stop offset="1" stop-color="#00FFFF"/>
</linearGradient>
<linearGradient id="paint4_linear_274_741" x1="0.151879" y1="506.508" x2="138.649" y2="506.508" gradientUnits="userSpaceOnUse">
<stop stop-color="#0F61AD"/>
<stop offset="1" stop-color="#00FFFF"/>
</linearGradient>
<linearGradient id="paint5_linear_274_741" x1="41.5181" y1="655.217" x2="182.378" y2="655.217" gradientUnits="userSpaceOnUse">
<stop stop-color="#0F61AD"/>
<stop offset="1" stop-color="#00FFFF"/>
</linearGradient>
<linearGradient id="paint6_linear_274_741" x1="130.058" y1="782.542" x2="261.92" y2="782.542" gradientUnits="userSpaceOnUse">
<stop stop-color="#0F61AD"/>
<stop offset="1" stop-color="#00FFFF"/>
</linearGradient>
<linearGradient id="paint7_linear_274_741" x1="256.348" y1="878.827" x2="392.96" y2="878.827" gradientUnits="userSpaceOnUse">
<stop stop-color="#0F61AD"/>
<stop offset="1" stop-color="#00FFFF"/>
</linearGradient>
<linearGradient id="paint8_linear_274_741" x1="411.73" y1="923.826" x2="529.452" y2="923.826" gradientUnits="userSpaceOnUse">
<stop stop-color="#0F61AD"/>
<stop offset="1" stop-color="#00FFFF"/>
</linearGradient>
<linearGradient id="paint9_linear_274_741" x1="-1.12945" y1="471.317" x2="927.573" y2="471.317" gradientUnits="userSpaceOnUse">
<stop stop-color="#0F61AD"/>
<stop offset="1" stop-color="#00FFFF"/>
</linearGradient>
<linearGradient id="paint10_linear_274_741" x1="1354.22" y1="1260.82" x2="749.832" y2="1218.01" gradientUnits="userSpaceOnUse">
<stop offset="0.218564" stop-color="#0F61AD"/>
<stop offset="1" stop-color="#00FFFF"/>
</linearGradient>
<linearGradient id="paint11_linear_274_741" x1="1631.93" y1="1335.76" x2="1094.45" y2="1300.96" gradientUnits="userSpaceOnUse">
<stop offset="0.218564" stop-color="#0F61AD"/>
<stop offset="1" stop-color="#00FFFF"/>
</linearGradient>
<linearGradient id="paint12_linear_274_741" x1="1927.04" y1="1250.74" x2="1399.79" y2="1217.67" gradientUnits="userSpaceOnUse">
<stop offset="0.218564" stop-color="#0F61AD"/>
<stop offset="1" stop-color="#00FFFF"/>
</linearGradient>
<linearGradient id="paint13_linear_274_741" x1="2240.94" y1="1110.06" x2="1686.28" y2="1062.03" gradientUnits="userSpaceOnUse">
<stop offset="0.218564" stop-color="#0F61AD"/>
<stop offset="1" stop-color="#00FFFF"/>
</linearGradient>
<linearGradient id="paint14_linear_274_741" x1="2435.2" y1="1093.53" x2="2102.92" y2="1075.98" gradientUnits="userSpaceOnUse">
<stop offset="0.218564" stop-color="#0F61AD"/>
<stop offset="1" stop-color="#00FFFF"/>
</linearGradient>
<linearGradient id="paint15_linear_274_741" x1="2759.36" y1="1110.06" x2="2197.06" y2="1060.69" gradientUnits="userSpaceOnUse">
<stop offset="0.218564" stop-color="#0F61AD"/>
<stop offset="1" stop-color="#00FFFF"/>
</linearGradient>
<linearGradient id="paint16_linear_274_741" x1="2875.34" y1="1236.63" x2="2675.87" y2="1231.84" gradientUnits="userSpaceOnUse">
<stop offset="0.218564" stop-color="#0F61AD"/>
<stop offset="1" stop-color="#00FFFF"/>
</linearGradient>
<linearGradient id="paint17_linear_274_741" x1="3031.89" y1="1236.63" x2="2832.42" y2="1231.84" gradientUnits="userSpaceOnUse">
<stop offset="0.218564" stop-color="#0F61AD"/>
<stop offset="1" stop-color="#00FFFF"/>
</linearGradient>
<linearGradient id="paint18_linear_274_741" x1="3189.57" y1="1254.63" x2="2986.64" y2="1249.82" gradientUnits="userSpaceOnUse">
<stop offset="0.218564" stop-color="#0F61AD"/>
<stop offset="1" stop-color="#00FFFF"/>
</linearGradient>
<linearGradient id="paint19_linear_274_741" x1="3540.22" y1="1110.06" x2="2985.56" y2="1062.03" gradientUnits="userSpaceOnUse">
<stop offset="0.218564" stop-color="#0F61AD"/>
<stop offset="1" stop-color="#00FFFF"/>
</linearGradient>
</defs>
</svg>
