<svg width="3500" height="1013" viewBox="0 0 3500 1013" fill="none" xmlns="http://www.w3.org/2000/svg">
<path d="M1629.93 1009.67C1637.4 1007.18 1644.42 1003.86 1651.88 1001.36C1638.71 1005.52 1638.27 1005.93 1631.69 1008.43L1620.71 1013C1623.79 1012.17 1626.86 1010.92 1629.93 1009.67Z" fill="url(#paint0_linear_274_741)"/>
<path d="M214.165 100.31C235.305 91.8487 267.016 63.9277 264.719 59.6973C263.34 59.6973 261.961 59.6972 260.582 60.1202C241.28 66.4659 225.654 73.6578 214.624 80.8496C199.918 91.4258 180.615 105.809 166.828 116.809L147.525 134.153C160.394 122.308 182.913 110.886 214.165 100.31Z" fill="url(#paint1_linear_274_741)"/>
<path d="M143.388 208.19C172.341 195.499 192.563 154.887 180.614 150.233C178.775 149.387 176.018 150.233 174.18 150.656C131.898 164.617 103.404 180.692 90.5359 198.037C81.8039 210.729 70.3144 227.228 62.5016 240.342L47.7949 266.994C58.3653 245.842 91.4551 225.535 143.388 208.19Z" fill="url(#paint2_linear_274_741)"/>
<path d="M109.844 346.097C140.636 331.29 146.151 280.101 129.606 274.602C127.308 273.756 123.631 274.179 121.333 275.025C60.6688 294.908 24.3618 319.022 17.0085 344.405C13.7915 357.519 9.19572 374.864 6.43823 387.978L1.38281 423.937C4.1403 395.593 42.2855 368.518 109.844 346.097Z" fill="url(#paint3_linear_274_741)"/>
<path d="M119.95 500.51C149.822 485.703 139.711 431.553 118.571 424.362C115.813 423.515 111.677 423.938 108.92 424.362C36.3058 448.475 -2.29903 478.089 0.45846 508.971C3.21595 529.277 7.35217 555.929 11.948 575.812L15.6247 589.35C6.4331 556.775 44.1188 525.47 119.95 500.51Z" fill="url(#paint4_linear_274_741)"/>
<path d="M171.884 646.042C196.701 632.505 172.343 582.162 151.203 575.817C148.445 574.971 144.309 575.394 141.551 575.817C64.8012 601.199 29.4136 633.774 45.4989 665.926C54.231 682.001 66.6397 703.577 76.2909 719.229L87.3207 735.305C63.8821 703.577 95.5933 671.002 171.884 646.042Z" fill="url(#paint5_linear_274_741)"/>
<path d="M257.367 771.684C274.371 761.108 239.443 717.957 220.141 712.88C217.843 712.034 214.166 712.457 211.408 712.457C138.335 736.571 111.679 768.3 143.391 798.759C156.718 810.604 174.183 825.834 187.97 836.833L210.03 852.909C168.208 824.988 188.889 794.529 257.367 771.684Z" fill="url(#paint6_linear_274_741)"/>
<path d="M369.041 868.136C369.501 867.713 369.96 867.29 369.96 867.29C369.501 857.983 328.139 823.293 310.674 824.986C255.065 843.177 239.439 868.56 277.125 891.404C277.584 891.404 278.044 891.827 278.044 892.25C276.206 891.827 275.286 891.404 267.933 887.597C301.942 903.673 304.24 904.942 327.219 913.403C355.713 923.133 356.632 923.556 374.097 928.209C379.612 929.478 387.424 931.593 392.939 932.863C375.016 928.632 359.39 923.556 348.36 917.633C317.108 901.134 327.219 881.674 369.041 868.136Z" fill="url(#paint7_linear_274_741)"/>
<path d="M523 938.365C521.621 937.519 521.621 937.519 515.647 932.02C508.293 932.02 500.94 931.173 497.723 929.481C494.506 927.789 495.885 926.097 499.561 924.828C433.841 902.406 433.841 902.406 433.382 902.406C410.403 910.021 404.428 920.597 422.352 929.904C429.246 933.712 438.897 936.673 450.846 939.211C450.846 939.211 451.305 939.211 451.765 939.634C449.007 940.903 444.412 940.904 434.761 940.48C434.301 940.48 433.841 940.48 433.841 940.48C427.867 940.057 425.569 939.634 416.837 937.942C424.19 939.211 433.382 940.48 440.735 941.75C457.74 943.865 457.74 943.865 466.012 944.711H466.472C466.931 944.711 467.391 944.711 467.85 944.711H468.31C475.204 944.711 481.638 944.288 488.531 944.288C500.48 945.134 513.349 945.557 526.217 945.134C528.515 945.134 528.515 944.711 529.434 944.288C528.055 942.173 528.055 942.173 523 938.365Z" fill="url(#paint8_linear_274_741)"/>
<path d="M927.434 475.553C927.434 484.014 926.056 505.166 907.672 513.627C863.093 527.164 806.565 539.01 739.925 547.048C616.298 562.277 480.262 563.969 358.473 553.816C336.413 554.239 324.464 565.662 321.707 588.929C321.707 589.352 321.707 590.198 321.707 590.621C324.005 614.312 335.954 627.427 358.014 631.657C477.505 641.81 610.783 640.541 732.572 625.734C773.934 624.888 771.636 664.655 752.794 683.269C743.142 692.999 734.41 694.691 726.138 696.383C534.952 719.228 314.353 708.228 169.126 672.269C153.96 670.154 147.526 680.307 151.202 698.498C151.202 698.921 151.662 699.344 151.662 700.19C159.475 720.074 170.964 732.342 187.509 738.265C286.319 762.801 421.895 775.07 557.012 771.686C596.536 773.801 594.698 804.683 577.234 817.798C568.502 824.143 560.689 824.989 553.336 825.835C499.105 827.105 444.875 825.835 393.401 821.605C368.584 821.605 369.963 833.451 370.882 843.181C370.882 843.604 371.341 844.027 371.341 844.45C378.235 857.987 389.725 865.602 407.189 868.14C493.59 874.486 588.723 873.217 675.584 863.064C687.074 862.641 687.993 863.91 692.129 868.986C688.912 885.485 670.529 893.946 655.363 898.177C528.059 913.829 387.886 907.061 293.213 884.639C291.834 884.639 289.536 884.216 288.157 884.216C290.455 888.446 295.511 893.523 299.187 896.061C299.647 896.485 300.106 896.484 300.566 896.907C316.192 905.791 324.924 909.176 335.954 912.983C399.836 928.213 484.398 934.559 565.744 929.905C569.421 929.905 574.017 931.174 577.234 932.866C570.8 939.212 569.88 940.058 552.876 942.597C521.624 944.289 492.671 944.289 465.555 942.173C464.177 942.173 461.879 942.173 460.041 942.173C460.96 942.596 462.339 943.019 463.717 943.443H463.258C446.713 941.75 446.713 941.751 437.981 940.481C430.627 939.212 421.436 937.943 414.083 936.674C410.406 935.828 404.891 934.982 401.214 934.136C396.159 933.29 394.32 932.867 392.022 932.02C386.508 930.751 378.695 928.636 373.18 927.367C346.524 919.752 343.767 918.906 326.302 912.56C292.753 899.446 289.536 898.177 267.017 886.754C263.34 884.639 258.285 882.101 254.608 879.985C254.148 879.562 253.689 879.563 253.229 879.14C241.28 872.371 241.28 872.371 213.705 855.026C212.326 854.18 210.488 852.911 209.109 852.064L187.05 835.989C173.262 824.99 155.338 809.76 142.47 797.914C148.904 803.837 157.636 809.76 168.666 815.683C193.484 828.797 227.952 839.796 268.855 848.68C272.532 848.68 277.587 847.834 280.344 845.719C280.344 841.065 278.506 835.143 277.127 830.912C277.127 830.489 276.668 830.066 276.208 829.643C265.638 814.413 252.77 804.683 237.144 799.607C190.726 789.876 152.121 777.185 123.627 762.378C106.163 753.071 93.7546 743.764 86.8609 734.034L75.8309 717.958C66.1797 702.306 53.3113 680.73 45.0389 664.655C50.0943 674.808 59.7455 684.538 74.9116 694.268C76.75 694.268 79.0479 693.845 80.4267 693.845C80.8862 685.807 81.3459 684.538 76.7501 670.577C76.7501 670.154 76.2906 669.308 76.2906 668.885C68.9373 650.271 62.0434 638.426 52.8518 628.272C30.3323 613.043 18.8429 600.352 15.1663 587.237L11.4895 573.7C7.3533 553.816 2.75749 527.164 0 506.858C1.83832 525.472 18.8429 544.086 52.3923 561.854C83.1843 577.93 125.006 591.891 174.641 603.313C192.564 605.005 201.756 594.852 203.594 571.584C203.594 571.161 203.594 570.315 203.594 569.892C201.756 545.778 193.024 531.395 175.101 525.049C125.466 513.627 83.6437 500.089 52.8518 483.591C15.1662 463.707 -1.37871 442.555 0.459609 421.826L5.51503 385.867C8.73209 372.752 12.4087 354.984 16.0853 342.293C10.5704 360.484 20.2216 379.521 46.8773 397.289C55.6094 398.135 62.9627 396.866 73.0735 370.214C73.0735 369.791 73.533 368.945 73.533 368.522C82.7246 338.908 77.2097 330.871 73.0735 324.102C44.5795 305.065 36.7666 284.758 46.4178 265.298L61.1242 238.646C69.3967 225.955 80.4268 208.61 89.1588 196.342C71.6947 219.186 82.2649 243.723 125.466 266.567C149.364 279.259 181.534 290.258 219.68 299.142C235.305 300.411 247.714 291.527 258.744 270.375C259.204 269.952 259.204 269.106 259.663 268.682C268.395 246.261 263.8 240.338 258.285 232.723C221.058 222.993 192.564 213.263 171.424 202.264C128.683 179.843 122.248 155.306 146.147 132.884L165.449 115.539C179.696 104.54 198.539 89.7336 213.246 79.5805C186.13 97.3485 183.373 117.655 209.109 136.692C216.922 137.115 223.816 136.269 248.174 118.078C248.633 117.655 249.093 117.232 249.552 116.809C266.097 103.694 268.395 100.733 273.91 92.695C248.633 70.2735 258.284 50.3903 296.43 34.3145L317.571 25.8536C342.388 16.9696 342.388 16.9696 355.716 13.1622C359.852 11.893 365.826 10.2009 369.963 8.93171C331.358 22.4692 321.247 41.0833 352.499 57.5821C361.69 62.2356 373.18 66.4661 386.967 69.8505C395.699 69.0044 401.674 66.8891 422.355 52.9286C422.815 52.5055 423.274 52.5055 423.734 52.0824C437.521 42.3524 440.738 39.3911 444.415 36.0067C437.062 32.1993 430.627 30.084 426.032 27.5458C409.027 18.6618 414.542 8.08552 436.602 0.893716C445.334 0.0476215 465.096 -2.06756 502.782 5.97033C499.565 6.81643 499.105 8.50859 501.403 9.77773C504.16 11.0469 510.135 11.893 515.65 11.893C530.356 28.8148 530.357 32.1993 530.357 40.2372C511.054 42.3524 493.59 41.9294 477.964 40.2372C471.53 42.7755 466.015 44.8907 454.066 57.5821C453.606 58.0052 453.607 58.0051 453.147 58.4281C446.253 67.3121 445.794 68.5813 444.415 76.1962C445.794 77.4653 447.172 79.1575 448.551 80.8497C489.913 85.0802 537.25 85.5032 581.37 80.8497C606.647 85.5032 623.651 117.655 614.919 126.539C613.541 127.808 610.783 128.654 608.945 129.5C511.054 139.653 401.214 132.884 330.898 113.847C321.707 114.27 311.596 116.386 291.374 135C290.915 135.423 290.455 135.846 289.996 136.269C276.668 151.075 276.668 154.46 276.668 163.767C278.047 165.036 279.885 166.728 281.264 167.997C355.256 187.881 463.717 197.188 568.961 192.957C608.945 200.995 605.728 244.569 589.642 254.299C586.885 255.991 582.289 256.837 579.072 257.683C514.271 260.645 448.551 258.952 388.346 253.453C371.341 253.876 359.392 264.029 351.579 284.335C351.579 284.758 351.12 285.604 351.12 286.028C346.984 307.603 353.418 320.294 371.341 324.102C476.585 333.832 595.617 332.986 703.619 319.448C710.053 318.602 716.027 317.756 722.002 316.91C759.228 316.064 773.934 360.907 756.93 380.367C751.874 386.29 745.44 387.982 740.385 389.251C733.951 390.097 727.057 390.943 720.163 391.789C535.871 414.634 320.788 403.635 182.454 368.522C165.909 366.83 154.419 376.56 146.606 398.135C146.606 398.558 146.147 399.404 146.147 399.827C141.551 423.095 147.066 437.478 162.692 444.247C309.298 481.898 536.791 493.321 732.572 469.207C797.373 461.169 852.063 449.747 895.723 436.632C923.758 437.478 926.975 464.13 927.434 475.553Z" fill="url(#paint9_linear_274_741)"/>
<path d="M1211.43 499.67L1310.49 505.862C1305.62 552.545 1289.7 588.272 1262.29 613.518C1234.87 638.289 1201.26 651.15 1161.46 651.15C1113.25 651.15 1074.78 634.002 1045.15 599.704C1015.52 565.407 1000.92 518.248 1000.92 457.751C1000.92 398.206 1015.08 349.618 1042.94 312.939C1070.8 276.26 1110.16 258.158 1160.13 258.158C1207.01 258.158 1242.83 271.972 1268.03 300.077C1293.24 328.182 1307.39 364.862 1310.49 411.068L1209.22 416.784C1209.22 391.061 1204.79 372.96 1195.51 361.527C1186.22 350.095 1175.61 344.378 1163.67 344.378C1129.61 344.378 1112.37 381.534 1112.37 455.369C1112.37 496.812 1116.79 524.916 1125.63 540.16C1134.48 554.927 1146.86 562.549 1163.22 562.549C1191.97 562.549 1207.89 541.589 1211.43 499.67Z" fill="url(#paint10_linear_274_741)"/>
<path d="M1593.08 361.053L1489.59 668.777C1481.63 692.119 1470.14 710.22 1455.54 723.558C1440.51 736.896 1417.95 743.088 1386.99 743.088C1379.48 743.088 1362.23 742.136 1335.25 740.707V661.632C1348.52 664.014 1361.34 664.967 1372.4 664.967C1402.03 664.967 1417.07 657.821 1417.07 643.531C1417.07 638.767 1415.74 632.574 1412.64 624.476L1318.01 361.053H1428.56L1472.35 512.533L1517.9 361.053H1593.08Z" fill="url(#paint11_linear_274_741)"/>
<path d="M1677.55 644.958H1619.17V263.875H1720.89V394.872C1735.04 368.673 1757.59 355.335 1788.55 355.335C1810.22 355.335 1828.79 361.527 1843.83 373.913C1858.86 386.298 1870.36 403.923 1877.88 426.312C1885.4 449.177 1888.94 472.994 1888.94 498.241C1888.94 543.971 1879.65 581.127 1860.63 608.755C1841.62 636.86 1813.31 650.674 1775.72 650.674C1738.58 650.674 1710.27 635.907 1690.81 605.897C1685.51 617.33 1680.64 630.191 1677.55 644.958ZM1720.89 539.208C1720.89 567.312 1731.06 581.127 1750.96 581.127C1762.01 581.127 1769.97 575.887 1776.17 565.884C1781.91 555.88 1785.01 534.92 1785.01 503.005C1785.01 468.707 1781.92 446.795 1775.28 438.22C1768.65 429.17 1760.69 424.883 1750.96 424.883C1743.44 424.883 1736.36 428.217 1730.62 434.41C1724.42 440.602 1721.33 450.129 1721.33 462.038V539.208H1720.89Z" fill="url(#paint12_linear_274_741)"/>
<path d="M2104.31 543.011L2200.71 550.157C2194.97 578.262 2180.37 602.079 2156.93 621.61C2133.49 641.14 2101.65 651.144 2061.85 651.144C2017.63 651.144 1982.25 637.33 1955.72 609.701C1929.18 582.073 1915.91 547.775 1915.91 506.809C1915.91 464.413 1928.74 428.687 1954.83 399.153C1980.92 370.095 2015.86 355.328 2059.2 355.328C2101.21 355.328 2135.26 369.142 2161.36 396.771C2187.45 424.4 2200.27 462.031 2200.27 509.19C2200.27 513.001 2200.27 518.718 2199.83 525.387H2024.26C2024.7 543.488 2027.36 556.35 2033.11 564.924C2038.41 573.498 2049.03 577.786 2064.51 577.786C2087.06 578.262 2100.33 566.353 2104.31 543.011ZM2097.23 469.653C2097.23 450.599 2093.69 437.737 2086.62 431.068C2079.54 424.399 2071.14 421.065 2060.53 421.065C2036.2 421.065 2023.82 437.261 2023.82 469.653H2097.23Z" fill="url(#paint13_linear_274_741)"/>
<path d="M2340.46 644.963H2241.4V361.056H2327.63V419.648C2337.36 377.252 2360.36 355.816 2396.18 355.816C2399.72 355.816 2405.02 356.293 2411.21 356.769V455.851C2404.14 453.945 2397.51 452.993 2391.76 452.993C2357.7 452.993 2340.46 473.476 2340.46 514.442V644.963Z" fill="url(#paint14_linear_274_741)"/>
<path d="M2572.63 651.144C2528.85 651.144 2494.36 636.377 2468.27 607.319C2442.62 577.785 2429.79 543.488 2429.79 503.951C2429.79 461.555 2443.06 426.305 2470.03 397.723C2497.01 369.619 2531.95 355.328 2574.84 355.328C2618.18 355.328 2653.12 369.142 2679.21 397.247C2705.75 425.352 2718.57 460.126 2718.57 502.045C2718.57 544.441 2705.3 579.691 2678.33 608.272C2652.24 636.853 2616.86 651.144 2572.63 651.144ZM2574.4 583.502C2590.32 583.502 2600.05 574.451 2604.03 556.35C2607.57 538.248 2609.34 519.67 2609.34 500.14C2609.34 473.464 2606.69 454.41 2601.82 442.501C2596.96 430.592 2587.67 424.876 2574.84 424.876C2562.9 424.876 2554.06 431.068 2548.75 442.977C2543 454.886 2540.35 474.893 2540.35 502.521C2540.35 534.913 2543 556.826 2548.75 567.306C2554.06 578.262 2562.9 583.502 2574.4 583.502Z" fill="url(#paint15_linear_274_741)"/>
<path d="M2860.97 264.35V645.433H2759.26V264.35H2860.97Z" fill="url(#paint16_linear_274_741)"/>
<path d="M3017.52 264.35V645.433H2915.81V264.35H3017.52Z" fill="url(#paint17_linear_274_741)"/>
<path d="M3174.96 251.963V340.088H3071.47V251.963H3174.96ZM3174.96 361.048V644.955H3071.47V361.048H3174.96Z" fill="url(#paint18_linear_274_741)"/>
<path d="M3403.59 543.011L3500 550.157C3494.25 578.262 3479.65 602.079 3456.21 621.61C3432.78 641.14 3400.93 651.144 3361.13 651.144C3316.91 651.144 3281.53 637.33 3255 609.701C3228.46 582.073 3215.2 547.775 3215.2 506.809C3215.2 464.413 3228.02 428.687 3254.11 399.153C3280.2 370.095 3315.14 355.328 3358.48 355.328C3400.49 355.328 3434.54 369.142 3460.64 396.771C3486.73 424.4 3499.55 462.031 3499.55 509.19C3499.55 513.001 3499.55 518.718 3499.11 525.387H3322.66C3323.1 543.488 3325.75 556.35 3331.5 564.924C3336.81 573.498 3347.42 577.786 3362.9 577.786C3386.34 578.262 3399.61 566.353 3403.59 543.011ZM3396.51 469.653C3396.51 450.599 3392.97 437.737 3385.9 431.068C3378.82 424.399 3370.42 421.065 3359.81 421.065C3335.48 421.065 3323.1 437.261 3323.1 469.653H3396.51Z" fill="url(#paint19_linear_274_741)"/>
<path d="M1949.46 709.981C1954.27 708.631 1961.7 707.73 1968.69 707.73C1979.18 707.73 1986.17 709.981 1991.42 714.932C1995.79 718.532 1998.41 724.384 1998.41 732.035C1998.41 741.487 1993.17 749.588 1984.43 753.189V753.639C1992.29 755.89 2001.47 763.541 2001.47 777.944C2001.47 786.045 1998.85 792.347 1994.48 797.298C1988.8 803.599 1979.62 806.299 1966.07 806.299C1958.64 806.299 1952.96 805.849 1949.46 805.399V709.981ZM1959.95 749.588H1969.57C1980.49 749.588 1987.49 742.837 1987.49 733.385C1987.49 722.133 1980.06 717.632 1969.57 717.632C1964.76 717.632 1961.7 718.083 1959.95 718.533V749.588ZM1959.95 795.497C1962.14 795.947 1965.2 795.947 1969.13 795.947C1980.06 795.947 1990.54 790.996 1990.54 777.044C1990.54 763.991 1980.93 758.59 1969.13 758.59H1960.39V795.497H1959.95Z" fill="url(#paint20_linear_274_741)"/>
<path d="M2015.45 757.24C2015.45 749.139 2015.45 741.938 2015.02 735.636H2024.63L2025.07 749.139H2025.51C2028.13 739.687 2034.68 733.836 2042.11 733.836C2043.42 733.836 2044.3 733.836 2045.17 734.286V745.988C2043.86 745.538 2042.99 745.538 2041.68 745.538C2034.25 745.538 2028.57 752.289 2027.25 761.741C2026.82 763.542 2026.82 765.792 2026.82 767.592V804.499H2016.33V757.24H2015.45Z" fill="url(#paint21_linear_274_741)"/>
<path d="M2067.9 716.283C2067.9 720.784 2065.28 723.935 2060.91 723.935C2056.97 723.935 2054.35 720.334 2054.35 716.283C2054.35 711.782 2056.97 708.632 2060.91 708.632C2065.28 708.182 2067.9 711.782 2067.9 716.283ZM2056.1 804.95V735.637H2066.59V804.95H2056.1Z" fill="url(#paint22_linear_274_741)"/>
<path d="M2135.64 703.229V786.944C2135.64 793.245 2135.64 799.997 2136.08 804.948H2126.46L2126.02 792.796H2125.59C2122.09 800.447 2115.1 806.298 2105.48 806.298C2091.06 806.298 2080.14 791.895 2080.14 771.191C2080.14 748.237 2092.37 733.834 2106.79 733.834C2115.97 733.834 2122.09 738.785 2124.71 744.186H2125.15V703.229H2135.64ZM2125.15 763.99C2125.15 762.19 2125.15 760.389 2124.71 758.589C2122.96 750.487 2117.28 744.186 2108.98 744.186C2098.05 744.186 2091.06 755.438 2091.06 770.741C2091.06 784.694 2097.18 796.396 2108.54 796.396C2115.53 796.396 2122.09 790.545 2124.28 781.093C2124.71 779.293 2124.71 777.492 2124.71 775.692V763.99H2125.15Z" fill="url(#paint23_linear_274_741)"/>
<path d="M2204.69 735.637C2204.25 740.588 2204.25 745.989 2204.25 754.541V794.598C2204.25 810.801 2201.63 820.253 2195.94 826.104C2190.26 832.405 2181.96 834.206 2174.53 834.206C2167.54 834.206 2159.67 832.405 2154.87 828.355L2157.49 818.453C2161.42 821.153 2167.54 823.854 2174.97 823.854C2185.89 823.854 2194.2 817.103 2194.2 799.549V793.248H2193.76C2190.7 799.549 2184.15 804.95 2174.97 804.95C2160.11 804.95 2149.62 790.097 2149.62 771.194C2149.62 747.789 2162.73 734.287 2176.28 734.287C2186.33 734.287 2192.01 740.588 2194.63 746.439H2195.07L2195.51 736.087H2204.69V735.637ZM2193.32 763.092C2193.32 760.842 2193.32 759.042 2192.89 757.241C2190.7 750.04 2185.89 743.739 2177.59 743.739C2167.54 743.739 2160.11 754.091 2160.11 769.844C2160.11 783.346 2166.23 794.598 2177.59 794.598C2184.15 794.598 2190.26 789.648 2192.45 781.546C2192.89 779.296 2193.32 777.045 2193.32 774.795V763.092Z" fill="url(#paint24_linear_274_741)"/>
<path d="M2233.1 716.283C2233.1 720.784 2230.47 723.935 2226.1 723.935C2222.17 723.935 2219.55 720.334 2219.55 716.283C2219.55 711.782 2222.17 708.632 2226.1 708.632C2230.47 708.182 2233.1 711.782 2233.1 716.283ZM2221.3 804.95V735.637H2231.79V804.95H2221.3Z" fill="url(#paint25_linear_274_741)"/>
<path d="M2249.69 754.54C2249.69 747.339 2249.69 741.487 2249.26 735.636H2258.87L2259.31 746.889H2259.74C2262.8 740.587 2269.36 733.836 2279.41 733.836C2287.71 733.836 2300.39 739.687 2300.39 763.542V804.949H2289.9V764.892C2289.9 753.64 2286.4 744.188 2276.35 744.188C2269.36 744.188 2263.68 750.039 2261.93 757.24C2261.49 758.591 2261.06 760.841 2261.06 763.091V804.949H2250.57V754.54H2249.69Z" fill="url(#paint26_linear_274_741)"/>
<path d="M2369.01 735.637C2368.57 740.588 2368.57 745.989 2368.57 754.541V794.598C2368.57 810.801 2365.95 820.253 2360.27 826.104C2354.58 832.405 2346.28 834.206 2338.85 834.206C2331.86 834.206 2323.99 832.405 2319.19 828.355L2321.81 818.453C2325.74 821.153 2331.86 823.854 2339.29 823.854C2350.21 823.854 2358.52 817.103 2358.52 799.549V793.248H2358.08C2355.02 799.549 2348.47 804.95 2339.29 804.95C2324.43 804.95 2313.94 790.097 2313.94 771.194C2313.94 747.789 2327.05 734.287 2340.6 734.287C2350.65 734.287 2356.33 740.588 2358.95 746.439H2359.39L2359.83 736.087H2369.01V735.637ZM2357.64 763.092C2357.64 760.842 2357.64 759.042 2357.21 757.241C2355.02 750.04 2350.21 743.739 2341.91 743.739C2331.86 743.739 2324.43 754.091 2324.43 769.844C2324.43 783.346 2330.55 794.598 2341.91 794.598C2348.47 794.598 2354.58 789.648 2356.77 781.546C2357.21 779.296 2357.64 777.045 2357.64 774.795V763.092Z" fill="url(#paint27_linear_274_741)"/>
<path d="M2423.19 718.979H2398.28V708.627H2459.46V718.979H2434.11V804.945H2423.62V718.979H2423.19Z" fill="url(#paint28_linear_274_741)"/>
<path d="M2462.09 757.24C2462.09 749.139 2462.09 741.938 2461.65 735.636H2471.26L2471.7 749.139H2472.14C2474.76 739.687 2481.31 733.836 2488.74 733.836C2490.05 733.836 2490.93 733.836 2491.8 734.286V745.988C2490.49 745.538 2489.62 745.538 2488.31 745.538C2480.88 745.538 2475.2 752.289 2473.89 761.741C2473.45 763.542 2473.45 765.792 2473.45 767.592V804.499H2462.96V757.24H2462.09Z" fill="url(#paint29_linear_274_741)"/>
<path d="M2551.68 786.048C2551.68 793.249 2551.68 799.55 2552.12 804.951H2542.5L2542.07 793.699H2541.63C2539.01 799.1 2532.45 806.751 2521.96 806.751C2512.79 806.751 2501.42 800.45 2501.42 776.596V736.088H2511.91V774.345C2511.91 787.398 2515.41 796.399 2525.02 796.399C2532.02 796.399 2537.26 790.548 2539.44 784.697C2539.88 782.897 2540.32 780.646 2540.32 778.396V736.088H2550.81V786.048H2551.68Z" fill="url(#paint30_linear_274_741)"/>
<path d="M2567.85 792.348C2570.9 794.598 2576.59 797.299 2582.27 797.299C2590.13 797.299 2593.63 792.798 2593.63 786.947C2593.63 781.096 2590.57 777.495 2582.7 774.345C2572.22 769.844 2566.97 763.093 2566.97 754.541C2566.97 743.289 2574.84 734.287 2587.51 734.287C2593.63 734.287 2598.87 736.087 2601.93 738.338L2599.31 747.339C2597.13 745.539 2592.75 743.289 2587.07 743.289C2580.52 743.289 2577.46 747.79 2577.46 752.74C2577.46 758.592 2580.96 760.842 2588.82 764.443C2598.87 768.943 2604.12 774.795 2604.55 785.147C2604.55 797.299 2596.25 805.85 2582.27 805.85C2575.71 805.85 2569.59 804.05 2565.66 800.9L2567.85 792.348Z" fill="url(#paint31_linear_274_741)"/>
<path d="M2630.78 715.836V735.64H2646.07V745.091H2630.78V782.448C2630.78 791 2632.96 795.951 2639.08 795.951C2641.7 795.951 2643.89 795.501 2645.2 795.051L2645.64 804.503C2643.45 805.403 2640.39 806.303 2636.02 806.303C2631.22 806.303 2626.85 804.503 2624.22 800.902C2621.16 797.301 2619.85 791 2619.85 782.899V745.091H2610.68V735.64H2619.85V718.987L2630.78 715.836Z" fill="url(#paint32_linear_274_741)"/>
<path d="M2650.88 822.945C2653.5 814.394 2656.99 799.091 2658.31 788.739L2670.11 787.389C2667.05 799.541 2661.8 815.294 2658.31 822.045L2650.88 822.945Z" fill="url(#paint33_linear_274_741)"/>
<path d="M2752.27 759.936H2720.36V795.043H2756.2V805.395H2709.88V708.627H2754.45V718.979H2720.8V749.585H2752.7V759.936H2752.27Z" fill="url(#paint34_linear_274_741)"/>
<path d="M2769.31 703.229H2779.8V804.948H2769.31V703.229Z" fill="url(#paint35_linear_274_741)"/>
<path d="M2804.27 772.543C2804.27 789.647 2813.88 796.398 2824.37 796.398C2832.24 796.398 2836.61 794.598 2840.54 792.797L2842.29 801.799C2838.36 803.599 2831.8 806.3 2822.62 806.3C2804.27 806.3 2793.34 791.897 2793.34 771.193C2793.34 750.039 2803.83 733.836 2821.31 733.836C2840.54 733.836 2845.79 753.64 2845.79 766.242C2845.79 768.943 2845.79 770.743 2845.35 772.093H2804.27V772.543ZM2835.73 763.542C2835.73 755.44 2833.11 743.288 2820.88 743.288C2809.95 743.288 2805.14 754.99 2804.27 763.542H2835.73Z" fill="url(#paint36_linear_274_741)"/>
<path d="M2863.7 735.631L2875.5 774.338C2877.69 780.639 2879 786.49 2880.31 792.341H2880.75C2882.06 786.49 2883.81 780.639 2885.56 774.338L2896.92 735.631H2908.28L2885.12 804.944H2875.07L2852.34 735.631H2863.7Z" fill="url(#paint37_linear_274_741)"/>
<path d="M2950.67 804.95L2949.8 796.399H2949.36C2946.3 801.8 2939.75 806.751 2931.44 806.751C2919.65 806.751 2913.53 796.849 2913.53 786.947C2913.53 770.294 2926.2 760.842 2948.93 761.292V759.942C2948.93 754.091 2947.61 743.739 2935.38 743.739C2929.7 743.739 2924.02 745.539 2920.08 748.69L2917.46 740.138C2922.27 736.537 2929.7 734.287 2937.13 734.287C2955.04 734.287 2959.41 748.69 2959.41 762.642V788.747C2959.41 794.598 2959.85 800.45 2960.29 805.4H2950.67V804.95ZM2948.93 769.844C2937.13 769.394 2924.02 772.094 2924.02 785.597C2924.02 793.698 2928.82 797.749 2934.07 797.749C2941.93 797.749 2946.74 791.898 2948.49 786.047C2948.93 784.697 2948.93 783.346 2948.93 781.996V769.844Z" fill="url(#paint38_linear_274_741)"/>
<path d="M2989.13 715.836V735.64H3004.43V745.091H2989.13V782.448C2989.13 791 2991.32 795.951 2997.44 795.951C3000.06 795.951 3002.24 795.501 3003.56 795.051L3003.99 804.503C3001.81 805.403 2998.75 806.303 2994.38 806.303C2989.57 806.303 2985.2 804.503 2982.58 800.902C2979.52 797.301 2978.21 791 2978.21 782.899V745.091H2969.03V735.64H2978.21V718.987L2989.13 715.836Z" fill="url(#paint39_linear_274_741)"/>
<path d="M3028.9 716.283C3028.9 720.784 3026.28 723.935 3021.91 723.935C3017.98 723.935 3015.35 720.334 3015.35 716.283C3015.35 711.782 3017.98 708.632 3021.91 708.632C3026.28 708.182 3028.9 711.782 3028.9 716.283ZM3016.66 804.95V735.637H3027.15V804.95H3016.66Z" fill="url(#paint40_linear_274_741)"/>
<path d="M3045.5 754.54C3045.5 747.339 3045.5 741.487 3045.07 735.636H3054.68L3055.12 746.889H3055.55C3058.61 740.587 3065.17 733.836 3075.22 733.836C3083.52 733.836 3096.2 739.687 3096.2 763.542V804.949H3085.71V764.892C3085.71 753.64 3082.21 744.188 3072.16 744.188C3065.17 744.188 3059.49 750.039 3057.74 757.24C3057.3 758.591 3056.87 760.841 3056.87 763.091V804.949H3046.38V754.54H3045.5Z" fill="url(#paint41_linear_274_741)"/>
<path d="M3164.38 735.637C3163.94 740.588 3163.94 745.989 3163.94 754.541V794.598C3163.94 810.801 3161.32 820.253 3155.64 826.104C3149.96 832.405 3141.65 834.206 3134.22 834.206C3127.23 834.206 3119.36 832.405 3114.56 828.355L3117.18 818.453C3121.11 821.153 3127.23 823.854 3134.66 823.854C3145.59 823.854 3153.89 817.103 3153.89 799.549V793.248H3153.45C3150.39 799.549 3143.84 804.95 3134.66 804.95C3119.8 804.95 3109.31 790.097 3109.31 771.194C3109.31 747.789 3122.42 734.287 3135.97 734.287C3146.02 734.287 3151.7 740.588 3154.33 746.439H3154.76L3155.2 736.087H3164.38V735.637ZM3153.01 763.092C3153.01 760.842 3153.01 759.042 3152.58 757.241C3150.39 750.04 3145.59 743.739 3137.28 743.739C3127.23 743.739 3119.8 754.091 3119.8 769.844C3119.8 783.346 3125.92 794.598 3137.28 794.598C3143.84 794.598 3149.96 789.648 3152.14 781.546C3152.58 779.296 3153.01 777.045 3153.01 774.795V763.092Z" fill="url(#paint42_linear_274_741)"/>
<path d="M3218.56 718.979H3193.65V708.627H3254.83V718.979H3229.49V804.945H3219V718.979H3218.56Z" fill="url(#paint43_linear_274_741)"/>
<path d="M3288.05 804.95L3287.18 796.399H3286.74C3283.68 801.8 3277.13 806.751 3268.82 806.751C3257.02 806.751 3250.91 796.849 3250.91 786.947C3250.91 770.294 3263.58 760.842 3286.3 761.292V759.942C3286.3 754.091 3284.99 743.739 3272.76 743.739C3267.08 743.739 3261.39 745.539 3257.46 748.69L3254.84 740.138C3259.65 736.537 3267.08 734.287 3274.51 734.287C3292.42 734.287 3296.79 748.69 3296.79 762.642V788.747C3296.79 794.598 3297.23 800.45 3297.67 805.4H3288.05V804.95ZM3286.74 769.844C3274.94 769.394 3261.83 772.094 3261.83 785.597C3261.83 793.698 3266.64 797.749 3271.88 797.749C3279.75 797.749 3284.56 791.898 3286.3 786.047C3286.74 784.697 3286.74 783.346 3286.74 781.996V769.844Z" fill="url(#paint44_linear_274_741)"/>
<path d="M3314.27 703.229H3324.76V804.948H3314.27V703.229Z" fill="url(#paint45_linear_274_741)"/>
<path d="M3349.24 772.543C3349.24 789.647 3358.85 796.398 3369.34 796.398C3377.21 796.398 3381.58 794.598 3385.51 792.797L3387.26 801.799C3383.32 803.599 3376.77 806.3 3367.59 806.3C3349.24 806.3 3338.31 791.897 3338.31 771.193C3338.31 750.039 3348.8 733.836 3366.28 733.836C3385.51 733.836 3390.75 753.64 3390.75 766.242C3390.75 768.943 3390.75 770.743 3390.32 772.093H3349.24V772.543ZM3380.7 763.542C3380.7 755.44 3378.08 743.288 3365.84 743.288C3354.92 743.288 3350.11 754.99 3349.24 763.542H3380.7Z" fill="url(#paint46_linear_274_741)"/>
<path d="M3404.73 754.54C3404.73 747.339 3404.73 741.487 3404.3 735.636H3413.91L3414.35 746.889H3414.79C3417.84 740.587 3424.4 733.836 3434.45 733.836C3442.75 733.836 3455.43 739.687 3455.43 763.542V804.949H3444.94V764.892C3444.94 753.64 3441.44 744.188 3431.39 744.188C3424.4 744.188 3418.72 750.039 3416.97 757.24C3416.53 758.591 3416.1 760.841 3416.1 763.091V804.949H3405.61V754.54H3404.73Z" fill="url(#paint47_linear_274_741)"/>
<path d="M3484.71 715.836V735.64H3500V745.091H3484.71V782.448C3484.71 791 3486.89 795.951 3493.01 795.951C3495.63 795.951 3497.82 795.501 3499.13 795.051L3499.56 804.503C3497.38 805.403 3494.32 806.303 3489.95 806.303C3485.14 806.303 3480.77 804.503 3478.15 800.902C3475.09 797.301 3473.78 791 3473.78 782.899V745.091H3464.6V735.64H3473.78V718.987L3484.71 715.836Z" fill="url(#paint48_linear_274_741)"/>
<defs>
<linearGradient id="paint0_linear_274_741" x1="1621.03" y1="1007.09" x2="1652.05" y2="1007.09" gradientUnits="userSpaceOnUse">
<stop stop-color="#00FFFF"/>
<stop offset="1.06556e-08" stop-color="#CCCCFF"/>
<stop offset="1" stop-color="#808080"/>
</linearGradient>
<linearGradient id="paint1_linear_274_741" x1="147.317" y1="96.8314" x2="264.941" y2="96.8314" gradientUnits="userSpaceOnUse">
<stop stop-color="#00FFFF"/>
<stop offset="1.06556e-08" stop-color="#CCCCFF"/>
<stop offset="1" stop-color="#808080"/>
</linearGradient>
<linearGradient id="paint2_linear_274_741" x1="47.6998" y1="208.339" x2="184.221" y2="208.339" gradientUnits="userSpaceOnUse">
<stop stop-color="#00FFFF"/>
<stop offset="1.06556e-08" stop-color="#CCCCFF"/>
<stop offset="1" stop-color="#808080"/>
</linearGradient>
<linearGradient id="paint3_linear_274_741" x1="1.21553" y1="348.945" x2="138.77" y2="348.945" gradientUnits="userSpaceOnUse">
<stop stop-color="#00FFFF"/>
<stop offset="1.06556e-08" stop-color="#CCCCFF"/>
<stop offset="1" stop-color="#808080"/>
</linearGradient>
<linearGradient id="paint4_linear_274_741" x1="0.454324" y1="506.518" x2="138.762" y2="506.518" gradientUnits="userSpaceOnUse">
<stop stop-color="#00FFFF"/>
<stop offset="1.06556e-08" stop-color="#CCCCFF"/>
<stop offset="1" stop-color="#808080"/>
</linearGradient>
<linearGradient id="paint5_linear_274_741" x1="41.5033" y1="655.223" x2="182.348" y2="655.223" gradientUnits="userSpaceOnUse">
<stop stop-color="#00FFFF"/>
<stop offset="1.06556e-08" stop-color="#CCCCFF"/>
<stop offset="1" stop-color="#808080"/>
</linearGradient>
<linearGradient id="paint6_linear_274_741" x1="130.176" y1="782.536" x2="261.857" y2="782.536" gradientUnits="userSpaceOnUse">
<stop stop-color="#00FFFF"/>
<stop offset="1.06556e-08" stop-color="#CCCCFF"/>
<stop offset="1" stop-color="#808080"/>
</linearGradient>
<linearGradient id="paint7_linear_274_741" x1="256.807" y1="878.8" x2="393.818" y2="878.8" gradientUnits="userSpaceOnUse">
<stop stop-color="#00FFFF"/>
<stop offset="1.06556e-08" stop-color="#CCCCFF"/>
<stop offset="1" stop-color="#808080"/>
</linearGradient>
<linearGradient id="paint8_linear_274_741" x1="411.773" y1="923.759" x2="528.337" y2="923.759" gradientUnits="userSpaceOnUse">
<stop stop-color="#00FFFF"/>
<stop offset="1.06556e-08" stop-color="#CCCCFF"/>
<stop offset="1" stop-color="#808080"/>
</linearGradient>
<linearGradient id="paint9_linear_274_741" x1="0.133278" y1="471.815" x2="927.569" y2="471.815" gradientUnits="userSpaceOnUse">
<stop stop-color="#00FFFF"/>
<stop offset="1.06556e-08" stop-color="#00FFFF"/>
<stop offset="1" stop-color="#AEC6E4"/>
</linearGradient>
<linearGradient id="paint10_linear_274_741" x1="1250.09" y1="623.851" x2="1047.93" y2="298.785" gradientUnits="userSpaceOnUse">
<stop stop-color="#00FFFF"/>
<stop offset="1.06556e-08" stop-color="#00FFFF"/>
<stop offset="1" stop-color="#AEC6E4"/>
</linearGradient>
<linearGradient id="paint11_linear_274_741" x1="1531.77" y1="677.085" x2="1330.39" y2="353.272" gradientUnits="userSpaceOnUse">
<stop stop-color="#00FFFF"/>
<stop offset="1.06556e-08" stop-color="#00FFFF"/>
<stop offset="1" stop-color="#AEC6E4"/>
</linearGradient>
<linearGradient id="paint12_linear_274_741" x1="1810.75" y1="649.638" x2="1584.29" y2="285.492" gradientUnits="userSpaceOnUse">
<stop stop-color="#00FFFF"/>
<stop offset="1.06556e-08" stop-color="#00FFFF"/>
<stop offset="1" stop-color="#AEC6E4"/>
</linearGradient>
<linearGradient id="paint13_linear_274_741" x1="2130.79" y1="639.036" x2="1971.31" y2="382.593" gradientUnits="userSpaceOnUse">
<stop stop-color="#00FFFF"/>
<stop offset="1.06556e-08" stop-color="#00FFFF"/>
<stop offset="1" stop-color="#AEC6E4"/>
</linearGradient>
<linearGradient id="paint14_linear_274_741" x1="2387.71" y1="615.501" x2="2232.76" y2="366.349" gradientUnits="userSpaceOnUse">
<stop stop-color="#00FFFF"/>
<stop offset="1.06556e-08" stop-color="#00FFFF"/>
<stop offset="1" stop-color="#AEC6E4"/>
</linearGradient>
<linearGradient id="paint15_linear_274_741" x1="2645.12" y1="634.562" x2="2487.75" y2="381.514" gradientUnits="userSpaceOnUse">
<stop stop-color="#00FFFF"/>
<stop offset="1.06556e-08" stop-color="#00FFFF"/>
<stop offset="1" stop-color="#AEC6E4"/>
</linearGradient>
<linearGradient id="paint16_linear_274_741" x1="2899.36" y1="621.48" x2="2700.1" y2="301.062" gradientUnits="userSpaceOnUse">
<stop stop-color="#00FFFF"/>
<stop offset="1.06556e-08" stop-color="#00FFFF"/>
<stop offset="1" stop-color="#AEC6E4"/>
</linearGradient>
<linearGradient id="paint17_linear_274_741" x1="3055.92" y1="621.48" x2="2856.65" y2="301.062" gradientUnits="userSpaceOnUse">
<stop stop-color="#00FFFF"/>
<stop offset="1.06556e-08" stop-color="#00FFFF"/>
<stop offset="1" stop-color="#AEC6E4"/>
</linearGradient>
<linearGradient id="paint18_linear_274_741" x1="3215.08" y1="619.926" x2="3009.98" y2="290.127" gradientUnits="userSpaceOnUse">
<stop stop-color="#00FFFF"/>
<stop offset="1.06556e-08" stop-color="#00FFFF"/>
<stop offset="1" stop-color="#AEC6E4"/>
</linearGradient>
<linearGradient id="paint19_linear_274_741" x1="3430.08" y1="639.035" x2="3270.6" y2="382.593" gradientUnits="userSpaceOnUse">
<stop stop-color="#00FFFF"/>
<stop offset="1.06556e-08" stop-color="#00FFFF"/>
<stop offset="1" stop-color="#AEC6E4"/>
</linearGradient>
<linearGradient id="paint20_linear_274_741" x1="1979.46" y1="1069.53" x2="2122.35" y2="384.551" gradientUnits="userSpaceOnUse">
<stop stop-color="#20F5FB"/>
<stop offset="1" stop-color="#00FFFF"/>
</linearGradient>
<linearGradient id="paint21_linear_274_741" x1="2032.41" y1="993.206" x2="2156.33" y2="512.742" gradientUnits="userSpaceOnUse">
<stop stop-color="#20F5FB"/>
<stop offset="1" stop-color="#00FFFF"/>
</linearGradient>
<linearGradient id="paint22_linear_274_741" x1="2062.17" y1="1062.27" x2="2401.31" y2="629.014" gradientUnits="userSpaceOnUse">
<stop stop-color="#20F5FB"/>
<stop offset="1" stop-color="#00FFFF"/>
</linearGradient>
<linearGradient id="paint23_linear_274_741" x1="2112.4" y1="1081.55" x2="2257.99" y2="363.647" gradientUnits="userSpaceOnUse">
<stop stop-color="#20F5FB"/>
<stop offset="1" stop-color="#00FFFF"/>
</linearGradient>
<linearGradient id="paint24_linear_274_741" x1="2181.38" y1="1101.04" x2="2320.54" y2="404.258" gradientUnits="userSpaceOnUse">
<stop stop-color="#20F5FB"/>
<stop offset="1" stop-color="#00FFFF"/>
</linearGradient>
<linearGradient id="paint25_linear_274_741" x1="2227.36" y1="1062.27" x2="2566.51" y2="629.021" gradientUnits="userSpaceOnUse">
<stop stop-color="#20F5FB"/>
<stop offset="1" stop-color="#00FFFF"/>
</linearGradient>
<linearGradient id="paint26_linear_274_741" x1="2278.75" y1="994.858" x2="2355.88" y2="490.977" gradientUnits="userSpaceOnUse">
<stop stop-color="#20F5FB"/>
<stop offset="1" stop-color="#00FFFF"/>
</linearGradient>
<linearGradient id="paint27_linear_274_741" x1="2345.7" y1="1101.04" x2="2484.86" y2="404.257" gradientUnits="userSpaceOnUse">
<stop stop-color="#20F5FB"/>
<stop offset="1" stop-color="#00FFFF"/>
</linearGradient>
<linearGradient id="paint28_linear_274_741" x1="2433.57" y1="1062.16" x2="2551.06" y2="384.058" gradientUnits="userSpaceOnUse">
<stop stop-color="#20F5FB"/>
<stop offset="1" stop-color="#00FFFF"/>
</linearGradient>
<linearGradient id="paint29_linear_274_741" x1="2479.04" y1="993.206" x2="2602.96" y2="512.742" gradientUnits="userSpaceOnUse">
<stop stop-color="#20F5FB"/>
<stop offset="1" stop-color="#00FFFF"/>
</linearGradient>
<linearGradient id="paint30_linear_274_741" x1="2530.66" y1="995.458" x2="2607.47" y2="494.817" gradientUnits="userSpaceOnUse">
<stop stop-color="#20F5FB"/>
<stop offset="1" stop-color="#00FFFF"/>
</linearGradient>
<linearGradient id="paint31_linear_274_741" x1="2588.09" y1="996.961" x2="2689.05" y2="498.453" gradientUnits="userSpaceOnUse">
<stop stop-color="#20F5FB"/>
<stop offset="1" stop-color="#00FFFF"/>
</linearGradient>
<linearGradient id="paint32_linear_274_741" x1="2631.09" y1="1047.9" x2="2802.09" y2="439.961" gradientUnits="userSpaceOnUse">
<stop stop-color="#20F5FB"/>
<stop offset="1" stop-color="#00FFFF"/>
</linearGradient>
<linearGradient id="paint33_linear_274_741" x1="2661.97" y1="917.899" x2="2712.36" y2="670.312" gradientUnits="userSpaceOnUse">
<stop stop-color="#20F5FB"/>
<stop offset="1" stop-color="#00FFFF"/>
</linearGradient>
<linearGradient id="paint34_linear_274_741" x1="2736.6" y1="1063.82" x2="2889.83" y2="397.319" gradientUnits="userSpaceOnUse">
<stop stop-color="#20F5FB"/>
<stop offset="1" stop-color="#00FFFF"/>
</linearGradient>
<linearGradient id="paint35_linear_274_741" x1="2775.36" y1="1076.59" x2="3143.39" y2="731.792" gradientUnits="userSpaceOnUse">
<stop stop-color="#20F5FB"/>
<stop offset="1" stop-color="#00FFFF"/>
</linearGradient>
<linearGradient id="paint36_linear_274_741" x1="2823.59" y1="999.815" x2="2901.7" y2="486.213" gradientUnits="userSpaceOnUse">
<stop stop-color="#20F5FB"/>
<stop offset="1" stop-color="#00FFFF"/>
</linearGradient>
<linearGradient id="paint37_linear_274_741" x1="2884.61" y1="990.044" x2="2951.9" y2="496.59" gradientUnits="userSpaceOnUse">
<stop stop-color="#20F5FB"/>
<stop offset="1" stop-color="#00FFFF"/>
</linearGradient>
<linearGradient id="paint38_linear_274_741" x1="2940.5" y1="1000.27" x2="3027.59" y2="489.64" gradientUnits="userSpaceOnUse">
<stop stop-color="#20F5FB"/>
<stop offset="1" stop-color="#00FFFF"/>
</linearGradient>
<linearGradient id="paint39_linear_274_741" x1="2989.45" y1="1047.9" x2="3160.45" y2="439.961" gradientUnits="userSpaceOnUse">
<stop stop-color="#20F5FB"/>
<stop offset="1" stop-color="#00FFFF"/>
</linearGradient>
<linearGradient id="paint40_linear_274_741" x1="3023.17" y1="1062.27" x2="3362.32" y2="629.008" gradientUnits="userSpaceOnUse">
<stop stop-color="#20F5FB"/>
<stop offset="1" stop-color="#00FFFF"/>
</linearGradient>
<linearGradient id="paint41_linear_274_741" x1="3074.56" y1="994.858" x2="3151.69" y2="490.977" gradientUnits="userSpaceOnUse">
<stop stop-color="#20F5FB"/>
<stop offset="1" stop-color="#00FFFF"/>
</linearGradient>
<linearGradient id="paint42_linear_274_741" x1="3141.07" y1="1101.04" x2="3280.23" y2="404.257" gradientUnits="userSpaceOnUse">
<stop stop-color="#20F5FB"/>
<stop offset="1" stop-color="#00FFFF"/>
</linearGradient>
<linearGradient id="paint43_linear_274_741" x1="3228.94" y1="1062.16" x2="3346.43" y2="384.058" gradientUnits="userSpaceOnUse">
<stop stop-color="#20F5FB"/>
<stop offset="1" stop-color="#00FFFF"/>
</linearGradient>
<linearGradient id="paint44_linear_274_741" x1="3277.88" y1="1000.27" x2="3364.97" y2="489.64" gradientUnits="userSpaceOnUse">
<stop stop-color="#20F5FB"/>
<stop offset="1" stop-color="#00FFFF"/>
</linearGradient>
<linearGradient id="paint45_linear_274_741" x1="3320.32" y1="1076.59" x2="3688.35" y2="731.792" gradientUnits="userSpaceOnUse">
<stop stop-color="#20F5FB"/>
<stop offset="1" stop-color="#00FFFF"/>
</linearGradient>
<linearGradient id="paint46_linear_274_741" x1="3368.56" y1="999.815" x2="3446.67" y2="486.213" gradientUnits="userSpaceOnUse">
<stop stop-color="#20F5FB"/>
<stop offset="1" stop-color="#00FFFF"/>
</linearGradient>
<linearGradient id="paint47_linear_274_741" x1="3433.79" y1="994.858" x2="3510.92" y2="490.977" gradientUnits="userSpaceOnUse">
<stop stop-color="#20F5FB"/>
<stop offset="1" stop-color="#00FFFF"/>
</linearGradient>
<linearGradient id="paint48_linear_274_741" x1="3485.02" y1="1047.9" x2="3656.02" y2="439.961" gradientUnits="userSpaceOnUse">
<stop stop-color="#20F5FB"/>
<stop offset="1" stop-color="#00FFFF"/>
</linearGradient>
</defs>
</svg>
