<svg xmlns="http://www.w3.org/2000/svg" xmlns:xlink="http://www.w3.org/1999/xlink" width="2900" height="900" viewBox="0 0 2900 900">
  <defs>
    <clipPath id="clip-path">
      <path id="Path_880" data-name="Path 880" d="M157.155,18.229c-4.54,1.823-9.081,3.127-12.36,5.211l12.628-5.306-.268.1m2.523-1.043-2.255.948c6.713-2.38,13.216-5.08,19.573-7.458a166.832,166.832,0,0,0-17.318,6.51M177,10.676c2.612-.889,5.826-1.983,9.923-3.394-3.275.979-6.579,2.142-9.923,3.394" transform="translate(-144.795 -7.282)" fill="none"/>
    </clipPath>
    <linearGradient id="linear-gradient" x1="-5.116" y1="43.148" x2="-5.081" y2="43.148" gradientUnits="objectBoundingBox">
      <stop offset="0" stop-color="aqua"/>
      <stop offset="0" stop-color="#ccf"/>
      <stop offset="1" stop-color="gray"/>
    </linearGradient>
    <clipPath id="clip-path-2">
      <path id="Path_881" data-name="Path 881" d="M71.583,85.73l2.437-2.163q-1.3,1.085-2.437,2.163m81.726-55.515c-14.378,4.952-25.224,9.9-33.044,15.9-10.341,8.081-24.72,18.505-34.3,26.846L74.02,83.567c9.5-7.95,25.377-16.191,45.489-23.118,15.639-6.254,38.34-26.845,36.322-30.755-.756,0-2.017,0-2.521.521" transform="translate(-71.583 -29.694)" fill="#ff6558"/>
    </clipPath>
    <clipPath id="clip-path-3">
      <path id="Path_882" data-name="Path 882" d="M23.626,163.221l1.491-2.931a31.976,31.976,0,0,0-1.491,2.931m90.806-87.572C83.911,86.074,63.228,98.324,54.147,111.1a351.765,351.765,0,0,0-20.178,31.8l-8.852,17.4c8.515-14.851,31.344-29.131,66.614-41.114,20.683-9.122,35.564-39.879,27.241-43.527a3.853,3.853,0,0,0-1.457-.232c-1.066,0-2.242.232-3.082.232" transform="translate(-23.626 -75.417)" fill="#ff6558"/>
    </clipPath>
    <clipPath id="clip-path-4">
      <path id="Path_883" data-name="Path 883" d="M.749,250.237l.439-3.118a27.519,27.519,0,0,0-.439,3.118M87.517,138.162c-44.14,14.6-70.122,33.1-75.166,52.127-2.523,9.9-5.8,22.676-7.82,33.1L1.188,247.118c4.032-20.228,30.963-39.385,77.753-55.006,21.945-10.946,26.485-49.519,14.377-53.95a8.532,8.532,0,0,0-2.119-.232c-1.439,0-2.84.232-3.681.232" transform="translate(-0.749 -137.93)" fill="#ff6558"/>
    </clipPath>
    <clipPath id="clip-path-5">
      <path id="Path_884" data-name="Path 884" d="M10.949,337.314l-.11-.429c.036.143.071.286.11.429m67.6-123.8C27.866,231.388.016,252.423,0,274.744v.076q0,1.141.1,2.288c2.018,15.377,5.3,34.926,8.325,50.3l2.413,9.475c-5.87-23.833,21.372-47.381,75.528-66.294,21.441-10.946,14.378-52.127-.756-57.079a15.34,15.34,0,0,0-3.626-.39,13.039,13.039,0,0,0-3.437.39" transform="translate(0 -213.122)" fill="#ff6558"/>
    </clipPath>
    <clipPath id="clip-path-6">
      <path id="Path_885" data-name="Path 885" d="M53.359,409.669l-1.84-2.883q.824,1.442,1.84,2.883M92.2,290.038c-55.745,19.025-80.968,43.524-69.366,67.5,6.559,12.25,14.883,28.149,22.7,39.878l5.979,9.367c-13.19-23.048,9.843-46.336,62.629-64.1,18.16-9.9.756-47.695-14.881-52.647a15.338,15.338,0,0,0-3.627-.391,13.04,13.04,0,0,0-3.437.391" transform="translate(-20.071 -289.647)" fill="#ff6558"/>
    </clipPath>
    <clipPath id="clip-path-7">
      <path id="Path_886" data-name="Path 886" d="M120.8,464.5l-1.112-.808q.545.4,1.112.808m.5-105.3c-52.465,17.724-71.887,42.223-49.186,64.9,9.837,8.6,21.945,20.33,32.538,28.67l15.031,10.92c-28.525-21.147-13.4-43.971,35.417-60.441,12.36-8.081-12.866-40.4-27.242-44.048a13.98,13.98,0,0,0-6.558,0" transform="translate(-62.752 -358.816)" fill="#ff6558"/>
    </clipPath>
    <clipPath id="clip-path-8">
      <path id="Path_887" data-name="Path 887" d="M223.62,496.711c-2.422-.835-5.777-1.563-8.868-2.32q4.273,1.206,8.868,2.32m-87.673-32.592-3.132-1.551c1.3.671,2.317,1.171,3.132,1.551m27.894-48.466c-40.105,13.552-51.962,33.1-24.721,49.521l.759.521c-.936-.387-1.594-.487-3.932-1.576,21.729,10.757,23.593,11.517,39.749,17.995,20.683,7.3,21.439,7.3,34.3,10.947,1.36.469,3.016.9,4.753,1.329a144.8,144.8,0,0,1-23.67-8.625c-22.7-13.295-14.883-28.15,14.881-37.794l.758-.521c-.738-6.613-29.1-31.843-41.957-31.845a8.82,8.82,0,0,0-.923.048" transform="translate(-124.389 -415.606)" fill="#ff6558"/>
    </clipPath>
    <clipPath id="clip-path-9">
      <path id="Path_888" data-name="Path 888" d="M214.6,482.667c-3.693-.725-7.589-1.335-10.827-1.654a95.5,95.5,0,0,0,10.827,1.654m-6.79-7.128a109,109,0,0,0,20.683,6.777h.756c-2.018.521-5.3,1.3-12.36.521h-.756c-.554-.063-1.06-.119-1.533-.17,2.349.46,4.616.967,6.577,1.474,12.36,1.825,12.36,1.825,18.162,1.825h2.018c5.3,0,9.835-.521,14.881-.521,9.081.521,18.162.521,27.242.521,1.261,0,2.017,0,2.017-.521a42.2,42.2,0,0,0-5.044-3.91c-1.261-.521-1.261-.521-5.3-4.953-5.3,0-10.341-.521-12.861-1.823-2.02-1.3-1.262-2.346,1.259-3.65-47.419-16.419-47.419-16.419-47.924-16.419-16.9,5.473-20.683,13.552-7.819,20.85" transform="translate(-200.137 -454.689)" fill="#ff6558"/>
    </clipPath>
    <clipPath id="clip-path-10">
      <path id="Path_889" data-name="Path 889" d="M327.463,649.513l-.252-.027a1.455,1.455,0,0,0,.252.027M32.516,459.073l-.416-.735c.134.245.273.491.416.735M.233,350.8c-.056-.447-.111-.891-.164-1.329.042.443.1.887.164,1.329M12.476,237.446c.1-.388.208-.772.309-1.15-.113.384-.215.767-.309,1.15m50.211-100.8q.483-.672.957-1.319-.5.658-.957,1.319m87.07-80.371c.313-.212.622-.419.929-.624-.315.208-.623.415-.929.624M307.169.616c-15.649,5.263-19.56,12.441-7.579,18.662,3.668,1.914,8.068,3.59,13.2,5.743-2.446,2.153-4.89,4.546-14.426,11.245l-.733.48c-15.159,10.048-18.827,11.244-25.184,11.722A98.412,98.412,0,0,1,248.488,40.1C226.482,28.85,233.328,15.929,260.469,6.359a78.681,78.681,0,0,0-10.025,2.869c-8.8,2.633-8.8,2.633-27.14,10.05l-14.425,5.743c-26.407,11.245-33.253,25.363-15.649,40.437-3.669,5.023-5.624,7.178-16.872,16.27-.488,0-.488.478-1.222.478-17.6,12.442-22.005,13.4-27.629,12.921-17.791-12.94-15.722-26.574,2.249-38.855-9.9,6.688-22.606,16.367-32.323,24.021L103.5,92.017C86.626,107.33,91.027,124.8,121.1,139.87c14.914,7.417,34.475,14.118,60.882,20.816,4.4,5.026,7.579,8.853,1.223,24.646,0,.719,0,.719-.734,1.2-8.068,13.877-16.871,20.817-27.629,19.62-26.406-6.221-49.144-13.4-66.016-22.491C59.349,168.3,52.059,152.048,62.686,136.643c-5.934,8.256-13.064,19.248-19.094,27.872L33.568,183.177c-6.846,13.4-1.222,27.038,18.827,40.437,3.178,4.546,7.091,10.05.733,30.389-.733.717-.733.717-.733,1.2-7.091,18.663-12.714,19.14-18.338,18.663C16.521,262.035,9.55,249.533,12.476,237.446c-2.4,8.953-5.4,20.523-7.27,29.238L1.536,291.328c-1.955,13.877,10.025,28.712,36.432,42.111,21.273,11.245,50.857,20.817,84.109,28.235,12.471,4.545,18.828,13.877,20.05,30.865v1.2c-1.222,16.27-7.579,23.208-20.05,22.013-34.719-7.9-64.3-17.467-85.575-28.713C14.07,375.713,2.128,363.275.233,350.8c1.746,13.943,4.825,31.866,7.905,44.849l2.446,9.092c2.444,9.092,10.757,17.467,26.406,28.234,6.357,7.417,11.248,15.313,16.381,28.234.734.717.734.717.734,1.2,3.178,9.572,3.178,10.05,2.446,15.793a9.7,9.7,0,0,1-3.668.478c-9.659-6.684-16.594-13.149-20.368-19.6,6.322,11.14,14.918,25.338,22.813,35.872l7.579,11.247c4.89,6.7,13.2,13.4,25.673,19.619,19.561,10.768,46.455,19.143,79.219,25.841,11.247,3.35,20.049,10.05,27.628,20.817l.734.478A26.489,26.489,0,0,1,198.609,583c-1.713,1.675-5.623,2.153-8.068,2.153-28.853-5.5-52.813-13.4-70.418-22.491a102.641,102.641,0,0,1-18.338-12.442c9.537,8.375,22.005,18.423,31.541,26.319L148.974,587.3a12.481,12.481,0,0,0,3.178,2.155c19.56,11.722,19.56,11.722,27.629,16.27.489,0,.489.478,1.222.478,2.446,1.2,6.358,3.349,8.8,4.546,15.892,7.9,18.338,8.851,41.565,17.945,12.47,4.307,14.426,5.024,33.254,10.05,3.668,1.2,9.535,2.153,13.2,3.349,1.222,0,3.177.719,6.355,1.2,2.446.478,6.358,1.2,8.8,1.675a130.4,130.4,0,0,0,16.871,2.871c5.581.475,6.347.478,17.352,1.648a15.5,15.5,0,0,0-2.192-.452h3.666a515.79,515.79,0,0,0,60.883,0c11.736-1.674,12.469-2.153,16.869-6.7a14.625,14.625,0,0,0-8.067-2.153c-57.215,2.869-116.875-.958-161.619-11.725A157.251,157.251,0,0,1,212.3,617.212l-.733-.478c-2.935-2.153-6.846-5.5-8.07-8.375h3.668c66.507,15.793,164.552,20.337,253.8,9.57,10.515-2.871,23.718-9.092,25.673-20.339-2.444-3.348-3.178-4.305-11.248-3.827a1051.5,1051.5,0,0,1-188.025,3.349c-11.979-1.674-20.782-7.178-25.182-16.27v-.478c-.734-6.221-1.958-14.6,15.649-14.6a1018.3,1018.3,0,0,0,111.984,2.871c5.623-.717,10.512-1.2,16.869-5.743,11.981-9.091,13.2-29.908-14.425-31.581-94.869,2.391-189.737-5.983-258.932-22.97-11.248-4.307-20.049-12.921-25.182-26.319-.736-.719-.736-.719-.736-1.2-2.689-12.2,1.713-19.14,12.472-17.946,101.714,24.167,256.241,32.062,390.231,16.271,5.868-1.2,11.492-2.392,18.338-9.092,13.2-12.442,14.425-39.957-14.426-39.479-85.331,10.05-178.977,10.528-262.6,3.829-15.647-2.872-24.45-11.963-25.672-28.234v-1.2c1.711-15.791,10.025-23.688,25.672-24.166,84.845,7.178,180.2,6.22,267-4.546,46.7-5.5,86.065-13.4,117.606-22.97,12.715-5.982,13.937-20.576,13.937-26.319,0-7.9-2.446-25.841-20.538-27.755-30.808,9.092-69.2,16.749-114.429,22.492-137.657,16.749-296.585,8.853-399.766-16.988-11.247-4.546-15.159-14.6-11.981-30.389.734-.716.734-.716.734-1.2,5.623-14.6,13.934-21.533,25.182-20.337,97.313,24.644,247.44,32.062,377.029,16.27,4.4-.478,9.534-1.2,13.936-1.674,3.179-1.2,7.58-2.393,11.247-6.223,11.982-13.4,1.956-44.263-24.45-43.785-4.4.478-8.8,1.2-13.2,1.675-75.308,9.57-158.929,10.048-232.526,3.348-12.47-2.632-17.6-11.244-14.425-26.318.734-.719.734-.719.734-1.2,5.623-13.878,13.691-20.817,25.673-21.3a1180.69,1180.69,0,0,0,133.989,2.871c2.444-.478,5.623-.958,7.577-2.155,11.248-6.7,13.939-36.366-14.425-42.109-74.085,3.349-150.127-3.591-201.717-16.99a7.271,7.271,0,0,0-3.18-2.871c0-6.7,0-9.092,9.537-19.142a1.648,1.648,0,0,1,.733-1.2c13.694-12.921,21.273-14.118,27.629-14.6C282.474,90.342,359.738,94.888,428.2,88.19c1.223-.481,3.18-.481,4.4-1.677,5.623-6.22-6.357-28.232-23.962-31.583a502.141,502.141,0,0,1-92.913,0,9.1,9.1,0,0,1-3.178-2.872c1.223-5.024,1.223-5.5,6.357-11.724l.736-.478c8.8-8.375,12.469-10.05,16.871-11.725a160.452,160.452,0,0,0,37.165,0c0-5.5-.734-8.375-10.759-19.619-3.669.478-8.07,0-10.025-1.2-1.711-1.2-1.224-1.675.733-3.35C338.343.782,327.322,0,319.513,0c-5.685,0-9.665.414-12.345.616" transform="translate(-0.069)" fill="#fff"/>
    </clipPath>
  </defs>
  <g id="Group_678" data-name="Group 678" transform="translate(-1052 -1984)">
    <rect id="download" width="2900" height="900" transform="translate(1052 1984)" opacity="0"/>
    <g id="Group_677" data-name="Group 677" transform="translate(-11 -50)">
      <g id="Group_675" data-name="Group 675" transform="translate(7.759 29.02)">
        <g id="Group_656" data-name="Group 656" transform="translate(1396.709 2140.819)">
          <g id="Group_655" data-name="Group 655" clip-path="url(#clip-path)">
            <rect id="Rectangle_1" data-name="Rectangle 1" width="42.124" height="16.158" transform="translate(0 0)" fill="url(#linear-gradient)"/>
          </g>
        </g>
        <g id="Group_658" data-name="Group 658" transform="translate(1291.051 2174.177)">
          <g id="Group_657" data-name="Group 657" clip-path="url(#clip-path-2)">
            <rect id="Rectangle_2" data-name="Rectangle 2" width="86.265" height="56.036" fill="#ff6558"/>
          </g>
        </g>
        <g id="Group_660" data-name="Group 660" transform="translate(1223.406 2231.727)">
          <g id="Group_659" data-name="Group 659" clip-path="url(#clip-path-3)">
            <rect id="Rectangle_3" data-name="Rectangle 3" width="103.669" height="87.804" transform="translate(0 0)" fill="#ff6558"/>
          </g>
        </g>
        <g id="Group_662" data-name="Group 662" transform="translate(1189.356 2315.275)">
          <g id="Group_661" data-name="Group 661" clip-path="url(#clip-path-4)">
            <rect id="Rectangle_4" data-name="Rectangle 4" width="104.677" height="112.307" transform="translate(0 0)" fill="#ff6558"/>
          </g>
        </g>
        <g id="Group_664" data-name="Group 664" transform="translate(1188.241 2415.659)">
          <g id="Group_663" data-name="Group 663" clip-path="url(#clip-path-5)">
            <rect id="Rectangle_5" data-name="Rectangle 5" width="107.807" height="124.191" transform="translate(0 0)" fill="#ff6558"/>
          </g>
        </g>
        <g id="Group_666" data-name="Group 666" transform="translate(1218.115 2518.541)">
          <g id="Group_665" data-name="Group 665" clip-path="url(#clip-path-6)">
            <rect id="Rectangle_6" data-name="Rectangle 6" width="121.073" height="120.022" transform="translate(-8.835 0)" fill="#ff6558"/>
          </g>
        </g>
        <g id="Group_668" data-name="Group 668" transform="translate(1281.643 2606.006)">
          <g id="Group_667" data-name="Group 667" clip-path="url(#clip-path-7)">
            <rect id="Rectangle_7" data-name="Rectangle 7" width="118.047" height="105.688" transform="translate(-13.34)" fill="#ff6558"/>
          </g>
        </g>
        <g id="Group_670" data-name="Group 670" transform="translate(1366.725 2690.532)">
          <g id="Group_669" data-name="Group 669" clip-path="url(#clip-path-8)">
            <rect id="Rectangle_8" data-name="Rectangle 8" width="111.741" height="81.105" transform="translate(-12.51)" fill="#ff6558"/>
          </g>
        </g>
        <g id="Group_672" data-name="Group 672" transform="translate(1475.667 2748.704)">
          <g id="Group_671" data-name="Group 671" clip-path="url(#clip-path-9)">
            <rect id="Rectangle_9" data-name="Rectangle 9" width="90.552" height="31.276" transform="translate(-5.191)" fill="#ff6558"/>
          </g>
        </g>
        <g id="Group_674" data-name="Group 674" transform="translate(1188.344 2129.98)">
          <g id="Group_673" data-name="Group 673" clip-path="url(#clip-path-10)">
            <path id="Path_890" data-name="Path 890" d="M0,0,919.915,25.153l25.233,917.08L25.233,917.08Z" transform="matrix(0.746, -0.666, 0.666, 0.746, -341.566, 288.23)" fill="#fff"/>
          </g>
        </g>
      </g>
      <g id="Group_676" data-name="Group 676" transform="translate(80 -32)">
        <text id="Cyberollie" transform="translate(1846 2624)" fill="#ff6558" font-size="400" font-family="FranklinGothic-Heavy, Franklin Gothic" font-weight="800"><tspan x="0" y="0">Cyberollie</tspan></text>
        <text id="Bridging_Trust_Elevating_Talent" data-name="Bridging Trust, Elevating Talent" transform="matrix(1, 0.001, -0.001, 1, 3742.935, 2752.998)" fill="#fff" font-size="92" font-family="Roboto-Medium, Roboto" font-weight="500" letter-spacing="0.054em"><tspan x="-1425.791" y="0">Bridging Trust, Elevating Talent</tspan></text>
      </g>
    </g>
  </g>
</svg>
