<svg width="2638" height="650" viewBox="0 0 2638 650" fill="none" xmlns="http://www.w3.org/2000/svg">
<mask id="mask0_301_222" style="mask-type:luminance" maskUnits="userSpaceOnUse" x="208" y="10" width="43" height="17">
<path d="M220.828 21.7868C216.288 23.6098 211.747 24.9138 208.468 26.9978L221.096 21.6918L220.828 21.7918M223.351 20.7488L221.096 21.6968C227.809 19.3168 234.312 16.6168 240.669 14.2388C234.78 16.0868 228.999 18.2602 223.351 20.7488ZM240.673 14.2338C243.285 13.3448 246.499 12.2508 250.596 10.8398C247.321 11.8188 244.017 12.9818 240.673 14.2338Z" fill="white"/>
</mask>
<g mask="url(#mask0_301_222)">
<path d="M250.592 10.8398H208.468V26.9978H250.592V10.8398Z" fill="url(#paint0_linear_301_222)"/>
</g>
<mask id="mask1_301_222" style="mask-type:luminance" maskUnits="userSpaceOnUse" x="102" y="44" width="86" height="57">
<path d="M102.81 100.233L105.247 98.0703C104.38 98.7936 103.568 99.5146 102.81 100.233ZM184.536 44.7183C170.158 49.6703 159.312 54.6183 151.492 60.6183C141.151 68.6993 126.772 79.1233 117.192 87.4643L105.247 98.0703C114.747 90.1203 130.624 81.8793 150.736 74.9523C166.375 68.6983 189.076 48.1073 187.058 44.1973C186.302 44.1973 185.04 44.1973 184.536 44.7183Z" fill="white"/>
</mask>
<g mask="url(#mask1_301_222)">
<path d="M189.075 44.1973H102.81V100.233H189.075V44.1973Z" fill="#FF6558"/>
</g>
<mask id="mask2_301_222" style="mask-type:luminance" maskUnits="userSpaceOnUse" x="35" y="101" width="98" height="89">
<path d="M35.165 189.55L36.656 186.619C36.1091 187.57 35.6114 188.548 35.165 189.55ZM125.971 101.978C95.45 112.403 74.767 124.653 65.686 137.429C58.397 147.661 51.6614 158.277 45.508 169.229L36.656 186.629C45.171 171.778 68 157.498 103.27 145.515C123.953 136.393 138.834 105.636 130.511 101.988C130.045 101.818 129.55 101.739 129.054 101.756C127.988 101.756 126.812 101.988 125.972 101.988" fill="white"/>
</mask>
<g mask="url(#mask2_301_222)">
<path d="M138.834 101.746H35.165V189.55H138.834V101.746Z" fill="#FF6558"/>
</g>
<mask id="mask3_301_222" style="mask-type:luminance" maskUnits="userSpaceOnUse" x="1" y="185" width="100" height="113">
<path d="M1.11499 297.601L1.55399 294.483C1.34827 295.513 1.20169 296.554 1.11499 297.601ZM87.883 185.526C43.743 200.126 17.761 218.626 12.717 237.653C10.194 247.553 6.91699 260.329 4.89699 270.753L1.55399 294.482C5.58599 274.254 32.517 255.097 79.307 239.476C101.252 228.53 105.792 189.957 93.684 185.526C92.9901 185.36 92.2782 185.283 91.565 185.294C90.126 185.294 88.724 185.526 87.883 185.526Z" fill="white"/>
</mask>
<g mask="url(#mask3_301_222)">
<path d="M105.792 185.295H1.11499V297.602H105.792V185.295Z" fill="#FF6558"/>
</g>
<mask id="mask4_301_222" style="mask-type:luminance" maskUnits="userSpaceOnUse" x="0" y="285" width="100" height="125">
<path d="M10.949 409.87L10.839 409.441C10.875 409.584 10.91 409.727 10.949 409.87ZM78.549 286.07C27.866 303.944 0.016 324.979 0 347.3V347.376C0 348.137 0.0333333 348.9 0.1 349.664C2.118 365.041 5.4 384.59 8.425 399.964L10.838 409.439C4.968 385.606 32.21 362.058 86.366 343.145C107.807 332.199 100.744 291.018 85.61 286.066C84.4211 285.793 83.2039 285.662 81.984 285.676C80.8261 285.653 79.6703 285.784 78.547 286.066" fill="white"/>
</mask>
<g mask="url(#mask4_301_222)">
<path d="M107.807 285.678H0V409.869H107.807V285.678Z" fill="#FF6558"/>
</g>
<mask id="mask5_301_222" style="mask-type:luminance" maskUnits="userSpaceOnUse" x="29" y="388" width="103" height="121">
<path d="M63.162 508.583L61.322 505.7C61.8713 506.662 62.4847 507.623 63.162 508.583ZM102.003 388.952C46.258 407.977 21.035 432.476 32.637 456.452C39.196 468.702 47.52 484.601 55.337 496.33L61.316 505.697C48.126 482.649 71.159 459.361 123.945 441.597C142.105 431.697 124.701 393.902 109.064 388.95C107.875 388.676 106.657 388.545 105.437 388.559C104.279 388.536 103.123 388.668 102 388.95" fill="white"/>
</mask>
<g mask="url(#mask5_301_222)">
<path d="M142.112 388.561H21.039V508.583H142.112V388.561Z" fill="#FF6558"/>
</g>
<mask id="mask6_301_222" style="mask-type:luminance" maskUnits="userSpaceOnUse" x="93" y="476" width="97" height="106">
<path d="M151.45 581.71L150.338 580.902C150.701 581.169 151.072 581.438 151.45 581.71ZM151.95 476.41C99.485 494.134 80.063 518.633 102.764 541.31C112.601 549.91 124.709 561.64 135.302 569.98L150.333 580.9C121.808 559.753 136.933 536.929 185.75 520.459C198.11 512.378 172.884 480.059 158.508 476.411C156.353 475.891 154.105 475.891 151.95 476.41Z" fill="white"/>
</mask>
<g mask="url(#mask6_301_222)">
<path d="M198.109 476.027H80.062V581.715H198.109V476.027Z" fill="#FF6558"/>
</g>
<mask id="mask7_301_222" style="mask-type:luminance" maskUnits="userSpaceOnUse" x="178" y="560" width="100" height="82">
<path d="M277.715 641.657C275.293 640.822 271.938 640.094 268.847 639.337C271.696 640.141 274.652 640.914 277.715 641.657ZM190.042 609.065L186.91 607.514C188.21 608.185 189.227 608.685 190.042 609.065ZM217.936 560.599C177.831 574.151 165.974 593.699 193.215 610.12L193.974 610.641C193.038 610.254 192.38 610.154 190.042 609.065C211.771 619.822 213.635 620.582 229.791 627.06C250.474 634.36 251.23 634.36 264.091 638.007C265.451 638.476 267.107 638.907 268.844 639.336C260.718 637.154 252.798 634.268 245.174 630.711C222.474 617.416 230.291 602.561 260.055 592.917L260.813 592.396C260.075 585.783 231.713 560.553 218.856 560.551C218.548 560.551 218.24 560.567 217.933 560.599" fill="white"/>
</mask>
<g mask="url(#mask7_301_222)">
<path d="M277.715 560.553H165.974V641.658H277.715V560.553Z" fill="#FF6558"/>
</g>
<mask id="mask8_301_222" style="mask-type:luminance" maskUnits="userSpaceOnUse" x="287" y="618" width="86" height="32">
<path d="M301.889 646.702C298.196 645.977 294.3 645.367 291.062 645.048C294.636 645.806 298.251 646.358 301.889 646.702ZM295.099 639.574C301.75 642.517 308.679 644.787 315.782 646.351H316.538C314.52 646.872 311.238 647.651 304.178 646.872H303.422C302.868 646.809 302.362 646.753 301.889 646.702C304.238 647.162 306.505 647.669 308.466 648.176C320.826 650.001 320.826 650.001 326.628 650.001H328.646C333.946 650.001 338.481 649.48 343.527 649.48C352.608 650.001 361.689 650.001 370.769 650.001C372.03 650.001 372.786 650.001 372.786 649.48C371.206 648.051 369.52 646.744 367.742 645.57C366.481 645.049 366.481 645.049 362.442 640.617C357.142 640.617 352.101 640.096 349.581 638.794C347.561 637.494 348.319 636.448 350.84 635.144C303.421 618.725 303.421 618.725 302.916 618.725C286.016 624.198 282.233 632.277 295.097 639.575" fill="white"/>
</mask>
<g mask="url(#mask8_301_222)">
<path d="M372.787 618.723H282.235V649.999H372.787V618.723Z" fill="#FF6558"/>
</g>
<mask id="mask9_301_222" style="mask-type:luminance" maskUnits="userSpaceOnUse" x="0" y="0" width="651" height="650">
<path d="M327.497 649.513L327.245 649.486C327.328 649.502 327.412 649.511 327.497 649.513ZM32.55 459.073L32.134 458.338C32.268 458.583 32.407 458.829 32.55 459.073ZM0.267027 350.8C0.211027 350.353 0.156027 349.909 0.103027 349.471C0.145027 349.914 0.203027 350.358 0.267027 350.8ZM12.51 237.446C12.61 237.058 12.718 236.674 12.819 236.296C12.706 236.68 12.604 237.063 12.51 237.446ZM62.721 136.646C63.043 136.198 63.362 135.758 63.678 135.327C63.3447 135.766 63.0257 136.205 62.721 136.646ZM149.791 56.275C150.104 56.063 150.413 55.856 150.72 55.651C150.405 55.859 150.097 56.066 149.791 56.275ZM307.203 0.616C291.554 5.879 287.643 13.057 299.624 19.278C303.292 21.192 307.692 22.868 312.824 25.021C310.378 27.174 307.934 29.567 298.398 36.266L297.665 36.746C282.506 46.794 278.838 47.99 272.481 48.468C264.167 46.7244 256.114 43.9117 248.522 40.1C226.516 28.85 233.362 15.929 260.503 6.359C257.102 7.09261 253.753 8.05104 250.478 9.228C241.678 11.861 241.678 11.861 223.338 19.278L208.913 25.021C182.506 36.266 175.66 50.384 193.264 65.458C189.595 70.481 187.64 72.636 176.392 81.728C175.904 81.728 175.904 82.206 175.17 82.206C157.57 94.648 153.165 95.606 147.541 95.127C129.75 82.187 131.819 68.553 149.79 56.272C139.89 62.96 127.184 72.639 117.467 80.293L103.534 92.017C86.66 107.33 91.061 124.8 121.134 139.87C136.048 147.287 155.609 153.988 182.016 160.686C186.416 165.712 189.595 169.539 183.239 185.332C183.239 186.051 183.239 186.051 182.505 186.532C174.437 200.409 165.634 207.349 154.876 206.152C128.47 199.931 105.732 192.752 88.86 183.661C59.383 168.3 52.093 152.048 62.72 136.643C56.786 144.899 49.656 155.891 43.626 164.515L33.602 183.177C26.756 196.577 32.38 210.215 52.429 223.614C55.607 228.16 59.52 233.664 53.162 254.003C52.429 254.72 52.429 254.72 52.429 255.203C45.338 273.866 39.715 274.343 34.091 273.866C16.555 262.035 9.58403 249.533 12.51 237.446C10.11 246.399 7.11003 257.969 5.24003 266.684L1.57003 291.328C-0.384973 305.205 11.595 320.04 38.002 333.439C59.275 344.684 88.859 354.256 122.111 361.674C134.582 366.219 140.939 375.551 142.161 392.539V393.739C140.939 410.009 134.582 416.947 122.111 415.752C87.392 407.852 57.811 398.285 36.536 387.039C14.104 375.713 2.16203 363.275 0.267027 350.8C2.01303 364.743 5.09203 382.666 8.17203 395.649L10.618 404.741C13.062 413.833 21.375 422.208 37.024 432.975C43.381 440.392 48.272 448.288 53.405 461.209C54.139 461.926 54.139 461.926 54.139 462.409C57.317 471.981 57.317 472.459 56.585 478.202C55.4043 478.595 54.159 478.757 52.917 478.68C43.258 471.996 36.323 465.531 32.549 459.08C38.871 470.22 47.467 484.418 55.362 494.952L62.941 506.199C67.831 512.899 76.141 519.599 88.614 525.818C108.175 536.586 135.069 544.961 167.833 551.659C179.08 555.009 187.882 561.709 195.461 572.476L196.195 572.954C197.663 576.109 198.495 579.523 198.643 583C196.93 584.675 193.02 585.153 190.575 585.153C161.722 579.653 137.762 571.753 120.157 562.662C113.613 559.189 107.465 555.017 101.819 550.22C111.356 558.595 123.824 568.643 133.36 576.539L149.008 587.3C149.95 588.178 151.022 588.905 152.186 589.455C171.746 601.177 171.746 601.177 179.815 605.725C180.304 605.725 180.304 606.203 181.037 606.203C183.483 607.403 187.395 609.552 189.837 610.749C205.729 618.649 208.175 619.6 231.402 628.694C243.872 633.001 245.828 633.718 264.656 638.744C268.324 639.944 274.191 640.897 277.856 642.093C279.078 642.093 281.033 642.812 284.211 643.293C286.657 643.771 290.569 644.493 293.011 644.968C298.566 646.293 304.202 647.252 309.882 647.839C315.463 648.314 316.229 648.317 327.234 649.487C326.515 649.284 325.783 649.133 325.042 649.035H328.708C348.985 650.234 369.314 650.234 389.591 649.035C401.327 647.361 402.06 646.882 406.46 642.335C404.037 640.849 401.234 640.101 398.393 640.182C341.178 643.051 281.518 639.224 236.774 628.457C228.321 625.414 220.145 621.652 212.334 617.212L211.601 616.734C208.666 614.581 204.755 611.234 203.531 608.359H207.199C273.706 624.152 371.751 628.696 460.999 617.929C471.514 615.058 484.717 608.837 486.672 597.59C484.228 594.242 483.494 593.285 475.424 593.763C412.975 600.493 350.048 601.614 287.399 597.112C275.42 595.438 266.617 589.934 262.217 580.842V580.364C261.483 574.143 260.259 565.764 277.866 565.764C315.113 568.775 352.498 569.733 389.85 568.635C395.473 567.918 400.362 567.435 406.719 562.892C418.7 553.801 419.919 532.984 392.294 531.311C297.425 533.702 202.557 525.328 133.362 508.341C122.114 504.034 113.313 495.42 108.18 482.022C107.444 481.303 107.444 481.303 107.444 480.822C104.755 468.622 109.157 461.682 119.916 462.876C221.63 487.043 376.157 494.938 510.147 479.147C516.015 477.947 521.639 476.755 528.485 470.055C541.685 457.613 542.91 430.098 514.059 430.576C428.728 440.626 335.082 441.104 251.459 434.405C235.812 431.533 227.009 422.442 225.787 406.171V404.971C227.498 389.18 235.812 381.283 251.459 380.805C336.304 387.983 431.659 387.025 518.459 376.259C565.159 370.759 604.524 362.859 636.065 353.289C648.78 347.307 650.002 332.713 650.002 326.97C650.002 319.07 647.556 301.129 629.464 299.215C598.656 308.307 560.264 315.964 515.035 321.707C377.378 338.456 218.45 330.56 115.269 304.719C104.022 300.173 100.11 290.119 103.288 274.33C104.022 273.614 104.022 273.614 104.022 273.13C109.645 258.53 117.956 251.597 129.204 252.793C226.517 277.437 376.644 284.855 506.233 269.063C510.633 268.585 515.767 267.863 520.169 267.389C523.348 266.189 527.749 264.996 531.416 261.166C543.398 247.766 533.372 216.903 506.966 217.381C502.566 217.859 498.166 218.581 493.766 219.056C418.458 228.626 334.837 229.104 261.24 222.404C248.77 219.772 243.64 211.16 246.815 196.086C247.549 195.367 247.549 195.367 247.549 194.886C253.172 181.008 261.24 174.069 273.222 173.586C317.795 177.079 362.53 178.038 407.211 176.457C409.655 175.979 412.834 175.499 414.788 174.302C426.036 167.602 428.727 137.936 400.363 132.193C326.278 135.542 250.236 128.602 198.646 115.203C197.898 113.948 196.79 112.948 195.466 112.332C195.466 105.632 195.466 103.24 205.003 93.19C205.029 92.9483 205.108 92.7154 205.235 92.5079C205.362 92.3004 205.533 92.1236 205.736 91.99C219.43 79.069 227.009 77.872 233.365 77.39C282.508 90.342 359.772 94.888 428.234 88.19C429.457 87.709 431.414 87.709 432.634 86.513C438.257 80.293 426.277 58.281 408.672 54.93C377.768 57.8015 346.663 57.8015 315.759 54.93C314.486 54.2392 313.397 53.2546 312.581 52.058C313.804 47.034 313.804 46.558 318.938 40.334L319.674 39.856C328.474 31.481 332.143 29.806 336.545 28.131C348.892 29.5706 361.364 29.5706 373.71 28.131C373.71 22.631 372.976 19.756 362.951 8.512C359.282 8.99 354.881 8.512 352.926 7.312C351.215 6.112 351.702 5.637 353.659 3.962C338.377 0.782 327.356 0 319.547 0C313.862 0 309.882 0.414 307.202 0.616" fill="white"/>
</mask>
<g mask="url(#mask9_301_222)">
<path d="M-341.463 288.23L361.545 -305.669L991.145 361.668L288.136 955.567L-341.463 288.23Z" fill="white"/>
</g>
<path d="M899.922 298.242L974.727 302.734C971.211 335.417 959.102 360.482 938.398 377.93C917.826 395.378 892.5 404.102 862.422 404.102C826.224 404.102 796.992 392.122 774.727 368.164C752.461 344.206 741.328 311.133 741.328 268.945C741.328 227.148 751.875 193.424 772.969 167.773C794.062 142.122 823.49 129.297 861.25 129.297C896.536 129.297 923.62 139.062 942.5 158.594C961.51 178.125 972.253 204.036 974.727 236.328L898.359 240.43C898.359 222.591 894.909 209.701 888.008 201.758C881.237 193.815 873.229 189.844 863.984 189.844C838.203 189.844 825.312 215.755 825.312 267.578C825.312 296.615 828.633 316.341 835.273 326.758C842.044 337.174 851.484 342.383 863.594 342.383C885.208 342.383 897.318 327.669 899.922 298.242ZM1187.62 201.367L1109.69 416.602C1103.7 432.878 1095.1 445.573 1083.91 454.688C1072.71 463.932 1055.46 468.555 1032.15 468.555C1026.55 468.555 1013.53 467.969 993.086 466.797V411.523C1003.24 413.086 1012.62 413.867 1021.21 413.867C1043.61 413.867 1054.8 408.919 1054.8 399.023C1054.8 395.768 1053.7 391.276 1051.48 385.547L980.195 201.367H1063.59L1096.41 307.227L1130.78 201.367H1187.62ZM1251.48 400H1207.54V133.398H1284.3V225C1294.97 206.51 1311.97 197.266 1335.27 197.266C1351.68 197.266 1365.61 201.562 1377.07 210.156C1388.53 218.75 1397.06 231.055 1402.66 247.07C1408.26 262.956 1411.05 279.688 1411.05 297.266C1411.05 329.297 1403.89 355.143 1389.57 374.805C1375.25 394.336 1353.89 404.102 1325.51 404.102C1297.51 404.102 1276.22 393.62 1261.64 372.656C1257.47 380.469 1254.09 389.583 1251.48 400ZM1284.3 325.977C1284.3 345.508 1291.85 355.273 1306.95 355.273C1315.16 355.273 1321.41 351.758 1325.7 344.727C1330.13 337.565 1332.34 322.917 1332.34 300.781C1332.34 276.693 1329.87 261.589 1324.92 255.469C1319.97 249.219 1313.85 246.094 1306.56 246.094C1300.83 246.094 1295.69 248.307 1291.13 252.734C1286.58 257.161 1284.3 263.607 1284.3 272.07V325.977ZM1573.55 328.711L1646.21 333.594C1641.91 353.125 1630.91 369.792 1613.2 383.594C1595.62 397.266 1571.8 404.102 1541.72 404.102C1508.26 404.102 1481.56 394.466 1461.64 375.195C1441.72 355.794 1431.76 331.771 1431.76 303.125C1431.76 273.438 1441.59 248.372 1461.25 227.93C1480.91 207.487 1507.15 197.266 1539.96 197.266C1571.73 197.266 1597.38 206.901 1616.91 226.172C1636.58 245.443 1646.41 271.68 1646.41 304.883C1646.41 307.617 1646.34 311.393 1646.21 316.211H1513.2C1513.46 328.711 1515.68 338.021 1519.84 344.141C1524.01 350.13 1531.95 353.125 1543.67 353.125C1560.6 353.125 1570.56 344.987 1573.55 328.711ZM1568.48 277.148C1568.35 263.737 1565.61 254.753 1560.27 250.195C1555.07 245.508 1548.55 243.164 1540.74 243.164C1522.25 243.164 1513.01 254.492 1513.01 277.148H1568.48ZM1751.68 400H1677.07V201.367H1741.91V242.383C1749.34 212.565 1766.59 197.656 1793.67 197.656C1796.41 197.656 1800.18 197.917 1805 198.438V267.773C1799.53 266.471 1794.65 265.82 1790.35 265.82C1764.57 265.82 1751.68 280.208 1751.68 308.984V400ZM1926.88 404.102C1893.93 404.102 1867.76 393.88 1848.36 373.438C1828.96 352.865 1819.26 328.776 1819.26 301.172C1819.26 271.484 1829.35 246.745 1849.53 226.953C1869.84 207.161 1896.21 197.266 1928.63 197.266C1961.32 197.266 1987.55 207.031 2007.34 226.562C2027.27 246.094 2037.23 270.573 2037.23 300C2037.23 329.688 2027.14 354.492 2006.95 374.414C1986.9 394.206 1960.21 404.102 1926.88 404.102ZM1928.05 356.836C1940.16 356.836 1947.51 350.586 1950.12 338.086C1952.85 325.456 1954.22 312.305 1954.22 298.633C1954.22 280.013 1952.33 266.602 1948.55 258.398C1944.78 250.195 1938.01 246.094 1928.24 246.094C1919.26 246.094 1912.68 250.326 1908.52 258.789C1904.35 267.253 1902.27 281.185 1902.27 300.586C1902.27 323.372 1904.41 338.477 1908.71 345.898C1913.01 353.19 1919.45 356.836 1928.05 356.836ZM2144.45 133.398V400H2067.7V133.398H2144.45ZM2262.42 133.398V400H2185.66V133.398H2262.42ZM2381.56 125V186.719H2303.63V125H2381.56ZM2381.56 201.367V400H2303.63V201.367H2381.56ZM2554.02 328.711L2626.68 333.594C2622.38 353.125 2611.38 369.792 2593.67 383.594C2576.09 397.266 2552.27 404.102 2522.19 404.102C2488.72 404.102 2462.03 394.466 2442.11 375.195C2422.19 355.794 2412.23 331.771 2412.23 303.125C2412.23 273.438 2422.06 248.372 2441.72 227.93C2461.38 207.487 2487.62 197.266 2520.43 197.266C2552.2 197.266 2577.85 206.901 2597.38 226.172C2617.04 245.443 2626.88 271.68 2626.88 304.883C2626.88 307.617 2626.81 311.393 2626.68 316.211H2493.67C2493.93 328.711 2496.15 338.021 2500.31 344.141C2504.48 350.13 2512.42 353.125 2524.14 353.125C2541.07 353.125 2551.03 344.987 2554.02 328.711ZM2548.95 277.148C2548.82 263.737 2546.08 254.753 2540.74 250.195C2535.53 245.508 2529.02 243.164 2521.21 243.164C2502.72 243.164 2493.48 254.492 2493.48 277.148H2548.95Z" fill="#FF6558"/>
<path d="M1232.36 525.045L1215.69 525.028L1215.61 516.807L1230.16 516.822C1232.62 516.824 1234.7 516.467 1236.41 515.75C1238.15 515.003 1239.47 513.941 1240.37 512.565C1241.27 511.158 1241.72 509.466 1241.72 507.49C1241.72 505.304 1241.3 503.521 1240.47 502.143C1239.63 500.764 1238.34 499.76 1236.61 499.129C1234.9 498.499 1232.71 498.182 1230.05 498.179L1219.13 498.168L1219.08 554.59L1207.8 554.579L1207.87 489.173L1230.06 489.195C1233.65 489.198 1236.85 489.546 1239.67 490.238C1242.51 490.929 1244.92 492.01 1246.9 493.479C1248.9 494.919 1250.41 496.747 1251.43 498.964C1252.48 501.181 1253 503.817 1252.99 506.872C1252.99 509.567 1252.34 512.037 1251.05 514.282C1249.76 516.497 1247.86 518.307 1245.34 519.712C1242.83 521.117 1239.7 521.953 1235.95 522.218L1232.36 525.045ZM1231.83 554.603L1212.11 554.583L1217.2 545.649L1231.84 545.663C1234.39 545.666 1236.51 545.249 1238.22 544.412C1239.93 543.545 1241.2 542.364 1242.04 540.867C1242.91 539.341 1243.35 537.559 1243.35 535.523C1243.35 533.396 1242.98 531.554 1242.23 529.996C1241.49 528.408 1240.31 527.194 1238.69 526.354C1237.07 525.484 1234.96 525.047 1232.36 525.045L1219.69 525.032L1219.79 516.812L1236.27 516.828L1238.83 519.93C1242.42 520.054 1245.37 520.85 1247.68 522.32C1250.01 523.79 1251.75 525.693 1252.88 528.03C1254.02 530.367 1254.59 532.883 1254.58 535.579C1254.58 539.742 1253.66 543.23 1251.83 546.043C1250.03 548.856 1247.44 550.995 1244.05 552.459C1240.67 553.893 1236.59 554.608 1231.83 554.603ZM1280.36 515.3L1280.32 554.651L1269.5 554.641L1269.54 506.035L1279.88 506.045L1280.36 515.3ZM1295.24 505.746L1295.14 515.809C1294.48 515.688 1293.76 515.598 1292.98 515.537C1292.24 515.476 1291.49 515.446 1290.74 515.445C1288.88 515.443 1287.25 515.711 1285.84 516.249C1284.43 516.756 1283.25 517.504 1282.29 518.491C1281.36 519.449 1280.64 520.616 1280.13 521.993C1279.62 523.37 1279.32 524.912 1279.23 526.619L1276.76 526.796C1276.76 523.742 1277.06 520.912 1277.66 518.307C1278.26 515.702 1279.16 513.412 1280.36 511.437C1281.59 509.461 1283.12 507.92 1284.95 506.814C1286.81 505.708 1288.95 505.156 1291.38 505.159C1292.04 505.159 1292.74 505.22 1293.49 505.34C1294.27 505.461 1294.85 505.596 1295.24 505.746ZM1318.21 506.084L1318.16 554.689L1307.29 554.678L1307.34 506.073L1318.21 506.084ZM1306.64 493.314C1306.64 491.667 1307.18 490.305 1308.26 489.228C1309.37 488.121 1310.89 487.569 1312.84 487.571C1314.76 487.573 1316.27 488.128 1317.38 489.237C1318.48 490.316 1319.04 491.68 1319.03 493.327C1319.03 494.944 1318.48 496.291 1317.37 497.368C1316.26 498.445 1314.75 498.983 1312.83 498.981C1310.88 498.979 1309.36 498.438 1308.25 497.359C1307.17 496.28 1306.63 494.932 1306.64 493.314ZM1364.28 544.673L1364.34 485.735L1375.21 485.746L1375.14 554.746L1365.3 554.736L1364.28 544.673ZM1332.67 530.94L1332.67 529.997C1332.68 526.313 1333.11 522.959 1333.98 519.936C1334.86 516.882 1336.12 514.263 1337.77 512.078C1339.41 509.863 1341.42 508.173 1343.79 507.008C1346.16 505.812 1348.82 505.216 1351.79 505.219C1354.72 505.222 1357.3 505.793 1359.51 506.934C1361.73 508.074 1363.61 509.708 1365.17 511.836C1366.72 513.934 1367.96 516.451 1368.89 519.386C1369.81 522.292 1370.47 525.527 1370.86 529.092L1370.85 532.101C1370.46 535.575 1369.8 538.749 1368.87 541.623C1367.94 544.497 1366.69 546.981 1365.13 549.076C1363.57 551.171 1361.67 552.786 1359.42 553.922C1357.2 555.058 1354.61 555.624 1351.65 555.621C1348.71 555.618 1346.06 555.002 1343.7 553.771C1341.36 552.541 1339.37 550.817 1337.73 548.599C1336.08 546.382 1334.83 543.775 1333.96 540.779C1333.1 537.754 1332.67 534.474 1332.67 530.94ZM1343.5 530.008L1343.5 530.951C1343.49 533.167 1343.69 535.234 1344.07 537.151C1344.49 539.068 1345.13 540.761 1346 542.229C1346.87 543.667 1347.99 544.806 1349.37 545.646C1350.77 546.456 1352.45 546.862 1354.4 546.864C1356.85 546.867 1358.87 546.33 1360.46 545.253C1362.05 544.177 1363.3 542.725 1364.2 540.899C1365.13 539.044 1365.76 536.978 1366.09 534.702L1366.1 526.571C1365.92 524.804 1365.55 523.157 1364.98 521.629C1364.44 520.101 1363.71 518.767 1362.78 517.628C1361.85 516.459 1360.7 515.56 1359.33 514.93C1357.98 514.269 1356.38 513.938 1354.52 513.937C1352.54 513.935 1350.87 514.352 1349.49 515.189C1348.11 516.026 1346.97 517.178 1346.07 518.645C1345.2 520.111 1344.55 521.818 1344.13 523.764C1343.71 525.71 1343.5 527.791 1343.5 530.008ZM1422.24 506.188L1432.08 506.198L1432.03 553.455C1432.03 557.828 1431.1 561.54 1429.24 564.593C1427.38 567.646 1424.78 569.965 1421.46 571.548C1418.13 573.162 1414.28 573.967 1409.91 573.963C1408.05 573.961 1405.99 573.689 1403.71 573.148C1401.47 572.607 1399.28 571.736 1397.16 570.536C1395.06 569.366 1393.31 567.822 1391.91 565.904L1396.99 559.53C1398.72 561.598 1400.64 563.112 1402.73 564.073C1404.83 565.033 1407.03 565.514 1409.34 565.517C1411.82 565.519 1413.93 565.057 1415.67 564.131C1417.44 563.234 1418.8 561.903 1419.76 560.137C1420.72 558.371 1421.2 556.215 1421.21 553.669L1421.24 517.193L1422.24 506.188ZM1389.2 530.997L1389.2 530.053C1389.2 526.37 1389.66 523.016 1390.56 519.992C1391.46 516.938 1392.75 514.319 1394.43 512.135C1396.11 509.92 1398.15 508.23 1400.54 507.065C1402.94 505.869 1405.65 505.273 1408.68 505.276C1411.82 505.279 1414.5 505.851 1416.72 506.991C1418.96 508.131 1420.83 509.765 1422.33 511.893C1423.82 513.991 1424.99 516.508 1425.82 519.443C1426.69 522.349 1427.33 525.584 1427.74 529.148L1427.74 532.158C1427.35 535.632 1426.69 538.806 1425.76 541.68C1424.82 544.554 1423.59 547.038 1422.06 549.133C1420.54 551.228 1418.65 552.843 1416.4 553.979C1414.18 555.115 1411.56 555.681 1408.54 555.678C1405.57 555.675 1402.89 555.059 1400.5 553.828C1398.13 552.598 1396.1 550.874 1394.39 548.656C1392.72 546.438 1391.43 543.832 1390.54 540.836C1389.64 537.81 1389.2 534.53 1389.2 530.997ZM1400.03 530.064L1400.03 531.007C1400.02 533.224 1400.23 535.29 1400.65 537.207C1401.1 539.124 1401.77 540.817 1402.67 542.285C1403.59 543.724 1404.76 544.863 1406.17 545.703C1407.6 546.513 1409.29 546.919 1411.24 546.921C1413.79 546.924 1415.87 546.387 1417.49 545.31C1419.13 544.234 1420.39 542.782 1421.26 540.956C1422.16 539.101 1422.8 537.035 1423.16 534.759L1423.17 526.628C1422.99 524.861 1422.61 523.214 1422.05 521.686C1421.51 520.158 1420.78 518.824 1419.85 517.685C1418.92 516.517 1417.76 515.617 1416.35 514.987C1414.94 514.326 1413.28 513.995 1411.36 513.993C1409.42 513.991 1407.72 514.409 1406.29 515.246C1404.85 516.083 1403.66 517.235 1402.73 518.702C1401.83 520.168 1401.16 521.874 1400.71 523.821C1400.26 525.767 1400.03 527.848 1400.03 530.064ZM1459.5 506.225L1459.45 554.831L1448.58 554.82L1448.63 506.214L1459.5 506.225ZM1447.92 493.456C1447.93 491.809 1448.47 490.446 1449.54 489.369C1450.65 488.262 1452.18 487.71 1454.13 487.712C1456.05 487.714 1457.56 488.269 1458.66 489.379C1459.77 490.458 1460.32 491.821 1460.32 493.468C1460.32 495.085 1459.77 496.432 1458.66 497.509C1457.55 498.586 1456.03 499.124 1454.12 499.122C1452.17 499.12 1450.64 498.58 1449.54 497.5C1448.46 496.421 1447.92 495.073 1447.92 493.456ZM1486.69 516.629L1486.65 554.858L1475.82 554.847L1475.87 506.241L1486.07 506.252L1486.69 516.629ZM1484.74 528.756L1481.24 528.708C1481.27 525.264 1481.75 522.105 1482.69 519.231C1483.65 516.357 1484.97 513.887 1486.65 511.823C1488.36 509.758 1490.39 508.173 1492.76 507.067C1495.13 505.931 1497.76 505.365 1500.67 505.368C1503 505.37 1505.11 505.702 1507 506.362C1508.92 506.993 1510.55 508.028 1511.89 509.467C1513.27 510.906 1514.32 512.779 1515.03 515.085C1515.75 517.362 1516.11 520.163 1516.1 523.487L1516.07 554.887L1505.2 554.876L1505.23 523.431C1505.23 521.095 1504.89 519.253 1504.2 517.905C1503.55 516.526 1502.57 515.552 1501.29 514.982C1500.03 514.382 1498.46 514.08 1496.57 514.079C1494.71 514.077 1493.05 514.464 1491.58 515.242C1490.12 516.019 1488.87 517.081 1487.85 518.427C1486.86 519.774 1486.1 521.33 1485.56 523.097C1485.02 524.863 1484.74 526.75 1484.74 528.756ZM1562.9 506.328L1572.74 506.338L1572.69 553.596C1572.69 557.969 1571.76 561.681 1569.9 564.734C1568.04 567.787 1565.44 570.105 1562.12 571.689C1558.79 573.303 1554.94 574.108 1550.57 574.103C1548.71 574.101 1546.65 573.83 1544.37 573.289C1542.13 572.747 1539.94 571.877 1537.82 570.677C1535.72 569.506 1533.97 567.962 1532.56 566.044L1537.65 559.67C1539.38 561.739 1541.3 563.253 1543.39 564.213C1545.49 565.174 1547.69 565.655 1549.99 565.657C1552.48 565.66 1554.59 565.198 1556.33 564.271C1558.1 563.375 1559.46 562.043 1560.42 560.277C1561.38 558.511 1561.86 556.356 1561.87 553.81L1561.9 517.333L1562.9 506.328ZM1529.86 531.137L1529.86 530.194C1529.86 526.51 1530.32 523.157 1531.22 520.133C1532.12 517.079 1533.41 514.46 1535.09 512.275C1536.77 510.061 1538.81 508.371 1541.2 507.205C1543.6 506.01 1546.31 505.413 1549.34 505.416C1552.48 505.42 1555.16 505.991 1557.38 507.132C1559.62 508.272 1561.49 509.906 1562.99 512.034C1564.48 514.132 1565.65 516.648 1566.48 519.584C1567.35 522.49 1567.99 525.725 1568.4 529.289L1568.4 532.299C1568.01 535.772 1567.35 538.946 1566.42 541.82C1565.48 544.694 1564.25 547.179 1562.72 549.274C1561.19 551.369 1559.31 552.984 1557.06 554.12C1554.84 555.255 1552.22 555.822 1549.2 555.819C1546.23 555.816 1543.55 555.199 1541.16 553.969C1538.79 552.739 1536.76 551.015 1535.05 548.797C1533.38 546.579 1532.09 543.972 1531.2 540.977C1530.3 537.951 1529.86 534.671 1529.86 531.137ZM1540.69 530.205L1540.69 531.148C1540.68 533.364 1540.89 535.431 1541.31 537.348C1541.76 539.265 1542.43 540.958 1543.32 542.426C1544.25 543.865 1545.42 545.004 1546.83 545.844C1548.26 546.654 1549.95 547.06 1551.9 547.062C1554.45 547.064 1556.53 546.527 1558.15 545.451C1559.79 544.374 1561.05 542.923 1561.92 541.097C1562.82 539.241 1563.46 537.175 1563.82 534.9L1563.82 526.769C1563.65 525.002 1563.27 523.354 1562.71 521.826C1562.17 520.298 1561.44 518.965 1560.51 517.826C1559.58 516.657 1558.42 515.758 1557.01 515.127C1555.6 514.467 1553.94 514.136 1552.02 514.134C1550.08 514.132 1548.38 514.55 1546.95 515.387C1545.51 516.224 1544.32 517.376 1543.39 518.842C1542.49 520.309 1541.82 522.015 1541.37 523.961C1540.92 525.907 1540.69 527.989 1540.69 530.205ZM1641.93 489.607L1641.86 555.013L1630.68 555.002L1630.74 489.596L1641.93 489.607ZM1662.46 489.627L1662.45 498.612L1610.38 498.56L1610.39 489.575L1662.46 489.627ZM1682.21 515.702L1682.17 555.053L1671.35 555.042L1671.4 506.437L1681.73 506.447L1682.21 515.702ZM1697.09 506.148L1696.99 516.211C1696.33 516.09 1695.62 516 1694.84 515.939C1694.09 515.878 1693.34 515.848 1692.59 515.847C1690.73 515.845 1689.1 516.113 1687.69 516.651C1686.29 517.158 1685.1 517.906 1684.14 518.893C1683.21 519.851 1682.49 521.018 1681.98 522.395C1681.47 523.772 1681.17 525.314 1681.08 527.021L1678.61 527.198C1678.61 524.143 1678.91 521.314 1679.52 518.709C1680.12 516.104 1681.02 513.814 1682.22 511.838C1683.45 509.863 1684.98 508.322 1686.8 507.216C1688.66 506.11 1690.8 505.558 1693.23 505.56C1693.89 505.561 1694.59 505.622 1695.34 505.742C1696.12 505.863 1696.7 505.998 1697.09 506.148ZM1737.68 543.654L1737.72 506.503L1748.59 506.514L1748.54 555.12L1738.3 555.109L1737.68 543.654ZM1739.22 533.548L1742.86 533.462C1742.86 536.726 1742.49 539.735 1741.77 542.49C1741.05 545.214 1739.94 547.594 1738.44 549.629C1736.94 551.634 1735.02 553.204 1732.69 554.34C1730.35 555.446 1727.55 555.997 1724.28 555.994C1721.92 555.991 1719.75 555.645 1717.77 554.954C1715.8 554.263 1714.09 553.198 1712.65 551.76C1711.25 550.321 1710.16 548.448 1709.38 546.141C1708.6 543.834 1708.22 541.079 1708.22 537.874L1708.25 506.474L1719.08 506.485L1719.05 537.975C1719.04 539.742 1719.25 541.224 1719.67 542.423C1720.09 543.591 1720.66 544.535 1721.37 545.255C1722.09 545.974 1722.93 546.484 1723.89 546.784C1724.85 547.085 1725.86 547.236 1726.94 547.237C1730.03 547.24 1732.45 546.643 1734.22 545.447C1736.02 544.221 1737.29 542.575 1738.05 540.51C1738.83 538.444 1739.22 536.123 1739.22 533.548ZM1791.52 542.001C1791.52 540.922 1791.25 539.949 1790.71 539.08C1790.17 538.181 1789.14 537.371 1787.62 536.651C1786.12 535.931 1783.9 535.27 1780.97 534.668C1778.39 534.096 1776.03 533.42 1773.87 532.639C1771.75 531.828 1769.92 530.853 1768.4 529.714C1766.87 528.574 1765.69 527.225 1764.85 525.667C1764.01 524.109 1763.6 522.312 1763.6 520.275C1763.6 518.299 1764.04 516.427 1764.91 514.661C1765.78 512.895 1767.02 511.339 1768.64 509.993C1770.26 508.647 1772.22 507.586 1774.53 506.81C1776.87 506.033 1779.47 505.647 1782.35 505.65C1786.42 505.654 1789.91 506.346 1792.81 507.726C1795.74 509.077 1797.99 510.921 1799.54 513.259C1801.1 515.566 1801.87 518.172 1801.87 521.077L1791.05 521.066C1791.05 519.779 1790.72 518.58 1790.06 517.472C1789.43 516.333 1788.48 515.419 1787.19 514.729C1785.9 514.009 1784.28 513.648 1782.34 513.646C1780.48 513.644 1778.94 513.942 1777.71 514.539C1776.51 515.107 1775.61 515.855 1775.01 516.783C1774.44 517.711 1774.16 518.729 1774.16 519.837C1774.16 520.645 1774.3 521.379 1774.6 522.038C1774.93 522.667 1775.47 523.252 1776.22 523.792C1776.97 524.302 1777.98 524.782 1779.27 525.232C1780.59 525.683 1782.24 526.119 1784.21 526.54C1787.92 527.322 1791.11 528.329 1793.78 529.559C1796.47 530.76 1798.54 532.319 1799.97 534.237C1801.41 536.126 1802.12 538.522 1802.12 541.427C1802.12 543.583 1801.65 545.559 1800.72 547.355C1799.82 549.121 1798.5 550.662 1796.76 551.978C1795.03 553.264 1792.94 554.266 1790.52 554.982C1788.12 555.698 1785.43 556.055 1782.43 556.052C1778.03 556.048 1774.3 555.265 1771.25 553.705C1768.19 552.115 1765.88 550.091 1764.29 547.633C1762.74 545.146 1761.96 542.57 1761.96 539.905L1772.43 539.915C1772.55 541.922 1773.1 543.524 1774.09 544.723C1775.1 545.892 1776.36 546.747 1777.86 547.288C1779.38 547.798 1780.96 548.054 1782.57 548.056C1784.52 548.058 1786.15 547.805 1787.47 547.297C1788.79 546.76 1789.79 546.042 1790.48 545.144C1791.17 544.216 1791.52 543.168 1791.52 542.001ZM1838.52 506.604L1838.51 514.51L1811.11 514.483L1811.11 506.577L1838.52 506.604ZM1819.03 494.68L1829.86 494.691L1829.81 541.769C1829.81 543.267 1830.02 544.42 1830.44 545.229C1830.88 546.008 1831.5 546.533 1832.28 546.803C1833.05 547.073 1833.97 547.209 1835.02 547.21C1835.76 547.211 1836.48 547.167 1837.17 547.077C1837.86 546.988 1838.42 546.899 1838.83 546.81L1838.87 555.075C1837.97 555.344 1836.92 555.582 1835.73 555.791C1834.56 555.999 1833.21 556.103 1831.68 556.101C1829.2 556.099 1827 555.662 1825.08 554.792C1823.16 553.892 1821.67 552.438 1820.59 550.43C1819.52 548.422 1818.98 545.756 1818.98 542.432L1819.03 494.68ZM1861.59 544.811L1861.53 552.537C1861.53 555.592 1860.76 558.736 1859.23 561.969C1857.7 565.201 1855.68 567.865 1853.16 569.959L1847.37 566.584C1848.21 565.237 1848.97 563.875 1849.66 562.498C1850.35 561.121 1850.91 559.654 1851.33 558.097C1851.75 556.541 1851.96 554.819 1851.96 552.932L1851.97 544.801L1861.59 544.811ZM1948 546.38L1948 555.319L1913.27 555.284L1913.28 546.345L1948 546.38ZM1916.53 489.881L1916.46 555.288L1905.18 555.276L1905.25 489.87L1916.53 489.881ZM1943.5 517.221L1943.49 526.026L1913.3 525.995L1913.31 517.191L1943.5 517.221ZM1947.84 489.913L1947.83 498.897L1913.33 498.863L1913.34 489.878L1947.84 489.913ZM1972.39 486.343L1972.32 555.343L1961.45 555.333L1961.51 486.333L1972.39 486.343ZM2010.2 556.28C2006.61 556.276 2003.36 555.689 2000.46 554.518C1997.58 553.317 1995.13 551.653 1993.09 549.524C1991.09 547.396 1989.55 544.894 1988.47 542.018C1987.4 539.142 1986.86 536.042 1986.87 532.717L1986.87 530.92C1986.87 527.117 1987.43 523.674 1988.54 520.59C1989.65 517.507 1991.2 514.873 1993.18 512.688C1995.15 510.474 1997.49 508.785 2000.19 507.619C2002.89 506.454 2005.81 505.873 2008.95 505.876C2012.42 505.88 2015.46 506.467 2018.07 507.637C2020.67 508.808 2022.83 510.457 2024.53 512.585C2026.27 514.683 2027.55 517.185 2028.39 520.091C2029.25 522.997 2029.68 526.202 2029.68 529.705L2029.68 534.332L1992.12 534.295L1992.13 526.523L2018.99 526.55L2018.99 525.697C2018.93 523.75 2018.55 521.923 2017.83 520.215C2017.14 518.507 2016.08 517.129 2014.64 516.079C2013.21 515.029 2011.29 514.503 2008.9 514.501C2007.1 514.499 2005.5 514.887 2004.09 515.664C2002.71 516.412 2001.56 517.503 2000.63 518.94C1999.7 520.377 1998.98 522.113 1998.46 524.149C1997.98 526.155 1997.74 528.416 1997.74 530.931L1997.74 532.728C1997.74 534.855 1998.02 536.831 1998.59 538.659C1999.18 540.456 2000.05 542.029 2001.19 543.378C2002.32 544.727 2003.7 545.791 2005.32 546.572C2006.93 547.322 2008.77 547.698 2010.84 547.7C2013.45 547.703 2015.77 547.181 2017.8 546.135C2019.84 545.089 2021.61 543.608 2023.11 541.693L2028.81 547.224C2027.76 548.75 2026.4 550.217 2024.72 551.622C2023.04 552.998 2020.99 554.119 2018.56 554.985C2016.16 555.851 2013.38 556.283 2010.2 556.28ZM2057.89 546.849L2069.84 506.835L2081.07 506.847L2064.13 555.435L2057.12 555.428L2057.89 546.849ZM2048.81 506.814L2060.9 547.032L2061.48 555.433L2054.47 555.426L2037.54 506.803L2048.81 506.814ZM2119 545.742L2119.03 522.562C2119.03 520.825 2118.72 519.328 2118.09 518.069C2117.46 516.811 2116.5 515.837 2115.22 515.146C2113.96 514.456 2112.37 514.11 2110.46 514.108C2108.69 514.107 2107.16 514.405 2105.87 515.002C2104.59 515.6 2103.58 516.408 2102.86 517.425C2102.14 518.443 2101.78 519.595 2101.78 520.883L2091 520.872C2091 518.956 2091.47 517.099 2092.4 515.303C2093.33 513.507 2094.68 511.907 2096.44 510.501C2098.21 509.095 2100.33 507.989 2102.78 507.183C2105.24 506.377 2107.99 505.975 2111.05 505.978C2114.7 505.982 2117.94 506.599 2120.75 507.83C2123.59 509.06 2125.82 510.919 2127.44 513.407C2129.08 515.864 2129.9 518.95 2129.9 522.663L2129.88 544.271C2129.88 546.487 2130.02 548.478 2130.32 550.246C2130.65 551.983 2131.11 553.496 2131.71 554.784L2131.71 555.503L2120.61 555.492C2120.1 554.323 2119.7 552.84 2119.4 551.043C2119.14 549.216 2119 547.449 2119 545.742ZM2120.6 525.933L2120.68 532.627L2112.91 532.619C2110.9 532.617 2109.13 532.81 2107.61 533.197C2106.08 533.555 2104.81 534.093 2103.79 534.811C2102.77 535.529 2102 536.396 2101.49 537.414C2100.98 538.432 2100.73 539.584 2100.73 540.872C2100.73 542.16 2101.02 543.343 2101.62 544.422C2102.22 545.471 2103.09 546.295 2104.22 546.895C2105.39 547.495 2106.8 547.796 2108.45 547.798C2110.66 547.8 2112.59 547.353 2114.24 546.456C2115.92 545.529 2117.24 544.408 2118.2 543.091C2119.16 541.744 2119.67 540.472 2119.73 539.274L2123.23 544.084C2122.87 545.312 2122.25 546.629 2121.38 548.035C2120.51 549.442 2119.37 550.789 2117.97 552.075C2116.59 553.331 2114.92 554.363 2112.98 555.17C2111.06 555.976 2108.84 556.378 2106.33 556.376C2103.15 556.373 2100.32 555.741 2097.84 554.481C2095.35 553.19 2093.41 551.466 2092 549.309C2090.6 547.121 2089.9 544.65 2089.9 541.895C2089.9 539.319 2090.38 537.044 2091.34 535.068C2092.33 533.062 2093.77 531.387 2095.66 530.041C2097.58 528.695 2099.92 527.679 2102.67 526.993C2105.43 526.277 2108.57 525.921 2112.11 525.925L2120.6 525.933ZM2168.12 506.934L2168.11 514.84L2140.71 514.813L2140.71 506.906L2168.12 506.934ZM2148.63 495.01L2159.46 495.021L2159.41 542.099C2159.41 543.596 2159.62 544.749 2160.04 545.558C2160.49 546.338 2161.1 546.862 2161.88 547.133C2162.66 547.403 2163.57 547.539 2164.62 547.54C2165.37 547.54 2166.08 547.496 2166.77 547.407C2167.46 547.318 2168.02 547.229 2168.44 547.139L2168.47 555.405C2167.57 555.673 2166.53 555.912 2165.33 556.12C2164.16 556.329 2162.81 556.432 2161.28 556.431C2158.8 556.428 2156.6 555.992 2154.68 555.121C2152.77 554.221 2151.27 552.767 2150.19 550.76C2149.12 548.752 2148.58 546.086 2148.58 542.762L2148.63 495.01ZM2192.66 506.958L2192.61 555.564L2181.74 555.553L2181.79 506.947L2192.66 506.958ZM2181.08 494.189C2181.09 492.542 2181.63 491.18 2182.71 490.103C2183.82 488.996 2185.34 488.443 2187.29 488.445C2189.21 488.447 2190.72 489.003 2191.82 490.112C2192.93 491.191 2193.48 492.554 2193.48 494.201C2193.48 495.818 2192.93 497.166 2191.82 498.243C2190.71 499.32 2189.19 499.857 2187.28 499.855C2185.33 499.853 2183.8 499.313 2182.7 498.233C2181.62 497.154 2181.08 495.806 2181.08 494.189ZM2219.85 517.362L2219.81 555.591L2208.98 555.58L2209.03 506.975L2219.23 506.985L2219.85 517.362ZM2217.9 529.489L2214.4 529.441C2214.43 525.997 2214.92 522.838 2215.85 519.964C2216.81 517.09 2218.13 514.62 2219.81 512.556C2221.52 510.491 2223.55 508.906 2225.92 507.8C2228.29 506.664 2230.92 506.098 2233.83 506.101C2236.16 506.103 2238.28 506.435 2240.16 507.096C2242.08 507.726 2243.71 508.761 2245.06 510.2C2246.43 511.639 2247.48 513.512 2248.19 515.818C2248.91 518.095 2249.27 520.896 2249.26 524.22L2249.23 555.62L2238.36 555.609L2238.39 524.164C2238.4 521.828 2238.05 519.986 2237.37 518.638C2236.71 517.259 2235.74 516.285 2234.45 515.715C2233.19 515.115 2231.62 514.814 2229.73 514.812C2227.88 514.81 2226.21 515.198 2224.74 515.975C2223.28 516.752 2222.03 517.814 2221.01 519.16C2220.02 520.507 2219.26 522.064 2218.72 523.83C2218.18 525.596 2217.91 527.483 2217.9 529.489ZM2296.06 507.062L2305.9 507.071L2305.85 554.329C2305.85 558.702 2304.92 562.414 2303.06 565.467C2301.2 568.52 2298.6 570.838 2295.28 572.422C2291.95 574.036 2288.1 574.841 2283.73 574.837C2281.87 574.835 2279.81 574.563 2277.53 574.022C2275.29 573.48 2273.1 572.61 2270.98 571.41C2268.88 570.24 2267.13 568.696 2265.73 566.777L2270.81 560.404C2272.54 562.472 2274.46 563.986 2276.55 564.947C2278.65 565.907 2280.85 566.388 2283.16 566.391C2285.64 566.393 2287.75 565.931 2289.49 565.004C2291.26 564.108 2292.62 562.776 2293.58 561.01C2294.54 559.244 2295.02 557.089 2295.03 554.543L2295.06 518.067L2296.06 507.062ZM2263.02 531.87L2263.02 530.927C2263.03 527.243 2263.48 523.89 2264.38 520.866C2265.28 517.812 2266.57 515.193 2268.25 513.008C2269.93 510.794 2271.97 509.104 2274.36 507.938C2276.76 506.743 2279.47 506.147 2282.5 506.15C2285.64 506.153 2288.32 506.724 2290.54 507.865C2292.78 509.005 2294.65 510.639 2296.15 512.767C2297.64 514.865 2298.81 517.381 2299.64 520.317C2300.51 523.223 2301.15 526.458 2301.57 530.022L2301.56 533.032C2301.17 536.506 2300.51 539.679 2299.58 542.553C2298.64 545.428 2297.41 547.912 2295.89 550.007C2294.36 552.102 2292.47 553.717 2290.22 554.853C2288 555.989 2285.38 556.555 2282.36 556.552C2279.39 556.549 2276.71 555.932 2274.32 554.702C2271.95 553.472 2269.92 551.748 2268.21 549.53C2266.54 547.312 2265.25 544.705 2264.36 541.71C2263.46 538.684 2263.02 535.404 2263.02 531.87ZM2273.85 530.938L2273.85 531.881C2273.84 534.097 2274.05 536.164 2274.47 538.081C2274.92 539.998 2275.59 541.691 2276.49 543.159C2277.41 544.598 2278.58 545.737 2279.99 546.577C2281.42 547.387 2283.11 547.793 2285.06 547.795C2287.61 547.797 2289.69 547.26 2291.31 546.184C2292.96 545.107 2294.21 543.656 2295.08 541.83C2295.99 539.974 2296.62 537.909 2296.98 535.633L2296.99 527.502C2296.81 525.735 2296.44 524.087 2295.87 522.56C2295.33 521.032 2294.6 519.698 2293.67 518.559C2292.74 517.39 2291.58 516.491 2290.17 515.86C2288.76 515.2 2287.1 514.869 2285.18 514.867C2283.24 514.865 2281.54 515.283 2280.11 516.12C2278.67 516.957 2277.48 518.109 2276.55 519.575C2275.65 521.042 2274.98 522.748 2274.53 524.694C2274.08 526.641 2273.85 528.722 2273.85 530.938ZM2375.09 490.34L2375.02 555.746L2363.84 555.735L2363.9 490.329L2375.09 490.34ZM2395.62 490.36L2395.61 499.345L2343.54 499.293L2343.55 490.308L2395.62 490.36ZM2429.09 546.052L2429.11 522.872C2429.12 521.135 2428.8 519.638 2428.18 518.379C2427.55 517.121 2426.59 516.147 2425.3 515.457C2424.05 514.766 2422.46 514.42 2420.54 514.419C2418.78 514.417 2417.25 514.715 2415.96 515.312C2414.67 515.91 2413.67 516.718 2412.95 517.735C2412.23 518.753 2411.87 519.905 2411.87 521.193L2401.09 521.182C2401.09 519.266 2401.55 517.409 2402.48 515.613C2403.41 513.817 2404.76 512.217 2406.53 510.811C2408.3 509.405 2410.41 508.299 2412.87 507.493C2415.32 506.687 2418.08 506.285 2421.14 506.288C2424.79 506.292 2428.02 506.909 2430.84 508.14C2433.68 509.371 2435.91 511.23 2437.52 513.717C2439.17 516.174 2439.99 519.26 2439.99 522.973L2439.96 544.581C2439.96 546.797 2440.11 548.788 2440.41 550.556C2440.74 552.293 2441.2 553.806 2441.8 555.094L2441.79 555.813L2430.7 555.802C2430.19 554.633 2429.79 553.151 2429.49 551.353C2429.22 549.526 2429.09 547.759 2429.09 546.052ZM2430.68 526.243L2430.77 532.937L2423 532.929C2420.99 532.927 2419.22 533.12 2417.69 533.508C2416.17 533.865 2414.89 534.403 2413.87 535.121C2412.85 535.839 2412.09 536.706 2411.58 537.724C2411.07 538.742 2410.81 539.895 2410.81 541.182C2410.81 542.47 2411.11 543.653 2411.71 544.732C2412.31 545.781 2413.17 546.605 2414.31 547.205C2415.48 547.805 2416.89 548.106 2418.53 548.108C2420.75 548.11 2422.68 547.663 2424.33 546.766C2426.01 545.839 2427.33 544.718 2428.29 543.401C2429.25 542.054 2429.76 540.782 2429.82 539.584L2433.32 544.394C2432.96 545.622 2432.34 546.939 2431.47 548.346C2430.6 549.752 2429.46 551.099 2428.05 552.385C2426.67 553.642 2425.01 554.673 2423.06 555.48C2421.15 556.286 2418.93 556.688 2416.41 556.686C2413.24 556.683 2410.41 556.051 2407.92 554.791C2405.44 553.501 2403.5 551.777 2402.09 549.619C2400.68 547.431 2399.98 544.96 2399.99 542.205C2399.99 539.629 2400.47 537.354 2401.43 535.378C2402.42 533.372 2403.86 531.697 2405.75 530.351C2407.67 529.005 2410 527.989 2412.76 527.303C2415.51 526.587 2418.66 526.231 2422.19 526.235L2430.68 526.243ZM2467.53 486.839L2467.46 555.839L2456.59 555.828L2456.66 486.828L2467.53 486.839ZM2505.35 556.775C2501.76 556.771 2498.51 556.184 2495.6 555.013C2492.73 553.812 2490.28 552.148 2488.24 550.02C2486.24 547.891 2484.7 545.389 2483.62 542.513C2482.55 539.637 2482.01 536.537 2482.01 533.212L2482.02 531.416C2482.02 527.612 2482.58 524.169 2483.69 521.085C2484.8 518.002 2486.34 515.368 2488.32 513.184C2490.3 510.969 2492.64 509.28 2495.34 508.114C2498.03 506.949 2500.95 506.368 2504.1 506.371C2507.57 506.375 2510.61 506.962 2513.21 508.132C2515.82 509.303 2517.97 510.952 2519.68 513.08C2521.41 515.178 2522.7 517.68 2523.53 520.586C2524.4 523.492 2524.83 526.697 2524.83 530.201L2524.82 534.828L2487.27 534.79L2487.28 527.019L2514.14 527.045L2514.14 526.192C2514.08 524.245 2513.69 522.418 2512.98 520.71C2512.29 519.003 2511.23 517.624 2509.79 516.574C2508.36 515.525 2506.44 514.999 2504.04 514.996C2502.25 514.994 2500.64 515.382 2499.24 516.159C2497.86 516.907 2496.7 517.999 2495.77 519.435C2494.84 520.872 2494.12 522.608 2493.61 524.644C2493.13 526.65 2492.89 528.911 2492.89 531.426L2492.88 533.223C2492.88 535.35 2493.16 537.327 2493.73 539.154C2494.33 540.951 2495.2 542.525 2496.33 543.873C2497.47 545.222 2498.85 546.287 2500.46 547.067C2502.08 547.817 2503.92 548.193 2505.99 548.195C2508.59 548.198 2510.91 547.676 2512.95 546.63C2514.99 545.584 2516.76 544.103 2518.26 542.188L2523.96 547.719C2522.91 549.246 2521.54 550.712 2519.86 552.118C2518.19 553.493 2516.13 554.614 2513.71 555.481C2511.31 556.347 2508.52 556.778 2505.35 556.775ZM2548.62 517.691L2548.58 555.92L2537.76 555.909L2537.81 507.303L2548 507.314L2548.62 517.691ZM2546.68 529.818L2543.17 529.77C2543.21 526.326 2543.69 523.167 2544.62 520.293C2545.58 517.419 2546.9 514.949 2548.58 512.884C2550.29 510.82 2552.33 509.235 2554.7 508.129C2557.06 506.993 2559.7 506.427 2562.6 506.43C2564.94 506.432 2567.05 506.764 2568.94 507.424C2570.85 508.055 2572.48 509.09 2573.83 510.529C2575.21 511.968 2576.25 513.841 2576.97 516.147C2577.68 518.424 2578.04 521.225 2578.04 524.549L2578.01 555.949L2567.14 555.938L2567.17 524.493C2567.17 522.157 2566.83 520.315 2566.14 518.967C2565.48 517.588 2564.51 516.614 2563.22 516.044C2561.97 515.443 2560.39 515.142 2558.51 515.141C2556.65 515.139 2554.99 515.526 2553.52 516.304C2552.05 517.081 2550.81 518.143 2549.79 519.489C2548.8 520.836 2548.03 522.392 2547.49 524.159C2546.95 525.925 2546.68 527.812 2546.68 529.818ZM2615.99 507.382L2615.98 515.288L2588.58 515.26L2588.59 507.354L2615.99 507.382ZM2596.5 495.458L2607.33 495.469L2607.28 542.547C2607.28 544.044 2607.49 545.197 2607.91 546.006C2608.36 546.785 2608.97 547.31 2609.75 547.58C2610.53 547.851 2611.44 547.986 2612.49 547.988C2613.24 547.988 2613.96 547.944 2614.64 547.855C2615.33 547.766 2615.89 547.676 2616.31 547.587L2616.34 555.853C2615.44 556.121 2614.4 556.36 2613.2 556.568C2612.03 556.777 2610.68 556.88 2609.15 556.879C2606.67 556.876 2604.47 556.44 2602.55 555.569C2600.64 554.669 2599.14 553.215 2598.06 551.207C2596.99 549.2 2596.45 546.534 2596.46 543.21L2596.5 495.458Z" fill="white"/>
<defs>
<linearGradient id="paint0_linear_301_222" x1="-7.03838" y1="708.025" x2="-5.56404" y2="708.025" gradientUnits="userSpaceOnUse">
<stop stop-color="#CCCCFF"/>
<stop offset="1" stop-color="#808080"/>
</linearGradient>
</defs>
</svg>
