<svg width="1688" height="503" viewBox="0 0 1688 503" fill="none" xmlns="http://www.w3.org/2000/svg">
<path d="M151.57 40.8746C158.406 38.3746 165.045 35.4746 171.386 33.4746C159.298 37.6746 158.803 37.6746 153.254 40.1746L143.346 44.3746C145.526 42.9746 148.597 42.0746 151.57 40.8746Z" fill="url(#paint0_linear_299_55)"/>
<path d="M102.723 76.575C113.127 72.375 128.287 58.575 126.899 55.875C126.404 55.875 125.512 55.875 125.215 56.275C115.604 59.575 108.47 62.975 103.219 66.975C96.3818 72.375 86.7707 79.375 80.4294 84.975L70.8184 93.575C76.8624 87.775 88.1579 81.675 102.723 76.575Z" fill="url(#paint1_linear_299_55)"/>
<path d="M68.6379 131.075C82.4104 124.975 92.3187 104.275 86.7701 101.875C85.9774 101.475 84.5903 101.875 83.6985 101.875C63.3865 108.875 49.6139 117.075 43.5699 125.675C39.2102 131.775 33.6615 140.575 30.0945 147.075L23.2578 160.775C28.0138 149.975 43.6689 139.675 68.6379 131.075Z" fill="url(#paint2_linear_299_55)"/>
<path d="M52.6846 200.575C67.2499 193.175 70.3215 167.275 62.2957 164.375C60.9086 163.975 59.2242 164.375 58.4315 164.375C29.0038 174.175 11.7633 186.575 8.3945 199.375C6.71009 206.075 4.53026 214.575 3.14309 221.575L0.666016 239.575C1.85501 225.275 19.9872 211.575 52.6846 200.575Z" fill="url(#paint3_linear_299_55)"/>
<path d="M57.441 277.976C71.709 270.576 67.0521 242.976 56.9456 239.676C55.5585 239.376 53.3786 239.376 52.2887 239.676C17.4115 252.076 -1.31525 266.776 0.0719132 282.376C1.45908 292.676 3.6389 305.876 5.62056 316.176L7.30498 322.876C3.04441 306.676 21.1766 290.776 57.441 277.976Z" fill="url(#paint4_linear_299_55)"/>
<path d="M82.4089 351.475C94.497 344.775 82.9043 319.475 72.5006 316.075C71.1134 315.775 68.9336 315.775 67.8437 316.075C30.6875 328.875 13.9425 345.275 21.671 361.475C26.0306 369.675 31.5793 380.375 36.8307 388.275L42.0821 396.475C30.6875 380.375 45.8472 363.975 82.4089 351.475Z" fill="url(#paint5_linear_299_55)"/>
<path d="M123.528 414.876C131.752 409.476 115.007 387.776 105.396 385.276C104.009 384.976 102.325 384.976 101.036 385.276C66.1592 397.176 53.1793 413.676 68.339 428.876C74.8785 434.676 82.9042 442.576 90.0382 448.176L100.739 456.076C80.7244 441.676 90.6327 426.076 123.528 414.876Z" fill="url(#paint6_linear_299_55)"/>
<path d="M177.431 463.576L177.927 463.276C177.431 458.676 157.615 441.076 149.391 441.876C122.737 450.976 114.811 464.076 132.943 475.176L133.438 475.476C132.646 475.176 132.051 475.176 128.781 473.376C145.229 481.576 146.121 481.976 157.317 486.476C171.09 491.376 171.585 491.376 180.107 493.876C182.584 494.776 186.646 495.476 189.222 496.376C180.701 494.276 173.27 491.776 167.523 488.976C152.462 480.076 157.615 470.076 177.431 463.576Z" fill="url(#paint7_linear_299_55)"/>
<path d="M251.643 498.975C250.851 498.575 250.851 498.575 248.076 495.675C244.509 495.675 241.24 495.375 239.555 494.475C238.168 493.575 238.762 492.875 240.348 491.975C208.74 480.975 208.74 480.975 208.443 480.975C197.148 484.675 194.67 490.075 203.192 494.975C206.759 496.575 211.416 498.275 216.964 499.575H217.46C216.072 499.975 213.893 500.475 209.236 499.975H208.74C205.669 499.575 204.876 499.575 200.516 498.775C204.083 499.175 208.74 499.975 212.109 500.875C220.333 502.075 220.333 502.075 224.197 502.075C224.197 502.075 224.693 502.075 224.99 502.075C224.99 502.075 224.99 502.075 225.485 502.075C229.052 502.075 232.025 501.675 235.394 501.675C241.438 502.075 247.482 502.075 253.526 502.075C254.318 502.075 254.913 502.075 254.913 501.675C253.823 500.575 253.823 500.575 251.643 498.975Z" fill="url(#paint8_linear_299_55)"/>
<path d="M446.243 265.575C446.243 269.775 445.451 280.475 436.632 284.875C414.933 291.875 387.983 297.675 355.88 301.675C296.232 309.575 230.738 310.275 172.477 304.975C161.776 305.275 156.029 311.075 154.84 322.675C154.84 323.075 154.84 323.575 154.84 323.575C155.633 335.475 161.677 342.175 172.477 344.275C229.945 349.175 294.25 348.875 352.808 341.475C372.625 341.075 371.733 361.275 362.716 370.375C358.06 375.275 354.195 376.175 350.133 377.075C258.085 388.675 151.967 382.875 82.1131 365.175C74.6818 364.275 71.7093 369.375 73.5919 378.275C73.5919 378.675 73.5919 378.675 74.0873 379.175C77.6543 388.975 83.6984 395.275 91.4269 398.475C138.987 410.875 204.084 417.075 269.281 415.275C288.206 416.475 287.413 431.775 279.189 438.375C274.83 441.675 271.461 442.075 267.597 442.575C241.736 443.475 215.38 442.575 190.708 440.475C178.62 440.475 179.413 446.575 180.007 451.175V451.475C183.079 458.175 189.123 462.175 197.347 463.375C238.863 466.675 284.54 465.875 326.452 460.875C332.001 460.575 332.496 461.275 334.18 463.675C332.793 471.875 323.777 476.475 316.544 478.575C255.211 486.475 187.934 483.175 142.257 471.575C141.464 471.575 140.572 471.575 139.779 471.575C140.572 473.675 143.346 476.175 145.328 477.675L145.823 478.075C153.552 482.675 157.416 484.175 162.569 486.275C193.284 494.175 234.305 496.975 273.542 494.875C275.226 494.875 277.406 495.175 279.09 496.475C276.019 499.775 275.523 500.175 267.498 501.375C252.338 502.275 238.664 502.275 225.684 501.375C224.892 501.375 224 501.375 223.207 501.375C223.703 501.375 224.595 501.775 224.892 501.775C217.163 500.875 216.668 500.875 212.804 500.575C209.237 500.275 204.58 499.375 201.211 498.475C199.527 498.175 196.851 497.575 195.167 497.275C192.987 496.875 191.6 496.375 190.807 496.375C188.33 495.475 184.268 494.775 181.692 493.875C168.811 490.175 167.424 489.675 158.902 486.475C142.95 479.775 141.266 479.075 130.367 473.375C128.682 472.475 126.007 470.875 124.322 470.075C123.827 470.075 123.827 469.675 123.53 469.675C117.981 466.375 117.981 466.375 104.605 457.775C103.812 457.375 103.218 456.875 102.425 456.175L91.7241 448.275C85.1846 442.475 76.5644 435.175 70.0249 428.975C73.0965 431.775 77.4562 435.075 82.6085 438.075C94.6966 444.775 111.144 450.475 130.961 454.575C132.645 454.575 135.321 454.175 136.51 452.975C136.51 450.475 135.717 447.575 134.825 445.575L134.33 445.275C129.078 437.375 123.034 432.475 115.405 430.075C92.9131 425.175 74.4837 419.075 61.0084 411.175C52.4872 406.575 46.7404 401.675 43.3716 396.775L38.1202 388.575C32.5715 380.675 26.5275 369.975 22.1678 361.775C24.6449 366.675 29.599 371.575 36.4358 376.675C37.2284 376.675 38.1202 376.675 38.9128 376.275C39.4083 372.075 39.4082 371.675 37.2284 364.675C37.2284 364.275 37.2284 364.275 36.733 363.775C33.166 354.275 29.8963 348.575 25.4375 343.075C14.7366 335.175 8.98975 329.075 7.30534 322.375L5.62091 315.675C3.44108 305.875 1.26126 292.175 0.0722656 281.875C0.86493 291.375 9.18791 300.775 25.1403 309.375C39.7055 317.575 60.0175 324.575 83.8966 330.375C92.4177 331.275 96.7774 326.175 97.6691 314.275C97.6691 313.875 97.6691 313.375 97.6691 313.375C96.8764 300.975 92.4177 294.075 83.8966 290.775C61.1074 285.375 40.6963 278.375 26.1311 270.075C7.99892 260.275 -0.224984 249.375 1.0631 239.275L3.54017 221.275C4.92734 214.575 7.10717 205.675 8.79158 199.075C6.3145 208.175 10.9714 217.675 23.3568 226.575C27.221 226.875 31.0853 226.575 35.9403 212.875C35.9403 212.575 35.9403 212.575 36.4358 211.975C40.7954 197.075 38.1202 193.075 35.9403 189.775C22.1678 179.975 18.3036 169.975 23.0595 160.175L29.8963 146.475C34.2559 139.775 39.5073 131.275 43.6688 125.075C35.4449 136.675 40.1018 148.875 61.0084 160.475C72.6011 167.175 88.2562 172.375 106.388 176.975C113.82 177.875 119.864 172.775 125.313 162.575C125.809 162.275 125.809 162.275 125.809 161.675C130.168 150.075 127.989 147.275 125.016 143.675C106.884 138.775 93.4086 133.875 83.203 128.475C62.5937 117.475 59.5221 104.675 71.1148 93.4754L80.7259 84.8754C87.5627 79.0754 96.6783 71.7754 103.515 66.8754C90.6342 75.9754 88.9498 86.1754 101.335 95.7754C105.199 96.0754 108.172 95.3754 120.26 86.2754C120.755 86.2754 120.755 85.9754 121.053 85.9754C128.781 79.2754 130.168 77.7754 132.645 74.0754C120.557 63.0754 125.214 52.6754 143.346 44.4754L153.255 40.2754C165.838 34.8754 165.838 34.8754 171.882 32.8754C174.062 31.9754 176.539 31.2754 178.719 30.7754C160.091 37.7754 155.335 47.2754 170.495 55.4754C174.855 57.9754 180.404 60.0754 186.943 61.5754C191.303 61.1754 193.78 60.3754 204.283 52.9754L204.778 52.5754C211.317 47.6754 213.002 45.8754 214.686 44.3754C211.119 42.7754 208.147 41.5754 205.571 40.1754C197.347 35.5754 200.022 30.3754 210.822 26.4754C215.182 26.0754 224.595 24.8754 242.727 28.9754C241.34 30.1754 241.042 30.5754 242.231 31.4754C243.619 32.3754 246.591 32.6754 249.068 32.3754C255.905 40.5754 256.499 42.6754 256.499 46.7754C246.888 47.9754 238.863 47.6754 230.936 46.7754C227.864 47.9754 225.387 49.2754 219.343 55.3754L218.848 55.7754C215.281 60.3754 215.281 60.6754 214.488 64.3754C214.984 65.2754 215.875 65.9754 216.668 66.4754C236.485 68.5754 259.274 68.5754 280.477 66.4754C292.566 68.9754 300.79 85.0754 296.925 89.5754C296.133 90.4754 294.745 90.4754 293.854 90.7754C246.789 95.6754 193.78 92.3754 159.992 82.8754C155.633 83.2754 150.381 84.0754 141.068 93.5754C141.068 93.5754 140.572 93.8754 140.572 94.4754C134.033 101.875 134.033 103.575 134.033 108.475C134.825 108.875 135.717 109.675 136.212 110.575C171.684 120.375 223.901 125.475 274.731 122.975C294.25 127.175 292.367 148.875 284.639 153.775C283.252 154.675 281.072 154.975 279.388 155.375C248.275 156.575 216.767 155.775 187.339 153.275C179.115 153.675 173.567 158.675 169.703 168.875C169.703 169.175 169.703 169.175 169.207 169.775C167.027 180.775 170.594 187.075 179.115 189.075C229.648 193.975 287.116 193.675 338.837 186.575C341.909 186.175 344.881 185.675 347.953 185.375C366.085 185.075 373.021 207.575 364.698 217.375C362.221 220.175 359.149 221.075 356.97 221.975C353.898 222.375 350.43 222.875 347.359 223.175C258.382 234.775 155.236 229.275 88.4544 211.275C80.7259 210.375 74.9791 215.475 71.1148 226.175C71.1148 226.575 71.1148 226.575 70.6194 227.075C68.4396 238.675 71.1148 245.975 78.8433 249.275C149.688 268.175 258.877 273.975 353.403 261.675C384.515 257.475 410.871 251.875 431.976 245.175C444.658 246.575 446.243 259.775 446.243 265.575Z" fill="url(#paint9_linear_299_55)"/>
<path d="M580.907 262.04L628.455 265.098C626.202 287.112 618.495 304.111 605.452 315.852C592.29 327.593 576.164 333.463 557.073 333.463C534.07 333.463 515.454 325.391 501.225 309.248C486.996 293.104 480 270.724 480 242.228C480 213.977 486.759 191.229 500.158 173.863C513.557 156.496 532.291 147.936 556.362 147.936C578.773 147.936 596.084 154.54 608.179 167.748C620.274 180.956 627.032 198.445 628.574 220.214L579.958 223.027C579.958 211.042 577.824 202.236 573.437 196.855C569.049 191.474 563.951 188.783 558.141 188.783C541.777 188.783 533.477 206.272 533.477 241.25C533.477 260.817 535.611 274.148 539.88 281.241C544.149 288.335 550.078 291.759 557.785 291.759C571.54 291.759 579.247 281.853 580.907 262.04Z" fill="url(#paint10_linear_299_55)"/>
<path d="M763.873 196.609L714.309 341.9C710.515 352.907 705.06 361.468 697.946 367.706C690.831 373.943 679.804 377 664.982 377C661.425 377 653.125 376.633 640.081 375.777V338.476C646.603 339.577 652.532 340.066 657.986 340.066C672.215 340.066 679.33 336.764 679.33 330.037C679.33 327.836 678.618 324.779 677.195 320.987L631.781 196.609H684.784L705.653 268.154L727.471 196.609H763.873Z" fill="url(#paint11_linear_299_55)"/>
<path d="M804.435 330.65H776.451V150.748H825.304V212.631C832.063 200.157 842.853 193.92 857.793 193.92C868.228 193.92 877.121 196.855 884.354 202.603C891.587 208.351 897.041 216.667 900.599 227.429C904.156 238.192 905.935 249.566 905.935 261.429C905.935 283.075 901.429 300.442 892.298 313.772C883.168 326.981 869.651 333.585 851.509 333.585C833.723 333.585 820.087 326.491 810.838 312.305C808.229 317.564 806.095 323.679 804.435 330.65ZM825.304 280.752C825.304 293.96 830.165 300.564 839.77 300.564C844.987 300.564 849.019 298.118 851.746 293.349C854.473 288.579 855.896 278.673 855.896 263.752C855.896 247.486 854.355 237.213 851.153 233.055C847.952 228.897 844.157 226.818 839.414 226.818C835.738 226.818 832.537 228.286 829.573 231.343C826.727 234.278 825.185 238.681 825.185 244.429V280.752H825.304Z" fill="url(#paint12_linear_299_55)"/>
<path d="M1009.32 282.585L1055.57 285.887C1052.84 299.096 1045.84 310.347 1034.58 319.642C1023.31 328.937 1008.14 333.584 989.047 333.584C967.703 333.584 950.747 327.102 938.06 314.016C925.372 300.93 919.088 284.787 919.088 265.464C919.088 245.407 925.372 228.529 937.823 214.71C950.392 200.89 966.992 194.041 987.861 194.041C1008.14 194.041 1024.38 200.523 1036.95 213.609C1049.4 226.573 1055.69 244.306 1055.69 266.809C1055.69 268.643 1055.69 271.212 1055.57 274.514H970.905C971.024 282.952 972.446 289.19 975.174 293.348C977.782 297.384 982.881 299.463 990.351 299.463C1001.02 299.096 1007.43 293.592 1009.32 282.585ZM1005.88 247.73C1005.77 238.68 1004.11 232.565 1000.79 229.508C997.466 226.328 993.316 224.86 988.335 224.86C976.597 224.86 970.786 232.565 970.786 247.853H1005.88V247.73Z" fill="url(#paint13_linear_299_55)"/>
<path d="M1122.55 330.649H1075.12V196.609H1116.39V224.249C1121.13 204.07 1132.04 194.041 1149.35 194.041C1151.13 194.041 1153.5 194.163 1156.58 194.53V241.371C1153.14 240.515 1149.94 240.025 1147.21 240.025C1130.85 240.025 1122.55 249.687 1122.55 269.133V330.649Z" fill="url(#paint14_linear_299_55)"/>
<path d="M1233.91 333.464C1212.92 333.464 1196.32 326.493 1183.99 312.673C1171.65 298.854 1165.49 282.588 1165.49 263.998C1165.49 243.941 1171.89 227.309 1184.82 213.856C1197.74 200.525 1214.46 193.799 1235.09 193.799C1255.84 193.799 1272.56 200.403 1285.25 213.611C1297.94 226.82 1304.22 243.33 1304.22 263.142C1304.22 283.199 1297.82 299.954 1285.01 313.285C1272.09 326.738 1255.13 333.464 1233.91 333.464ZM1234.62 301.544C1242.32 301.544 1247.07 297.264 1248.73 288.825C1250.39 280.386 1251.22 271.459 1251.22 262.286C1251.22 249.689 1250.03 240.639 1247.66 235.136C1245.29 229.632 1240.9 226.82 1234.74 226.82C1229.04 226.82 1224.78 229.632 1222.17 235.38C1219.56 241.128 1218.14 250.545 1218.14 263.631C1218.14 279.041 1219.56 289.192 1222.29 294.206C1225.01 299.098 1229.16 301.544 1234.62 301.544Z" fill="url(#paint15_linear_299_55)"/>
<path d="M1372.27 150.748V330.772H1323.41V150.748H1372.27Z" fill="url(#paint16_linear_299_55)"/>
<path d="M1447.21 150.748V330.772H1398.36V150.748H1447.21Z" fill="url(#paint17_linear_299_55)"/>
<path d="M1522.86 145V186.704H1473.3V145H1522.86ZM1522.86 196.61V330.772H1473.3V196.61H1522.86Z" fill="url(#paint18_linear_299_55)"/>
<path d="M1632.54 282.585L1678.79 285.887C1676.06 299.096 1669.06 310.347 1657.8 319.642C1646.54 328.937 1631.36 333.584 1612.27 333.584C1590.92 333.584 1573.97 327.102 1561.28 314.016C1548.59 300.93 1542.31 284.787 1542.31 265.464C1542.31 245.407 1548.59 228.529 1561.04 214.71C1573.61 200.89 1590.21 194.041 1611.08 194.041C1631.36 194.041 1647.6 200.523 1660.17 213.609C1672.62 226.573 1678.91 244.306 1678.91 266.809C1678.91 268.643 1678.91 271.212 1678.79 274.514H1594.13C1594.24 282.952 1595.67 289.19 1598.39 293.348C1601 297.384 1606.1 299.463 1613.57 299.463C1624.24 299.096 1630.65 293.592 1632.54 282.585ZM1629.11 247.73C1628.99 238.68 1627.33 232.565 1624.01 229.508C1620.69 226.328 1616.54 224.86 1611.56 224.86C1599.82 224.86 1594.01 232.565 1594.01 247.853H1629.11V247.73Z" fill="url(#paint19_linear_299_55)"/>
<path d="M779.611 412.003L779.642 370.679L800.621 370.695C804.981 370.699 808.158 371.801 810.155 374.002C812.151 376.204 813.149 378.717 813.146 381.543C813.145 383.601 812.558 385.468 811.386 387.142C810.235 388.796 808.508 389.935 806.207 390.559C811.554 391.855 814.226 395.066 814.222 400.192C814.22 403.26 813.27 406.004 811.371 408.424C809.492 410.824 805.465 412.022 799.289 412.017L779.611 412.003ZM791.316 386.521L797.189 386.526C798.662 386.527 799.702 386.154 800.308 385.408C800.914 384.662 801.217 383.865 801.218 383.017C801.219 380.716 799.807 379.565 796.982 379.563L791.321 379.558L791.316 386.521ZM791.304 402.808L797.479 402.813C799.013 402.814 800.134 402.442 800.841 401.695C801.568 400.929 801.932 400.072 801.932 399.123C801.933 398.174 801.58 397.306 800.875 396.519C800.189 395.711 798.918 395.306 797.061 395.305L791.309 395.301L791.304 402.808ZM830.592 412.041L819.027 412.032L819.05 381.244L829.101 381.252L829.096 387.609C830.25 382.988 832.926 380.68 837.124 380.683C837.547 380.683 838.133 380.724 838.879 380.805L838.871 391.552C838.024 391.35 837.267 391.248 836.601 391.248C832.605 391.245 830.605 393.473 830.602 397.934L830.592 412.041ZM854.812 369.434L854.805 379.001L842.725 378.992L842.733 369.425L854.812 369.434ZM854.803 381.271L854.78 412.059L842.701 412.05L842.724 381.262L854.803 381.271ZM891.229 412.087L879.907 412.078L879.91 407.991C878.233 411.138 875.467 412.711 871.612 412.708C868.06 412.705 865.175 411.32 862.957 408.554C860.759 405.767 859.662 401.73 859.666 396.442C859.669 391.497 860.782 387.573 863.004 384.668C865.227 381.763 868.164 380.312 871.817 380.315C874.865 380.318 877.377 381.48 879.353 383.802L879.362 370.754L891.26 370.763L891.229 412.087ZM879.347 392.279C879.349 389.514 878.209 388.131 875.929 388.129C874.334 388.128 873.284 389.005 872.778 390.76C872.293 392.516 872.049 394.665 872.047 397.208C872.043 402.193 873.313 404.686 875.856 404.688C876.825 404.689 877.642 404.296 878.309 403.51C878.996 402.723 879.34 401.522 879.341 399.908L879.347 392.279ZM929.735 374.334L929.426 382.599L928.851 382.568C927.761 382.507 926.984 382.476 926.52 382.476C924.643 382.474 923.512 382.847 923.128 383.593C925.428 385.492 926.576 387.783 926.574 390.468C926.572 393.616 925.319 395.987 922.815 397.579C920.332 399.152 916.951 399.936 912.672 399.933C912.571 399.933 912.046 399.912 911.098 399.871C910.21 399.83 909.746 399.81 909.705 399.81C907.748 399.808 906.768 400.312 906.768 401.321C906.767 402.209 907.634 402.684 909.37 402.746L919.269 403.177C922.882 403.341 925.525 404.352 927.199 406.21C928.892 408.068 929.739 410.239 929.737 412.721C929.735 415.668 928.471 418.068 925.947 419.923C923.443 421.798 918.558 422.733 911.293 422.728C900.092 422.719 894.493 420.142 894.497 414.995C894.499 412.19 895.984 410.233 898.951 409.126C897.035 407.772 896.077 406.167 896.079 404.31C896.081 401.283 898.051 399.004 901.987 397.473C898.699 396.037 897.055 393.655 897.058 390.324C897.06 387.277 898.394 384.906 901.059 383.213C903.725 381.52 907.378 380.675 912.02 380.678C914.139 380.68 916.067 380.893 917.802 381.319C918.512 376.496 921.067 374.086 925.466 374.089C926.476 374.09 927.898 374.172 929.735 374.334ZM912.04 394.211C914.382 394.212 915.553 392.972 915.555 390.49C915.557 387.947 914.357 386.674 911.955 386.673C909.574 386.671 908.382 387.962 908.38 390.545C908.378 392.987 909.598 394.209 912.04 394.211ZM908.94 411.706C908.496 411.686 908.052 411.675 907.608 411.675C905.529 411.674 904.489 412.319 904.488 413.61C904.487 414.801 905.274 415.569 906.848 415.913C908.442 416.257 910.561 416.43 913.205 416.432C915.707 416.434 917.312 416.223 918.019 415.8C918.745 415.377 919.109 414.792 919.11 414.045C919.11 413.52 918.949 413.076 918.626 412.713C918.304 412.369 917.537 412.167 916.326 412.106L908.94 411.706ZM945.026 369.502L945.019 379.069L932.94 379.059L932.947 369.493L945.026 369.502ZM945.018 381.339L944.995 412.127L932.916 412.118L932.939 381.33L945.018 381.339ZM981.444 412.155L969.365 412.145L969.379 392.77C969.381 391.176 969.129 390.157 968.625 389.712C968.141 389.268 967.525 389.045 966.779 389.045C964.579 389.043 963.478 390.576 963.475 393.644L963.462 412.141L951.383 412.132L951.405 381.344L962.607 381.352L962.603 385.712C964.261 382.383 967.219 380.72 971.477 380.723C973.717 380.725 975.604 381.16 977.137 382.029C978.691 382.878 979.8 383.989 980.465 385.362C981.13 386.714 981.461 389.076 981.459 392.447L981.444 412.155ZM1019.95 374.402L1019.64 382.667L1019.07 382.636C1017.98 382.575 1017.2 382.544 1016.73 382.543C1014.86 382.542 1013.73 382.914 1013.34 383.661C1015.64 385.56 1016.79 387.851 1016.79 390.536C1016.79 393.684 1015.53 396.055 1013.03 397.647C1010.55 399.219 1007.17 400.004 1002.89 400.001C1002.79 400.001 1002.26 399.98 1001.31 399.939C1000.42 399.898 999.96 399.877 999.92 399.877C997.962 399.876 996.983 400.38 996.982 401.389C996.982 402.277 997.849 402.752 999.585 402.814L1009.48 403.245C1013.1 403.409 1015.74 404.42 1017.41 406.278C1019.11 408.136 1019.95 410.307 1019.95 412.789C1019.95 415.736 1018.69 418.136 1016.16 419.991C1013.66 421.866 1008.77 422.801 1001.51 422.796C990.306 422.787 984.708 420.21 984.712 415.063C984.714 412.258 986.198 410.301 989.166 409.194C987.25 407.84 986.292 406.235 986.294 404.378C986.296 401.351 988.265 399.071 992.202 397.541C988.913 396.105 987.27 393.722 987.273 390.392C987.275 387.345 988.609 384.974 991.274 383.281C993.939 381.588 997.593 380.743 1002.23 380.746C1004.35 380.748 1006.28 380.961 1008.02 381.386C1008.73 376.563 1011.28 374.154 1015.68 374.157C1016.69 374.158 1018.11 374.239 1019.95 374.402ZM1002.26 394.279C1004.6 394.28 1005.77 393.04 1005.77 390.558C1005.77 388.015 1004.57 386.742 1002.17 386.74C999.788 386.739 998.597 388.029 998.595 390.613C998.593 393.055 999.813 394.277 1002.26 394.279ZM999.154 411.774C998.71 411.754 998.266 411.743 997.822 411.743C995.744 411.741 994.704 412.386 994.703 413.678C994.702 414.869 995.488 415.636 997.062 415.981C998.657 416.325 1000.78 416.498 1003.42 416.5C1005.92 416.502 1007.53 416.291 1008.23 415.868C1008.96 415.445 1009.32 414.86 1009.32 414.113C1009.32 413.588 1009.16 413.144 1008.84 412.781C1008.52 412.437 1007.75 412.235 1006.54 412.173L999.154 411.774ZM1056.06 380.787L1056.04 412.211L1044.02 412.202L1044.04 380.778L1035.48 380.771L1035.48 370.872L1064.64 370.894L1064.63 380.793L1056.06 380.787ZM1077.44 412.227L1065.88 412.218L1065.9 381.43L1075.95 381.438L1075.95 387.795C1077.1 383.174 1079.78 380.865 1083.97 380.868C1084.4 380.869 1084.98 380.909 1085.73 380.991L1085.72 391.738C1084.87 391.535 1084.12 391.434 1083.45 391.433C1079.45 391.43 1077.45 393.659 1077.45 398.119L1077.44 412.227ZM1119.51 381.47L1119.49 412.258L1108.32 412.25L1108.32 407.194C1106.69 410.987 1103.5 412.882 1098.75 412.879C1095.83 412.876 1093.56 412.067 1091.94 410.452C1090.35 408.816 1089.55 406.484 1089.56 403.457L1089.57 381.448L1101.65 381.457L1101.64 400.832C1101.64 402.043 1101.8 402.901 1102.12 403.405C1102.46 403.89 1103.12 404.133 1104.09 404.133C1105.12 404.134 1105.95 403.772 1106.6 403.046C1107.25 402.299 1107.57 401.26 1107.57 399.928L1107.59 381.461L1119.51 381.47ZM1123.16 403.542L1132.7 402.248C1133.24 404.468 1135.4 405.58 1139.17 405.583C1142.3 405.585 1143.87 404.981 1143.87 403.77C1143.87 403.245 1143.57 402.841 1142.96 402.558C1142.35 402.255 1140.92 401.951 1138.66 401.647C1132.41 400.774 1128.5 399.419 1126.95 397.581C1125.4 395.723 1124.62 393.664 1124.62 391.404C1124.62 388.255 1125.94 385.713 1128.56 383.778C1131.19 381.822 1134.63 380.846 1138.89 380.849C1146.36 380.855 1151.12 383.553 1153.17 388.943L1144.03 390.662C1143.18 388.845 1141.4 387.935 1138.67 387.933C1137.38 387.932 1136.41 388.113 1135.77 388.476C1135.14 388.818 1134.83 389.161 1134.83 389.504C1134.83 390.513 1135.79 391.13 1137.73 391.353C1142.78 391.922 1146.2 392.5 1147.99 393.086C1149.79 393.673 1151.32 394.744 1152.59 396.299C1153.86 397.854 1154.5 399.731 1154.49 401.931C1154.49 405.302 1153.08 407.975 1150.25 409.95C1147.44 411.926 1143.57 412.912 1138.62 412.908C1130.29 412.902 1125.13 409.78 1123.16 403.542ZM1178.09 381.514L1178.09 389.355L1171.94 389.351L1171.93 400.703C1171.93 402.257 1172.22 403.186 1172.81 403.489C1173.39 403.772 1174 403.914 1174.63 403.914C1175.59 403.915 1176.74 403.744 1178.08 403.402L1178.07 412C1175.69 412.462 1173.35 412.692 1171.05 412.691C1167.33 412.688 1164.6 411.889 1162.84 410.293C1161.11 408.697 1160.24 406.154 1160.25 402.662L1160.28 399.06L1160.29 389.342L1155.68 389.338L1155.69 381.498L1160.29 381.501L1160.48 371.481L1171.95 371.308L1171.95 381.51L1178.09 381.514ZM1193.25 401.325L1193.24 411.466L1186.6 422.935L1181.85 422.931L1186.61 412.309L1181.73 412.305L1181.74 401.316L1193.25 401.325ZM1246.22 402.485L1246.22 412.354L1215.12 412.33L1215.16 371.007L1246.25 371.03L1246.24 380.567L1227.59 380.553L1227.59 386.547L1242.66 386.558L1242.66 395.731L1227.58 395.72L1227.57 402.471L1246.22 402.485ZM1262.78 371.043L1262.74 412.366L1250.85 412.357L1250.88 371.034L1262.78 371.043ZM1289.48 401.336L1300.75 402.102C1300.08 405.129 1298.37 407.711 1295.62 409.848C1292.9 411.965 1289.2 413.022 1284.54 413.018C1279.35 413.014 1275.22 411.518 1272.13 408.528C1269.05 405.519 1267.51 401.794 1267.51 397.354C1267.51 392.753 1269.04 388.869 1272.09 385.702C1275.14 382.536 1279.21 380.955 1284.29 380.958C1289.22 380.962 1293.19 382.459 1296.22 385.448C1299.26 388.437 1300.78 392.505 1300.78 397.652C1300.78 398.075 1300.77 398.661 1300.75 399.407L1280.13 399.392C1280.17 401.329 1280.51 402.773 1281.16 403.722C1281.8 404.651 1283.03 405.116 1284.85 405.117C1287.47 405.119 1289.02 403.859 1289.48 401.336ZM1288.7 393.344C1288.68 391.265 1288.26 389.872 1287.43 389.165C1286.63 388.438 1285.62 388.074 1284.41 388.073C1281.54 388.071 1280.11 389.825 1280.11 393.337L1288.7 393.344ZM1333 381.631L1321.69 412.41L1312.67 412.404L1301.18 381.607L1313.6 381.616L1317.98 394.698C1318.34 395.768 1318.66 396.827 1318.94 397.877C1319.04 397.514 1319.2 397.05 1319.4 396.485C1319.44 396.404 1319.57 396.021 1319.79 395.335L1324.34 381.624L1333 381.631ZM1366.04 412.444L1354.53 412.435C1354.25 411.123 1354.11 409.69 1354.11 408.136C1351.93 411.424 1348.63 413.066 1344.21 413.063C1340.58 413.06 1337.85 412.13 1336.04 410.272C1334.24 408.414 1333.35 406.284 1333.35 403.882C1333.35 400.633 1334.83 398.01 1337.77 396.014C1340.74 393.998 1345.99 392.791 1353.52 392.393L1353.52 391.697C1353.52 390.345 1353.21 389.447 1352.58 389.002C1351.98 388.558 1351.08 388.335 1349.89 388.334C1347.1 388.332 1345.55 389.451 1345.22 391.691L1334.21 390.653C1335.79 384.216 1341.15 381.001 1350.29 381.008C1352.77 381.01 1355.05 381.264 1357.13 381.77C1359.21 382.256 1360.85 383.024 1362.06 384.075C1363.27 385.125 1364.08 386.236 1364.48 387.407C1364.91 388.577 1365.12 390.828 1365.11 394.158L1365.1 406.449C1365.1 408.79 1365.41 410.788 1366.04 412.444ZM1353.52 398.024C1348.37 398.565 1345.79 400.208 1345.79 402.953C1345.79 404.81 1346.81 405.739 1348.85 405.74C1350.14 405.741 1351.24 405.359 1352.15 404.593C1353.06 403.826 1353.51 402.131 1353.51 399.508L1353.52 398.024ZM1390.43 381.674L1390.42 389.515L1384.28 389.51L1384.27 400.863C1384.27 402.417 1384.56 403.345 1385.15 403.649C1385.73 403.932 1386.34 404.073 1386.96 404.074C1387.93 404.075 1389.08 403.904 1390.41 403.562L1390.41 412.159C1388.03 412.622 1385.68 412.852 1383.38 412.85C1379.67 412.848 1376.94 412.048 1375.18 410.453C1373.45 408.857 1372.58 406.313 1372.58 402.822L1372.62 399.219L1372.62 389.502L1368.02 389.498L1368.03 381.657L1372.63 381.661L1372.82 371.64L1384.29 371.467L1384.29 381.669L1390.43 381.674ZM1406.58 369.849L1406.57 379.416L1394.49 379.407L1394.5 369.84L1406.58 369.849ZM1406.57 381.686L1406.54 412.474L1394.46 412.465L1394.49 381.677L1406.57 381.686ZM1442.99 412.502L1430.91 412.493L1430.93 393.118C1430.93 391.523 1430.68 390.504 1430.17 390.059C1429.69 389.615 1429.07 389.393 1428.33 389.392C1426.13 389.39 1425.03 390.923 1425.02 393.991L1425.01 412.488L1412.93 412.479L1412.95 381.691L1424.16 381.699L1424.15 386.059C1425.81 382.73 1428.77 381.067 1433.03 381.07C1435.27 381.072 1437.15 381.507 1438.69 382.376C1440.24 383.225 1441.35 384.336 1442.01 385.709C1442.68 387.062 1443.01 389.423 1443.01 392.794L1442.99 412.502ZM1481.5 374.749L1481.19 383.014L1480.61 382.983C1479.52 382.922 1478.75 382.891 1478.28 382.891C1476.41 382.889 1475.28 383.262 1474.89 384.008C1477.19 385.907 1478.34 388.199 1478.34 390.883C1478.34 394.031 1477.08 396.402 1474.58 397.994C1472.1 399.567 1468.71 400.351 1464.44 400.348C1464.33 400.348 1463.81 400.327 1462.86 400.286C1461.97 400.245 1461.51 400.225 1461.47 400.225C1459.51 400.223 1458.53 400.727 1458.53 401.736C1458.53 402.624 1459.4 403.099 1461.13 403.161L1471.03 403.592C1474.65 403.756 1477.29 404.767 1478.96 406.625C1480.66 408.483 1481.5 410.654 1481.5 413.136C1481.5 416.083 1480.23 418.484 1477.71 420.338C1475.21 422.213 1470.32 423.148 1463.06 423.143C1451.86 423.134 1446.26 420.557 1446.26 415.41C1446.26 412.605 1447.75 410.649 1450.71 409.541C1448.8 408.187 1447.84 406.582 1447.84 404.725C1447.84 401.698 1449.81 399.419 1453.75 397.888C1450.46 396.452 1448.82 394.07 1448.82 390.739C1448.82 387.692 1450.16 385.322 1452.82 383.628C1455.49 381.935 1459.14 381.09 1463.78 381.094C1465.9 381.095 1467.83 381.308 1469.57 381.734C1470.28 376.911 1472.83 374.501 1477.23 374.504C1478.24 374.505 1479.66 374.587 1481.5 374.749ZM1463.8 394.626C1466.15 394.628 1467.32 393.387 1467.32 390.905C1467.32 388.362 1466.12 387.089 1463.72 387.088C1461.34 387.086 1460.15 388.377 1460.14 390.96C1460.14 393.402 1461.36 394.624 1463.8 394.626ZM1460.7 412.121C1460.26 412.101 1459.82 412.091 1459.37 412.09C1457.29 412.089 1456.25 412.734 1456.25 414.025C1456.25 415.216 1457.04 415.984 1458.61 416.328C1460.21 416.672 1462.32 416.845 1464.97 416.847C1467.47 416.849 1469.08 416.639 1469.78 416.215C1470.51 415.792 1470.87 415.207 1470.87 414.46C1470.87 413.935 1470.71 413.491 1470.39 413.128C1470.07 412.784 1469.3 412.582 1468.09 412.521L1460.7 412.121ZM1517.61 381.134L1517.59 412.558L1505.57 412.549L1505.59 381.125L1497.02 381.119L1497.03 371.219L1526.18 371.241L1526.18 381.14L1517.61 381.134ZM1557.97 412.588L1546.47 412.58C1546.19 411.267 1546.05 409.834 1546.05 408.28C1543.86 411.568 1540.56 413.211 1536.14 413.208C1532.51 413.205 1529.79 412.274 1527.97 410.416C1526.18 408.558 1525.28 406.428 1525.28 404.027C1525.28 400.777 1526.76 398.155 1529.71 396.159C1532.68 394.143 1537.92 392.936 1545.45 392.538L1545.45 391.841C1545.45 390.489 1545.14 389.591 1544.52 389.146C1543.91 388.702 1543.01 388.479 1541.82 388.478C1539.04 388.476 1537.48 389.595 1537.16 391.835L1526.14 390.798C1527.72 384.361 1533.08 381.146 1542.22 381.153C1544.7 381.154 1546.98 381.408 1549.06 381.915C1551.14 382.4 1552.79 383.169 1554 384.219C1555.21 385.269 1556.01 386.38 1556.42 387.551C1556.84 388.722 1557.05 390.972 1557.05 394.302L1557.04 406.593C1557.04 408.935 1557.35 410.933 1557.97 412.588ZM1545.45 398.169C1540.3 398.71 1537.73 400.353 1537.73 403.097C1537.72 404.954 1538.74 405.883 1540.78 405.885C1542.07 405.886 1543.17 405.503 1544.08 404.737C1544.99 403.971 1545.45 402.276 1545.45 399.652L1545.45 398.169ZM1575.26 371.278L1575.23 412.601L1563.33 412.592L1563.36 371.269L1575.26 371.278ZM1601.97 401.571L1613.23 402.337C1612.56 405.364 1610.85 407.946 1608.11 410.083C1605.38 412.2 1601.69 413.257 1597.02 413.253C1591.84 413.249 1587.7 411.753 1584.61 408.764C1581.53 405.754 1579.99 402.029 1579.99 397.589C1579.99 392.988 1581.52 389.104 1584.57 385.937C1587.62 382.771 1591.69 381.19 1596.77 381.194C1601.7 381.197 1605.67 382.694 1608.7 385.683C1611.74 388.672 1613.27 392.74 1613.26 397.887C1613.26 398.31 1613.25 398.896 1613.23 399.642L1592.61 399.627C1592.65 401.564 1592.99 403.008 1593.64 403.957C1594.28 404.886 1595.52 405.351 1597.33 405.352C1599.96 405.354 1601.5 404.094 1601.97 401.571ZM1601.19 393.579C1601.17 391.5 1600.74 390.107 1599.92 389.4C1599.11 388.673 1598.1 388.309 1596.89 388.308C1594.02 388.306 1592.59 390.061 1592.59 393.572L1601.19 393.579ZM1648.07 412.656L1635.99 412.647L1636 393.272C1636 391.677 1635.75 390.658 1635.25 390.214C1634.76 389.769 1634.15 389.547 1633.4 389.546C1631.2 389.545 1630.1 391.078 1630.1 394.145L1630.08 412.642L1618 412.633L1618.03 381.845L1629.23 381.854L1629.22 386.213C1630.88 382.884 1633.84 381.221 1638.1 381.225C1640.34 381.226 1642.22 381.662 1643.76 382.531C1645.31 383.379 1646.42 384.49 1647.09 385.863C1647.75 387.216 1648.08 389.578 1648.08 392.948L1648.07 412.656ZM1673.49 381.887L1673.48 389.728L1667.34 389.723L1667.33 401.076C1667.33 402.63 1667.62 403.558 1668.2 403.862C1668.79 404.145 1669.39 404.286 1670.02 404.287C1670.99 404.287 1672.14 404.117 1673.47 403.775L1673.46 412.372C1671.08 412.835 1668.74 413.065 1666.44 413.063C1662.73 413.061 1659.99 412.261 1658.24 410.666C1656.5 409.07 1655.64 406.526 1655.64 403.035L1655.67 399.432L1655.68 389.714L1651.08 389.711L1651.08 381.87L1655.69 381.874L1655.88 371.853L1667.35 371.68L1667.34 381.882L1673.49 381.887Z" fill="#04D8E5"/>
<defs>
<linearGradient id="paint0_linear_299_55" x1="143.114" y1="38.9394" x2="171.49" y2="38.9394" gradientUnits="userSpaceOnUse">
<stop stop-color="#00FFFF"/>
<stop offset="1.06556e-08" stop-color="#CCCCFF"/>
<stop offset="1" stop-color="#808080"/>
</linearGradient>
<linearGradient id="paint1_linear_299_55" x1="70.683" y1="74.7475" x2="127.311" y2="74.7475" gradientUnits="userSpaceOnUse">
<stop stop-color="#00FFFF"/>
<stop offset="1.06556e-08" stop-color="#CCCCFF"/>
<stop offset="1" stop-color="#808080"/>
</linearGradient>
<linearGradient id="paint2_linear_299_55" x1="22.7262" y1="131.143" x2="88.4518" y2="131.143" gradientUnits="userSpaceOnUse">
<stop stop-color="#00FFFF"/>
<stop offset="1.06556e-08" stop-color="#CCCCFF"/>
<stop offset="1" stop-color="#808080"/>
</linearGradient>
<linearGradient id="paint3_linear_299_55" x1="0.343698" y1="201.886" x2="66.5385" y2="201.886" gradientUnits="userSpaceOnUse">
<stop stop-color="#00FFFF"/>
<stop offset="1.06556e-08" stop-color="#CCCCFF"/>
<stop offset="1" stop-color="#808080"/>
</linearGradient>
<linearGradient id="paint4_linear_299_55" x1="-0.0907813" y1="281.072" x2="66.4641" y2="281.072" gradientUnits="userSpaceOnUse">
<stop stop-color="#00FFFF"/>
<stop offset="1.06556e-08" stop-color="#CCCCFF"/>
<stop offset="1" stop-color="#808080"/>
</linearGradient>
<linearGradient id="paint5_linear_299_55" x1="19.7958" y1="356.195" x2="87.6543" y2="356.195" gradientUnits="userSpaceOnUse">
<stop stop-color="#00FFFF"/>
<stop offset="1.06556e-08" stop-color="#CCCCFF"/>
<stop offset="1" stop-color="#808080"/>
</linearGradient>
<linearGradient id="paint6_linear_299_55" x1="62.4285" y1="420.549" x2="125.886" y2="420.549" gradientUnits="userSpaceOnUse">
<stop stop-color="#00FFFF"/>
<stop offset="1.06556e-08" stop-color="#CCCCFF"/>
<stop offset="1" stop-color="#808080"/>
</linearGradient>
<linearGradient id="paint7_linear_299_55" x1="123.396" y1="469.082" x2="189.342" y2="469.082" gradientUnits="userSpaceOnUse">
<stop stop-color="#00FFFF"/>
<stop offset="1.06556e-08" stop-color="#CCCCFF"/>
<stop offset="1" stop-color="#808080"/>
</linearGradient>
<linearGradient id="paint8_linear_299_55" x1="197.999" y1="491.424" x2="254.116" y2="491.424" gradientUnits="userSpaceOnUse">
<stop stop-color="#00FFFF"/>
<stop offset="1.06556e-08" stop-color="#CCCCFF"/>
<stop offset="1" stop-color="#808080"/>
</linearGradient>
<linearGradient id="paint9_linear_299_55" x1="-32.0233" y1="10.3621" x2="590.558" y2="701.686" gradientUnits="userSpaceOnUse">
<stop offset="0.0229048" stop-color="#00FFFF"/>
<stop offset="0.1517" stop-color="#00FDFE"/>
<stop offset="0.2018" stop-color="#01F6F9"/>
<stop offset="0.2383" stop-color="#02EAF1"/>
<stop offset="0.2681" stop-color="#04D9E6"/>
<stop offset="0.2938" stop-color="#07C2D7"/>
<stop offset="0.3167" stop-color="#0AA6C5"/>
<stop offset="0.3376" stop-color="#0E85AF"/>
<stop offset="0.3568" stop-color="#125F95"/>
<stop offset="0.374" stop-color="#17357A"/>
<stop offset="0.3857" stop-color="#1B1464"/>
<stop offset="0.4015" stop-color="#182F76"/>
<stop offset="0.4308" stop-color="#135A92"/>
<stop offset="0.4633" stop-color="#0E82AC"/>
<stop offset="0.4983" stop-color="#0AA4C3"/>
<stop offset="0.5364" stop-color="#07C0D6"/>
<stop offset="0.5789" stop-color="#05D7E5"/>
<stop offset="0.6275" stop-color="#02E9F1"/>
<stop offset="0.6859" stop-color="#01F6F9"/>
<stop offset="0.7643" stop-color="#00FDFE"/>
<stop offset="0.9463" stop-color="#00FFFF"/>
</linearGradient>
<linearGradient id="paint10_linear_299_55" x1="608.285" y1="275.362" x2="1380.79" y2="768.239" gradientUnits="userSpaceOnUse">
<stop offset="0.295" stop-color="#04D8E5"/>
<stop offset="0.3207" stop-color="#10CFDA"/>
<stop offset="0.3672" stop-color="#30B7BD"/>
<stop offset="0.4293" stop-color="#64908E"/>
<stop offset="0.5047" stop-color="#AB5B4C"/>
<stop offset="0.5844" stop-color="#FF1C00"/>
</linearGradient>
<linearGradient id="paint11_linear_299_55" x1="631.79" y1="238.53" x2="1404.29" y2="731.407" gradientUnits="userSpaceOnUse">
<stop offset="0.295" stop-color="#04D8E5"/>
<stop offset="0.3207" stop-color="#10CFDA"/>
<stop offset="0.3672" stop-color="#30B7BD"/>
<stop offset="0.4293" stop-color="#64908E"/>
<stop offset="0.5047" stop-color="#AB5B4C"/>
<stop offset="0.5844" stop-color="#FF1C00"/>
</linearGradient>
<linearGradient id="paint12_linear_299_55" x1="681.935" y1="159.95" x2="1454.44" y2="652.826" gradientUnits="userSpaceOnUse">
<stop offset="0.295" stop-color="#04D8E5"/>
<stop offset="0.3207" stop-color="#10CFDA"/>
<stop offset="0.3672" stop-color="#30B7BD"/>
<stop offset="0.4293" stop-color="#64908E"/>
<stop offset="0.5047" stop-color="#AB5B4C"/>
<stop offset="0.5844" stop-color="#FF1C00"/>
</linearGradient>
<linearGradient id="paint13_linear_299_55" x1="728.142" y1="87.5136" x2="1500.65" y2="580.391" gradientUnits="userSpaceOnUse">
<stop offset="0.295" stop-color="#04D8E5"/>
<stop offset="0.3207" stop-color="#10CFDA"/>
<stop offset="0.3672" stop-color="#30B7BD"/>
<stop offset="0.4293" stop-color="#64908E"/>
<stop offset="0.5047" stop-color="#AB5B4C"/>
<stop offset="0.5844" stop-color="#FF1C00"/>
</linearGradient>
<linearGradient id="paint14_linear_299_55" x1="767.283" y1="26.1494" x2="1539.79" y2="519.027" gradientUnits="userSpaceOnUse">
<stop offset="0.295" stop-color="#04D8E5"/>
<stop offset="0.3207" stop-color="#10CFDA"/>
<stop offset="0.3672" stop-color="#30B7BD"/>
<stop offset="0.4293" stop-color="#64908E"/>
<stop offset="0.5047" stop-color="#AB5B4C"/>
<stop offset="0.5844" stop-color="#FF1C00"/>
</linearGradient>
<linearGradient id="paint15_linear_299_55" x1="802.848" y1="-29.5691" x2="1575.35" y2="463.308" gradientUnits="userSpaceOnUse">
<stop offset="0.295" stop-color="#04D8E5"/>
<stop offset="0.3207" stop-color="#10CFDA"/>
<stop offset="0.3672" stop-color="#30B7BD"/>
<stop offset="0.4293" stop-color="#64908E"/>
<stop offset="0.5047" stop-color="#AB5B4C"/>
<stop offset="0.5844" stop-color="#FF1C00"/>
</linearGradient>
<linearGradient id="paint16_linear_299_55" x1="847.184" y1="-99.0852" x2="1619.69" y2="393.793" gradientUnits="userSpaceOnUse">
<stop offset="0.295" stop-color="#04D8E5"/>
<stop offset="0.3207" stop-color="#10CFDA"/>
<stop offset="0.3672" stop-color="#30B7BD"/>
<stop offset="0.4293" stop-color="#64908E"/>
<stop offset="0.5047" stop-color="#AB5B4C"/>
<stop offset="0.5844" stop-color="#FF1C00"/>
</linearGradient>
<linearGradient id="paint17_linear_299_55" x1="869.841" y1="-134.585" x2="1642.35" y2="358.291" gradientUnits="userSpaceOnUse">
<stop offset="0.295" stop-color="#04D8E5"/>
<stop offset="0.3207" stop-color="#10CFDA"/>
<stop offset="0.3672" stop-color="#30B7BD"/>
<stop offset="0.4293" stop-color="#64908E"/>
<stop offset="0.5047" stop-color="#AB5B4C"/>
<stop offset="0.5844" stop-color="#FF1C00"/>
</linearGradient>
<linearGradient id="paint18_linear_299_55" x1="893.867" y1="-172.24" x2="1666.37" y2="320.637" gradientUnits="userSpaceOnUse">
<stop offset="0.295" stop-color="#04D8E5"/>
<stop offset="0.3207" stop-color="#10CFDA"/>
<stop offset="0.3672" stop-color="#30B7BD"/>
<stop offset="0.4293" stop-color="#64908E"/>
<stop offset="0.5047" stop-color="#AB5B4C"/>
<stop offset="0.5844" stop-color="#FF1C00"/>
</linearGradient>
<linearGradient id="paint19_linear_299_55" x1="916.469" y1="-207.668" x2="1688.97" y2="285.209" gradientUnits="userSpaceOnUse">
<stop offset="0.295" stop-color="#04D8E5"/>
<stop offset="0.3207" stop-color="#10CFDA"/>
<stop offset="0.3672" stop-color="#30B7BD"/>
<stop offset="0.4293" stop-color="#64908E"/>
<stop offset="0.5047" stop-color="#AB5B4C"/>
<stop offset="0.5844" stop-color="#FF1C00"/>
</linearGradient>
</defs>
</svg>
