<?xml version="1.0" encoding="UTF-8"?>
<svg id="Layer_2" xmlns="http://www.w3.org/2000/svg" xmlns:xlink="http://www.w3.org/1999/xlink" viewBox="0 0 2635.08 650">
  <defs>
    <style>
      .cls-1 {
        clip-path: url(#clippath-6);
      }

      .cls-2 {
        clip-path: url(#clippath-7);
      }

      .cls-3 {
        letter-spacing: .05em;
      }

      .cls-4 {
        clip-path: url(#clippath-4);
      }

      .cls-5 {
        clip-path: url(#clippath-9);
      }

      .cls-6, .cls-7 {
        fill: #fff;
      }

      .cls-8 {
        letter-spacing: .02em;
      }

      .cls-9 {
        fill: none;
      }

      .cls-10 {
        font-family: FranklinGothic-Heavy, 'Franklin Gothic Heavy';
        font-size: 400px;
        font-weight: 800;
      }

      .cls-10, .cls-11, .cls-7 {
        isolation: isolate;
      }

      .cls-10, .cls-12 {
        fill: #adc5e4;
      }

      .cls-13 {
        clip-path: url(#clippath-1);
      }

      .cls-14 {
        letter-spacing: .02em;
      }

      .cls-15 {
        clip-path: url(#clippath-5);
      }

      .cls-16 {
        clip-path: url(#clippath-8);
      }

      .cls-17 {
        clip-path: url(#clippath-3);
      }

      .cls-18 {
        letter-spacing: -.03em;
      }

      .cls-7 {
        font-family: Roboto-Medium, Roboto;
        font-size: 92px;
        font-weight: 500;
      }

      .cls-19 {
        letter-spacing: .05em;
      }

      .cls-20 {
        clip-path: url(#clippath-2);
      }

      .cls-21 {
        letter-spacing: .05em;
      }

      .cls-22 {
        fill: url(#linear-gradient);
      }

      .cls-23 {
        clip-path: url(#clippath);
      }

      .cls-24 {
        letter-spacing: .05em;
      }
    </style>
    <clipPath id="clippath">
      <path class="cls-9" d="M220.83,21.79c-4.54,1.82-9.08,3.13-12.36,5.21l12.63-5.31-.27.1M223.35,20.75l-2.26.95c6.71-2.38,13.22-5.08,19.57-7.46-5.89,1.85-11.67,4.02-17.32,6.51M240.67,14.23c2.61-.89,5.83-1.98,9.92-3.39-3.27.98-6.58,2.14-9.92,3.39Z"/>
    </clipPath>
    <linearGradient id="linear-gradient" x1="-138.12" y1="774.5" x2="-138.08" y2="774.5" gradientTransform="translate(5810.96 12533.29) scale(42.12 -16.16)" gradientUnits="userSpaceOnUse">
      <stop offset="0" stop-color="aqua"/>
      <stop offset="0" stop-color="#ccf"/>
      <stop offset="1" stop-color="gray"/>
    </linearGradient>
    <clipPath id="clippath-1">
      <path class="cls-9" d="M102.81,100.23l2.44-2.16c-.87.72-1.68,1.44-2.44,2.16M184.54,44.72c-14.38,4.95-25.22,9.9-33.04,15.9-10.34,8.08-24.72,18.51-34.3,26.85l-11.95,10.61c9.5-7.95,25.38-16.19,45.49-23.12,15.64-6.25,38.34-26.84,36.32-30.75-.76,0-2.02,0-2.52.52h0Z"/>
    </clipPath>
    <clipPath id="clippath-2">
      <path class="cls-9" d="M35.17,189.55l1.49-2.93c-.55.95-1.04,1.93-1.49,2.93M125.97,101.98c-30.52,10.42-51.2,22.67-60.29,35.45-7.29,10.23-14.02,20.85-20.18,31.8l-8.85,17.4c8.51-14.85,31.34-29.13,66.61-41.11,20.68-9.12,35.56-39.88,27.24-43.53-.47-.17-.96-.25-1.46-.23-1.07,0-2.24.23-3.08.23h0Z"/>
    </clipPath>
    <clipPath id="clippath-3">
      <path class="cls-9" d="M1.11,297.6l.44-3.12c-.21,1.03-.35,2.07-.44,3.12M87.88,185.53c-44.14,14.6-70.12,33.1-75.17,52.13-2.52,9.9-5.8,22.68-7.82,33.1l-3.34,23.73c4.03-20.23,30.96-39.39,77.75-55.01,21.94-10.95,26.48-49.52,14.38-53.95-.69-.17-1.41-.24-2.12-.23-1.44,0-2.84.23-3.68.23h0Z"/>
    </clipPath>
    <clipPath id="clippath-4">
      <path class="cls-9" d="M10.95,409.87l-.11-.43c.04.14.07.29.11.43M78.55,286.07C27.87,303.94.02,324.98,0,347.3v.08c0,.76.03,1.52.1,2.29,2.02,15.38,5.3,34.93,8.32,50.3l2.41,9.48c-5.87-23.83,21.37-47.38,75.53-66.29,21.44-10.95,14.38-52.13-.76-57.08-1.19-.27-2.41-.4-3.63-.39-1.16-.02-2.31.11-3.44.39h0Z"/>
    </clipPath>
    <clipPath id="clippath-5">
      <path class="cls-9" d="M63.16,508.58l-1.84-2.88c.55.96,1.16,1.92,1.84,2.88M102,388.95c-55.74,19.02-80.97,43.52-69.37,67.5,6.56,12.25,14.88,28.15,22.7,39.88l5.98,9.37c-13.19-23.05,9.84-46.34,62.63-64.1,18.16-9.9.76-47.7-14.88-52.65-1.19-.27-2.41-.41-3.63-.39-1.16-.02-2.31.11-3.44.39h0Z"/>
    </clipPath>
    <clipPath id="clippath-6">
      <path class="cls-9" d="M151.45,581.71l-1.11-.81c.36.27.73.54,1.11.81M151.95,476.41c-52.46,17.72-71.89,42.22-49.19,64.9,9.84,8.6,21.95,20.33,32.54,28.67l15.03,10.92c-28.53-21.15-13.4-43.97,35.42-60.44,12.36-8.08-12.87-40.4-27.24-44.05-2.16-.52-4.4-.52-6.56,0h0Z"/>
    </clipPath>
    <clipPath id="clippath-7">
      <path class="cls-9" d="M277.71,641.66c-2.42-.83-5.78-1.56-8.87-2.32,2.85.8,5.8,1.58,8.87,2.32M190.04,609.07l-3.13-1.55c1.3.67,2.32,1.17,3.13,1.55M217.94,560.6c-40.1,13.55-51.96,33.1-24.72,49.52l.76.52c-.94-.39-1.59-.49-3.93-1.58,21.73,10.76,23.59,11.52,39.75,17.99,20.68,7.3,21.44,7.3,34.3,10.95,1.36.47,3.02.9,4.75,1.33-8.13-2.18-16.05-5.07-23.67-8.62-22.7-13.3-14.88-28.15,14.88-37.79l.76-.52c-.74-6.61-29.1-31.84-41.96-31.85-.31,0-.62.02-.92.05h0Z"/>
    </clipPath>
    <clipPath id="clippath-8">
      <path class="cls-9" d="M301.89,646.7c-3.69-.73-7.59-1.33-10.83-1.65,3.57.76,7.19,1.31,10.83,1.65M295.1,639.57c6.65,2.94,13.58,5.21,20.68,6.78h.76c-2.02.52-5.3,1.3-12.36.52h-.76c-.55-.06-1.06-.12-1.53-.17,2.35.46,4.62.97,6.58,1.47q12.36,1.83,18.16,1.83h2.02c5.3,0,9.83-.52,14.88-.52,9.08.52,18.16.52,27.24.52,1.26,0,2.02,0,2.02-.52-1.58-1.43-3.27-2.74-5.04-3.91q-1.26-.52-5.3-4.95c-5.3,0-10.34-.52-12.86-1.82-2.02-1.3-1.26-2.35,1.26-3.65q-47.42-16.42-47.92-16.42c-16.9,5.47-20.68,13.55-7.82,20.85h0Z"/>
    </clipPath>
    <clipPath id="clippath-9">
      <path class="cls-9" d="M327.5,649.51l-.25-.03c.08.02.17.03.25.03M32.55,459.07l-.42-.73c.13.24.27.49.42.73M.27,350.8c-.06-.45-.11-.89-.16-1.33.04.44.1.89.16,1.33M12.51,237.45c.1-.39.21-.77.31-1.15-.11.38-.21.77-.31,1.15M62.72,136.65c.32-.45.64-.89.96-1.32-.33.44-.65.88-.96,1.32M149.79,56.28c.31-.21.62-.42.93-.62-.32.21-.62.41-.93.62M307.2.62c-15.65,5.26-19.56,12.44-7.58,18.66,3.67,1.91,8.07,3.59,13.2,5.74-2.45,2.15-4.89,4.55-14.43,11.24l-.73.48c-15.16,10.05-18.83,11.24-25.18,11.72-8.31-1.74-16.37-4.56-23.96-8.37-22.01-11.25-15.16-24.17,11.98-33.74-3.4.73-6.75,1.69-10.02,2.87q-8.8,2.63-27.14,10.05l-14.42,5.74c-26.41,11.24-33.25,25.36-15.65,40.44-3.67,5.02-5.62,7.18-16.87,16.27-.49,0-.49.48-1.22.48-17.6,12.44-22.01,13.4-27.63,12.92-17.79-12.94-15.72-26.57,2.25-38.86-9.9,6.69-22.61,16.37-32.32,24.02l-13.93,11.72c-16.87,15.31-12.47,32.78,17.6,47.85,14.91,7.42,34.47,14.12,60.88,20.82,4.4,5.03,7.58,8.85,1.22,24.65q0,.72-.73,1.2c-8.07,13.88-16.87,20.82-27.63,19.62-26.41-6.22-49.14-13.4-66.02-22.49-29.48-15.36-36.77-31.61-26.14-47.02-5.93,8.26-13.06,19.25-19.09,27.87l-10.02,18.66c-6.85,13.4-1.22,27.04,18.83,40.44,3.18,4.55,7.09,10.05.73,30.39q-.73.72-.73,1.2c-7.09,18.66-12.71,19.14-18.34,18.66-17.54-11.83-24.51-24.33-21.58-36.42-2.4,8.95-5.4,20.52-7.27,29.24l-3.67,24.64c-1.96,13.88,10.03,28.71,36.43,42.11,21.27,11.24,50.86,20.82,84.11,28.24,12.47,4.55,18.83,13.88,20.05,30.86v1.2c-1.22,16.27-7.58,23.21-20.05,22.01-34.72-7.9-64.3-17.47-85.57-28.71-22.43-11.33-34.37-23.76-36.27-36.24,1.75,13.94,4.82,31.87,7.9,44.85l2.45,9.09c2.44,9.09,10.76,17.47,26.41,28.23,6.36,7.42,11.25,15.31,16.38,28.23q.73.72.73,1.2c3.18,9.57,3.18,10.05,2.45,15.79-1.18.39-2.43.56-3.67.48-9.66-6.68-16.59-13.15-20.37-19.6,6.32,11.14,14.92,25.34,22.81,35.87l7.58,11.25c4.89,6.7,13.2,13.4,25.67,19.62,19.56,10.77,46.46,19.14,79.22,25.84,11.25,3.35,20.05,10.05,27.63,20.82l.73.48c1.47,3.16,2.3,6.57,2.45,10.05-1.71,1.67-5.62,2.15-8.07,2.15-28.85-5.5-52.81-13.4-70.42-22.49-6.54-3.47-12.69-7.65-18.34-12.44,9.54,8.38,22.01,18.42,31.54,26.32l15.65,10.76c.94.88,2.01,1.6,3.18,2.16q19.56,11.72,27.63,16.27c.49,0,.49.48,1.22.48,2.45,1.2,6.36,3.35,8.8,4.55,15.89,7.9,18.34,8.85,41.57,17.95,12.47,4.31,14.43,5.02,33.25,10.05,3.67,1.2,9.54,2.15,13.2,3.35,1.22,0,3.18.72,6.36,1.2,2.45.48,6.36,1.2,8.8,1.67,5.55,1.33,11.19,2.28,16.87,2.87,5.58.47,6.35.48,17.35,1.65-.72-.2-1.45-.35-2.19-.45h3.67c20.28,1.2,40.61,1.2,60.88,0,11.74-1.67,12.47-2.15,16.87-6.7-2.42-1.49-5.23-2.23-8.07-2.15-57.22,2.87-116.88-.96-161.62-11.72-8.45-3.04-16.63-6.81-24.44-11.25l-.73-.48c-2.93-2.15-6.85-5.5-8.07-8.38h3.67c66.51,15.79,164.55,20.34,253.8,9.57,10.52-2.87,23.72-9.09,25.67-20.34-2.44-3.35-3.18-4.3-11.25-3.83-62.45,6.73-125.38,7.85-188.02,3.35-11.98-1.67-20.78-7.18-25.18-16.27v-.48c-.73-6.22-1.96-14.6,15.65-14.6,37.25,3.01,74.63,3.97,111.98,2.87,5.62-.72,10.51-1.2,16.87-5.74,11.98-9.09,13.2-29.91-14.42-31.58-94.87,2.39-189.74-5.98-258.93-22.97-11.25-4.31-20.05-12.92-25.18-26.32q-.74-.72-.74-1.2c-2.69-12.2,1.71-19.14,12.47-17.95,101.71,24.17,256.24,32.06,390.23,16.27,5.87-1.2,11.49-2.39,18.34-9.09,13.2-12.44,14.42-39.96-14.43-39.48-85.33,10.05-178.98,10.53-262.6,3.83-15.65-2.87-24.45-11.96-25.67-28.23v-1.2c1.71-15.79,10.02-23.69,25.67-24.17,84.85,7.18,180.2,6.22,267-4.55,46.7-5.5,86.06-13.4,117.61-22.97,12.72-5.98,13.94-20.58,13.94-26.32,0-7.9-2.45-25.84-20.54-27.76-30.81,9.09-69.2,16.75-114.43,22.49-137.66,16.75-296.58,8.85-399.77-16.99-11.25-4.55-15.16-14.6-11.98-30.39q.73-.72.73-1.2c5.62-14.6,13.93-21.53,25.18-20.34,97.31,24.64,247.44,32.06,377.03,16.27,4.4-.48,9.53-1.2,13.94-1.67,3.18-1.2,7.58-2.39,11.25-6.22,11.98-13.4,1.96-44.26-24.45-43.78-4.4.48-8.8,1.2-13.2,1.67-75.31,9.57-158.93,10.05-232.53,3.35-12.47-2.63-17.6-11.24-14.43-26.32q.73-.72.73-1.2c5.62-13.88,13.69-20.82,25.67-21.3,44.57,3.49,89.31,4.45,133.99,2.87,2.44-.48,5.62-.96,7.58-2.15,11.25-6.7,13.94-36.37-14.42-42.11-74.08,3.35-150.13-3.59-201.72-16.99-.75-1.25-1.86-2.26-3.18-2.87,0-6.7,0-9.09,9.54-19.14.05-.49.32-.93.73-1.2,13.69-12.92,21.27-14.12,27.63-14.6,49.14,12.95,126.41,17.5,194.87,10.8,1.22-.48,3.18-.48,4.4-1.68,5.62-6.22-6.36-28.23-23.96-31.58-30.9,2.87-62.01,2.87-92.91,0-1.27-.69-2.36-1.68-3.18-2.87,1.22-5.02,1.22-5.5,6.36-11.72l.74-.48c8.8-8.38,12.47-10.05,16.87-11.73,12.35,1.44,24.82,1.44,37.17,0,0-5.5-.73-8.38-10.76-19.62-3.67.48-8.07,0-10.02-1.2-1.71-1.2-1.22-1.67.73-3.35-15.28-3.18-26.3-3.96-34.11-3.96-5.68,0-9.67.41-12.35.62h0Z"/>
    </clipPath>
  </defs>
  <g id="Layer_1-2" data-name="Layer_1">
    <g id="Group_680">
      <g id="Group_675">
        <g id="Group_656">
          <g class="cls-23">
            <g id="Group_655">
              <rect id="Rectangle_1" class="cls-22" x="208.47" y="10.84" width="42.12" height="16.16"/>
            </g>
          </g>
        </g>
        <g id="Group_658">
          <g class="cls-13">
            <g id="Group_657">
              <rect id="Rectangle_2" class="cls-12" x="102.81" y="44.2" width="86.26" height="56.04"/>
            </g>
          </g>
        </g>
        <g id="Group_660">
          <g class="cls-20">
            <g id="Group_659">
              <rect id="Rectangle_3" class="cls-12" x="35.17" y="101.75" width="103.67" height="87.8"/>
            </g>
          </g>
        </g>
        <g id="Group_662">
          <g class="cls-17">
            <g id="Group_661">
              <rect id="Rectangle_4" class="cls-12" x="1.11" y="185.29" width="104.68" height="112.31"/>
            </g>
          </g>
        </g>
        <g id="Group_664">
          <g class="cls-4">
            <g id="Group_663">
              <rect id="Rectangle_5" class="cls-12" y="285.68" width="107.81" height="124.19"/>
            </g>
          </g>
        </g>
        <g id="Group_666">
          <g class="cls-15">
            <g id="Group_665">
              <rect id="Rectangle_6" class="cls-12" x="21.04" y="388.56" width="121.07" height="120.02"/>
            </g>
          </g>
        </g>
        <g id="Group_668">
          <g class="cls-1">
            <g id="Group_667">
              <rect id="Rectangle_7" class="cls-12" x="80.06" y="476.03" width="118.05" height="105.69"/>
            </g>
          </g>
        </g>
        <g id="Group_670">
          <g class="cls-2">
            <g id="Group_669">
              <rect id="Rectangle_8" class="cls-12" x="165.97" y="560.55" width="111.74" height="81.11"/>
            </g>
          </g>
        </g>
        <g id="Group_672">
          <g class="cls-16">
            <g id="Group_671">
              <rect id="Rectangle_9" class="cls-12" x="282.24" y="618.72" width="90.55" height="31.28"/>
            </g>
          </g>
        </g>
        <g id="Group_674">
          <g class="cls-5">
            <g id="Group_673">
              <path id="Path_890" class="cls-6" d="M-341.46,288.23L361.55-305.67,991.14,361.67,288.14,955.57-341.46,288.23Z"/>
            </g>
          </g>
        </g>
      </g>
      <text class="cls-10" transform="translate(730 433)"><tspan x="0" y="0">Cyberollie</tspan></text>
      <g id="Bridging_Trust_Elevating_Talent" class="cls-11">
        <text class="cls-7" transform="translate(1196.14 560.57) rotate(.06)"><tspan class="cls-3" x="0" y="0">Bridging</tspan><tspan class="cls-14" x="384.52" y="0"> </tspan><tspan class="cls-8" x="409.7" y="0">T</tspan><tspan class="cls-3" x="467.59" y="0">rust, El</tspan><tspan class="cls-21" x="787.51" y="0">e</tspan><tspan class="cls-24" x="841.26" y="0">v</tspan><tspan class="cls-19" x="891.06" y="0">ating</tspan><tspan class="cls-14" x="1123.08" y="0"> </tspan><tspan class="cls-18" x="1148.27" y="0">T</tspan><tspan class="cls-19" x="1201.52" y="0">alent</tspan></text>
      </g>
    </g>
  </g>
</svg>