<svg width="60" height="60" viewBox="0 0 60 60" fill="none" xmlns="http://www.w3.org/2000/svg">
<path d="M59.2544 50.3108L59.1477 50.1666C56.9493 47.6213 54.2481 45.7569 51.636 43.9557C50.5696 43.2198 48.6747 42.0338 47.3341 41.0799C50.4453 36.6867 52.1119 31.434 52.1024 26.0507C52.1024 11.6636 40.4388 0 26.0506 0C11.6624 0 0 11.6636 0 26.0507C0 40.4377 11.6636 52.1025 26.0506 52.1025C31.4272 52.1106 36.6734 50.4476 41.0634 47.3436C42.0185 48.683 43.2033 50.5744 43.9404 51.6408C45.7462 54.2576 47.613 56.9529 50.156 59.149L50.3001 59.2545C51.1111 59.7503 52.0449 60.0085 52.9954 59.9998C54.4322 59.9954 55.8163 59.4584 56.8802 58.4928L58.4528 56.9236L58.4903 56.885C60.1649 55.0521 60.486 52.2877 59.2544 50.3108ZM26.0506 45.3057C21.5953 45.3062 17.2776 43.7618 13.8332 40.9356C10.3889 38.1095 8.03111 34.1765 7.16156 29.8067C6.29202 25.437 6.96455 20.901 9.06455 16.9716C11.1645 13.0421 14.5621 9.96244 18.6782 8.25723C22.7944 6.55203 27.3745 6.32683 31.638 7.62002C35.9016 8.9132 39.5849 11.6447 42.0602 15.3492C44.5356 19.0537 45.6498 23.5019 45.2132 27.9358C44.7765 32.3697 42.8159 36.5151 39.6654 39.6655C37.8817 41.4591 35.76 42.8812 33.423 43.8493C31.086 44.8175 28.5802 45.3125 26.0506 45.3057Z" fill="black"/>
<path d="M26.0506 28.454C30.2736 28.454 33.6971 25.0306 33.6971 20.8076C33.6971 16.5846 30.2736 13.1611 26.0506 13.1611C21.8276 13.1611 18.4042 16.5846 18.4042 20.8076C18.4042 25.0306 21.8276 28.454 26.0506 28.454Z" fill="black"/>
<path d="M38.647 34.7589C38.5322 33.6864 38.0522 32.686 37.2876 31.9253C36.5199 31.1558 35.5131 30.6706 34.4329 30.5495C32.8521 30.3819 28.9251 30.2905 26.4794 30.2905C24.0338 30.2905 19.2209 30.3819 17.6389 30.5495C16.559 30.6708 15.5524 31.1555 14.7842 31.9241C14.0199 32.6849 13.5404 33.6854 13.426 34.7577V34.7905C13.3885 35.1538 13.3662 35.469 13.3522 35.7386C13.7851 36.3048 14.2549 36.8419 14.7584 37.3464C17.7542 40.3417 21.8171 42.0244 26.0535 42.0244C30.2898 42.0244 34.3527 40.3417 37.3485 37.3464C37.8442 36.8498 38.3072 36.3217 38.7348 35.7655C38.7173 35.4901 38.6915 35.1667 38.6528 34.7917L38.647 34.7589Z" fill="black"/>
</svg>
