<svg width="23" height="25" viewBox="0 0 23 25" fill="none" xmlns="http://www.w3.org/2000/svg">
<path fill-rule="evenodd" clip-rule="evenodd" d="M11.5 0C10.1656 0 9.08391 1.07959 9.08391 2.41133C9.08391 3.74306 10.1656 4.82265 11.5 4.82265C12.8344 4.82265 13.9161 3.74306 13.9161 2.41133C13.9161 1.07959 12.8344 0 11.5 0ZM11.5 8.10495C8.50175 8.10495 6.07155 10.5303 6.07155 13.5228C6.07155 16.5151 8.5017 18.9405 11.5 18.9405C14.4983 18.9405 16.9284 16.5152 16.9284 13.5228C16.9284 10.5303 14.4983 8.10495 11.5 8.10495ZM11.5 10.5486C13.1459 10.5486 14.48 11.88 14.48 13.5227C14.48 15.1654 13.1459 16.4968 11.5 16.4968C9.85405 16.4968 8.52005 15.1654 8.52005 13.5227C8.52 11.88 9.85405 10.5486 11.5 10.5486ZM4.7513 1.96286C6.08566 1.96286 7.16738 3.04245 7.16738 4.37418C7.16738 5.70592 6.08566 6.78551 4.7513 6.78551C3.41693 6.78551 2.33521 5.70592 2.33521 4.37418C2.33521 3.04245 3.41693 1.96286 4.7513 1.96286ZM18.2488 1.96286C19.5832 1.96286 20.6649 3.04245 20.6649 4.37418C20.6649 5.70592 19.5832 6.78551 18.2488 6.78551C16.9144 6.78551 15.8327 5.70592 15.8327 4.37418C15.8327 3.04245 16.9144 1.96286 18.2488 1.96286ZM17.4274 11.5518C17.0066 10.2906 16.1931 9.20862 15.1316 8.4502C15.9683 7.73077 17.0576 7.29577 18.2488 7.29577C20.4922 7.29577 22.3744 8.83883 22.8885 10.9194C22.9684 11.2428 22.7257 11.5518 22.3921 11.5518H17.4274ZM23 13.5227V15.076L21.0943 15.8081C20.8526 16.8215 20.4501 17.7893 19.9029 18.6763L20.7323 20.5401L18.5312 22.7367L16.6644 21.9092C15.7755 22.4556 14.8053 22.8573 13.7897 23.0985L13.0564 25H9.94372L9.21018 23.098C8.19476 22.8568 7.22505 22.4551 6.33631 21.909L4.4688 22.7367L2.26778 20.5401L3.09697 18.6768C2.54951 17.7897 2.14704 16.8214 1.90528 15.8079L0 15.076V13.5227H5.25361C5.25361 16.9657 8.05024 19.7567 11.4999 19.7567C14.9497 19.7567 17.7463 16.9657 17.7463 13.5227H23ZM8.59351 8.00373C9.46175 7.54735 10.4505 7.28862 11.5 7.28862C12.5495 7.28862 13.5383 7.5473 14.4064 8.00367C14.6961 7.73112 15.0143 7.48969 15.3553 7.28403C14.4857 6.10097 13.0828 5.33286 11.5 5.33286C9.91719 5.33286 8.51427 6.10097 7.6447 7.28408C7.98573 7.4898 8.30391 7.73112 8.59351 8.00373ZM0.607983 11.5518C0.274367 11.5518 0.0316951 11.2427 0.111597 10.9194C0.62562 8.83878 2.50785 7.29571 4.7513 7.29571C5.94242 7.29571 7.03166 7.73071 7.86841 8.45015C6.80688 9.20852 5.99344 10.2907 5.57256 11.5518H0.607983Z" fill="#FF5822"/>
</svg>
