<svg width="50" height="55" viewBox="0 0 50 55" fill="none" xmlns="http://www.w3.org/2000/svg">
<path d="M14.0718 24.8316H4.39329C4.20409 24.8317 4.02265 24.9108 3.88887 25.0515C3.75509 25.1923 3.67993 25.3831 3.6799 25.5822V29.4898C3.6799 29.5884 3.69836 29.686 3.73422 29.7771C3.77008 29.8682 3.82264 29.9509 3.88891 30.0206C3.95517 30.0903 4.03384 30.1456 4.12041 30.1833C4.20699 30.2211 4.29978 30.2405 4.39349 30.2405H14.0718C14.1655 30.2405 14.2583 30.2211 14.3449 30.1833C14.4314 30.1456 14.5101 30.0903 14.5764 30.0206C14.6426 29.9509 14.6952 29.8682 14.7311 29.7771C14.7669 29.686 14.7854 29.5884 14.7854 29.4898V25.5822C14.7853 25.3831 14.7102 25.1922 14.5763 25.0514C14.4425 24.9107 14.261 24.8316 14.0718 24.8316ZM13.3581 28.7392H5.10698V26.3331H13.3581V28.7392ZM23.6416 9.94923C23.6416 9.75012 23.7168 9.55917 23.8507 9.41839C23.9845 9.27761 24.166 9.19852 24.3553 9.19852H33.3939C33.5832 9.19852 33.7647 9.27761 33.8985 9.4184C34.0324 9.55918 34.1075 9.75013 34.1075 9.94923C34.1075 10.1483 34.0324 10.3393 33.8985 10.4801C33.7647 10.6208 33.5832 10.6999 33.3939 10.6999H24.3553C24.2616 10.6999 24.1688 10.6805 24.0822 10.6428C23.9956 10.6051 23.9169 10.5498 23.8506 10.4801C23.7844 10.4104 23.7318 10.3276 23.6959 10.2365C23.6601 10.1454 23.6416 10.0478 23.6416 9.94923ZM23.6416 21.6752C23.6416 21.4761 23.7168 21.2851 23.8506 21.1443C23.9845 21.0035 24.166 20.9244 24.3553 20.9244H33.3939C33.5817 20.9268 33.7611 21.0069 33.8931 21.1475C34.0251 21.288 34.0991 21.4776 34.0991 21.6752C34.0991 21.8728 34.0251 22.0624 33.8931 22.2029C33.7611 22.3434 33.5817 22.4236 33.3939 22.4259H24.3553C24.2616 22.4259 24.1687 22.4065 24.0821 22.3688C23.9955 22.331 23.9168 22.2757 23.8505 22.2059C23.7843 22.1362 23.7317 22.0534 23.6958 21.9622C23.66 21.8711 23.6416 21.7734 23.6416 21.6748V21.6752ZM23.6416 13.8598C23.6416 13.6607 23.7168 13.4698 23.8507 13.329C23.9845 13.1882 24.166 13.1091 24.3553 13.1091H33.3939C33.5817 13.1115 33.7611 13.1916 33.8931 13.3322C34.0251 13.4727 34.0991 13.6623 34.0991 13.8599C34.0991 14.0575 34.0251 14.2471 33.8931 14.3876C33.7611 14.5281 33.5817 14.6083 33.3939 14.6106H24.3553C24.2615 14.6106 24.1687 14.5912 24.0821 14.5535C23.9955 14.5157 23.9168 14.4603 23.8505 14.3906C23.7842 14.3208 23.7317 14.238 23.6958 14.1469C23.66 14.0557 23.6416 13.958 23.6416 13.8594V13.8598ZM23.6416 17.7674C23.6416 17.5683 23.7168 17.3774 23.8507 17.2366C23.9845 17.0958 24.166 17.0167 24.3553 17.0167H33.3939C33.5817 17.0191 33.7611 17.0992 33.8931 17.2398C34.0251 17.3803 34.0991 17.5699 34.0991 17.7675C34.0991 17.9651 34.0251 18.1547 33.8931 18.2952C33.7611 18.4357 33.5817 18.5159 33.3939 18.5182H24.3553C24.2615 18.5182 24.1687 18.4988 24.0821 18.461C23.9955 18.4233 23.9168 18.3679 23.8505 18.2982C23.7842 18.2284 23.7317 18.1456 23.6958 18.0545C23.66 17.9633 23.6416 17.8656 23.6416 17.767V17.7674ZM14.0719 40.4657H4.39329C4.20403 40.4657 4.02253 40.5448 3.8887 40.6856C3.75488 40.8264 3.6797 41.0173 3.6797 41.2164V45.124C3.67968 45.2226 3.69813 45.3203 3.73399 45.4114C3.76984 45.5025 3.8224 45.5852 3.88867 45.6549C3.95493 45.7247 4.0336 45.78 4.12019 45.8177C4.20677 45.8554 4.29957 45.8749 4.39329 45.8749H14.0718C14.1655 45.8749 14.2583 45.8554 14.3449 45.8177C14.4315 45.78 14.5101 45.7247 14.5764 45.6549C14.6427 45.5852 14.6952 45.5025 14.7311 45.4114C14.7669 45.3203 14.7854 45.2226 14.7854 45.124V41.216C14.7854 41.0169 14.7102 40.826 14.5764 40.6852C14.4425 40.5444 14.261 40.4653 14.0718 40.4653L14.0719 40.4657ZM13.3582 44.3733H5.10698V41.9673H13.3581L13.3582 44.3733ZM14.0719 32.6473H4.39329C4.29957 32.6473 4.20677 32.6667 4.12019 32.7045C4.0336 32.7422 3.95493 32.7975 3.88867 32.8672C3.8224 32.937 3.76984 33.0197 3.73399 33.1108C3.69813 33.2019 3.67968 33.2995 3.6797 33.3981V37.3091C3.67968 37.4077 3.69813 37.5053 3.73399 37.5964C3.76984 37.6875 3.8224 37.7702 3.88867 37.84C3.95493 37.9097 4.0336 37.965 4.12019 38.0027C4.20677 38.0405 4.29957 38.0599 4.39329 38.0599H14.0718C14.1655 38.0599 14.2583 38.0405 14.3449 38.0027C14.4315 37.965 14.5101 37.9097 14.5764 37.84C14.6427 37.7702 14.6952 37.6875 14.7311 37.5964C14.7669 37.5053 14.7854 37.4077 14.7854 37.3091V33.3981C14.7854 33.2995 14.767 33.2018 14.7312 33.1107C14.6954 33.0195 14.6428 32.9367 14.5765 32.867C14.5103 32.7972 14.4316 32.7419 14.345 32.7041C14.2584 32.6663 14.1655 32.6469 14.0718 32.6469L14.0719 32.6473ZM13.3582 36.5583H5.10698V34.1484H13.3581L13.3582 36.5583ZM6.69023 20.7344C6.70207 20.7456 6.71392 20.7567 6.72638 20.7672C8.38189 22.3149 10.5196 23.1699 12.7343 23.1702C14.949 23.1705 17.0869 22.3161 18.7428 20.7688C18.758 20.7563 18.7725 20.743 18.7866 20.7291C18.9064 20.6156 19.0239 20.4987 19.1391 20.3782C20.837 18.5919 21.7909 16.1693 21.7909 13.6432C21.7909 11.1171 20.837 8.69451 19.1391 6.90827C17.4412 5.12159 15.1382 4.11766 12.7366 4.11734C10.3351 4.11702 8.03183 5.12032 6.33348 6.90655C4.63513 8.69277 3.68083 11.1156 3.68053 13.642C3.68022 16.1684 4.63393 18.5915 6.33185 20.3782C6.44869 20.5008 6.56849 20.6191 6.69023 20.7344ZM12.7346 21.6691C10.9985 21.6738 9.3138 21.0501 7.96309 19.9028C8.37662 18.2878 9.5065 16.5842 11.5211 16.5842H12.6855C12.7024 16.5842 12.7193 16.5858 12.7365 16.5858C12.7538 16.5858 12.7723 16.5845 12.79 16.5842H13.9511C15.9656 16.5842 17.0954 18.2876 17.5091 19.9024C16.1573 21.0499 14.4716 21.6736 12.7346 21.6687V21.6691ZM10.4308 11.499C10.4288 11.1793 10.4869 10.8623 10.6018 10.5662C10.7167 10.2702 10.8861 10.0011 11.1003 9.77421C11.3145 9.54737 11.5693 9.36734 11.8499 9.24449C12.1305 9.12164 12.4314 9.05839 12.7353 9.05839C13.0393 9.05839 13.3402 9.12164 13.6208 9.24449C13.9014 9.36734 14.1562 9.54737 14.3704 9.77421C14.5845 10.0011 14.754 10.2702 14.8689 10.5662C14.9838 10.8623 15.0419 11.1793 15.0399 11.499C15.0399 13.9252 13.8808 15.0492 12.7851 15.0823H12.6855C11.5902 15.0492 10.4308 13.9246 10.4308 11.499ZM7.34142 7.97002C8.72527 6.51528 10.5875 5.67548 12.5432 5.62422C14.499 5.57297 16.3987 6.31416 17.8497 7.6946C19.3007 9.07505 20.192 10.9892 20.3395 13.0414C20.487 15.0936 19.8794 17.127 18.6422 18.7213C17.9987 16.9971 16.7883 15.7579 15.3007 15.289C15.9995 14.435 16.4671 13.1652 16.4671 11.499C16.4696 10.9817 16.375 10.469 16.1886 9.99029C16.0022 9.5116 15.7278 9.07638 15.381 8.70964C15.0342 8.3429 14.6219 8.05188 14.1679 7.85329C13.7138 7.65471 13.227 7.55248 12.7352 7.55248C12.2435 7.55248 11.7566 7.65471 11.3026 7.85329C10.8486 8.05188 10.4363 8.3429 10.0895 8.70964C9.74271 9.07638 9.46824 9.5116 9.28185 9.99029C9.09546 10.469 9.00083 10.9817 9.0034 11.499C9.0034 13.0147 9.38589 14.3041 10.1094 15.2281C10.1264 15.2496 10.1445 15.2705 10.162 15.2917C8.67801 15.7624 7.4701 17.0001 6.82831 18.7213C5.63205 17.1811 5.02214 15.2283 5.11688 13.2418C5.21161 11.2553 6.00422 9.37659 7.34101 7.97002H7.34142ZM49.2056 49.7592L43.6614 43.5643C43.5317 43.4193 43.3525 43.3345 43.1633 43.3284C42.9742 43.3224 42.7904 43.3956 42.6526 43.5321L42.4146 43.7678L41.2216 42.4355C42.1633 41.1046 42.8254 39.5783 43.1638 37.9578C43.5022 36.3374 43.5092 34.6597 43.1845 33.0361C42.8597 31.4125 42.2105 29.8802 41.28 28.5406C40.3495 27.201 39.1589 26.0848 37.7872 25.2661V6.72024C37.7872 6.62167 37.7688 6.52406 37.7329 6.43299C37.6971 6.34192 37.6445 6.25917 37.5783 6.18947L31.9037 0.219936C31.8375 0.150201 31.7588 0.0948836 31.6722 0.057146C31.5856 0.0194084 31.4928 -1.0138e-05 31.3991 3.9707e-09L0.713593 3.97071e-09C0.524336 3.97071e-09 0.342831 0.0790919 0.209007 0.219876C0.0751819 0.360661 7.30936e-09 0.551605 7.30936e-09 0.750705V49.229C-1.3406e-05 49.3276 0.0184343 49.4252 0.0542897 49.5163C0.0901451 49.6074 0.142706 49.6902 0.20897 49.7599C0.275235 49.8296 0.353905 49.8849 0.440489 49.9227C0.527073 49.9604 0.619874 49.9798 0.713593 49.9798H37.0736C37.1674 49.9798 37.2602 49.9604 37.3467 49.9227C37.4333 49.8849 37.512 49.8296 37.5783 49.7599C37.6445 49.6902 37.6971 49.6074 37.7329 49.5163C37.7688 49.4252 37.7872 49.3276 37.7872 49.229V45.6141C38.0017 45.4867 38.2134 45.3524 38.4212 45.2087L39.6146 46.5419L39.3782 46.7761C39.31 46.8436 39.255 46.9247 39.2165 47.0146C39.1781 47.1045 39.1568 47.2015 39.1539 47.3C39.1511 47.3986 39.1667 47.4967 39.2 47.5889C39.2332 47.6811 39.2834 47.7655 39.3476 47.8373L44.8919 54.0325C45.4318 54.629 46.1741 54.9764 46.9567 54.9988C47.7393 55.0213 48.4985 54.7169 49.0685 54.1523C49.6384 53.5877 49.9728 52.8086 49.9984 51.9855C50.024 51.1623 49.7389 50.3619 49.2053 49.7592H49.2056ZM32.1133 2.56327L35.3509 5.96921H32.1133V2.56327ZM36.3599 48.4783H1.42729V1.50152H30.6855V6.72024C30.6855 6.81883 30.704 6.91646 30.7398 7.00756C30.7757 7.09865 30.8282 7.18142 30.8945 7.25114C30.9607 7.32086 31.0394 7.37617 31.126 7.4139C31.2126 7.45163 31.3054 7.47105 31.3991 7.47105H36.3599V24.5526C34.9651 23.9845 33.4762 23.7165 31.9812 23.7645C30.4862 23.8124 29.0155 24.1754 27.6562 24.8319H17.0972C17.0028 24.8307 16.9091 24.8493 16.8215 24.8865C16.7339 24.9237 16.6542 24.9788 16.5871 25.0486C16.5199 25.1184 16.4665 25.2016 16.4301 25.2933C16.3937 25.385 16.375 25.4833 16.375 25.5827C16.375 25.682 16.3937 25.7804 16.4301 25.8721C16.4665 25.9637 16.5199 26.0469 16.5871 26.1167C16.6542 26.1866 16.7339 26.2417 16.8215 26.2789C16.9091 26.3161 17.0028 26.3346 17.0972 26.3334H25.3643C25.1388 26.5247 24.9192 26.7257 24.7057 26.9366C24.1544 27.4828 23.6576 28.0869 23.223 28.7393H17.0972C17.0028 28.7381 16.9091 28.7567 16.8215 28.7938C16.7339 28.831 16.6542 28.8862 16.5871 28.956C16.5199 29.0258 16.4665 29.109 16.4301 29.2007C16.3937 29.2923 16.375 29.3907 16.375 29.4901C16.375 29.5894 16.3937 29.6878 16.4301 29.7795C16.4665 29.8711 16.5199 29.9543 16.5871 30.0241C16.6542 30.094 16.7339 30.1491 16.8215 30.1863C16.9091 30.2235 17.0028 30.242 17.0972 30.2408H22.3758C22.0145 31.0082 21.7345 31.8151 21.5411 32.647H17.0972C17.0028 32.6458 16.9091 32.6644 16.8215 32.7016C16.7339 32.7387 16.6542 32.7939 16.5871 32.8637C16.5199 32.9335 16.4665 33.0167 16.4301 33.1084C16.3937 33.2 16.375 33.2984 16.375 33.3978C16.375 33.4971 16.3937 33.5955 16.4301 33.6872C16.4665 33.7788 16.5199 33.862 16.5871 33.9318C16.6542 34.0017 16.7339 34.0568 16.8215 34.094C16.9091 34.1312 17.0028 34.1497 17.0972 34.1485H21.2887C21.2044 34.9488 21.1982 35.7561 21.2701 36.5577H17.0972C17.0028 36.5565 16.9091 36.5751 16.8215 36.6123C16.7339 36.6495 16.6542 36.7046 16.5871 36.7744C16.5199 36.8442 16.4665 36.9274 16.4301 37.0191C16.3937 37.1108 16.375 37.2091 16.375 37.3085C16.375 37.4078 16.3937 37.5062 16.4301 37.5979C16.4665 37.6895 16.5199 37.7727 16.5871 37.8425C16.6542 37.9124 16.7339 37.9675 16.8215 38.0047C16.9091 38.0419 17.0028 38.0604 17.0972 38.0592H21.4991C21.6788 38.8894 21.9446 39.6963 22.2917 40.4654H17.0972C17.0028 40.4642 16.9091 40.4828 16.8215 40.52C16.7339 40.5572 16.6542 40.6123 16.5871 40.6821C16.5199 40.7519 16.4665 40.8351 16.4301 40.9268C16.3937 41.0185 16.375 41.1168 16.375 41.2162C16.375 41.3155 16.3937 41.4139 16.4301 41.5056C16.4665 41.5972 16.5199 41.6804 16.5871 41.7502C16.6542 41.8201 16.7339 41.8752 16.8215 41.9124C16.9091 41.9496 17.0028 41.9681 17.0972 41.9669H23.1053C23.6798 42.8651 24.3703 43.6749 25.1568 44.373H17.0972C17.0028 44.3718 16.9091 44.3904 16.8215 44.4276C16.7339 44.4648 16.6542 44.5199 16.5871 44.5897C16.5199 44.6595 16.4665 44.7427 16.4301 44.8344C16.3937 44.9261 16.375 45.0244 16.375 45.1238C16.375 45.2231 16.3937 45.3215 16.4301 45.4132C16.4665 45.5048 16.5199 45.588 16.5871 45.6578C16.6542 45.7277 16.7339 45.7828 16.8215 45.82C16.9091 45.8572 17.0028 45.8757 17.0972 45.8745H27.3164C28.7101 46.6106 30.235 47.0311 31.7927 47.1088C33.3504 47.1865 34.9063 46.9198 36.3599 46.3258V48.4783ZM38.9586 42.8559C37.9428 43.8602 36.7328 44.6219 35.4114 45.0889C34.09 45.5559 32.6883 45.7171 31.3021 45.5615C29.916 45.406 28.5782 44.9373 27.3801 44.1877C26.182 43.438 25.152 42.4249 24.3605 41.2178C23.5689 40.0106 23.0345 38.6379 22.7939 37.1934C22.5532 35.749 22.6119 34.2669 22.9659 32.8485C23.32 31.4301 23.9611 30.1088 24.8453 28.9752C25.7296 27.8415 26.8361 26.9221 28.0893 26.2798C28.1205 26.2668 28.1507 26.2514 28.1798 26.2339C29.5175 25.5717 30.981 25.239 32.4593 25.2613C33.9375 25.2835 35.3914 25.66 36.7106 26.3621C36.733 26.3761 36.756 26.3888 36.7797 26.4002C38.1504 27.1513 39.3306 28.2364 40.2216 29.5649C41.1127 30.8934 41.6888 32.4268 41.902 34.0372C42.1152 35.6476 41.9593 37.2883 41.4472 38.8224C40.9351 40.3565 40.0817 41.7395 38.9583 42.8561L38.9586 42.8559ZM39.5673 44.2986C39.6922 44.1855 39.8154 44.069 39.9369 43.9492C40.0576 43.8296 40.1746 43.7074 40.289 43.5838L41.3755 44.798L40.6537 45.5131L39.5673 44.2986ZM48.1012 53.0715C47.8045 53.3646 47.4095 53.522 47.0027 53.5091C46.5959 53.4962 46.2105 53.3141 45.9312 53.0027L40.8762 47.3545L43.1114 45.1403L48.167 50.7887C48.4456 51.1008 48.5952 51.5165 48.5828 51.9445C48.5705 52.3725 48.3973 52.7779 48.1012 53.0717V53.0715ZM38.4791 29.3439C37.5255 28.2782 36.3369 27.4765 35.0184 27.0096C33.7 26.5427 32.2924 26.4252 30.9205 26.6673C29.5485 26.9095 28.2545 27.5039 27.1531 28.3979C26.0516 29.2918 25.1768 30.4578 24.6061 31.7925C24.0354 33.1271 23.7864 34.5893 23.8812 36.0494C23.976 37.5095 24.4116 38.9224 25.1495 40.1631C25.8874 41.4037 26.9048 42.4337 28.1115 43.1619C29.3182 43.8901 30.677 44.2939 32.0676 44.3376C32.1544 44.3402 32.2412 44.3416 32.3273 44.3416C33.978 44.3405 35.5923 43.8312 36.9713 42.8766C38.3502 41.922 39.4335 40.5637 40.0875 38.9692C40.7415 37.3748 40.9377 35.6138 40.6519 33.9034C40.3661 32.1931 39.6108 30.6081 38.4791 29.3439ZM39.3491 35.6646C39.3006 37.3752 38.6898 39.0152 37.6208 40.3051C36.5517 41.595 35.0906 42.4551 33.4863 42.7386C31.8821 43.0222 30.234 42.7118 28.8229 41.8604C27.4118 41.0089 26.325 39.669 25.7478 38.069C25.1705 36.469 25.1384 34.708 25.6571 33.086C26.1757 31.4639 27.213 30.0813 28.5921 29.1736C29.9712 28.2659 31.6067 27.8894 33.2201 28.1082C34.8335 28.327 36.3249 29.1276 37.4401 30.3735C38.0749 31.079 38.5705 31.9098 38.8982 32.818C39.2259 33.7262 39.3791 34.6937 39.3491 35.6646Z"/>
</svg>
