<svg width="1589" height="477" viewBox="0 0 1589 477" fill="none" xmlns="http://www.w3.org/2000/svg">
<path d="M152.972 14.8746C159.872 12.3746 166.572 9.47461 172.972 7.47461C160.772 11.6746 160.272 11.6746 154.672 14.1746L144.672 18.3746C146.872 16.9746 149.972 16.0746 152.972 14.8746Z" fill="url(#paint0_linear_299_55)"/>
<path d="M103.673 50.575C114.173 46.375 129.473 32.575 128.073 29.875C127.573 29.875 126.673 29.875 126.373 30.275C116.673 33.575 109.473 36.975 104.173 40.975C97.2726 46.375 87.5726 53.375 81.1726 58.975L71.4727 67.575C77.5727 61.775 88.9726 55.675 103.673 50.575Z" fill="url(#paint1_linear_299_55)"/>
<path d="M69.2726 105.075C83.1726 98.975 93.1726 78.275 87.5726 75.875C86.7726 75.475 85.3727 75.875 84.4727 75.875C63.9727 82.875 50.0727 91.075 43.9727 99.675C39.5727 105.775 33.9727 114.575 30.3727 121.075L23.4727 134.775C28.2727 123.975 44.0726 113.675 69.2726 105.075Z" fill="url(#paint2_linear_299_55)"/>
<path d="M53.1719 174.575C67.8719 167.175 70.9719 141.275 62.8719 138.375C61.4719 137.975 59.7719 138.375 58.9719 138.375C29.2719 148.175 11.8719 160.575 8.47188 173.375C6.77188 180.075 4.57187 188.575 3.17188 195.575L0.671875 213.575C1.87188 199.275 20.1719 185.575 53.1719 174.575Z" fill="url(#paint3_linear_299_55)"/>
<path d="M57.9726 251.976C72.3726 244.576 67.6726 216.976 57.4726 213.676C56.0726 213.376 53.8726 213.376 52.7726 213.676C17.5726 226.076 -1.32742 240.776 0.0725787 256.376C1.47258 266.676 3.67257 279.876 5.67257 290.176L7.37258 296.876C3.07258 280.676 21.3726 264.776 57.9726 251.976Z" fill="url(#paint4_linear_299_55)"/>
<path d="M83.1716 325.475C95.3716 318.775 83.6716 293.475 73.1716 290.075C71.7716 289.775 69.5717 289.775 68.4717 290.075C30.9717 302.875 14.0716 319.275 21.8716 335.475C26.2716 343.675 31.8716 354.375 37.1716 362.275L42.4717 370.475C30.9717 354.375 46.2716 337.975 83.1716 325.475Z" fill="url(#paint5_linear_299_55)"/>
<path d="M124.673 388.876C132.973 383.476 116.073 361.776 106.373 359.276C104.973 358.976 103.273 358.976 101.973 359.276C66.7731 371.176 53.6731 387.676 68.9731 402.876C75.5731 408.676 83.6731 416.576 90.8731 422.176L101.673 430.076C81.473 415.676 91.473 400.076 124.673 388.876Z" fill="url(#paint6_linear_299_55)"/>
<path d="M179.072 437.576L179.572 437.276C179.072 432.676 159.072 415.076 150.772 415.876C123.872 424.976 115.872 438.076 134.172 449.176L134.672 449.476C133.872 449.176 133.272 449.176 129.972 447.376C146.572 455.576 147.472 455.976 158.772 460.476C172.672 465.376 173.172 465.376 181.772 467.876C184.272 468.776 188.372 469.476 190.972 470.376C182.372 468.276 174.872 465.776 169.072 462.976C153.872 454.076 159.072 444.076 179.072 437.576Z" fill="url(#paint7_linear_299_55)"/>
<path d="M253.973 472.975C253.173 472.575 253.173 472.575 250.373 469.675C246.773 469.675 243.473 469.375 241.773 468.475C240.373 467.575 240.973 466.875 242.573 465.975C210.673 454.975 210.673 454.975 210.373 454.975C198.973 458.675 196.473 464.075 205.073 468.975C208.673 470.575 213.373 472.275 218.973 473.575H219.473C218.073 473.975 215.873 474.475 211.173 473.975H210.673C207.573 473.575 206.773 473.575 202.373 472.775C205.973 473.175 210.673 473.975 214.073 474.875C222.373 476.075 222.373 476.075 226.273 476.075C226.273 476.075 226.773 476.075 227.073 476.075C227.073 476.075 227.073 476.075 227.573 476.075C231.173 476.075 234.173 475.675 237.573 475.675C243.673 476.075 249.773 476.075 255.873 476.075C256.673 476.075 257.273 476.075 257.273 475.675C256.173 474.575 256.173 474.575 253.973 472.975Z" fill="url(#paint8_linear_299_55)"/>
<path d="M450.372 239.575C450.372 243.775 449.572 254.475 440.672 258.875C418.772 265.875 391.572 271.675 359.172 275.675C298.972 283.575 232.872 284.275 174.072 278.975C163.272 279.275 157.472 285.075 156.272 296.675C156.272 297.075 156.272 297.575 156.272 297.575C157.072 309.475 163.172 316.175 174.072 318.275C232.072 323.175 296.972 322.875 356.072 315.475C376.072 315.075 375.172 335.275 366.072 344.375C361.372 349.275 357.472 350.175 353.372 351.075C260.472 362.675 153.372 356.875 82.8723 339.175C75.3723 338.275 72.3723 343.375 74.2723 352.275C74.2723 352.675 74.2723 352.675 74.7723 353.175C78.3723 362.975 84.4723 369.275 92.2723 372.475C140.272 384.875 205.972 391.075 271.772 389.275C290.872 390.475 290.072 405.775 281.772 412.375C277.372 415.675 273.972 416.075 270.072 416.575C243.972 417.475 217.372 416.575 192.472 414.475C180.272 414.475 181.072 420.575 181.672 425.175V425.475C184.772 432.175 190.872 436.175 199.172 437.375C241.072 440.675 287.172 439.875 329.472 434.875C335.072 434.575 335.572 435.275 337.272 437.675C335.872 445.875 326.772 450.475 319.472 452.575C257.572 460.475 189.672 457.175 143.572 445.575C142.772 445.575 141.872 445.575 141.072 445.575C141.872 447.675 144.672 450.175 146.672 451.675L147.172 452.075C154.972 456.675 158.872 458.175 164.072 460.275C195.072 468.175 236.472 470.975 276.072 468.875C277.772 468.875 279.972 469.175 281.672 470.475C278.572 473.775 278.072 474.175 269.972 475.375C254.672 476.275 240.872 476.275 227.772 475.375C226.972 475.375 226.072 475.375 225.272 475.375C225.772 475.375 226.672 475.775 226.972 475.775C219.172 474.875 218.672 474.875 214.772 474.575C211.172 474.275 206.472 473.375 203.072 472.475C201.372 472.175 198.672 471.575 196.972 471.275C194.772 470.875 193.372 470.375 192.572 470.375C190.072 469.475 185.972 468.775 183.372 467.875C170.372 464.175 168.972 463.675 160.372 460.475C144.272 453.775 142.572 453.075 131.572 447.375C129.872 446.475 127.172 444.875 125.472 444.075C124.972 444.075 124.972 443.675 124.672 443.675C119.072 440.375 119.072 440.375 105.572 431.775C104.772 431.375 104.172 430.875 103.372 430.175L92.5723 422.275C85.9723 416.475 77.2723 409.175 70.6723 402.975C73.7723 405.775 78.1723 409.075 83.3723 412.075C95.5723 418.775 112.172 424.475 132.172 428.575C133.872 428.575 136.572 428.175 137.772 426.975C137.772 424.475 136.972 421.575 136.072 419.575L135.572 419.275C130.272 411.375 124.172 406.475 116.472 404.075C93.7723 399.175 75.1723 393.075 61.5723 385.175C52.9722 380.575 47.1723 375.675 43.7723 370.775L38.4723 362.575C32.8723 354.675 26.7723 343.975 22.3723 335.775C24.8723 340.675 29.8723 345.575 36.7723 350.675C37.5723 350.675 38.4723 350.675 39.2723 350.275C39.7723 346.075 39.7723 345.675 37.5723 338.675C37.5723 338.275 37.5723 338.275 37.0723 337.775C33.4723 328.275 30.1723 322.575 25.6723 317.075C14.8723 309.175 9.07227 303.075 7.37227 296.375L5.67226 289.675C3.47226 279.875 1.27227 266.175 0.0722656 255.875C0.872266 265.375 9.27227 274.775 25.3723 283.375C40.0723 291.575 60.5723 298.575 84.6723 304.375C93.2723 305.275 97.6723 300.175 98.5723 288.275C98.5723 287.875 98.5723 287.375 98.5723 287.375C97.7723 274.975 93.2723 268.075 84.6723 264.775C61.6723 259.375 41.0723 252.375 26.3723 244.075C8.07227 234.275 -0.227734 223.375 1.07227 213.275L3.57227 195.275C4.97227 188.575 7.17227 179.675 8.87227 173.075C6.37227 182.175 11.0723 191.675 23.5723 200.575C27.4723 200.875 31.3723 200.575 36.2723 186.875C36.2723 186.575 36.2723 186.575 36.7723 185.975C41.1723 171.075 38.4723 167.075 36.2723 163.775C22.3723 153.975 18.4723 143.975 23.2723 134.175L30.1723 120.475C34.5723 113.775 39.8723 105.275 44.0723 99.0754C35.7723 110.675 40.4722 122.875 61.5723 134.475C73.2723 141.175 89.0723 146.375 107.372 150.975C114.872 151.875 120.972 146.775 126.472 136.575C126.972 136.275 126.972 136.275 126.972 135.675C131.372 124.075 129.172 121.275 126.172 117.675C107.872 112.775 94.2723 107.875 83.9723 102.475C63.1723 91.4754 60.0723 78.6754 71.7723 67.4754L81.4723 58.8754C88.3723 53.0754 97.5723 45.7754 104.472 40.8754C91.4723 49.9754 89.7723 60.1754 102.272 69.7754C106.172 70.0754 109.172 69.3754 121.372 60.2754C121.872 60.2754 121.872 59.9754 122.172 59.9754C129.972 53.2754 131.372 51.7754 133.872 48.0754C121.672 37.0754 126.372 26.6754 144.672 18.4754L154.672 14.2754C167.372 8.87542 167.372 8.87542 173.472 6.87542C175.672 5.97542 178.172 5.27542 180.372 4.77542C161.572 11.7754 156.772 21.2754 172.072 29.4754C176.472 31.9754 182.072 34.0754 188.672 35.5754C193.072 35.1754 195.572 34.3754 206.172 26.9754L206.672 26.5754C213.272 21.6754 214.972 19.8754 216.672 18.3754C213.072 16.7754 210.072 15.5754 207.472 14.1754C199.172 9.57541 201.872 4.37543 212.772 0.47543C217.172 0.0754301 226.672 -1.12457 244.972 2.97543C243.572 4.17543 243.272 4.57543 244.472 5.47543C245.872 6.37543 248.872 6.67542 251.372 6.37542C258.272 14.5754 258.872 16.6754 258.872 20.7754C249.172 21.9754 241.072 21.6754 233.072 20.7754C229.972 21.9754 227.472 23.2754 221.372 29.3754L220.872 29.7754C217.272 34.3754 217.272 34.6754 216.472 38.3754C216.972 39.2754 217.872 39.9754 218.672 40.4754C238.672 42.5754 261.672 42.5754 283.072 40.4754C295.272 42.9754 303.572 59.0754 299.672 63.5754C298.872 64.4754 297.472 64.4754 296.572 64.7754C249.072 69.6754 195.572 66.3754 161.472 56.8754C157.072 57.2754 151.772 58.0754 142.372 67.5754C142.372 67.5754 141.872 67.8754 141.872 68.4754C135.272 75.8754 135.272 77.5754 135.272 82.4754C136.072 82.8754 136.972 83.6754 137.472 84.5754C173.272 94.3754 225.972 99.4754 277.272 96.9754C296.972 101.175 295.072 122.875 287.272 127.775C285.872 128.675 283.672 128.975 281.972 129.375C250.572 130.575 218.772 129.775 189.072 127.275C180.772 127.675 175.172 132.675 171.272 142.875C171.272 143.175 171.272 143.175 170.772 143.775C168.572 154.775 172.172 161.075 180.772 163.075C231.772 167.975 289.772 167.675 341.972 160.575C345.072 160.175 348.072 159.675 351.172 159.375C369.472 159.075 376.472 181.575 368.072 191.375C365.572 194.175 362.472 195.075 360.272 195.975C357.172 196.375 353.672 196.875 350.572 197.175C260.772 208.775 156.672 203.275 89.2723 185.275C81.4723 184.375 75.6723 189.475 71.7723 200.175C71.7723 200.575 71.7723 200.575 71.2723 201.075C69.0723 212.675 71.7723 219.975 79.5723 223.275C151.072 242.175 261.272 247.975 356.672 235.675C388.072 231.475 414.672 225.875 435.972 219.175C448.772 220.575 450.372 233.775 450.372 239.575Z" fill="url(#paint9_linear_299_55)"/>
<path d="M576.672 258.777L616.772 261.277C614.872 279.277 608.372 293.177 597.372 302.777C586.272 312.377 572.672 317.177 556.572 317.177C537.172 317.177 521.472 310.577 509.472 297.377C497.472 284.177 491.572 265.877 491.572 242.577C491.572 219.477 497.272 200.877 508.572 186.677C519.872 172.477 535.672 165.477 555.972 165.477C574.872 165.477 589.472 170.877 599.672 181.677C609.872 192.477 615.572 206.777 616.872 224.577L575.872 226.877C575.872 217.077 574.072 209.877 570.372 205.477C566.672 201.077 562.372 198.877 557.472 198.877C543.672 198.877 536.672 213.177 536.672 241.777C536.672 257.777 538.472 268.677 542.072 274.477C545.672 280.277 550.672 283.077 557.172 283.077C568.772 283.077 575.272 274.977 576.672 258.777Z" fill="url(#paint10_linear_299_55)"/>
<path d="M730.972 205.275L689.172 324.075C685.972 333.075 681.372 340.075 675.372 345.175C669.372 350.275 660.072 352.775 647.572 352.775C644.572 352.775 637.572 352.475 626.572 351.775V321.275C632.072 322.175 637.072 322.575 641.672 322.575C653.672 322.575 659.672 319.875 659.672 314.375C659.672 312.575 659.072 310.075 657.872 306.975L619.572 205.275H664.272L681.872 263.775L700.272 205.275H730.972Z" fill="url(#paint11_linear_299_55)"/>
<path d="M765.172 314.875H741.572V167.775H782.772V218.375C788.472 208.175 797.572 203.075 810.172 203.075C818.972 203.075 826.472 205.475 832.572 210.175C838.672 214.875 843.272 221.675 846.272 230.475C849.272 239.275 850.772 248.575 850.772 258.275C850.772 275.975 846.972 290.175 839.272 301.075C831.572 311.875 820.172 317.275 804.872 317.275C789.872 317.275 778.372 311.475 770.572 299.875C768.372 304.175 766.572 309.175 765.172 314.875ZM782.772 274.075C782.772 284.875 786.872 290.275 794.972 290.275C799.372 290.275 802.772 288.275 805.072 284.375C807.372 280.475 808.572 272.375 808.572 260.175C808.572 246.875 807.272 238.475 804.572 235.075C801.872 231.675 798.672 229.975 794.672 229.975C791.572 229.975 788.872 231.175 786.372 233.675C783.972 236.075 782.672 239.675 782.672 244.375V274.075H782.772Z" fill="url(#paint12_linear_299_55)"/>
<path d="M937.973 275.576L976.973 278.276C974.673 289.076 968.773 298.276 959.273 305.876C949.773 313.476 936.973 317.276 920.873 317.276C902.873 317.276 888.573 311.976 877.873 301.276C867.173 290.576 861.873 277.376 861.873 261.576C861.873 245.176 867.173 231.376 877.673 220.076C888.273 208.776 902.273 203.176 919.873 203.176C936.973 203.176 950.673 208.476 961.273 219.176C971.773 229.776 977.073 244.276 977.073 262.676C977.073 264.176 977.073 266.276 976.973 268.976H905.573C905.673 275.876 906.873 280.976 909.173 284.376C911.373 287.676 915.673 289.376 921.973 289.376C930.973 289.076 936.373 284.576 937.973 275.576ZM935.073 247.076C934.973 239.676 933.573 234.676 930.773 232.176C927.973 229.576 924.473 228.376 920.273 228.376C910.373 228.376 905.473 234.676 905.473 247.176H935.073V247.076Z" fill="url(#paint13_linear_299_55)"/>
<path d="M1033.47 314.876H993.473V205.276H1028.27V227.876C1032.27 211.376 1041.47 203.176 1056.07 203.176C1057.57 203.176 1059.57 203.276 1062.17 203.576V241.876C1059.27 241.176 1056.57 240.776 1054.27 240.776C1040.47 240.776 1033.47 248.676 1033.47 264.576V314.876Z" fill="url(#paint14_linear_299_55)"/>
<path d="M1127.37 317.177C1109.67 317.177 1095.67 311.477 1085.27 300.177C1074.87 288.877 1069.67 275.577 1069.67 260.377C1069.67 243.977 1075.07 230.377 1085.97 219.377C1096.87 208.477 1110.97 202.977 1128.37 202.977C1145.87 202.977 1159.97 208.377 1170.67 219.177C1181.37 229.977 1186.67 243.477 1186.67 259.677C1186.67 276.077 1181.27 289.777 1170.47 300.677C1159.57 311.677 1145.27 317.177 1127.37 317.177ZM1127.97 291.077C1134.47 291.077 1138.47 287.577 1139.87 280.677C1141.27 273.777 1141.97 266.477 1141.97 258.977C1141.97 248.677 1140.97 241.277 1138.97 236.777C1136.97 232.277 1133.27 229.977 1128.07 229.977C1123.27 229.977 1119.67 232.277 1117.47 236.977C1115.27 241.677 1114.07 249.377 1114.07 260.077C1114.07 272.677 1115.27 280.977 1117.57 285.077C1119.87 289.077 1123.37 291.077 1127.97 291.077Z" fill="url(#paint15_linear_299_55)"/>
<path d="M1244.07 167.775V314.975H1202.87V167.775H1244.07Z" fill="url(#paint16_linear_299_55)"/>
<path d="M1307.27 167.775V314.975H1266.07V167.775H1307.27Z" fill="url(#paint17_linear_299_55)"/>
<path d="M1371.07 163.076V197.176H1329.27V163.076H1371.07ZM1371.07 205.276V314.976H1329.27V205.276H1371.07Z" fill="url(#paint18_linear_299_55)"/>
<path d="M1463.57 275.576L1502.57 278.276C1500.27 289.076 1494.37 298.276 1484.87 305.876C1475.37 313.476 1462.57 317.276 1446.47 317.276C1428.47 317.276 1414.17 311.976 1403.47 301.276C1392.77 290.576 1387.47 277.376 1387.47 261.576C1387.47 245.176 1392.77 231.376 1403.27 220.076C1413.87 208.776 1427.87 203.176 1445.47 203.176C1462.57 203.176 1476.27 208.476 1486.87 219.176C1497.37 229.776 1502.67 244.276 1502.67 262.676C1502.67 264.176 1502.67 266.276 1502.57 268.976H1431.17C1431.27 275.876 1432.47 280.976 1434.77 284.376C1436.97 287.676 1441.27 289.376 1447.57 289.376C1456.57 289.076 1461.97 284.576 1463.57 275.576ZM1460.67 247.076C1460.57 239.676 1459.17 234.676 1456.37 232.176C1453.57 229.576 1450.07 228.376 1445.87 228.376C1435.97 228.376 1431.07 234.676 1431.07 247.176H1460.67V247.076Z" fill="url(#paint19_linear_299_55)"/>
<path d="M743.449 376.01L743.478 337.026L763.27 337.041C767.382 337.044 770.38 338.084 772.264 340.161C774.147 342.238 775.088 344.609 775.086 347.274C775.084 349.216 774.531 350.977 773.425 352.557C772.339 354.117 770.71 355.192 768.539 355.78C773.584 357.003 776.104 360.032 776.101 364.868C776.099 367.762 775.202 370.351 773.41 372.634C771.638 374.898 767.839 376.029 762.013 376.024L743.449 376.01ZM754.491 351.971L760.031 351.976C761.421 351.977 762.402 351.625 762.974 350.921C763.546 350.217 763.832 349.465 763.832 348.665C763.834 346.495 762.502 345.409 759.836 345.407L754.496 345.403L754.491 351.971ZM754.479 367.336L760.306 367.341C761.753 367.342 762.81 366.99 763.476 366.286C764.162 365.563 764.506 364.754 764.506 363.86C764.507 362.965 764.174 362.146 763.509 361.403C762.862 360.641 761.663 360.259 759.911 360.258L754.485 360.254L754.479 367.336ZM791.543 376.046L780.634 376.038L780.655 346.993L790.137 347L790.132 352.998C791.221 348.638 793.745 346.46 797.706 346.463C798.105 346.463 798.658 346.502 799.362 346.578L799.354 356.717C798.555 356.526 797.841 356.43 797.213 356.43C793.443 356.427 791.556 358.53 791.553 362.737L791.543 376.046ZM814.392 335.851L814.386 344.876L802.99 344.868L802.997 335.843L814.392 335.851ZM814.384 347.018L814.362 376.063L802.967 376.055L802.989 347.01L814.384 347.018ZM848.748 376.089L838.067 376.081L838.07 372.225C836.487 375.194 833.878 376.677 830.241 376.675C826.89 376.672 824.168 375.366 822.076 372.756C820.003 370.127 818.968 366.318 818.971 361.33C818.975 356.665 820.025 352.963 822.121 350.223C824.218 347.482 826.989 346.114 830.435 346.116C833.31 346.118 835.68 347.215 837.544 349.406L837.553 337.097L848.777 337.105L848.748 376.089ZM837.538 357.402C837.54 354.794 836.465 353.489 834.314 353.487C832.81 353.486 831.819 354.314 831.342 355.97C830.884 357.626 830.654 359.654 830.652 362.053C830.648 366.755 831.846 369.108 834.245 369.109C835.159 369.11 835.93 368.739 836.559 367.997C837.207 367.255 837.532 366.123 837.533 364.599L837.538 357.402ZM885.074 340.474L884.783 348.27L884.24 348.241C883.212 348.183 882.479 348.154 882.041 348.154C880.27 348.152 879.204 348.504 878.841 349.208C881.011 350.999 882.094 353.161 882.092 355.694C882.09 358.664 880.908 360.9 878.546 362.402C876.203 363.886 873.013 364.626 868.977 364.623C868.882 364.623 868.387 364.603 867.492 364.565C866.654 364.526 866.216 364.507 866.178 364.507C864.331 364.505 863.407 364.981 863.407 365.933C863.406 366.77 864.225 367.218 865.862 367.277L875.201 367.683C878.609 367.838 881.102 368.792 882.681 370.545C884.279 372.298 885.077 374.345 885.076 376.687C885.073 379.467 883.882 381.732 881.5 383.482C879.138 385.251 874.53 386.132 867.676 386.127C857.109 386.119 851.827 383.688 851.831 378.833C851.833 376.186 853.233 374.341 856.033 373.295C854.225 372.018 853.322 370.504 853.323 368.752C853.325 365.896 855.183 363.746 858.897 362.302C855.795 360.948 854.245 358.7 854.247 355.559C854.249 352.684 855.507 350.447 858.022 348.85C860.536 347.252 863.983 346.455 868.362 346.459C870.361 346.46 872.179 346.661 873.817 347.062C874.486 342.512 876.897 340.239 881.047 340.242C881.999 340.243 883.341 340.32 885.074 340.474ZM868.381 359.225C870.59 359.226 871.695 358.056 871.697 355.714C871.698 353.315 870.567 352.115 868.301 352.113C866.054 352.112 864.93 353.329 864.928 355.766C864.926 358.07 866.077 359.223 868.381 359.225ZM865.456 375.73C865.037 375.711 864.618 375.701 864.199 375.7C862.238 375.699 861.257 376.308 861.256 377.526C861.255 378.649 861.997 379.374 863.482 379.698C864.986 380.023 866.985 380.186 869.479 380.188C871.84 380.19 873.354 379.991 874.021 379.592C874.707 379.193 875.05 378.641 875.05 377.936C875.051 377.441 874.899 377.022 874.594 376.679C874.29 376.355 873.566 376.164 872.424 376.106L865.456 375.73ZM899.5 335.915L899.493 344.94L888.098 344.931L888.105 335.906L899.5 335.915ZM899.492 347.082L899.47 376.127L888.075 376.118L888.096 347.073L899.492 347.082ZM933.856 376.152L922.46 376.144L922.474 357.866C922.475 356.361 922.238 355.4 921.762 354.981C921.306 354.561 920.725 354.351 920.021 354.351C917.945 354.349 916.906 355.796 916.904 358.69L916.891 376.14L905.496 376.131L905.518 347.086L916.085 347.094L916.082 351.206C917.645 348.066 920.436 346.497 924.453 346.5C926.567 346.502 928.346 346.913 929.793 347.732C931.258 348.533 932.305 349.581 932.932 350.876C933.559 352.152 933.872 354.38 933.87 357.56L933.856 376.152ZM970.182 340.537L969.89 348.333L969.348 348.305C968.319 348.247 967.586 348.218 967.148 348.217C965.378 348.216 964.311 348.567 963.949 349.272C966.118 351.063 967.202 353.225 967.2 355.757C967.198 358.727 966.016 360.963 963.654 362.466C961.311 363.949 958.121 364.689 954.084 364.686C953.989 364.686 953.494 364.667 952.599 364.628C951.762 364.589 951.324 364.57 951.286 364.57C949.439 364.569 948.515 365.044 948.514 365.996C948.514 366.834 949.332 367.282 950.969 367.34L960.308 367.747C963.716 367.902 966.21 368.856 967.789 370.608C969.387 372.361 970.185 374.409 970.183 376.751C970.181 379.53 968.989 381.795 966.608 383.545C964.246 385.314 959.638 386.196 952.783 386.191C942.216 386.183 936.934 383.751 936.938 378.896C936.94 376.25 938.341 374.404 941.141 373.359C939.333 372.082 938.429 370.567 938.431 368.816C938.433 365.96 940.291 363.81 944.005 362.366C940.902 361.011 939.352 358.764 939.354 355.622C939.357 352.747 940.615 350.511 943.129 348.913C945.644 347.316 949.091 346.519 953.47 346.522C955.469 346.523 957.287 346.725 958.924 347.126C959.594 342.576 962.004 340.302 966.155 340.305C967.107 340.306 968.449 340.383 970.182 340.537ZM953.489 359.288C955.697 359.29 956.803 358.12 956.804 355.778C956.806 353.379 955.674 352.178 953.408 352.177C951.162 352.175 950.037 353.393 950.036 355.83C950.034 358.134 951.185 359.286 953.489 359.288ZM950.563 375.793C950.145 375.774 949.726 375.764 949.307 375.764C947.346 375.762 946.365 376.371 946.364 377.59C946.363 378.713 947.105 379.437 948.59 379.762C950.094 380.087 952.093 380.25 954.587 380.252C956.948 380.253 958.462 380.055 959.128 379.655C959.814 379.256 960.157 378.704 960.158 378C960.158 377.505 960.006 377.086 959.702 376.743C959.397 376.419 958.674 376.228 957.532 376.17L950.563 375.793ZM1004.25 346.56L1004.23 376.205L992.888 376.196L992.91 346.551L984.828 346.545L984.835 337.206L1012.34 337.227L1012.33 346.566L1004.25 346.56ZM1024.42 376.22L1013.51 376.212L1013.53 347.167L1023.01 347.174L1023.01 353.171C1024.1 348.812 1026.62 346.634 1030.58 346.637C1030.98 346.637 1031.53 346.675 1032.24 346.752L1032.23 356.891C1031.43 356.7 1030.72 356.604 1030.09 356.604C1026.32 356.601 1024.43 358.703 1024.43 362.911L1024.42 376.22ZM1064.11 347.204L1064.09 376.249L1053.55 376.241L1053.55 371.472C1052.01 375.05 1049 376.838 1044.52 376.834C1041.76 376.832 1039.62 376.069 1038.1 374.545C1036.6 373.002 1035.85 370.802 1035.85 367.946L1035.86 347.183L1047.26 347.192L1047.25 365.47C1047.24 366.612 1047.4 367.421 1047.7 367.898C1048.02 368.355 1048.64 368.584 1049.56 368.585C1050.53 368.585 1051.32 368.243 1051.93 367.558C1052.54 366.854 1052.84 365.874 1052.84 364.617L1052.86 347.196L1064.11 347.204ZM1067.55 368.027L1076.55 366.805C1077.06 368.9 1079.1 369.949 1082.66 369.951C1085.61 369.954 1087.08 369.384 1087.08 368.241C1087.08 367.746 1086.8 367.365 1086.23 367.098C1085.66 366.812 1084.31 366.526 1082.17 366.238C1076.27 365.415 1072.59 364.137 1071.12 362.403C1069.66 360.65 1068.93 358.708 1068.93 356.575C1068.93 353.605 1070.17 351.207 1072.65 349.381C1075.12 347.536 1078.37 346.615 1082.39 346.618C1089.43 346.623 1093.92 349.168 1095.86 354.254L1087.24 355.875C1086.44 354.161 1084.75 353.303 1082.18 353.301C1080.96 353.3 1080.05 353.471 1079.44 353.813C1078.85 354.136 1078.55 354.46 1078.55 354.783C1078.55 355.735 1079.47 356.317 1081.3 356.527C1086.05 357.064 1089.28 357.609 1090.98 358.163C1092.67 358.716 1094.12 359.726 1095.31 361.193C1096.51 362.66 1097.11 364.431 1097.11 366.507C1097.11 369.686 1095.77 372.208 1093.11 374.072C1090.46 375.936 1086.8 376.866 1082.14 376.863C1074.27 376.857 1069.41 373.911 1067.55 368.027ZM1119.37 347.245L1119.37 354.642L1113.57 354.638L1113.56 365.348C1113.56 366.814 1113.84 367.69 1114.39 367.976C1114.94 368.243 1115.51 368.377 1116.1 368.377C1117.01 368.378 1118.1 368.217 1119.36 367.894L1119.35 376.005C1117.1 376.441 1114.89 376.658 1112.72 376.657C1109.22 376.654 1106.64 375.9 1104.99 374.395C1103.35 372.89 1102.53 370.49 1102.54 367.196L1102.57 363.797L1102.57 354.63L1098.23 354.627L1098.24 347.23L1102.58 347.233L1102.76 337.78L1113.58 337.616L1113.57 347.241L1119.37 347.245ZM1133.67 365.934L1133.66 375.502L1127.4 386.321L1122.91 386.318L1127.4 376.297L1122.81 376.293L1122.81 365.926L1133.67 365.934ZM1183.64 367.028L1183.64 376.338L1154.31 376.317L1154.34 337.333L1183.67 337.355L1183.66 346.351L1166.07 346.338L1166.06 351.993L1180.29 352.003L1180.28 360.657L1166.06 360.646L1166.05 367.015L1183.64 367.028ZM1199.26 337.366L1199.23 376.35L1188.01 376.342L1188.04 337.358L1199.26 337.366ZM1224.46 365.945L1235.08 366.666C1234.45 369.522 1232.84 371.958 1230.25 373.974C1227.68 375.971 1224.19 376.968 1219.79 376.965C1214.9 376.961 1211 375.55 1208.09 372.73C1205.18 369.89 1203.72 366.377 1203.73 362.188C1203.73 357.847 1205.17 354.183 1208.05 351.196C1210.92 348.209 1214.76 346.717 1219.56 346.72C1224.21 346.724 1227.95 348.136 1230.81 350.956C1233.68 353.776 1235.12 357.613 1235.11 362.468C1235.11 362.868 1235.1 363.42 1235.08 364.125L1215.63 364.11C1215.67 365.938 1215.99 367.3 1216.6 368.195C1217.21 369.071 1218.37 369.51 1220.09 369.511C1222.56 369.513 1224.02 368.324 1224.46 365.945ZM1223.72 358.404C1223.7 356.443 1223.3 355.129 1222.52 354.462C1221.76 353.776 1220.81 353.433 1219.67 353.432C1216.96 353.43 1215.61 355.085 1215.61 358.398L1223.72 358.404ZM1265.51 347.354L1254.84 376.391L1246.33 376.385L1235.5 347.332L1247.2 347.341L1251.34 359.682C1251.68 360.691 1251.98 361.691 1252.25 362.681C1252.34 362.338 1252.49 361.9 1252.68 361.368C1252.72 361.291 1252.84 360.93 1253.05 360.283L1257.34 347.348L1265.51 347.354ZM1296.68 376.423L1285.82 376.415C1285.56 375.177 1285.43 373.825 1285.43 372.359C1283.37 375.461 1280.25 377.01 1276.08 377.007C1272.66 377.005 1270.09 376.127 1268.38 374.374C1266.68 372.621 1265.84 370.612 1265.84 368.346C1265.84 365.28 1267.23 362.806 1270.01 360.923C1272.81 359.022 1277.77 357.883 1284.87 357.507L1284.87 356.851C1284.87 355.575 1284.57 354.727 1283.98 354.308C1283.41 353.889 1282.57 353.679 1281.44 353.678C1278.82 353.676 1277.35 354.732 1277.04 356.845L1266.65 355.866C1268.14 349.793 1273.19 346.76 1281.82 346.767C1284.16 346.768 1286.31 347.008 1288.27 347.486C1290.23 347.944 1291.79 348.669 1292.93 349.66C1294.07 350.65 1294.83 351.698 1295.21 352.803C1295.61 353.907 1295.81 356.03 1295.8 359.172L1295.8 370.767C1295.79 372.976 1296.09 374.861 1296.68 376.423ZM1284.86 362.819C1280.01 363.33 1277.58 364.88 1277.58 367.469C1277.58 369.221 1278.54 370.097 1280.46 370.099C1281.68 370.1 1282.72 369.739 1283.57 369.016C1284.43 368.293 1284.86 366.694 1284.86 364.219L1284.86 362.819ZM1319.69 347.395L1319.68 354.792L1313.89 354.787L1313.88 365.497C1313.88 366.963 1314.15 367.839 1314.7 368.125C1315.26 368.392 1315.83 368.526 1316.42 368.526C1317.33 368.527 1318.42 368.366 1319.67 368.043L1319.67 376.154C1317.42 376.59 1315.21 376.808 1313.04 376.806C1309.54 376.804 1306.96 376.05 1305.3 374.544C1303.67 373.039 1302.85 370.639 1302.85 367.345L1302.88 363.947L1302.89 354.779L1298.55 354.776L1298.55 347.379L1302.9 347.382L1303.07 337.929L1313.9 337.766L1313.89 347.39L1319.69 347.395ZM1334.92 336.239L1334.91 345.264L1323.52 345.256L1323.52 336.231L1334.92 336.239ZM1334.91 347.406L1334.89 376.451L1323.49 376.443L1323.52 347.398L1334.91 347.406ZM1369.28 376.477L1357.88 376.468L1357.89 358.19C1357.89 356.686 1357.66 355.724 1357.18 355.305C1356.73 354.886 1356.14 354.676 1355.44 354.675C1353.36 354.674 1352.33 356.12 1352.32 359.014L1352.31 376.464L1340.92 376.456L1340.94 347.411L1351.5 347.418L1351.5 351.531C1353.06 348.391 1355.86 346.822 1359.87 346.825C1361.99 346.826 1363.77 347.237 1365.21 348.057C1366.68 348.858 1367.72 349.906 1368.35 351.201C1368.98 352.477 1369.29 354.705 1369.29 357.884L1369.28 376.477ZM1405.6 340.861L1405.31 348.658L1404.77 348.629C1403.74 348.571 1403.01 348.542 1402.57 348.542C1400.8 348.54 1399.73 348.892 1399.37 349.596C1401.54 351.387 1402.62 353.549 1402.62 356.082C1402.62 359.052 1401.44 361.288 1399.07 362.79C1396.73 364.274 1393.54 365.014 1389.5 365.011C1389.41 365.011 1388.91 364.991 1388.02 364.953C1387.18 364.914 1386.74 364.895 1386.71 364.895C1384.86 364.893 1383.93 365.369 1383.93 366.32C1383.93 367.158 1384.75 367.606 1386.39 367.665L1395.73 368.071C1399.14 368.226 1401.63 369.18 1403.21 370.933C1404.81 372.686 1405.6 374.733 1405.6 377.075C1405.6 379.855 1404.41 382.12 1402.03 383.87C1399.67 385.639 1395.06 386.52 1388.2 386.515C1377.64 386.507 1372.35 384.076 1372.36 379.221C1372.36 376.574 1373.76 374.728 1376.56 373.683C1374.75 372.406 1373.85 370.892 1373.85 369.14C1373.85 366.284 1375.71 364.134 1379.42 362.69C1376.32 361.336 1374.77 359.088 1374.77 355.947C1374.78 353.072 1376.03 350.835 1378.55 349.238C1381.06 347.64 1384.51 346.843 1388.89 346.847C1390.89 346.848 1392.71 347.049 1394.34 347.45C1395.01 342.9 1397.42 340.627 1401.57 340.63C1402.53 340.631 1403.87 340.708 1405.6 340.861ZM1388.91 359.613C1391.12 359.614 1392.22 358.444 1392.22 356.102C1392.23 353.703 1391.09 352.503 1388.83 352.501C1386.58 352.5 1385.46 353.717 1385.46 356.154C1385.45 358.458 1386.6 359.611 1388.91 359.613ZM1385.98 376.118C1385.56 376.099 1385.15 376.089 1384.73 376.088C1382.77 376.087 1381.78 376.696 1381.78 377.914C1381.78 379.037 1382.52 379.761 1384.01 380.086C1385.51 380.411 1387.51 380.574 1390.01 380.576C1392.37 380.578 1393.88 380.379 1394.55 379.98C1395.23 379.581 1395.58 379.029 1395.58 378.324C1395.58 377.829 1395.43 377.41 1395.12 377.067C1394.82 376.743 1394.09 376.552 1392.95 376.494L1385.98 376.118ZM1439.67 346.884L1439.65 376.529L1428.31 376.521L1428.33 346.876L1420.25 346.87L1420.25 337.531L1447.76 337.551L1447.75 346.89L1439.67 346.884ZM1477.74 376.558L1466.89 376.55C1466.63 375.312 1466.49 373.96 1466.5 372.494C1464.44 375.596 1461.32 377.145 1457.15 377.142C1453.73 377.139 1451.16 376.262 1449.44 374.509C1447.75 372.756 1446.9 370.747 1446.91 368.481C1446.91 365.415 1448.3 362.941 1451.08 361.058C1453.88 359.157 1458.83 358.018 1465.94 357.642L1465.94 356.985C1465.94 355.71 1465.64 354.862 1465.05 354.443C1464.48 354.024 1463.63 353.814 1462.51 353.813C1459.88 353.811 1458.42 354.866 1458.11 356.98L1447.72 356.001C1449.2 349.928 1454.26 346.895 1462.89 346.902C1465.23 346.903 1467.38 347.143 1469.34 347.62C1471.3 348.079 1472.85 348.804 1473.99 349.794C1475.14 350.785 1475.9 351.833 1476.28 352.938C1476.68 354.042 1476.87 356.165 1476.87 359.307L1476.86 370.902C1476.86 373.111 1477.16 374.996 1477.74 376.558ZM1465.93 362.954C1461.08 363.465 1458.65 365.015 1458.64 367.604C1458.64 369.356 1459.6 370.232 1461.53 370.234C1462.75 370.235 1463.78 369.874 1464.64 369.151C1465.5 368.428 1465.93 366.829 1465.93 364.354L1465.93 362.954ZM1494.05 337.586L1494.02 376.57L1482.8 376.561L1482.83 337.578L1494.05 337.586ZM1519.25 366.164L1529.87 366.886C1529.24 369.742 1527.63 372.178 1525.04 374.194C1522.47 376.191 1518.98 377.188 1514.59 377.185C1509.69 377.181 1505.79 375.769 1502.88 372.949C1499.97 370.11 1498.51 366.596 1498.52 362.408C1498.52 358.066 1499.96 354.402 1502.84 351.415C1505.72 348.428 1509.55 346.936 1514.35 346.94C1519 346.944 1522.75 348.355 1525.6 351.175C1528.47 353.995 1529.91 357.833 1529.9 362.688C1529.9 363.088 1529.89 363.64 1529.87 364.344L1510.43 364.33C1510.46 366.158 1510.79 367.519 1511.39 368.415C1512 369.291 1513.16 369.73 1514.88 369.731C1517.35 369.733 1518.81 368.544 1519.25 366.164ZM1518.51 358.624C1518.49 356.663 1518.1 355.349 1517.32 354.682C1516.55 353.996 1515.6 353.652 1514.46 353.652C1511.76 353.65 1510.4 355.305 1510.4 358.618L1518.51 358.624ZM1562.74 376.621L1551.34 376.612L1551.36 358.334C1551.36 356.83 1551.12 355.869 1550.64 355.449C1550.19 355.03 1549.61 354.82 1548.9 354.82C1546.83 354.818 1545.79 356.264 1545.79 359.158L1545.77 376.608L1534.38 376.6L1534.4 347.555L1544.97 347.563L1544.96 351.675C1546.53 348.535 1549.32 346.966 1553.34 346.969C1555.45 346.971 1557.23 347.381 1558.68 348.201C1560.14 349.002 1561.19 350.05 1561.81 351.345C1562.44 352.621 1562.75 354.849 1562.75 358.029L1562.74 376.621ZM1586.72 347.594L1586.72 354.991L1580.92 354.986L1580.91 365.696C1580.91 367.162 1581.18 368.038 1581.74 368.324C1582.29 368.591 1582.86 368.725 1583.45 368.725C1584.36 368.726 1585.45 368.565 1586.71 368.242L1586.7 376.353C1584.45 376.789 1582.24 377.007 1580.07 377.005C1576.57 377.003 1573.99 376.249 1572.34 374.743C1570.7 373.238 1569.88 370.838 1569.88 367.544L1569.92 364.146L1569.92 354.978L1565.58 354.975L1565.59 347.578L1569.93 347.581L1570.11 338.128L1580.93 337.965L1580.92 347.589L1586.72 347.594Z" fill="#04D8E5"/>
<defs>
<linearGradient id="paint0_linear_299_55" x1="144.438" y1="12.9394" x2="173.076" y2="12.9394" gradientUnits="userSpaceOnUse">
<stop stop-color="#00FFFF"/>
<stop offset="1.06556e-08" stop-color="#CCCCFF"/>
<stop offset="1" stop-color="#808080"/>
</linearGradient>
<linearGradient id="paint1_linear_299_55" x1="71.3361" y1="48.7475" x2="128.488" y2="48.7475" gradientUnits="userSpaceOnUse">
<stop stop-color="#00FFFF"/>
<stop offset="1.06556e-08" stop-color="#CCCCFF"/>
<stop offset="1" stop-color="#808080"/>
</linearGradient>
<linearGradient id="paint2_linear_299_55" x1="22.9362" y1="105.143" x2="89.2699" y2="105.143" gradientUnits="userSpaceOnUse">
<stop stop-color="#00FFFF"/>
<stop offset="1.06556e-08" stop-color="#CCCCFF"/>
<stop offset="1" stop-color="#808080"/>
</linearGradient>
<linearGradient id="paint3_linear_299_55" x1="0.346575" y1="175.886" x2="67.1539" y2="175.886" gradientUnits="userSpaceOnUse">
<stop stop-color="#00FFFF"/>
<stop offset="1.06556e-08" stop-color="#CCCCFF"/>
<stop offset="1" stop-color="#808080"/>
</linearGradient>
<linearGradient id="paint4_linear_299_55" x1="-0.0916214" y1="255.072" x2="67.0792" y2="255.072" gradientUnits="userSpaceOnUse">
<stop stop-color="#00FFFF"/>
<stop offset="1.06556e-08" stop-color="#CCCCFF"/>
<stop offset="1" stop-color="#808080"/>
</linearGradient>
<linearGradient id="paint5_linear_299_55" x1="19.9791" y1="330.195" x2="88.4656" y2="330.195" gradientUnits="userSpaceOnUse">
<stop stop-color="#00FFFF"/>
<stop offset="1.06556e-08" stop-color="#CCCCFF"/>
<stop offset="1" stop-color="#808080"/>
</linearGradient>
<linearGradient id="paint6_linear_299_55" x1="63.0079" y1="394.549" x2="127.053" y2="394.549" gradientUnits="userSpaceOnUse">
<stop stop-color="#00FFFF"/>
<stop offset="1.06556e-08" stop-color="#CCCCFF"/>
<stop offset="1" stop-color="#808080"/>
</linearGradient>
<linearGradient id="paint7_linear_299_55" x1="124.537" y1="443.082" x2="191.093" y2="443.082" gradientUnits="userSpaceOnUse">
<stop stop-color="#00FFFF"/>
<stop offset="1.06556e-08" stop-color="#CCCCFF"/>
<stop offset="1" stop-color="#808080"/>
</linearGradient>
<linearGradient id="paint8_linear_299_55" x1="199.832" y1="465.424" x2="256.468" y2="465.424" gradientUnits="userSpaceOnUse">
<stop stop-color="#00FFFF"/>
<stop offset="1.06556e-08" stop-color="#CCCCFF"/>
<stop offset="1" stop-color="#808080"/>
</linearGradient>
<linearGradient id="paint9_linear_299_55" x1="-32.3203" y1="-15.6379" x2="589.637" y2="681.383" gradientUnits="userSpaceOnUse">
<stop offset="0.0229048" stop-color="#00FFFF"/>
<stop offset="0.1517" stop-color="#00FDFE"/>
<stop offset="0.2018" stop-color="#01F6F9"/>
<stop offset="0.2383" stop-color="#02EAF1"/>
<stop offset="0.2681" stop-color="#04D9E6"/>
<stop offset="0.2938" stop-color="#07C2D7"/>
<stop offset="0.3167" stop-color="#0AA6C5"/>
<stop offset="0.3376" stop-color="#0E85AF"/>
<stop offset="0.3568" stop-color="#125F95"/>
<stop offset="0.374" stop-color="#17357A"/>
<stop offset="0.3857" stop-color="#1B1464"/>
<stop offset="0.4015" stop-color="#182F76"/>
<stop offset="0.4308" stop-color="#135A92"/>
<stop offset="0.4633" stop-color="#0E82AC"/>
<stop offset="0.4983" stop-color="#0AA4C3"/>
<stop offset="0.5364" stop-color="#07C0D6"/>
<stop offset="0.5789" stop-color="#05D7E5"/>
<stop offset="0.6275" stop-color="#02E9F1"/>
<stop offset="0.6859" stop-color="#01F6F9"/>
<stop offset="0.7643" stop-color="#00FDFE"/>
<stop offset="0.9463" stop-color="#00FFFF"/>
</linearGradient>
<linearGradient id="paint10_linear_299_55" x1="599.761" y1="269.67" x2="1239.45" y2="690.624" gradientUnits="userSpaceOnUse">
<stop offset="0.295" stop-color="#04D8E5"/>
<stop offset="0.3207" stop-color="#10CFDA"/>
<stop offset="0.3672" stop-color="#30B7BD"/>
<stop offset="0.4293" stop-color="#64908E"/>
<stop offset="0.5047" stop-color="#AB5B4C"/>
<stop offset="0.5844" stop-color="#FF1C00"/>
</linearGradient>
<linearGradient id="paint11_linear_299_55" x1="619.579" y1="239.553" x2="1259.26" y2="660.507" gradientUnits="userSpaceOnUse">
<stop offset="0.295" stop-color="#04D8E5"/>
<stop offset="0.3207" stop-color="#10CFDA"/>
<stop offset="0.3672" stop-color="#30B7BD"/>
<stop offset="0.4293" stop-color="#64908E"/>
<stop offset="0.5047" stop-color="#AB5B4C"/>
<stop offset="0.5844" stop-color="#FF1C00"/>
</linearGradient>
<linearGradient id="paint12_linear_299_55" x1="661.862" y1="175.299" x2="1301.55" y2="596.253" gradientUnits="userSpaceOnUse">
<stop offset="0.295" stop-color="#04D8E5"/>
<stop offset="0.3207" stop-color="#10CFDA"/>
<stop offset="0.3672" stop-color="#30B7BD"/>
<stop offset="0.4293" stop-color="#64908E"/>
<stop offset="0.5047" stop-color="#AB5B4C"/>
<stop offset="0.5844" stop-color="#FF1C00"/>
</linearGradient>
<linearGradient id="paint13_linear_299_55" x1="700.839" y1="116.072" x2="1340.52" y2="537.026" gradientUnits="userSpaceOnUse">
<stop offset="0.295" stop-color="#04D8E5"/>
<stop offset="0.3207" stop-color="#10CFDA"/>
<stop offset="0.3672" stop-color="#30B7BD"/>
<stop offset="0.4293" stop-color="#64908E"/>
<stop offset="0.5047" stop-color="#AB5B4C"/>
<stop offset="0.5844" stop-color="#FF1C00"/>
</linearGradient>
<linearGradient id="paint14_linear_299_55" x1="733.857" y1="65.896" x2="1373.54" y2="486.851" gradientUnits="userSpaceOnUse">
<stop offset="0.295" stop-color="#04D8E5"/>
<stop offset="0.3207" stop-color="#10CFDA"/>
<stop offset="0.3672" stop-color="#30B7BD"/>
<stop offset="0.4293" stop-color="#64908E"/>
<stop offset="0.5047" stop-color="#AB5B4C"/>
<stop offset="0.5844" stop-color="#FF1C00"/>
</linearGradient>
<linearGradient id="paint15_linear_299_55" x1="763.839" y1="20.3355" x2="1403.52" y2="441.29" gradientUnits="userSpaceOnUse">
<stop offset="0.295" stop-color="#04D8E5"/>
<stop offset="0.3207" stop-color="#10CFDA"/>
<stop offset="0.3672" stop-color="#30B7BD"/>
<stop offset="0.4293" stop-color="#64908E"/>
<stop offset="0.5047" stop-color="#AB5B4C"/>
<stop offset="0.5844" stop-color="#FF1C00"/>
</linearGradient>
<linearGradient id="paint16_linear_299_55" x1="801.244" y1="-36.5055" x2="1440.93" y2="384.449" gradientUnits="userSpaceOnUse">
<stop offset="0.295" stop-color="#04D8E5"/>
<stop offset="0.3207" stop-color="#10CFDA"/>
<stop offset="0.3672" stop-color="#30B7BD"/>
<stop offset="0.4293" stop-color="#64908E"/>
<stop offset="0.5047" stop-color="#AB5B4C"/>
<stop offset="0.5844" stop-color="#FF1C00"/>
</linearGradient>
<linearGradient id="paint17_linear_299_55" x1="820.346" y1="-65.5323" x2="1460.03" y2="355.421" gradientUnits="userSpaceOnUse">
<stop offset="0.295" stop-color="#04D8E5"/>
<stop offset="0.3207" stop-color="#10CFDA"/>
<stop offset="0.3672" stop-color="#30B7BD"/>
<stop offset="0.4293" stop-color="#64908E"/>
<stop offset="0.5047" stop-color="#AB5B4C"/>
<stop offset="0.5844" stop-color="#FF1C00"/>
</linearGradient>
<linearGradient id="paint18_linear_299_55" x1="840.605" y1="-96.3212" x2="1480.29" y2="324.633" gradientUnits="userSpaceOnUse">
<stop offset="0.295" stop-color="#04D8E5"/>
<stop offset="0.3207" stop-color="#10CFDA"/>
<stop offset="0.3672" stop-color="#30B7BD"/>
<stop offset="0.4293" stop-color="#64908E"/>
<stop offset="0.5047" stop-color="#AB5B4C"/>
<stop offset="0.5844" stop-color="#FF1C00"/>
</linearGradient>
<linearGradient id="paint19_linear_299_55" x1="859.669" y1="-125.29" x2="1499.35" y2="295.665" gradientUnits="userSpaceOnUse">
<stop offset="0.295" stop-color="#04D8E5"/>
<stop offset="0.3207" stop-color="#10CFDA"/>
<stop offset="0.3672" stop-color="#30B7BD"/>
<stop offset="0.4293" stop-color="#64908E"/>
<stop offset="0.5047" stop-color="#AB5B4C"/>
<stop offset="0.5844" stop-color="#FF1C00"/>
</linearGradient>
</defs>
</svg>
