<?xml version="1.0" encoding="utf-8"?>
<!-- Generator: Adobe Illustrator 26.0.1, SVG Export Plug-In . SVG Version: 6.00 Build 0)  -->
<svg version="1.1" baseProfile="basic" id="Layer_1"
	 xmlns="http://www.w3.org/2000/svg" xmlns:xlink="http://www.w3.org/1999/xlink" x="0px" y="0px" viewBox="0 0 1920 1080"
	 xml:space="preserve">
<style type="text/css">
	.st0{fill:url(#SVGID_1_);}
	.st1{fill:url(#SVGID_00000006682311148875112070000010732826704743810743_);}
	.st2{fill:url(#SVGID_00000144300640660384302420000012442779337209985424_);}
	.st3{fill:url(#SVGID_00000174585676935507087510000005488825227053955506_);}
	.st4{fill:url(#SVGID_00000156588975164015954730000018102886805876854960_);}
	.st5{fill:url(#SVGID_00000083786640509964167180000003145275365602303898_);}
	.st6{fill:url(#SVGID_00000077296890155224046680000005351468667918379181_);}
	.st7{fill:url(#SVGID_00000011000867502983633430000011586679695502732179_);}
	.st8{fill:url(#SVGID_00000039819855132911382050000016947359070074805409_);}
	.st9{fill:url(#SVGID_00000016032939407793904180000010633548656188215984_);}
	.st10{fill:url(#SVGID_00000138532332993355288850000015452054914359591808_);}
	.st11{fill:url(#SVGID_00000085226890938757524460000017861889657879737757_);}
	.st12{fill:url(#SVGID_00000051360080841546553790000002282714662654681994_);}
	.st13{fill:url(#SVGID_00000089568300006592207840000017181565265965460415_);}
	.st14{fill:url(#SVGID_00000100354679416099022560000000895033896850595771_);}
	.st15{fill:url(#SVGID_00000179641636473157914990000003105619194665837246_);}
	.st16{fill:url(#SVGID_00000016791583265745302790000015831874972724340361_);}
	.st17{fill:url(#SVGID_00000106118785975180654500000018253206129200138663_);}
	.st18{fill:url(#SVGID_00000104684241296056749690000001968479269867526570_);}
	.st19{fill:url(#SVGID_00000170980911196990724320000010384238270007198868_);}
	.st20{fill:url(#SVGID_00000001631031278264607960000016405002188323017111_);}
	.st21{fill:url(#SVGID_00000093858099787712600670000001704796321958793121_);}
	.st22{fill:url(#SVGID_00000049191221947497543120000001487293513909661329_);}
	.st23{fill:url(#SVGID_00000161600670182773226380000006949158268466708870_);}
	.st24{fill:url(#SVGID_00000158732327579021587790000011450172293746156966_);}
	.st25{fill:url(#SVGID_00000076566802140397638780000015854530446361920436_);}
	.st26{fill:url(#SVGID_00000090277013427489233190000013767308225538991524_);}
	.st27{fill:url(#SVGID_00000145059656561771932410000018139619833697536956_);}
	.st28{fill:url(#SVGID_00000093874857579426642340000013726228624390391471_);}
	.st29{fill:url(#SVGID_00000030484651758115389250000007877049218061494424_);}
	.st30{fill:url(#SVGID_00000177456729253926149760000005728050153560841893_);}
	.st31{fill:url(#SVGID_00000090284418113355893290000011781215936424799666_);}
	.st32{fill:url(#SVGID_00000148625041071198572380000000019809529962662319_);}
	.st33{fill:url(#SVGID_00000144315727250017648120000005097594665394095284_);}
	.st34{fill:url(#SVGID_00000120547148261976950310000006111256078297921959_);}
	.st35{fill:url(#SVGID_00000031902196526568169620000006673904924314058652_);}
	.st36{fill:url(#SVGID_00000044899247786727460620000015695888954562788532_);}
	.st37{fill:url(#SVGID_00000100363714228949327750000007342325314229099453_);}
	.st38{fill:url(#SVGID_00000052820723866421681520000007389143655557058451_);}
	.st39{fill:url(#SVGID_00000161625133463316966230000011680997383384724866_);}
	.st40{fill:url(#SVGID_00000179603883763168367390000009533730281639029637_);}
	.st41{fill:url(#SVGID_00000054958310397935603050000012272070503590247871_);}
	.st42{fill:url(#SVGID_00000124846740613048126370000011691033138921266575_);}
	.st43{fill:url(#SVGID_00000016796817641816602730000003594947847856976818_);}
	.st44{fill:url(#SVGID_00000090263585348801083770000014605575609142896023_);}
	.st45{fill:url(#SVGID_00000084508734476142010960000005907596107720190384_);}
	.st46{fill:url(#SVGID_00000078014320181759251080000017112375874223494790_);}
	.st47{fill:url(#SVGID_00000174579364980873440420000007348859289029445560_);}
	.st48{fill:url(#SVGID_00000108279591925055647300000005091110874598832288_);}
</style>
<g>
	<g>
		
			<linearGradient id="SVGID_1_" gradientUnits="userSpaceOnUse" x1="621.0436" y1="1162.7163" x2="637.943" y2="1162.7163" gradientTransform="matrix(1 0 0 1 0 -962)">
			<stop  offset="0" style="stop-color:#00FFFF"/>
			<stop  offset="1.065560e-08" style="stop-color:#CCCCFF"/>
			<stop  offset="1" style="stop-color:#808080"/>
		</linearGradient>
		<path class="st0" d="M626.1,201.9c4.1-1.4,8-3.1,11.8-4.2c-7.2,2.4-7.5,2.4-10.8,3.8l-5.9,2.4
			C622.5,203.1,624.3,202.6,626.1,201.9z"/>
		
			<linearGradient id="SVGID_00000108994658940186014950000018409428214807505324_" gradientUnits="userSpaceOnUse" x1="577.9081" y1="1183.3988" x2="611.6326" y2="1183.3988" gradientTransform="matrix(1 0 0 1 0 -962)">
			<stop  offset="0" style="stop-color:#00FFFF"/>
			<stop  offset="1.065560e-08" style="stop-color:#CCCCFF"/>
			<stop  offset="1" style="stop-color:#808080"/>
		</linearGradient>
		<path style="fill:url(#SVGID_00000108994658940186014950000018409428214807505324_);" d="M597,222.3c6.2-2.4,15.2-10.3,14.4-11.8
			c-0.3,0-0.8,0-1,0.2c-5.7,1.9-10,3.8-13.1,6.1c-4.1,3.1-9.8,7.1-13.6,10.3l-5.7,4.9C581.6,228.7,588.3,225.2,597,222.3z"/>
		
			<linearGradient id="SVGID_00000139994798349935782950000001424157121762502822_" gradientUnits="userSpaceOnUse" x1="549.3468" y1="1215.4277" x2="588.4894" y2="1215.4277" gradientTransform="matrix(1 0 0 1 0 -962)">
			<stop  offset="0" style="stop-color:#00FFFF"/>
			<stop  offset="1.065560e-08" style="stop-color:#CCCCFF"/>
			<stop  offset="1" style="stop-color:#808080"/>
		</linearGradient>
		<path style="fill:url(#SVGID_00000139994798349935782950000001424157121762502822_);" d="M576.7,253.4
			c8.2-3.5,14.1-15.3,10.8-16.7c-0.5-0.2-1.3,0-1.8,0c-12.1,4-20.3,8.7-23.9,13.6c-2.6,3.5-5.9,8.5-8,12.2l-4.1,7.8
			C552.5,264.2,561.8,258.3,576.7,253.4z"/>
		
			<linearGradient id="SVGID_00000033354677620732544080000002643319880174428603_" gradientUnits="userSpaceOnUse" x1="536.0174" y1="1255.8525" x2="575.4395" y2="1255.8525" gradientTransform="matrix(1 0 0 1 0 -962)">
			<stop  offset="0" style="stop-color:#00FFFF"/>
			<stop  offset="1.065560e-08" style="stop-color:#CCCCFF"/>
			<stop  offset="1" style="stop-color:#808080"/>
		</linearGradient>
		<path style="fill:url(#SVGID_00000033354677620732544080000002643319880174428603_);" d="M567.2,293.1c8.7-4.2,10.5-19,5.7-20.7
			c-0.8-0.2-1.8,0-2.3,0c-17.5,5.6-27.8,12.7-29.8,20c-1,3.8-2.3,8.7-3.1,12.7l-1.5,10.3C536.9,307.2,547.7,299.4,567.2,293.1z"/>
		
			<linearGradient id="SVGID_00000035529256550232160940000001813780054743706507_" gradientUnits="userSpaceOnUse" x1="535.7989" y1="1301.0593" x2="575.4355" y2="1301.0593" gradientTransform="matrix(1 0 0 1 0 -962)">
			<stop  offset="0" style="stop-color:#00FFFF"/>
			<stop  offset="1.065560e-08" style="stop-color:#CCCCFF"/>
			<stop  offset="1" style="stop-color:#808080"/>
		</linearGradient>
		<path style="fill:url(#SVGID_00000035529256550232160940000001813780054743706507_);" d="M570,337.3c8.5-4.2,5.7-20-0.3-21.9
			c-0.8-0.2-2.1-0.2-2.8,0c-20.8,7.1-31.9,15.5-31.1,24.4c0.8,5.9,2.1,13.4,3.3,19.3l1,3.8C537.6,353.7,548.4,344.6,570,337.3z"/>
		
			<linearGradient id="SVGID_00000132796538294005679890000000655941952835229871_" gradientUnits="userSpaceOnUse" x1="547.5828" y1="1343.9519" x2="587.9958" y2="1343.9519" gradientTransform="matrix(1 0 0 1 0 -962)">
			<stop  offset="0" style="stop-color:#00FFFF"/>
			<stop  offset="1.065560e-08" style="stop-color:#CCCCFF"/>
			<stop  offset="1" style="stop-color:#808080"/>
		</linearGradient>
		<path style="fill:url(#SVGID_00000132796538294005679890000000655941952835229871_);" d="M584.9,379.3c7.2-3.8,0.3-18.3-5.9-20.2
			c-0.8-0.2-2.1-0.2-2.8,0c-22.1,7.3-32.1,16.7-27.5,25.9c2.6,4.7,5.9,10.8,9,15.3l3.1,4.7C554.1,395.8,563.1,386.4,584.9,379.3z"/>
		
			<linearGradient id="SVGID_00000183929390114143788100000004885342869663578754_" gradientUnits="userSpaceOnUse" x1="572.9931" y1="1380.7336" x2="610.7854" y2="1380.7336" gradientTransform="matrix(1 0 0 1 0 -962)">
			<stop  offset="0" style="stop-color:#00FFFF"/>
			<stop  offset="1.065560e-08" style="stop-color:#CCCCFF"/>
			<stop  offset="1" style="stop-color:#808080"/>
		</linearGradient>
		<path style="fill:url(#SVGID_00000183929390114143788100000004885342869663578754_);" d="M609.4,415.5c4.9-3.1-5.1-15.5-10.8-16.9
			c-0.8-0.2-1.8-0.2-2.6,0c-20.8,6.8-28.5,16.2-19.5,24.9c3.9,3.3,8.7,7.8,12.9,11l6.4,4.5C583.9,430.8,589.8,421.9,609.4,415.5z"/>
		
			<linearGradient id="SVGID_00000108994916167194210110000007058805391966250900_" gradientUnits="userSpaceOnUse" x1="609.301" y1="1408.4296" x2="648.575" y2="1408.4296" gradientTransform="matrix(1 0 0 1 0 -962)">
			<stop  offset="0" style="stop-color:#00FFFF"/>
			<stop  offset="1.065560e-08" style="stop-color:#CCCCFF"/>
			<stop  offset="1" style="stop-color:#808080"/>
		</linearGradient>
		<path style="fill:url(#SVGID_00000108994916167194210110000007058805391966250900_);" d="M641.5,443.3l0.3-0.2
			c-0.3-2.6-12.1-12.7-17-12.2c-15.9,5.2-20.6,12.7-9.8,19l0.3,0.2c-0.5-0.2-0.8-0.2-2.8-1.2c9.8,4.7,10.3,4.9,17,7.5
			c8.2,2.8,8.5,2.8,13.6,4.2c1.5,0.5,3.9,0.9,5.4,1.4c-5.1-1.2-9.5-2.6-12.9-4.2C626.6,452.7,629.7,447,641.5,443.3z"/>
		
			<linearGradient id="SVGID_00000077302678796771228610000011339669627008636320_" gradientUnits="userSpaceOnUse" x1="653.7321" y1="1421.1289" x2="687.1526" y2="1421.1289" gradientTransform="matrix(1 0 0 1 0 -962)">
			<stop  offset="0" style="stop-color:#00FFFF"/>
			<stop  offset="1.065560e-08" style="stop-color:#CCCCFF"/>
			<stop  offset="1" style="stop-color:#808080"/>
		</linearGradient>
		<path style="fill:url(#SVGID_00000077302678796771228610000011339669627008636320_);" d="M685.7,463.5c-0.5-0.2-0.5-0.2-2.1-1.9
			c-2.1,0-4.1-0.2-5.1-0.7c-0.8-0.5-0.5-0.9,0.5-1.4c-18.8-6.3-18.8-6.3-19-6.3c-6.7,2.1-8.2,5.2-3.1,8c2.1,0.9,4.9,1.9,8.2,2.6h0.3
			c-0.8,0.2-2.1,0.5-4.9,0.2h-0.3c-1.8-0.2-2.3-0.2-4.9-0.7c2.1,0.2,4.9,0.7,6.9,1.2c4.9,0.7,4.9,0.7,7.2,0.7l0,0c0,0,0.3,0,0.5,0
			c0,0,0,0,0.3,0c2.1,0,3.9-0.2,5.9-0.2c3.6,0.2,7.2,0.2,10.8,0.2c0.5,0,0.8,0,0.8-0.2C687,464.4,687,464.4,685.7,463.5z"/>
		
			<linearGradient id="SVGID_00000029024423192049422900000003865733701840962718_" gradientUnits="userSpaceOnUse" x1="535.8818" y1="1291.4282" x2="801.5542" y2="1291.4282" gradientTransform="matrix(1 0 0 1 0 -962)">
			<stop  offset="0" style="stop-color:#00FFFF"/>
			<stop  offset="1.065560e-08" style="stop-color:#00FFFF"/>
			<stop  offset="1" style="stop-color:#1B1464"/>
		</linearGradient>
		<path style="fill:url(#SVGID_00000029024423192049422900000003865733701840962718_);" d="M801.6,330.2c0,2.4-0.5,8.5-5.7,11
			c-12.9,4-29,7.3-48.1,9.6c-35.5,4.5-74.5,4.9-109.2,1.9c-6.4,0.2-9.8,3.5-10.5,10.1c0,0.2,0,0.5,0,0.5c0.5,6.8,4.1,10.6,10.5,11.8
			c34.2,2.8,72.5,2.6,107.4-1.6c11.8-0.2,11.3,11.3,5.9,16.5c-2.8,2.8-5.1,3.3-7.5,3.8c-54.8,6.6-118,3.3-159.6-6.8
			c-4.4-0.5-6.2,2.4-5.1,7.5c0,0.2,0,0.2,0.3,0.5c2.1,5.6,5.7,9.2,10.3,11c28.3,7.1,67.1,10.6,105.9,9.6c11.3,0.7,10.8,9.4,5.9,13.2
			c-2.6,1.9-4.6,2.1-6.9,2.4c-15.4,0.5-31.1,0-45.8-1.2c-7.2,0-6.7,3.5-6.4,6.1v0.2c1.8,3.8,5.4,6.1,10.3,6.8
			c24.7,1.9,51.9,1.4,76.9-1.4c3.3-0.2,3.6,0.2,4.6,1.6c-0.8,4.7-6.2,7.3-10.5,8.5c-36.5,4.5-76.6,2.6-103.8-4c-0.5,0-1,0-1.5,0
			c0.5,1.2,2.1,2.6,3.3,3.5l0.3,0.2c4.6,2.6,6.9,3.5,10,4.7c18.3,4.5,42.7,6.1,66.1,4.9c1,0,2.3,0.2,3.3,0.9
			c-1.8,1.9-2.1,2.1-6.9,2.8c-9,0.5-17.2,0.5-24.9,0c-0.5,0-1,0-1.5,0c0.3,0,0.8,0.2,1,0.2l0,0c-4.6-0.5-4.9-0.5-7.2-0.7
			c-2.1-0.2-4.9-0.7-6.9-1.2c-1-0.2-2.6-0.5-3.6-0.7c-1.3-0.2-2.1-0.5-2.6-0.5c-1.5-0.5-3.9-0.9-5.4-1.4c-7.7-2.1-8.5-2.4-13.6-4.2
			c-9.5-3.8-10.5-4.2-17-7.5c-1-0.5-2.6-1.4-3.6-1.9c-0.3,0-0.3-0.2-0.5-0.2c-3.3-1.9-3.3-1.9-11.3-6.8c-0.5-0.2-0.8-0.5-1.3-0.9
			l-6.4-4.5c-3.9-3.3-9-7.5-12.9-11c1.8,1.6,4.4,3.5,7.5,5.2c7.2,3.8,17,7.1,28.8,9.4c1,0,2.6-0.2,3.3-0.9c0-1.4-0.5-3.1-1-4.2
			l-0.3-0.2c-3.1-4.5-6.7-7.3-11.3-8.7c-13.4-2.8-24.4-6.3-32.4-10.8c-5.1-2.6-8.5-5.4-10.5-8.2l-3.1-4.7
			c-3.3-4.5-6.9-10.6-9.5-15.3c1.5,2.8,4.4,5.6,8.5,8.5c0.5,0,1,0,1.5-0.2c0.3-2.4,0.3-2.6-1-6.6c0-0.2,0-0.2-0.3-0.5
			c-2.1-5.4-4.1-8.7-6.7-11.8c-6.4-4.5-9.8-8-10.8-11.8l-1-3.8c-1.3-5.6-2.6-13.4-3.3-19.3c0.5,5.4,5.4,10.8,14.9,15.7
			c8.7,4.7,20.8,8.7,35,12c5.1,0.5,7.7-2.4,8.2-9.2c0-0.2,0-0.5,0-0.5c-0.5-7.1-3.1-11-8.2-12.9c-13.6-3.1-25.7-7.1-34.4-11.8
			c-10.8-5.6-15.7-11.8-14.9-17.6l1.5-10.3c0.8-3.8,2.1-8.9,3.1-12.7c-1.5,5.2,1.3,10.6,8.7,15.7c2.3,0.2,4.6,0,7.5-7.8
			c0-0.2,0-0.2,0.3-0.5c2.6-8.5,1-10.8-0.3-12.7c-8.2-5.6-10.5-11.3-7.7-16.9l4.1-7.8c2.6-3.8,5.7-8.7,8.2-12.2
			c-4.9,6.6-2.1,13.6,10.3,20.2c6.9,3.8,16.2,6.8,27,9.4c4.4,0.5,8-2.4,11.3-8.2c0.3-0.2,0.3-0.2,0.3-0.5c2.6-6.6,1.3-8.2-0.5-10.3
			c-10.8-2.8-18.8-5.6-24.9-8.7c-12.3-6.3-14.1-13.6-7.2-20l5.7-4.9c4.1-3.3,9.5-7.5,13.6-10.3c-7.7,5.2-8.7,11-1.3,16.5
			c2.3,0.2,4.1-0.2,11.3-5.4c0.3,0,0.3-0.2,0.5-0.2c4.6-3.8,5.4-4.7,6.9-6.8c-7.2-6.3-4.4-12.2,6.4-16.9l5.9-2.4
			c7.5-3.1,7.5-3.1,11.1-4.2c1.3-0.5,2.8-0.9,4.1-1.2c-11.1,4-13.9,9.4-4.9,14.1c2.6,1.4,5.9,2.6,9.8,3.5c2.6-0.2,4.1-0.7,10.3-4.9
			l0.3-0.2c3.9-2.8,4.9-3.8,5.9-4.7c-2.1-0.9-3.9-1.6-5.4-2.4c-4.9-2.6-3.3-5.6,3.1-7.8c2.6-0.2,8.2-0.9,19,1.4
			c-0.8,0.7-1,0.9-0.3,1.4c0.8,0.5,2.6,0.7,4.1,0.5c4.1,4.7,4.4,5.9,4.4,8.2c-5.7,0.7-10.5,0.5-15.2,0c-1.8,0.7-3.3,1.4-6.9,4.9
			l-0.3,0.2c-2.1,2.6-2.1,2.8-2.6,4.9c0.3,0.5,0.8,0.9,1.3,1.2c11.8,1.2,25.4,1.2,38,0c7.2,1.4,12.1,10.6,9.8,13.2
			c-0.5,0.5-1.3,0.5-1.8,0.7c-28,2.8-59.6,0.9-79.7-4.5c-2.6,0.2-5.7,0.7-11.3,6.1c0,0-0.3,0.2-0.3,0.5c-3.9,4.2-3.9,5.2-3.9,8
			c0.5,0.2,1,0.7,1.3,1.2c21.1,5.6,52.2,8.5,82.5,7.1c11.6,2.4,10.5,14.8,5.9,17.6c-0.8,0.5-2.1,0.7-3.1,0.9
			c-18.5,0.7-37.3,0.2-54.8-1.2c-4.9,0.2-8.2,3.1-10.5,8.9c0,0.2,0,0.2-0.3,0.5c-1.3,6.3,0.8,9.9,5.9,11c30.1,2.8,64.3,2.6,95.1-1.4
			c1.8-0.2,3.6-0.5,5.4-0.7c10.8-0.2,14.9,12.7,10,18.3c-1.5,1.6-3.3,2.1-4.6,2.6c-1.8,0.2-3.9,0.5-5.7,0.7
			c-53,6.6-114.4,3.5-154.2-6.8c-4.6-0.5-8,2.4-10.3,8.5c0,0.2,0,0.2-0.3,0.5c-1.3,6.6,0.3,10.8,4.9,12.7
			c42.2,10.8,107.2,14.1,163.5,7.1c18.5-2.4,34.2-5.6,46.8-9.4C800.6,319.4,801.6,326.9,801.6,330.2z"/>
	</g>
	
		<linearGradient id="SVGID_00000159449759691312016700000001405787114245712299_" gradientUnits="userSpaceOnUse" x1="745.9489" y1="1353.3473" x2="1282.4344" y2="1043.608" gradientTransform="matrix(1 0 0 1 0 -962)">
		<stop  offset="0.322" style="stop-color:#164383"/>
		<stop  offset="0.3482" style="stop-color:#1B4280"/>
		<stop  offset="0.3805" style="stop-color:#2A4078"/>
		<stop  offset="0.4159" style="stop-color:#433B69"/>
		<stop  offset="0.4537" style="stop-color:#663656"/>
		<stop  offset="0.4933" style="stop-color:#932E3C"/>
		<stop  offset="0.5338" style="stop-color:#C9251E"/>
		<stop  offset="0.5693" style="stop-color:#FF1C00"/>
	</linearGradient>
	<path style="fill:url(#SVGID_00000159449759691312016700000001405787114245712299_);" d="M862.7,338.7l19.3,1.4
		c-1,9.7-4.1,17.2-9.4,22.5s-11.8,7.8-19.6,7.8c-9.4,0-16.9-3.6-22.7-10.5c-5.8-7.2-8.7-16.9-8.7-29.4c0-12.5,2.7-22.5,8.2-30
		c5.6-7.5,13.1-11.4,23-11.4c9.2,0,16.2,2.8,21,8.6c4.8,5.8,7.7,13.6,8.2,23l-19.8,1.1c0-5.3-1-9.2-2.7-11.4
		c-1.7-2.2-3.9-3.6-6.3-3.6c-6.8,0-9.9,7.8-9.9,23c0,8.6,1,14.4,2.7,17.5c1.7,3.1,4.1,4.7,7.3,4.7
		C858.8,351.8,861.9,347.3,862.7,338.7z"/>
	
		<linearGradient id="SVGID_00000103231214005642517980000014133250079717582261_" gradientUnits="userSpaceOnUse" x1="759.7024" y1="1388.9751" x2="1303.9242" y2="1074.7686" gradientTransform="matrix(1 0 0 1 0 -962)">
		<stop  offset="0.322" style="stop-color:#164383"/>
		<stop  offset="0.3482" style="stop-color:#1B4280"/>
		<stop  offset="0.3805" style="stop-color:#2A4078"/>
		<stop  offset="0.4159" style="stop-color:#433B69"/>
		<stop  offset="0.4537" style="stop-color:#663656"/>
		<stop  offset="0.4933" style="stop-color:#932E3C"/>
		<stop  offset="0.5338" style="stop-color:#C9251E"/>
		<stop  offset="0.5693" style="stop-color:#FF1C00"/>
	</linearGradient>
	<path style="fill:url(#SVGID_00000103231214005642517980000014133250079717582261_);" d="M937.1,309.9l-20.1,64.1
		c-1.5,4.7-3.9,8.6-6.8,11.4c-2.9,2.8-7.5,4.2-13.3,4.2c-1.5,0-4.8-0.3-10.2-0.6v-16.6c2.7,0.6,5.1,0.6,7.3,0.6
		c5.8,0,8.7-1.4,8.7-4.4c0-0.8-0.2-2.2-1-3.9l-18.4-54.7H905l8.5,31.6l8.9-31.6L937.1,309.9L937.1,309.9z"/>
	
		<linearGradient id="SVGID_00000106855505934632259000000000407821198222150301_" gradientUnits="userSpaceOnUse" x1="767.8584" y1="1402.9216" x2="1304.9263" y2="1092.8458" gradientTransform="matrix(1 0 0 1 0 -962)">
		<stop  offset="0.322" style="stop-color:#164383"/>
		<stop  offset="0.3482" style="stop-color:#1B4280"/>
		<stop  offset="0.3805" style="stop-color:#2A4078"/>
		<stop  offset="0.4159" style="stop-color:#433B69"/>
		<stop  offset="0.4537" style="stop-color:#663656"/>
		<stop  offset="0.4933" style="stop-color:#932E3C"/>
		<stop  offset="0.5338" style="stop-color:#C9251E"/>
		<stop  offset="0.5693" style="stop-color:#FF1C00"/>
	</linearGradient>
	<path style="fill:url(#SVGID_00000106855505934632259000000000407821198222150301_);" d="M953.6,369h-11.4v-79.4H962v27.2
		c2.7-5.5,7.3-8.3,13.3-8.3c4.4,0,7.7,1.4,10.9,3.9c2.9,2.5,5.1,6.1,6.5,10.8c1.5,4.7,2.2,9.7,2.2,15c0,9.4-1.9,17.2-5.6,23
		c-3.6,5.8-9.2,8.6-16.7,8.6c-7.3,0-12.8-3.1-16.4-9.4C955,363.1,954.3,365.6,953.6,369z M962,346.8c0,5.8,1.9,8.6,5.8,8.6
		c2.2,0,3.9-1.1,4.8-3.1c1.2-2.2,1.7-6.4,1.7-13c0-7.2-0.7-11.7-1.9-13.6c-1.2-1.9-2.9-2.8-4.8-2.8c-1.5,0-2.9,0.6-4.1,1.9
		c-1.2,1.4-1.7,3.3-1.7,5.8L962,346.8L962,346.8z"/>
	
		<linearGradient id="SVGID_00000056404927495040306930000018434518243986735544_" gradientUnits="userSpaceOnUse" x1="789.7649" y1="1439.2036" x2="1320.354" y2="1132.8669" gradientTransform="matrix(1 0 0 1 0 -962)">
		<stop  offset="0.322" style="stop-color:#164383"/>
		<stop  offset="0.3482" style="stop-color:#1B4280"/>
		<stop  offset="0.3805" style="stop-color:#2A4078"/>
		<stop  offset="0.4159" style="stop-color:#433B69"/>
		<stop  offset="0.4537" style="stop-color:#663656"/>
		<stop  offset="0.4933" style="stop-color:#932E3C"/>
		<stop  offset="0.5338" style="stop-color:#C9251E"/>
		<stop  offset="0.5693" style="stop-color:#FF1C00"/>
	</linearGradient>
	<path style="fill:url(#SVGID_00000056404927495040306930000018434518243986735544_);" d="M1037,347.6l18.9,1.4
		c-1.2,5.8-3.9,10.8-8.5,14.7c-4.6,4.2-10.6,6.1-18.6,6.1c-8.7,0-15.5-2.8-20.8-8.6c-5.1-5.8-7.7-12.8-7.7-21.4
		c0-8.9,2.7-16.4,7.7-22.5c5.1-6.1,11.8-9.2,20.3-9.2c8.2,0,15,2.8,20.1,8.6c5.1,5.8,7.5,13.6,7.5,23.3c0,0.8,0,1.9,0,3.3h-34.3
		c0,3.6,0.7,6.4,1.7,8.3c1,1.7,3.1,2.8,6.3,2.8C1033.6,354.8,1036.2,352.6,1037,347.6z M1035.5,332.3c0-3.9-0.7-6.7-2.2-8
		c-1.5-1.4-3.1-1.9-5.1-1.9c-4.8,0-7.3,3.3-7.3,10C1021,332.3,1035.5,332.3,1035.5,332.3z"/>
	
		<linearGradient id="SVGID_00000026131800448271347750000003854260838867654790_" gradientUnits="userSpaceOnUse" x1="790.8162" y1="1464.4534" x2="1337.8043" y2="1148.6508" gradientTransform="matrix(1 0 0 1 0 -962)">
		<stop  offset="0.322" style="stop-color:#164383"/>
		<stop  offset="0.3482" style="stop-color:#1B4280"/>
		<stop  offset="0.3805" style="stop-color:#2A4078"/>
		<stop  offset="0.4159" style="stop-color:#433B69"/>
		<stop  offset="0.4537" style="stop-color:#663656"/>
		<stop  offset="0.4933" style="stop-color:#932E3C"/>
		<stop  offset="0.5338" style="stop-color:#C9251E"/>
		<stop  offset="0.5693" style="stop-color:#FF1C00"/>
	</linearGradient>
	<path style="fill:url(#SVGID_00000026131800448271347750000003854260838867654790_);" d="M1082.9,369h-19.3v-59.1h16.7v12.2
		c1.9-8.9,6.3-13.3,13.3-13.3c0.7,0,1.7,0,2.9,0.3v20.5c-1.5-0.3-2.7-0.6-3.9-0.6c-6.8,0-9.9,4.2-9.9,12.8L1082.9,369L1082.9,369z"
		/>
	
		<linearGradient id="SVGID_00000163783952950099929390000013211913960209017245_" gradientUnits="userSpaceOnUse" x1="812.2121" y1="1484.0173" x2="1342.1836" y2="1178.0389" gradientTransform="matrix(1 0 0 1 0 -962)">
		<stop  offset="0.322" style="stop-color:#164383"/>
		<stop  offset="0.3482" style="stop-color:#1B4280"/>
		<stop  offset="0.3805" style="stop-color:#2A4078"/>
		<stop  offset="0.4159" style="stop-color:#433B69"/>
		<stop  offset="0.4537" style="stop-color:#663656"/>
		<stop  offset="0.4933" style="stop-color:#932E3C"/>
		<stop  offset="0.5338" style="stop-color:#C9251E"/>
		<stop  offset="0.5693" style="stop-color:#FF1C00"/>
	</linearGradient>
	<path style="fill:url(#SVGID_00000163783952950099929390000013211913960209017245_);" d="M1128.3,370.1c-8.5,0-15.2-3.1-20.3-9.2
		c-5.1-6.1-7.5-13.3-7.5-21.4c0-8.9,2.7-16.1,8-22.2c5.3-6.1,12.1-8.9,20.5-8.9c8.5,0,15.2,2.8,20.3,8.6c5.1,5.8,7.7,13,7.7,21.9
		c0,8.9-2.7,16.1-7.7,22.2C1143.8,367,1137,370.1,1128.3,370.1z M1128.6,355.9c3.1,0,5.1-1.9,5.8-5.5c0.7-3.6,1-7.8,1-11.7
		c0-5.5-0.5-9.4-1.5-11.9c-1-2.5-2.7-3.6-5.3-3.6c-2.4,0-4.1,1.4-5.1,3.9c-1,2.5-1.7,6.7-1.7,12.5c0,6.7,0.5,11.4,1.7,13.3
		C1124.7,354.8,1126.4,355.9,1128.6,355.9z"/>
	
		<linearGradient id="SVGID_00000023255753008392895460000016420532470746606013_" gradientUnits="userSpaceOnUse" x1="797.4496" y1="1509.1189" x2="1358.7612" y2="1185.0457" gradientTransform="matrix(1 0 0 1 0 -962)">
		<stop  offset="0.322" style="stop-color:#164383"/>
		<stop  offset="0.3482" style="stop-color:#1B4280"/>
		<stop  offset="0.3805" style="stop-color:#2A4078"/>
		<stop  offset="0.4159" style="stop-color:#433B69"/>
		<stop  offset="0.4537" style="stop-color:#663656"/>
		<stop  offset="0.4933" style="stop-color:#932E3C"/>
		<stop  offset="0.5338" style="stop-color:#C9251E"/>
		<stop  offset="0.5693" style="stop-color:#FF1C00"/>
	</linearGradient>
	<path style="fill:url(#SVGID_00000023255753008392895460000016420532470746606013_);" d="M1184.7,289.6V369h-19.8v-79.4H1184.7z"/>
	
		<linearGradient id="SVGID_00000136408390469567283830000008251045734455726221_" gradientUnits="userSpaceOnUse" x1="802.8085" y1="1523.6117" x2="1364.12" y2="1199.5383" gradientTransform="matrix(1 0 0 1 0 -962)">
		<stop  offset="0.322" style="stop-color:#164383"/>
		<stop  offset="0.3482" style="stop-color:#1B4280"/>
		<stop  offset="0.3805" style="stop-color:#2A4078"/>
		<stop  offset="0.4159" style="stop-color:#433B69"/>
		<stop  offset="0.4537" style="stop-color:#663656"/>
		<stop  offset="0.4933" style="stop-color:#932E3C"/>
		<stop  offset="0.5338" style="stop-color:#C9251E"/>
		<stop  offset="0.5693" style="stop-color:#FF1C00"/>
	</linearGradient>
	<path style="fill:url(#SVGID_00000136408390469567283830000008251045734455726221_);" d="M1215.1,289.6V369h-19.8v-79.4H1215.1z"/>
	
		<linearGradient id="SVGID_00000045598527554416267450000003110670174617495229_" gradientUnits="userSpaceOnUse" x1="807.4339" y1="1537.351" x2="1369.0575" y2="1213.095" gradientTransform="matrix(1 0 0 1 0 -962)">
		<stop  offset="0.322" style="stop-color:#164383"/>
		<stop  offset="0.3482" style="stop-color:#1B4280"/>
		<stop  offset="0.3805" style="stop-color:#2A4078"/>
		<stop  offset="0.4159" style="stop-color:#433B69"/>
		<stop  offset="0.4537" style="stop-color:#663656"/>
		<stop  offset="0.4933" style="stop-color:#932E3C"/>
		<stop  offset="0.5338" style="stop-color:#C9251E"/>
		<stop  offset="0.5693" style="stop-color:#FF1C00"/>
	</linearGradient>
	<path style="fill:url(#SVGID_00000045598527554416267450000003110670174617495229_);" d="M1245.8,287.1v18.3h-20.1v-18.3H1245.8z
		 M1245.8,309.9V369h-20.1v-59.1H1245.8z"/>
	
		<linearGradient id="SVGID_00000127022729091079710800000001585033113329379226_" gradientUnits="userSpaceOnUse" x1="845.8358" y1="1553.2468" x2="1376.4248" y2="1246.9103" gradientTransform="matrix(1 0 0 1 0 -962)">
		<stop  offset="0.322" style="stop-color:#164383"/>
		<stop  offset="0.3482" style="stop-color:#1B4280"/>
		<stop  offset="0.3805" style="stop-color:#2A4078"/>
		<stop  offset="0.4159" style="stop-color:#433B69"/>
		<stop  offset="0.4537" style="stop-color:#663656"/>
		<stop  offset="0.4933" style="stop-color:#932E3C"/>
		<stop  offset="0.5338" style="stop-color:#C9251E"/>
		<stop  offset="0.5693" style="stop-color:#FF1C00"/>
	</linearGradient>
	<path style="fill:url(#SVGID_00000127022729091079710800000001585033113329379226_);" d="M1290.6,347.6l18.9,1.4
		c-1.2,5.8-3.9,10.8-8.5,14.7c-4.6,4.2-10.6,6.1-18.6,6.1c-8.7,0-15.5-2.8-20.8-8.6c-5.1-5.8-7.7-12.8-7.7-21.4
		c0-8.9,2.7-16.4,7.7-22.5c5.1-6.1,11.8-9.2,20.3-9.2c8.2,0,15,2.8,20.1,8.6s7.5,13.6,7.5,23.3c0,0.8,0,1.9,0,3.3h-34.3
		c0,3.6,0.7,6.4,1.7,8.3c1,1.7,3.1,2.8,6.3,2.8C1287.2,354.8,1289.8,352.6,1290.6,347.6z M1289.1,332.3c0-3.9-0.7-6.7-2.2-8
		c-1.5-1.4-3.1-1.9-5.1-1.9c-4.8,0-7.3,3.3-7.3,10C1274.6,332.3,1289.1,332.3,1289.1,332.3z"/>
	
		<linearGradient id="SVGID_00000143596675678520431450000001920971138247673765_" gradientUnits="userSpaceOnUse" x1="1306.0093" y1="1365.0826" x2="959.4102" y2="1365.0826" gradientTransform="matrix(1 0 0 1 0 -962)">
		<stop  offset="2.770450e-07" style="stop-color:#164383"/>
		<stop  offset="1" style="stop-color:#164383"/>
	</linearGradient>
	<path style="fill:url(#SVGID_00000143596675678520431450000001920971138247673765_);" d="M968.3,401.4c1.7,0.8,2.9,1.7,3.6,3.3
		c0.7,1.4,1.2,3.3,1.2,5.5c0,1.9-0.2,3.6-1,5c-0.5,1.4-1.2,2.5-2.2,3.1s-2.2,0.8-3.6,0.8c-0.5,0-1,0-1.9,0c-0.7,0-1.2,0-1.7,0
		c-0.5,0-1.2,0-2.2,0.3c-0.2,0-0.7,0-0.7,0c-0.2,0-0.5-0.3-0.5-0.6s0.2-0.6,0.5-0.6c0.5,0,0.7-0.3,1-0.6c0.2-0.3,0.5-0.6,0.5-1.1
		c0.2-0.6,0.2-1.4,0.2-2.5v-11.1c0-3.6,0-6.4,0-8.3c0-2.2,0-3.3-0.2-4.2c0-0.6-0.2-1.1-0.5-1.4c-0.2-0.3-0.5-0.3-0.7-0.6
		c-0.2,0-0.5,0-0.5-0.3c0,0-0.2-0.3-0.2-0.6c0-0.3,0-0.6,0.2-0.6s0.7,0,1.5,0c1.5,0,2.9,0,4.4-0.3c0.7,0,1.5-0.3,1.9-0.3
		c1.5,0,2.7,0.6,3.4,1.9c1,1.4,1.2,3.1,1.2,5.3C972.2,397,971,399.8,968.3,401.4z M964.9,400.9c2.7,0,4.1-2.5,4.1-7.2
		c0-2.2-0.2-3.6-0.7-4.7c-0.5-1.1-1-1.7-1.7-1.7c-0.5,0-1,0.3-1.7,0.6c0,1.7,0,3.3,0,5C964.9,394.8,964.9,397.3,964.9,400.9z
		 M964.9,402.8c0,3.3,0,6.1,0,8.3c0,3.1,0,4.7,0.2,5c0,0.6,0.5,0.6,1.2,0.6c1.2,0,1.9-0.6,2.4-1.9c0.5-1.1,0.7-3.1,0.7-5
		c0-2.2-0.2-3.9-1-5.3c-0.5-1.4-1.5-1.9-2.7-1.9C965.9,402.8,965.4,402.8,964.9,402.8z"/>
	
		<linearGradient id="SVGID_00000044173314041941476190000000970755860742153144_" gradientUnits="userSpaceOnUse" x1="1306.007" y1="1369.7993" x2="959.4102" y2="1369.7993" gradientTransform="matrix(1 0 0 1 0 -962)">
		<stop  offset="2.770450e-07" style="stop-color:#164383"/>
		<stop  offset="1" style="stop-color:#164383"/>
	</linearGradient>
	<path style="fill:url(#SVGID_00000044173314041941476190000000970755860742153144_);" d="M978.7,402.3c0.5-1.7,0.7-2.8,1.5-3.6
		c0.5-0.8,1-1.1,1.7-1.1c0.5,0,1,0.3,1.5,1.1c0.2,0.8,0.5,1.7,0.5,2.5c0,0.8-0.2,1.7-0.5,2.2s-0.5,0.8-1,0.8c-0.2,0-0.5-0.3-0.7-0.6
		c-0.2-0.3-0.5-0.8-0.5-1.7c-0.2-1.1-0.5-1.7-0.7-1.7s-0.7,0.6-1,1.7s-0.5,3.6-0.5,6.9c0,4.4,0,6.7,0.2,7.2s0.5,0.8,1,0.8
		s0.7,0.3,0.7,0.8c0,0.6-0.2,0.6-0.7,0.6c-0.2,0-0.5,0-1,0c-0.5,0-0.7,0-1.2,0c-0.7,0-1.5,0-2.2,0.3c-0.2,0-0.5,0-0.5,0
		c-0.2,0-0.5-0.3-0.5-0.8c0-0.6,0.2-0.6,0.5-0.8c0.5,0,0.7-0.3,0.7-0.6c0.2-0.3,0.2-1.1,0.2-2.2v-6.1c0-1.1,0-2.8,0-4.4
		c0-1.7,0-2.8-0.2-3.3c0-0.3-0.2-0.6-0.2-0.8c-0.2-0.3-0.5-0.6-0.7-0.6s-0.5-0.3-0.5-0.3s0-0.3,0-0.6c0-0.6,0.2-0.6,0.5-0.6
		c0.7,0,1.9-0.3,3.6-0.6L978.7,402.3z"/>
	
		<linearGradient id="SVGID_00000013885457542098547400000010615197908683166857_" gradientUnits="userSpaceOnUse" x1="1306.007" y1="1364.1115" x2="959.4078" y2="1364.1115" gradientTransform="matrix(1 0 0 1 0 -962)">
		<stop  offset="2.770450e-07" style="stop-color:#164383"/>
		<stop  offset="1" style="stop-color:#164383"/>
	</linearGradient>
	<path style="fill:url(#SVGID_00000013885457542098547400000010615197908683166857_);" d="M988.9,397.3c0,2.2,0,6.1,0,11.9v5.3
		c0,1.1,0,1.7,0.2,2.2c0.2,0.3,0.5,0.6,0.7,0.6c0.5,0,0.7,0.3,0.7,0.8s-0.2,0.6-0.5,0.6c-0.2,0-0.5,0-1,0c-1,0-1.7-0.3-2.4-0.3
		c-0.5,0-0.7,0-1.2,0c-0.2,0-0.5,0-0.5,0c-0.2,0-0.5-0.3-0.5-0.6c0-0.3,0.2-0.6,0.7-0.8c0.5,0,1-0.6,1-1.1c0-0.8,0-2.2,0-4.4
		c0-2.8,0-5.3,0-7.8c0-2.2-0.2-3.6-0.2-4.2c-0.2-0.3-0.5-0.6-1-0.6c-0.5,0-0.5-0.3-0.5-0.6c0-0.3,0.2-0.6,0.5-0.6h0.2L988.9,397.3z
		 M988.6,389.2c0,0.8-0.2,1.7-0.5,2.5c-0.2,0.8-0.7,1.1-1.2,1.1c-0.5,0-1-0.3-1.2-1.1c-0.2-0.8-0.5-1.4-0.5-2.5
		c0-0.8,0.2-1.7,0.5-2.5c0.2-0.6,0.7-1.1,1.2-1.1c0.5,0,1,0.3,1.2,1.1C988.4,387.5,988.6,388.4,988.6,389.2z"/>
	
		<linearGradient id="SVGID_00000075855325229272754670000007709269393263727241_" gradientUnits="userSpaceOnUse" x1="1306.007" y1="1364.5277" x2="959.4102" y2="1364.5277" gradientTransform="matrix(1 0 0 1 0 -962)">
		<stop  offset="2.770450e-07" style="stop-color:#164383"/>
		<stop  offset="1" style="stop-color:#164383"/>
	</linearGradient>
	<path style="fill:url(#SVGID_00000075855325229272754670000007709269393263727241_);" d="M999.2,399.8c0-4.7,0-7.8,0-9.2
		c0-1.7,0-2.5-0.2-2.8c0-0.3-0.5-0.6-0.7-0.6s-0.5-0.3-0.5-0.6c0-0.3,0-0.6,0.2-0.6c0,0,0.5,0,1,0h3.1v16.9v10.5
		c0,1.7,0,2.8,0.2,3.1c0.2,0.6,0.5,0.8,1,0.8c0.2,0,0.5,0.3,0.5,0.6c0,0.6-0.2,0.6-0.5,0.6h-3.9v-3.3c-0.2,1.1-0.7,2.2-1.2,2.8
		c-0.5,0.6-1,0.8-1.7,0.8c-1.2,0-2.2-0.8-3.1-2.8c-1-1.9-1.5-4.4-1.5-7.2c0-3.3,0.5-6.1,1.5-8c1-2.2,2.2-3.1,3.4-3.1
		c0.5,0,1,0.3,1.2,0.6C998.8,398.4,999,398.9,999.2,399.8z M995.1,408.1c0,3.1,0.2,5.3,0.5,6.7c0.5,1.4,1,2.2,1.5,2.2s1-0.6,1.5-1.9
		s0.7-3.9,0.7-7.2c0-2.8-0.2-5-0.5-6.4s-1-2.2-1.7-2.2s-1.2,0.8-1.5,2.2C995.4,402.8,995.1,405,995.1,408.1z"/>
	
		<linearGradient id="SVGID_00000011730310775033179440000017684265299531766704_" gradientUnits="userSpaceOnUse" x1="1306.007" y1="1376.1808" x2="959.4078" y2="1376.1808" gradientTransform="matrix(1 0 0 1 0 -962)">
		<stop  offset="2.770450e-07" style="stop-color:#164383"/>
		<stop  offset="1" style="stop-color:#164383"/>
	</linearGradient>
	<path style="fill:url(#SVGID_00000011730310775033179440000017684265299531766704_);" d="M1013.5,399.5c1-1.7,1.7-2.5,2.4-2.5
		c0.5,0,0.7,0.3,1.2,0.8c0.2,0.6,0.5,1.1,0.5,1.9c0,0.6,0,1.1-0.2,1.7c-0.2,0.6-0.5,0.8-0.7,0.8c-0.5,0-0.7-0.6-1-1.7
		c-0.2-0.8-0.2-1.1-0.5-1.1c-0.2,0-0.5,0.3-1,1.1c0.5,1.4,0.7,2.8,0.7,4.2c0,1.4-0.2,2.8-0.7,4.2c-0.5,1.4-1,2.2-1.5,2.8
		s-1.5,0.8-2.4,1.1c-1,0.3-1.5,0.6-1.7,0.8c-0.2,0.6-0.2,0.8-0.2,1.4s0.2,1.1,0.7,1.1c0.5,0.3,1.7,0.3,3.4,0.6
		c2.9,0.3,4.4,2.2,4.4,5.8c0,2.5-0.5,4.7-1.7,6.4c-1.2,1.7-2.7,2.5-4.8,2.5c-1.7,0-2.9-0.6-3.6-1.4c-0.7-1.1-1.2-2.2-1.2-3.6
		c0-1.4,0.2-2.5,1-3.6c0.5-1.1,1.5-1.7,2.7-2.2c-1-0.3-1.7-0.6-2.2-1.1c-0.5-0.6-0.7-1.4-0.7-2.5s0.2-2.2,0.7-2.8
		c0.5-0.8,1-1.4,1.9-1.7c-1-0.6-1.5-1.4-1.9-2.5s-0.7-2.5-0.7-3.9c0-2.2,0.5-4.2,1.5-5.8c1-1.7,1.9-2.2,3.4-2.2
		c0.7,0,1.2,0.3,1.7,0.6C1012.5,398.4,1013,398.9,1013.5,399.5z M1007.2,425.8c0,1.1,0.2,1.9,0.7,2.8c0.5,0.8,1.2,1.1,2.2,1.1
		c1.2,0,2.2-0.6,2.9-1.7c0.7-1.1,1.2-2.5,1.2-3.9c0-1.1-0.2-1.9-1-2.8c-0.7-0.6-1.5-0.8-2.4-0.8c-1.2,0-1.9,0.6-2.7,1.4
		C1007.7,423.3,1007.2,424.4,1007.2,425.8z M1008.4,404.5c0,1.9,0.2,3.6,0.5,4.7c0.2,1.1,0.7,1.7,1.2,1.7s0.7-0.6,1-1.4
		c0.2-0.8,0.5-2.5,0.5-4.4c0-1.9-0.2-3.6-0.5-4.7c-0.2-1.1-0.7-1.7-1.2-1.7c-0.5,0-0.7,0.6-1.2,1.7
		C1008.7,401.4,1008.4,402.8,1008.4,404.5z"/>
	
		<linearGradient id="SVGID_00000027592916268036597430000014269997041966794408_" gradientUnits="userSpaceOnUse" x1="1306.007" y1="1364.1115" x2="959.4078" y2="1364.1115" gradientTransform="matrix(1 0 0 1 0 -962)">
		<stop  offset="2.770450e-07" style="stop-color:#164383"/>
		<stop  offset="1" style="stop-color:#164383"/>
	</linearGradient>
	<path style="fill:url(#SVGID_00000027592916268036597430000014269997041966794408_);" d="M1022.5,397.3c0,2.2,0,6.1,0,11.9v5.3
		c0,1.1,0,1.7,0.2,2.2c0.2,0.3,0.5,0.6,0.7,0.6c0.5,0,0.7,0.3,0.7,0.8s-0.2,0.6-0.5,0.6s-0.5,0-1,0c-1,0-1.7-0.3-2.4-0.3
		c-0.5,0-0.7,0-1.2,0c-0.2,0-0.5,0-0.5,0c-0.2,0-0.5-0.3-0.5-0.6c0-0.3,0.2-0.6,0.7-0.8c0.5,0,1-0.6,1-1.1c0-0.8,0-2.2,0-4.4
		c0-2.8,0-5.3,0-7.8c0-2.2-0.2-3.6-0.2-4.2c-0.2-0.3-0.5-0.6-1-0.6s-0.5-0.3-0.5-0.6c0-0.3,0.2-0.6,0.5-0.6h0.2L1022.5,397.3z
		 M1022.5,389.2c0,0.8-0.2,1.7-0.5,2.5c-0.2,0.6-0.7,1.1-1.2,1.1c-0.5,0-1-0.3-1.2-1.1c-0.2-0.6-0.5-1.4-0.5-2.5
		c0-0.8,0.2-1.7,0.5-2.5c0.2-0.6,0.7-1.1,1.2-1.1c0.5,0,1,0.3,1.2,1.1C1022.2,387.5,1022.5,388.4,1022.5,389.2z"/>
	
		<linearGradient id="SVGID_00000137817646283257006810000010560031439896242074_" gradientUnits="userSpaceOnUse" x1="1306.007" y1="1370.0768" x2="959.4127" y2="1370.0768" gradientTransform="matrix(1 0 0 1 0 -962)">
		<stop  offset="2.770450e-07" style="stop-color:#164383"/>
		<stop  offset="1" style="stop-color:#164383"/>
	</linearGradient>
	<path style="fill:url(#SVGID_00000137817646283257006810000010560031439896242074_);" d="M1029.5,402c0.5-1.7,1.2-2.8,1.7-3.3
		c0.7-0.8,1.2-1.1,1.9-1.1c0.5,0,1.2,0.3,1.7,0.8c0.5,0.6,0.7,1.4,1,2.2c0.2,0.8,0.2,1.9,0.2,3.6v9.4c0,1.4,0,2.2,0.2,2.5
		c0.2,0.6,0.2,0.8,0.7,0.8c0.2,0,0.5,0.3,0.5,0.8c0,0.6-0.2,0.6-0.5,0.6c-0.2,0-0.7,0-1.7-0.3c-0.2,0-0.5,0-0.7,0
		c-0.2,0-0.7,0-1.5,0.3h-0.5c-0.2,0-0.5-0.3-0.5-0.6c0-0.3,0.2-0.6,0.5-0.6c0.2,0,0.5-0.3,0.7-0.6c0.2-0.3,0.2-1.4,0.2-3.9
		c0-2.2,0-4.4,0-6.7c0-2.5,0-4.2-0.2-5s-0.5-1.4-1-1.4c-0.7,0-1.2,1.1-1.9,3.1c-0.5,1.9-1,5-1,9.2c0,1.7,0,2.8,0,3.6
		c0,0.8,0.2,1.1,0.2,1.4c0,0.3,0.2,0.3,0.7,0.6c0.2,0,0.2,0.3,0.2,0.6c0,0.6-0.2,0.6-0.5,0.6c-0.2,0-0.2,0-0.5,0
		c-0.7,0-1.2-0.3-1.2-0.3c-1.2,0-1.9,0-2.7,0.3h-0.2c-0.2,0-0.5-0.3-0.5-0.6c0-0.3,0.2-0.6,0.5-0.6c0.5,0,0.7-0.3,0.7-0.6
		c0.2-0.3,0.2-1.4,0.2-3.3c0-1.9,0-4.2,0-6.7c0-3.3,0-5.3-0.2-6.1c0-0.8-0.5-1.4-0.7-1.7c-0.2-0.3-0.5-0.6-0.5-0.8s0.2-0.6,0.7-0.6
		c1.2,0,2.4,0,3.1-0.3C1029.2,398.6,1029.5,400.3,1029.5,402z"/>
	
		<linearGradient id="SVGID_00000177479946303261852230000002917452619293519018_" gradientUnits="userSpaceOnUse" x1="1306.007" y1="1376.1808" x2="959.4102" y2="1376.1808" gradientTransform="matrix(1 0 0 1 0 -962)">
		<stop  offset="2.770450e-07" style="stop-color:#164383"/>
		<stop  offset="1" style="stop-color:#164383"/>
	</linearGradient>
	<path style="fill:url(#SVGID_00000177479946303261852230000002917452619293519018_);" d="M1046.9,399.5c1-1.7,1.7-2.5,2.4-2.5
		c0.5,0,0.7,0.3,1.2,0.8c0.2,0.6,0.5,1.1,0.5,1.9c0,0.6,0,1.1-0.2,1.7c-0.2,0.6-0.5,0.8-0.7,0.8c-0.5,0-0.7-0.6-1-1.7
		c-0.2-0.8-0.2-1.1-0.5-1.1c-0.2,0-0.5,0.3-1,1.1c0.5,1.4,0.7,2.8,0.7,4.2c0,1.4-0.2,2.8-0.7,4.2c-0.5,1.4-1,2.2-1.5,2.8
		s-1.5,0.8-2.4,1.1c-1,0.3-1.5,0.6-1.7,0.8c-0.2,0.6-0.2,0.8-0.2,1.4s0.2,1.1,0.7,1.1c0.5,0.3,1.7,0.3,3.4,0.6
		c2.9,0.3,4.4,2.2,4.4,5.8c0,2.5-0.5,4.7-1.7,6.4c-1,1.7-2.7,2.5-4.8,2.5c-1.7,0-2.9-0.6-3.6-1.4c-0.7-1.1-1.2-2.2-1.2-3.6
		c0-1.4,0.2-2.5,1-3.6c0.5-1.1,1.5-1.7,2.7-2.2c-1-0.3-1.7-0.6-2.2-1.1c-0.5-0.6-0.7-1.4-0.7-2.5s0.2-2.2,0.7-2.8
		c0.5-0.8,1-1.4,1.9-1.7c-1-0.6-1.5-1.4-1.9-2.5s-0.7-2.5-0.7-3.9c0-2.2,0.5-4.2,1.5-5.8s1.9-2.2,3.4-2.2c0.7,0,1.2,0.3,1.7,0.6
		C1046.1,398.4,1046.6,398.9,1046.9,399.5z M1040.8,425.8c0,1.1,0.2,1.9,0.7,2.8c0.5,0.8,1.2,1.1,2.2,1.1c1.2,0,2.2-0.6,2.9-1.7
		c0.7-1.1,1.2-2.5,1.2-3.9c0-1.1-0.2-1.9-1-2.8c-0.7-0.6-1.5-0.8-2.4-0.8c-1.2,0-1.9,0.6-2.7,1.4
		C1041.1,423.3,1040.8,424.4,1040.8,425.8z M1042,404.5c0,1.9,0.2,3.6,0.5,4.7c0.2,1.1,0.7,1.7,1.2,1.7s0.7-0.6,1-1.4
		c0.2-0.8,0.5-2.5,0.5-4.4c0-1.9-0.2-3.6-0.5-4.7c-0.2-1.1-0.7-1.7-1.2-1.7c-0.5,0-1,0.6-1.2,1.7
		C1042.3,401.4,1042,402.8,1042,404.5z"/>
	
		<linearGradient id="SVGID_00000099663129171192801520000002686279704441312410_" gradientUnits="userSpaceOnUse" x1="1306.007" y1="1364.2502" x2="959.4127" y2="1364.2502" gradientTransform="matrix(1 0 0 1 0 -962)">
		<stop  offset="2.770450e-07" style="stop-color:#164383"/>
		<stop  offset="1" style="stop-color:#164383"/>
	</linearGradient>
	<path style="fill:url(#SVGID_00000099663129171192801520000002686279704441312410_);" d="M1058.2,386.4c4.1,0.3,7,0.3,8.9,0.3
		c1.5,0,3.1,0,4.8-0.3c0.7,0,1.2,0,1.5,0c0.2,0,0.5,0,0.7,0c0,0.6,0.2,1.9,0.2,4.2l0.2,3.9c0,0.6-0.2,0.8-0.5,0.8s-0.5-0.3-0.5-1.1
		c-0.2-1.4-0.7-2.5-1.2-3.3s-1-1.7-1.7-1.9c-0.7-0.3-1.7-0.6-2.9-0.6c-0.2,2.5-0.2,5.5-0.2,9.2c0,3.9,0,7.5,0,10.8
		c0,3.6,0.2,5.5,0.2,6.4c0,0.8,0.2,1.1,0.5,1.7c0.2,0.3,0.7,0.6,1.7,0.6c0.2,0,0.5,0.3,0.5,0.6c0,0.6-0.2,0.6-0.5,0.6h-0.2h-2.4
		c-1.9,0-2.9,0-3.4,0h-1.5c0,0-0.2,0-0.7,0c-0.2,0-0.2-0.3-0.2-0.6c0-0.6,0.2-0.6,0.5-0.6c0.7,0,1.2-0.3,1.5-0.8
		c0.2-0.6,0.5-1.4,0.7-2.8c0-1.4,0.2-4.2,0.2-8.3c0-6.7,0-12.2-0.2-16.6c-1.2,0-2.2,0-2.7,0.3c-0.5,0.3-1.2,0.8-1.7,1.7
		s-1,2.2-1.2,3.9c-0.2,0.6-0.2,0.8-0.5,0.8c-0.2,0-0.5-0.3-0.5-0.8c0-0.3,0-1.1,0.2-3.1C1058,389.5,1058.2,387.8,1058.2,386.4z"/>
	
		<linearGradient id="SVGID_00000140001444291715562160000003279876414144499625_" gradientUnits="userSpaceOnUse" x1="1306.007" y1="1369.7993" x2="959.4102" y2="1369.7993" gradientTransform="matrix(1 0 0 1 0 -962)">
		<stop  offset="2.770450e-07" style="stop-color:#164383"/>
		<stop  offset="1" style="stop-color:#164383"/>
	</linearGradient>
	<path style="fill:url(#SVGID_00000140001444291715562160000003279876414144499625_);" d="M1079.8,402.3c0.5-1.7,0.7-2.8,1.5-3.6
		c0.5-0.8,1-1.1,1.7-1.1c0.5,0,1,0.3,1.5,1.1c0.2,0.8,0.5,1.7,0.5,2.5c0,0.8-0.2,1.7-0.5,2.2c-0.2,0.6-0.5,0.8-1,0.8
		c-0.2,0-0.5-0.3-0.7-0.6c-0.2-0.3-0.5-0.8-0.5-1.7c-0.2-1.1-0.5-1.7-0.7-1.7c-0.2,0-0.7,0.6-1,1.7c-0.2,1.1-0.5,3.6-0.5,6.9
		c0,4.4,0,6.7,0.2,7.2c0.2,0.6,0.5,0.8,1,0.8s0.7,0.3,0.7,0.8c0,0.6-0.2,0.6-0.7,0.6c-0.2,0-0.5,0-1,0s-0.7,0-1.2,0
		c-0.7,0-1.5,0-2.2,0.3c-0.2,0-0.5,0-0.5,0c-0.2,0-0.5-0.3-0.5-0.8c0-0.6,0.2-0.6,0.5-0.8c0.5,0,0.7-0.3,0.7-0.6
		c0.2-0.3,0.2-1.1,0.2-2.2v-6.1c0-1.1,0-2.8,0-4.4c0-1.7,0-2.8-0.2-3.3c0-0.3-0.2-0.6-0.2-0.8c-0.2-0.3-0.5-0.6-0.7-0.6
		c-0.2,0-0.5-0.3-0.5-0.3s0-0.3,0-0.6c0-0.6,0.2-0.6,0.5-0.6c0.7,0,1.9-0.3,3.6-0.6V402.3z"/>
	
		<linearGradient id="SVGID_00000179638427205623189200000009310439481912112770_" gradientUnits="userSpaceOnUse" x1="1306.0021" y1="1369.938" x2="959.4078" y2="1369.938" gradientTransform="matrix(1 0 0 1 0 -962)">
		<stop  offset="2.770450e-07" style="stop-color:#164383"/>
		<stop  offset="1" style="stop-color:#164383"/>
	</linearGradient>
	<path style="fill:url(#SVGID_00000179638427205623189200000009310439481912112770_);" d="M1089.4,397.8c0,1.7,0,3.9,0,6.7
		c0,4.4,0,6.9,0,8.3c0,1.1,0.2,2.2,0.5,2.8c0.2,0.6,0.5,0.8,1,0.8s0.7-0.3,1.2-0.8c0.5-0.6,0.7-1.4,1-2.5s0.2-2.8,0.2-5v-5.3
		c0-1.4,0-2.2,0-2.8s-0.2-0.6-0.7-0.8c-0.5,0-0.7-0.3-0.7-0.8c0-0.3,0-0.6,0.2-0.6c0,0,0.5,0,1,0c1,0,2.2,0,2.9-0.3
		c0,0.6,0,4.2,0,10.3c0,5,0,7.8,0,8c0,0.6,0.2,0.8,0.7,0.8c0.2,0,0.5,0.3,0.5,0.6c0,0.6-0.2,0.6-0.5,0.6h-0.2c-0.2,0-0.5,0-0.7,0
		c-1,0-1.7,0-1.7,0h-0.2c-0.2,0-0.2,0-0.2-0.3c0,0,0-0.3,0-0.8c0-0.8,0-1.7,0-2.5c-0.5,1.4-1.2,2.2-1.7,3.1
		c-0.5,0.6-1.2,1.1-1.9,1.1c-1.9,0-2.9-2.2-2.9-6.9v-7.5c0-2.5,0-4.2-0.2-4.4c0-0.6-0.2-0.8-0.7-0.8c-0.2,0-0.5-0.3-0.5-0.6
		c0-0.6,0.2-0.6,0.5-0.6C1088,398.1,1089.2,398.1,1089.4,397.8z"/>
	
		<linearGradient id="SVGID_00000070087019686208979140000006783120357568823425_" gradientUnits="userSpaceOnUse" x1="1306.007" y1="1369.7993" x2="959.4102" y2="1369.7993" gradientTransform="matrix(1 0 0 1 0 -962)">
		<stop  offset="2.770450e-07" style="stop-color:#164383"/>
		<stop  offset="1" style="stop-color:#164383"/>
	</linearGradient>
	<path style="fill:url(#SVGID_00000070087019686208979140000006783120357568823425_);" d="M1106.8,411.7c0,1.1-0.2,2.2-0.5,3.3
		c-0.2,1.1-0.7,1.9-1.2,2.8c-0.5,0.8-1.2,1.1-2.2,1.1c-1,0-1.7-0.3-2.4-1.1c-0.2-0.3-0.5-0.6-0.5-0.6s-0.2,0-0.2,0.3
		c-0.2,0.6-0.2,0.8-0.5,0.8c0,0-0.2,0-0.2-0.3c0-0.3,0-0.8,0-2.2s0-2.8,0-4.4c0-0.6,0-1.1,0.2-1.1c0.2,0,0.5,0.6,0.5,1.4
		c0.7,3.6,1.7,5.3,3.1,5.3c0.5,0,0.7-0.3,1.2-0.8c0.2-0.6,0.5-1.1,0.5-2.2c0-0.8-0.2-1.4-0.5-1.9c-0.2-0.6-0.7-1.1-1.7-1.9
		c-1.2-1.4-2.2-2.5-2.7-3.3s-0.7-2.2-0.7-3.9c0-1.7,0.2-3.3,1-4.4s1.5-1.7,2.4-1.7c0.7,0,1.7,0.6,2.4,1.4l0.2,0.3
		c0,0,0.2-0.3,0.2-0.6c0-0.6,0.2-0.6,0.2-0.6s0.2,0,0.2,0.3c0,0.3,0,0.8,0.2,2.2c0,1.4,0,2.5,0,3.3c0,0.6,0,0.8-0.2,0.8
		c-0.2,0-0.5-0.6-0.5-1.4c-0.7-3.1-1.7-4.4-2.9-4.4c-0.5,0-0.7,0.3-1.2,0.6c-0.2,0.6-0.5,0.8-0.5,1.4c0,0.6,0.2,1.4,0.5,1.9
		c0.2,0.6,1,1.4,2.2,2.2c1,0.8,1.5,1.4,1.9,1.9c0.2,0.6,0.7,1.1,1,1.9C1106.6,410,1106.8,410.9,1106.8,411.7z"/>
	
		<linearGradient id="SVGID_00000052812894316167070530000009405981745501665710_" gradientUnits="userSpaceOnUse" x1="1306.0045" y1="1367.3021" x2="959.4102" y2="1367.3021" gradientTransform="matrix(1 0 0 1 0 -962)">
		<stop  offset="2.770450e-07" style="stop-color:#164383"/>
		<stop  offset="1" style="stop-color:#164383"/>
	</linearGradient>
	<path style="fill:url(#SVGID_00000052812894316167070530000009405981745501665710_);" d="M1113.1,397.8c0.5,0,1.2,0,2.2,0
		c0.5,0,0.7,0,1.2,0.3c0,1.1-0.2,1.9-0.2,1.9s-1,0.3-2.9,0.6l-0.2,10.5c0,1.4,0,2.5,0,3.3s0.2,1.4,0.5,1.7c0.2,0.6,0.5,0.8,1,0.8
		c0.2,0,1-0.3,1.5-1.1l0.2-0.3c0.2,0,0.2,0.3,0.2,0.6c0,0.6-0.2,1.1-1,1.9c-0.7,0.8-1.5,1.1-2.2,1.1c-1,0-1.7-0.6-2.4-1.4
		c-0.5-1.1-1-3.1-1-6.4c0-3.6,0-7.2,0-10.8c-0.7,0-1.2,0-1.7,0c-0.2,0-0.5-0.3-0.5-0.6c0-0.3,0.2-0.6,0.5-0.8
		c0.7-0.3,1.5-0.8,1.9-1.9c0.5-0.8,1-2.2,1.5-4.2c0.2-0.8,0.2-1.4,0.2-1.4c0-0.3,0.2-0.3,0.2-0.3c0.2,0,0.2,0.3,0.2,1.1
		L1113.1,397.8L1113.1,397.8z"/>
	
		<linearGradient id="SVGID_00000093174041401403399980000016480332226724226691_" gradientUnits="userSpaceOnUse" x1="1306.007" y1="1381.175" x2="959.4127" y2="1381.175" gradientTransform="matrix(1 0 0 1 0 -962)">
		<stop  offset="2.770450e-07" style="stop-color:#164383"/>
		<stop  offset="1" style="stop-color:#164383"/>
	</linearGradient>
	<path style="fill:url(#SVGID_00000093174041401403399980000016480332226724226691_);" d="M1122.3,416.7c0,1.4-0.2,2.8-0.7,4.2
		c-0.5,1.4-1,2.8-1.7,3.6c-0.7,0.8-1.2,1.4-1.5,1.4c-0.2,0-0.2-0.3-0.2-0.6c0-0.3,0-0.6,0.2-0.6c0.7-0.8,1.2-1.9,1.5-3.1
		c0.2-1.1,0.5-1.9,0.5-2.5c0-0.6-0.2-0.8-0.5-0.8c-1-0.6-1.5-1.4-1.5-2.8c0-0.8,0.2-1.7,0.5-2.2c0.5-0.6,0.7-0.8,1.2-0.8
		c0.7,0,1.2,0.6,1.7,1.4C1122.1,414.5,1122.3,415.6,1122.3,416.7z"/>
	
		<linearGradient id="SVGID_00000056406757886641540500000013983948657224990911_" gradientUnits="userSpaceOnUse" x1="1306.007" y1="1363.834" x2="959.4102" y2="1363.834" gradientTransform="matrix(1 0 0 1 0 -962)">
		<stop  offset="2.770450e-07" style="stop-color:#164383"/>
		<stop  offset="1" style="stop-color:#164383"/>
	</linearGradient>
	<path style="fill:url(#SVGID_00000056406757886641540500000013983948657224990911_);" d="M1143.1,387c0.2,2.5,0.5,5,0.7,7.5
		c0,0.6,0,0.6-0.2,0.6c-0.2,0-0.2-0.3-0.5-0.6c-0.7-2.5-1.5-3.9-2.2-4.7c-0.7-0.8-1.7-1.1-2.9-1.1c-0.7,0-1.5,0-1.9,0.3
		c-0.2,2.8-0.2,5.8-0.2,9.2c0,0.6,0,1.7,0,2.8h1c0.5,0,1-0.3,1.5-0.6c0.5-0.3,0.7-0.8,1-1.9c0.2-1.1,0.5-1.7,0.5-1.9
		c0-0.6,0.2-0.8,0.5-0.8c0.2,0,0.2,0.3,0.2,0.6v0.3c0,1.1-0.2,3.9-0.2,8.9c0,0.6,0,1.4,0,1.9c0,0.3,0,0.3,0,0.3
		c0,0.6-0.2,0.6-0.5,0.6s-0.2-0.6-0.5-1.4c-0.2-1.4-0.5-2.5-1-3.3c-0.5-0.8-1.5-1.1-2.7-1.1c0,2.8,0,4.4,0,5.3c0,3.6,0,5.8,0,6.4
		c0,0.6,0.2,1.1,0.5,1.7c0.2,0.6,1,0.6,1.7,0.6c2.9,0,4.8-1.9,5.8-5.8c0.2-0.6,0.2-0.8,0.5-0.8s0.2,0.3,0.2,0.6c0,0.3,0,0.6,0,1.1
		l-0.7,6.9h-4.1c-1.2,0-2.4,0-3.4-0.3c-1,0-1.9-0.3-2.4-0.3c-0.7,0-1.7,0-2.9,0.3c-0.2,0-0.2,0-0.5,0s-0.5-0.3-0.5-0.8
		c0-0.6,0.2-0.6,0.5-0.6c0.7,0,1.2-0.6,1.5-1.4c0.2-0.8,0.5-2.5,0.5-5.3v-12.2c0-4.2,0-6.9,0-7.8c0-0.8-0.2-1.7-0.5-1.9
		c-0.2-0.3-0.7-0.6-1.2-0.8c-0.2,0-0.5-0.3-0.5-0.6c0-0.6,0.2-0.8,0.5-0.8l2.9,0.3L1143.1,387z"/>
	
		<linearGradient id="SVGID_00000051377518961528798730000002699450382103811509_" gradientUnits="userSpaceOnUse" x1="1306.0093" y1="1363.9728" x2="959.4127" y2="1363.9728" gradientTransform="matrix(1 0 0 1 0 -962)">
		<stop  offset="2.770450e-07" style="stop-color:#164383"/>
		<stop  offset="1" style="stop-color:#164383"/>
	</linearGradient>
	<path style="fill:url(#SVGID_00000051377518961528798730000002699450382103811509_);" d="M1150.3,385.6v20c0,6.4,0,10,0.2,10.5
		c0.2,0.6,0.5,0.8,1,0.8s0.7,0.3,0.7,0.6c0,0.6-0.2,0.8-0.5,0.8c0,0-0.2,0-0.5,0c-0.7,0-1.5-0.3-2.2-0.3c-1.2,0-1.9,0-2.7,0.3
		c-0.2,0-0.2,0-0.5,0s-0.5-0.3-0.5-0.6c0-0.3,0.2-0.6,0.5-0.6c0.5,0,0.7-0.3,1-0.6c0.2-0.3,0.2-0.6,0.2-1.1c0-0.6,0-1.7,0-3.3v-9.4
		v-7.5c0-3.1,0-5-0.2-5.5c-0.2-0.6-0.5-1.1-1.2-1.4c-0.5,0-0.7-0.3-0.7-0.8c0-0.3,0-0.3,0.2-0.6c0,0,0.2-0.3,0.7-0.3
		C1147.9,386.7,1149.4,386.2,1150.3,385.6z"/>
	
		<linearGradient id="SVGID_00000036959524080267102020000008181281953215415424_" gradientUnits="userSpaceOnUse" x1="1306.007" y1="1369.938" x2="959.4078" y2="1369.938" gradientTransform="matrix(1 0 0 1 0 -962)">
		<stop  offset="2.770450e-07" style="stop-color:#164383"/>
		<stop  offset="1" style="stop-color:#164383"/>
	</linearGradient>
	<path style="fill:url(#SVGID_00000036959524080267102020000008181281953215415424_);" d="M1156.6,407.5c0,0.6,0,0.8,0,1.1
		c0,2.2,0.2,4.2,0.7,5.8s1.2,2.2,2.2,2.2c1,0,1.9-0.8,2.7-2.5c0.2-0.3,0.2-0.6,0.5-0.6c0.2,0,0.2,0.3,0.2,0.6c0,0.3-0.2,1.1-0.7,1.9
		s-1,1.7-1.7,1.9c-0.7,0.6-1.5,0.6-2.2,0.6c-1.7,0-2.9-1.1-3.6-3.1c-1-1.9-1.5-4.4-1.5-6.9c0-3.3,0.5-5.8,1.5-8
		c1-2.2,2.4-3.3,3.9-3.3c1.5,0,2.7,1.1,3.4,3.1c0.7,1.9,1.2,3.9,1.2,5.8c0,0.6,0,0.8-0.2,1.1c-0.2,0-0.7,0.3-1.5,0.3L1156.6,407.5z
		 M1156.9,405.9c1.2,0,1.9,0,1.9,0c1,0,1.5,0,1.7-0.3c0.2-0.3,0.2-0.8,0.2-1.7c0-1.4-0.2-2.5-0.5-3.6c-0.5-1.1-0.7-1.4-1.2-1.4
		C1157.6,398.9,1156.9,401.1,1156.9,405.9z"/>
	
		<linearGradient id="SVGID_00000173121709077987157060000014599569400074952634_" gradientUnits="userSpaceOnUse" x1="1306.007" y1="1369.3832" x2="959.4102" y2="1369.3832" gradientTransform="matrix(1 0 0 1 0 -962)">
		<stop  offset="2.770450e-07" style="stop-color:#164383"/>
		<stop  offset="1" style="stop-color:#164383"/>
	</linearGradient>
	<path style="fill:url(#SVGID_00000173121709077987157060000014599569400074952634_);" d="M1171.1,412c0.5-2.2,1-4.4,1.5-6.9
		s0.7-3.9,0.7-4.4s-0.2-1.1-0.5-1.4c-0.2-0.3-0.5-0.6-0.5-0.8s0.2-0.6,0.5-0.6c0.2,0,0.5,0,1,0c0.5,0,0.7,0,0.7,0c0.2,0,0.7,0,1-0.3
		c0.2,0,0.2,0,0.5,0c0.2,0,0.5,0.3,0.5,0.6c0,0.3-0.2,0.6-0.5,0.6c-0.7,0.3-1.5,1.7-1.9,4.2c-0.5,3.1-1,5.5-1.7,8
		c-0.5,2.5-1,4.2-1.2,5.3c-0.2,1.1-0.5,1.7-0.5,1.7h-0.2c0,0-0.2-0.3-0.2-0.6c0-0.3-0.5-1.9-1.2-4.7l-2.7-11.1
		c-0.5-1.7-0.7-2.5-1-2.8c-0.2-0.3-0.5-0.6-0.5-0.6c-0.2-0.3-0.5-0.3-0.5-0.6c0-0.6,0.2-0.6,0.5-0.6c0.2,0,0.2,0,0.5,0
		c0.7,0,1.2,0.3,1.9,0.3c0.2,0,0.5,0,0.7,0c0.5,0,1-0.3,1-0.3c0.5,0,0.7,0.3,0.7,0.6c0,0.6-0.2,0.8-0.5,0.8c-0.5,0-0.5,0.6-0.5,1.1
		c0,0.6,0.2,1.9,1,5C1170.2,408.1,1170.6,410.3,1171.1,412z"/>
	
		<linearGradient id="SVGID_00000015316653143965956800000014370642880645026958_" gradientUnits="userSpaceOnUse" x1="1306.0093" y1="1370.4929" x2="959.4127" y2="1370.4929" gradientTransform="matrix(1 0 0 1 0 -962)">
		<stop  offset="2.770450e-07" style="stop-color:#164383"/>
		<stop  offset="1" style="stop-color:#164383"/>
	</linearGradient>
	<path style="fill:url(#SVGID_00000015316653143965956800000014370642880645026958_);" d="M1182.3,416.1c-0.5,0.8-1,1.7-1.5,2.2
		c-0.5,0.6-1,0.8-1.5,0.8c-0.7,0-1.5-0.6-1.9-1.4c-0.5-1.1-0.7-2.2-0.7-3.6c0-1.1,0.2-1.9,0.5-3.1c0.2-0.8,0.5-1.7,1-1.9
		c0.5-0.6,1-1.1,1.9-1.7c0.7-0.6,1.2-1.1,1.5-1.4c0.2-0.3,0.5-0.8,0.7-1.4c0.2-0.6,0.2-1.4,0.2-2.2c0-1.1-0.2-1.9-0.5-2.5
		c-0.2-0.6-0.5-0.8-1-0.8s-0.7,0.3-0.7,0.6c-0.2,0.3-0.2,1.1-0.5,1.9c-0.2,1.9-0.7,2.8-1.5,2.8c-0.2,0-0.5-0.3-0.7-0.6
		c-0.2-0.3-0.2-0.8-0.2-1.7c0-1.7,0.5-2.8,1.2-3.3c0.7-0.8,1.7-1.1,2.9-1.1c1,0,1.7,0.3,2.4,0.8c0.7,0.6,1,1.4,1.2,2.2
		s0.2,1.9,0.2,3.6v5.5c0,3.1,0,5,0.2,5.8c0,0.8,0.2,1.4,0.7,1.4c0,0,0,0,0.2,0c0.2,0,0.2,0,0.2,0c0.2,0,0.5,0.3,0.5,0.6
		c0,0.3,0,0.6-0.2,0.6c-0.2,0.3-0.5,0.3-1.2,0.6s-1.2,0.3-1.7,0.3s-1-0.3-1.2-0.6C1182.5,417.8,1182.3,417.2,1182.3,416.1z
		 M1182.5,406.4c-0.2,0.6-0.7,1.1-1.5,1.9c-0.7,0.8-1,1.4-1.2,1.9c-0.2,0.6-0.2,1.4-0.2,2.5s0,1.9,0.2,2.5c0.2,0.6,0.5,0.8,0.7,0.8
		c0.5,0,1-0.6,1.2-1.4c0.5-0.8,0.5-2.5,0.5-4.4C1182.5,409.7,1182.5,408.4,1182.5,406.4z"/>
	
		<linearGradient id="SVGID_00000041270409376064080480000016165550375845902746_" gradientUnits="userSpaceOnUse" x1="1306.0093" y1="1367.3021" x2="959.4102" y2="1367.3021" gradientTransform="matrix(1 0 0 1 0 -962)">
		<stop  offset="2.770450e-07" style="stop-color:#164383"/>
		<stop  offset="1" style="stop-color:#164383"/>
	</linearGradient>
	<path style="fill:url(#SVGID_00000041270409376064080480000016165550375845902746_);" d="M1192.6,397.8c0.5,0,1.2,0,2.2,0
		c0.5,0,0.7,0,1.2,0.3c0,1.1-0.2,1.9-0.2,1.9s-1,0.3-2.9,0.6l-0.2,10.5c0,1.4,0,2.5,0,3.3s0.2,1.4,0.5,1.7c0.2,0.6,0.5,0.8,1,0.8
		c0.2,0,1-0.3,1.5-1.1l0.2-0.3c0.2,0,0.2,0.3,0.2,0.6c0,0.6-0.2,1.1-1,1.9c-0.7,0.8-1.5,1.1-2.2,1.1c-1,0-1.7-0.6-2.4-1.4
		c-0.5-1.1-1-3.1-1-6.4c0-3.6,0-7.2,0-10.8c-0.7,0-1.2,0-1.7,0c-0.2,0-0.5-0.3-0.5-0.6c0-0.3,0.2-0.6,0.5-0.8
		c0.7-0.3,1.5-0.8,1.9-1.9c0.5-0.8,1-2.2,1.5-4.2c0.2-0.8,0.2-1.4,0.2-1.4c0-0.3,0.2-0.3,0.2-0.3c0.2,0,0.2,0.3,0.2,1.1
		L1192.6,397.8L1192.6,397.8z"/>
	
		<linearGradient id="SVGID_00000081642738395503426830000006354361905266572200_" gradientUnits="userSpaceOnUse" x1="1306.0021" y1="1364.1115" x2="959.403" y2="1364.1115" gradientTransform="matrix(1 0 0 1 0 -962)">
		<stop  offset="2.770450e-07" style="stop-color:#164383"/>
		<stop  offset="1" style="stop-color:#164383"/>
	</linearGradient>
	<path style="fill:url(#SVGID_00000081642738395503426830000006354361905266572200_);" d="M1201.6,397.3c0,2.2,0,6.1,0,11.9v5.3
		c0,1.1,0,1.7,0.2,2.2c0.2,0.3,0.5,0.6,0.7,0.6c0.5,0,0.7,0.3,0.7,0.8s-0.2,0.6-0.5,0.6c-0.2,0-0.5,0-1,0c-1,0-1.7-0.3-2.4-0.3
		c-0.5,0-0.7,0-1.2,0c-0.2,0-0.5,0-0.5,0c-0.2,0-0.5-0.3-0.5-0.6c0-0.3,0.2-0.6,0.7-0.8c0.5,0,1-0.6,1-1.1c0-0.8,0-2.2,0-4.4
		c0-2.8,0-5.3,0-7.8c0-2.2,0-3.6-0.2-4.2c0-0.3-0.5-0.6-1-0.6s-0.5-0.3-0.5-0.6c0-0.3,0.2-0.6,0.5-0.6h0.2L1201.6,397.3z
		 M1201.4,389.2c0,0.8-0.2,1.7-0.5,2.5c-0.2,0.6-0.7,1.1-1.2,1.1s-1-0.3-1.2-1.1c-0.2-0.6-0.5-1.4-0.5-2.5c0-0.8,0.2-1.7,0.5-2.5
		c0.2-0.6,0.7-1.1,1.2-1.1s1,0.3,1.2,1.1C1201.1,387.5,1201.4,388.4,1201.4,389.2z"/>
	
		<linearGradient id="SVGID_00000012436894768687576520000008546189617954630067_" gradientUnits="userSpaceOnUse" x1="1306.0093" y1="1370.0768" x2="959.4102" y2="1370.0768" gradientTransform="matrix(1 0 0 1 0 -962)">
		<stop  offset="2.770450e-07" style="stop-color:#164383"/>
		<stop  offset="1" style="stop-color:#164383"/>
	</linearGradient>
	<path style="fill:url(#SVGID_00000012436894768687576520000008546189617954630067_);" d="M1208.6,402c0.5-1.7,1.2-2.8,1.7-3.3
		c0.7-0.8,1.2-1.1,1.9-1.1c0.5,0,1.2,0.3,1.7,0.8c0.5,0.6,0.7,1.4,1,2.2c0.2,0.8,0.2,1.9,0.2,3.6v9.4c0,1.4,0,2.2,0.2,2.5
		c0,0.6,0.2,0.8,0.7,0.8c0.2,0,0.5,0.3,0.5,0.8c0,0.6-0.2,0.6-0.5,0.6c-0.2,0-0.7,0-1.7-0.3c-0.2,0-0.5,0-0.7,0
		c-0.2,0-0.7,0-1.5,0.3h-0.5c-0.2,0-0.5-0.3-0.5-0.6c0-0.3,0.2-0.6,0.5-0.6s0.5-0.3,0.7-0.6c0.2-0.3,0.2-1.4,0.2-3.9
		c0-2.2,0-4.4,0-6.7c0-2.5,0-4.2-0.2-5c-0.2-0.8-0.5-1.4-1.2-1.4s-1.2,1.1-1.9,3.1c-0.5,1.9-1,5-1,9.2c0,1.7,0,2.8,0,3.6
		c0,0.8,0.2,1.1,0.2,1.4c0,0.3,0.2,0.3,0.7,0.6c0.2,0,0.2,0.3,0.2,0.6c0,0.6-0.2,0.6-0.5,0.6s-0.2,0-0.5,0c-0.7,0-1.2-0.3-1.2-0.3
		c-1.2,0-1.9,0-2.7,0.3h-0.2c-0.2,0-0.5-0.3-0.5-0.6c0-0.3,0.2-0.6,0.5-0.6c0.5,0,0.7-0.3,0.7-0.6c0-0.3,0.2-1.4,0.2-3.3
		c0-1.9,0-4.2,0-6.7c0-3.3,0-5.3-0.2-6.1c0-0.8-0.5-1.4-0.7-1.7c-0.2-0.3-0.5-0.6-0.5-0.8s0.2-0.6,0.7-0.6c1.2,0,2.4,0,3.1-0.3
		C1208.4,398.6,1208.4,400.3,1208.6,402z"/>
	
		<linearGradient id="SVGID_00000116200958535077776330000012409988119896659110_" gradientUnits="userSpaceOnUse" x1="1306.007" y1="1376.1808" x2="959.4102" y2="1376.1808" gradientTransform="matrix(1 0 0 1 0 -962)">
		<stop  offset="2.770450e-07" style="stop-color:#164383"/>
		<stop  offset="1" style="stop-color:#164383"/>
	</linearGradient>
	<path style="fill:url(#SVGID_00000116200958535077776330000012409988119896659110_);" d="M1226,399.5c1-1.7,1.7-2.5,2.4-2.5
		c0.5,0,0.7,0.3,1.2,0.8c0.2,0.6,0.5,1.1,0.5,1.9c0,0.6,0,1.1-0.2,1.7c-0.2,0.6-0.5,0.8-0.7,0.8c-0.5,0-1-0.6-1-1.7
		c-0.2-0.8-0.2-1.1-0.5-1.1c-0.2,0-0.5,0.3-1,1.1c0.5,1.4,0.7,2.8,0.7,4.2c0,1.4-0.2,2.8-0.7,4.2c-0.5,1.4-1,2.2-1.5,2.8
		c-0.5,0.6-1.5,0.8-2.4,1.1c-1,0.3-1.5,0.6-1.7,0.8c-0.2,0.6-0.2,0.8-0.2,1.4s0.2,1.1,0.7,1.1c0.5,0.3,1.7,0.3,3.4,0.6
		c2.9,0.3,4.4,2.2,4.4,5.8c0,2.5-0.5,4.7-1.7,6.4c-1.2,1.7-2.7,2.5-4.8,2.5c-1.7,0-2.9-0.6-3.6-1.4c-0.7-1.1-1.2-2.2-1.2-3.6
		c0-1.4,0.2-2.5,1-3.6c0.5-1.1,1.5-1.7,2.7-2.2c-1-0.3-1.7-0.6-2.2-1.1c-0.5-0.6-0.7-1.4-0.7-2.5s0.2-2.2,0.7-2.8
		c0.5-0.8,1-1.4,1.9-1.7c-1-0.6-1.5-1.4-1.9-2.5c-0.5-1.1-0.7-2.5-0.7-3.9c0-2.2,0.5-4.2,1.5-5.8c1-1.7,1.9-2.2,3.4-2.2
		c0.7,0,1.2,0.3,1.7,0.6C1225,398.4,1225.5,398.9,1226,399.5z M1219.7,425.8c0,1.1,0.2,1.9,0.7,2.8c0.5,0.8,1.2,1.1,2.2,1.1
		c1.2,0,2.2-0.6,2.9-1.7c0.7-1.1,1.2-2.5,1.2-3.9c0-1.1-0.2-1.9-1-2.8c-0.7-0.6-1.5-0.8-2.4-0.8c-1.2,0-1.9,0.6-2.7,1.4
		C1220.2,423.3,1219.7,424.4,1219.7,425.8z M1220.9,404.5c0,1.9,0.2,3.6,0.5,4.7c0.2,1.1,0.7,1.7,1.2,1.7c0.5,0,0.7-0.6,1-1.4
		c0.2-0.8,0.2-2.5,0.2-4.4c0-1.9-0.2-3.6-0.5-4.7c-0.2-1.1-0.7-1.7-1.2-1.7s-1,0.6-1.2,1.7C1221.2,401.4,1220.9,402.8,1220.9,404.5z
		"/>
	
		<linearGradient id="SVGID_00000181774818506949051210000011140734421273930650_" gradientUnits="userSpaceOnUse" x1="1306.0045" y1="1364.2502" x2="959.4078" y2="1364.2502" gradientTransform="matrix(1 0 0 1 0 -962)">
		<stop  offset="2.770450e-07" style="stop-color:#164383"/>
		<stop  offset="1" style="stop-color:#164383"/>
	</linearGradient>
	<path style="fill:url(#SVGID_00000181774818506949051210000011140734421273930650_);" d="M1237.4,386.4c4.1,0.3,7,0.3,8.9,0.3
		c1.5,0,3.1,0,4.8-0.3c0.7,0,1.2,0,1.5,0c0.2,0,0.5,0,0.7,0c0,0.6,0,1.9,0.2,4.2l0.2,3.9c0,0.6-0.2,0.8-0.5,0.8
		c-0.2,0-0.5-0.3-0.5-1.1c-0.2-1.4-0.7-2.5-1.2-3.3s-1-1.7-1.7-1.9c-0.7-0.3-1.7-0.6-2.9-0.6c0,2.5-0.2,5.5-0.2,9.2
		c0,3.9,0,7.5,0,10.8c0,3.6,0.2,5.5,0.2,6.4c0,0.8,0.2,1.1,0.5,1.7c0.2,0.3,0.7,0.6,1.7,0.6c0.2,0,0.5,0.3,0.5,0.6
		c0,0.6-0.2,0.6-0.5,0.6h-0.2h-2.4c-1.9,0-2.9,0-3.4,0h-1.5c0,0-0.2,0-0.7,0c-0.2,0-0.2-0.3-0.2-0.6c0-0.6,0.2-0.6,0.5-0.6
		c0.7,0,1.2-0.3,1.5-0.8c0.2-0.6,0.5-1.4,0.7-2.8c0-1.4,0-4.2,0-8.3c0-6.7,0-12.2-0.2-16.6c-1.2,0-2.2,0-2.7,0.3
		c-0.5,0.3-1.2,0.8-1.7,1.7s-1,2.2-1.2,3.9c-0.2,0.6-0.2,0.8-0.5,0.8c-0.2,0-0.5-0.3-0.5-0.8c0-0.3,0-1.1,0.2-3.1
		C1237.1,389.5,1237.1,387.8,1237.4,386.4z"/>
	
		<linearGradient id="SVGID_00000022519078876691067740000018028332228172873115_" gradientUnits="userSpaceOnUse" x1="1306.0093" y1="1370.4929" x2="959.4102" y2="1370.4929" gradientTransform="matrix(1 0 0 1 0 -962)">
		<stop  offset="2.770450e-07" style="stop-color:#164383"/>
		<stop  offset="1" style="stop-color:#164383"/>
	</linearGradient>
	<path style="fill:url(#SVGID_00000022519078876691067740000018028332228172873115_);" d="M1260.6,416.1c-0.5,0.8-1,1.7-1.5,2.2
		c-0.5,0.6-1,0.8-1.5,0.8c-0.7,0-1.5-0.6-1.9-1.4c-0.5-1.1-0.7-2.2-0.7-3.6c0-1.1,0.2-1.9,0.5-3.1c0.2-0.8,0.5-1.7,1-1.9
		c0.5-0.6,1-1.1,1.9-1.7c0.7-0.6,1.2-1.1,1.5-1.4c0.2-0.3,0.5-0.8,0.7-1.4s0.2-1.4,0.2-2.2c0-1.1-0.2-1.9-0.5-2.5
		c-0.2-0.6-0.5-0.8-1-0.8s-0.7,0.3-0.7,0.6c-0.2,0.3-0.2,1.1-0.5,1.9c-0.2,1.9-0.7,2.8-1.5,2.8c-0.2,0-0.5-0.3-0.7-0.6
		c-0.2-0.3-0.2-0.8-0.2-1.7c0-1.7,0.5-2.8,1.2-3.3c0.7-0.8,1.7-1.1,2.9-1.1c1,0,1.7,0.3,2.4,0.8c0.7,0.6,1,1.4,1.2,2.2
		c0.2,0.8,0.2,1.9,0.2,3.6v5.5c0,3.1,0,5,0.2,5.8c0,0.8,0.2,1.4,0.7,1.4c0,0,0,0,0.2,0c0.2,0,0.2,0,0.2,0c0.2,0,0.5,0.3,0.5,0.6
		c0,0.3,0,0.6-0.2,0.6c-0.2,0.3-0.5,0.3-1.2,0.6s-1.2,0.3-1.7,0.3c-0.5,0-1-0.3-1.2-0.6C1260.8,417.8,1260.6,417.2,1260.6,416.1z
		 M1260.8,406.4c-0.2,0.6-0.7,1.1-1.5,1.9c-0.7,0.8-1,1.4-1.2,1.9c-0.2,0.6-0.2,1.4-0.2,2.5s0,1.9,0.2,2.5c0.2,0.6,0.5,0.8,0.7,0.8
		c0.5,0,1-0.6,1.2-1.4c0.5-0.8,0.5-2.5,0.5-4.4C1260.8,409.7,1260.8,408.4,1260.8,406.4z"/>
	
		<linearGradient id="SVGID_00000057117433543536106140000003947047138692658320_" gradientUnits="userSpaceOnUse" x1="1306.0093" y1="1363.9728" x2="959.4127" y2="1363.9728" gradientTransform="matrix(1 0 0 1 0 -962)">
		<stop  offset="2.770450e-07" style="stop-color:#164383"/>
		<stop  offset="1" style="stop-color:#164383"/>
	</linearGradient>
	<path style="fill:url(#SVGID_00000057117433543536106140000003947047138692658320_);" d="M1270.5,385.6v20c0,6.4,0,10,0.2,10.5
		c0.2,0.6,0.5,0.8,1,0.8s0.7,0.3,0.7,0.6c0,0.6-0.2,0.8-0.5,0.8c0,0-0.2,0-0.5,0c-0.7,0-1.5-0.3-2.2-0.3c-1.2,0-1.9,0-2.7,0.3
		c-0.2,0-0.2,0-0.5,0c-0.2,0-0.5-0.3-0.5-0.6c0-0.3,0.2-0.6,0.5-0.6c0.5,0,0.7-0.3,1-0.6c0.2-0.3,0.2-0.6,0.2-1.1c0-0.6,0-1.7,0-3.3
		v-9.4v-7.5c0-3.1,0-5-0.2-5.5c-0.2-0.6-0.5-1.1-1.2-1.4c-0.5,0-0.7-0.3-0.7-0.8c0-0.3,0-0.3,0.2-0.6c0,0,0.2-0.3,0.7-0.3
		C1268.3,386.7,1269.5,386.2,1270.5,385.6z"/>
	
		<linearGradient id="SVGID_00000005980935605601217790000016218482941070878869_" gradientUnits="userSpaceOnUse" x1="1306.007" y1="1369.938" x2="959.4078" y2="1369.938" gradientTransform="matrix(1 0 0 1 0 -962)">
		<stop  offset="2.770450e-07" style="stop-color:#164383"/>
		<stop  offset="1" style="stop-color:#164383"/>
	</linearGradient>
	<path style="fill:url(#SVGID_00000005980935605601217790000016218482941070878869_);" d="M1277,407.5c0,0.6,0,0.8,0,1.1
		c0,2.2,0.2,4.2,0.7,5.8c0.5,1.7,1.2,2.2,2.2,2.2c1,0,1.9-0.8,2.7-2.5c0.2-0.3,0.2-0.6,0.5-0.6c0.2,0,0.2,0.3,0.2,0.6
		c0,0.3-0.2,1.1-0.7,1.9c-0.5,0.8-1,1.7-1.7,1.9c-0.7,0.6-1.5,0.6-2.2,0.6c-1.7,0-2.9-1.1-3.6-3.1c-1-1.9-1.5-4.4-1.5-6.9
		c0-3.3,0.5-5.8,1.5-8c1-2.2,2.4-3.3,3.9-3.3s2.7,1.1,3.4,3.1c0.7,1.9,1.2,3.9,1.2,5.8c0,0.6,0,0.8-0.2,1.1
		c-0.2,0.3-0.7,0.3-1.5,0.3L1277,407.5z M1277,405.9c1.2,0,1.9,0,1.9,0c1,0,1.5,0,1.7-0.3c0.2-0.3,0.2-0.8,0.2-1.7
		c0-1.4-0.2-2.5-0.5-3.6c-0.5-1.1-0.7-1.4-1.2-1.4C1278,398.9,1277.3,401.1,1277,405.9z"/>
	
		<linearGradient id="SVGID_00000026163260523450924390000014549993975749535132_" gradientUnits="userSpaceOnUse" x1="1306.0093" y1="1370.0768" x2="959.4127" y2="1370.0768" gradientTransform="matrix(1 0 0 1 0 -962)">
		<stop  offset="2.770450e-07" style="stop-color:#164383"/>
		<stop  offset="1" style="stop-color:#164383"/>
	</linearGradient>
	<path style="fill:url(#SVGID_00000026163260523450924390000014549993975749535132_);" d="M1289.1,402c0.5-1.7,1.2-2.8,1.7-3.3
		c0.7-0.8,1.2-1.1,1.9-1.1c0.5,0,1.2,0.3,1.7,0.8c0.5,0.6,0.7,1.4,1,2.2c0.2,0.8,0.2,1.9,0.2,3.6v9.4c0,1.4,0,2.2,0.2,2.5
		c0,0.6,0.2,0.8,0.7,0.8c0.2,0,0.5,0.3,0.5,0.8c0,0.6-0.2,0.6-0.5,0.6c-0.2,0-0.7,0-1.7-0.3c-0.2,0-0.5,0-0.7,0
		c-0.2,0-0.7,0-1.5,0.3h-0.5c-0.2,0-0.5-0.3-0.5-0.6c0-0.3,0.2-0.6,0.5-0.6s0.5-0.3,0.7-0.6c0.2-0.3,0.2-1.4,0.2-3.9
		c0-2.2,0-4.4,0-6.7c0-2.5,0-4.2-0.2-5s-0.5-1.4-1-1.4c-0.7,0-1.2,1.1-1.9,3.1c-0.5,1.9-1,5-1,9.2c0,1.7,0,2.8,0,3.6
		c0,0.8,0.2,1.1,0.2,1.4c0,0.3,0.2,0.3,0.7,0.6c0.2,0,0.2,0.3,0.2,0.6c0,0.6-0.2,0.6-0.5,0.6c-0.2,0-0.2,0-0.5,0
		c-0.7,0-1.2-0.3-1.2-0.3c-1.2,0-1.9,0-2.7,0.3h-0.2c-0.2,0-0.5-0.3-0.5-0.6c0-0.3,0.2-0.6,0.5-0.6c0.5,0,0.7-0.3,0.7-0.6
		c0.2-0.3,0.2-1.4,0.2-3.3c0-1.9,0-4.2,0-6.7c0-3.3,0-5.3-0.2-6.1c0-0.8-0.5-1.4-0.7-1.7c-0.2-0.3-0.5-0.6-0.5-0.8s0.2-0.6,0.7-0.6
		c1.2,0,2.4,0,3.1-0.3C1288.9,398.6,1289.1,400.3,1289.1,402z"/>
	
		<linearGradient id="SVGID_00000169544095610977622880000013475132494881472184_" gradientUnits="userSpaceOnUse" x1="1306.0021" y1="1367.3021" x2="959.403" y2="1367.3021" gradientTransform="matrix(1 0 0 1 0 -962)">
		<stop  offset="2.770450e-07" style="stop-color:#164383"/>
		<stop  offset="1" style="stop-color:#164383"/>
	</linearGradient>
	<path style="fill:url(#SVGID_00000169544095610977622880000013475132494881472184_);" d="M1302.4,397.8c0.5,0,1.2,0,2.2,0
		c0.5,0,0.7,0,1.2,0.3c0,1.1-0.2,1.9-0.2,1.9s-1,0.3-2.9,0.6l-0.2,10.5c0,1.4,0,2.5,0,3.3s0.2,1.4,0.5,1.7c0.2,0.6,0.5,0.8,1,0.8
		c0.2,0,1-0.3,1.5-1.1l0.2-0.3c0.2,0,0.2,0.3,0.2,0.6c0,0.6-0.2,1.1-1,1.9c-0.7,0.8-1.5,1.1-2.2,1.1c-1,0-1.7-0.6-2.4-1.4
		c-0.5-1.1-1-3.1-1-6.4c0-3.6,0-7.2,0-10.8c-0.7,0-1.2,0-1.7,0c-0.2,0-0.5-0.3-0.5-0.6c0-0.3,0.2-0.6,0.5-0.8
		c0.7-0.3,1.5-0.8,1.9-1.9c0.5-0.8,1-2.2,1.5-4.2c0.2-0.8,0.2-1.4,0.2-1.4c0-0.3,0.2-0.3,0.2-0.3c0.2,0,0.2,0.3,0.2,1.1
		L1302.4,397.8L1302.4,397.8z"/>
</g>
</svg>
